<?xml version="1.0" encoding="utf-8"?>
<!-- Generator: Adobe Illustrator 16.0.0, SVG Export Plug-In . SVG Version: 6.00 Build 0)  -->
<!DOCTYPE svg PUBLIC "-//W3C//DTD SVG 1.1//EN" "http://www.w3.org/Graphics/SVG/1.1/DTD/svg11.dtd">
<svg version="1.1" id="Layer_1" xmlns="http://www.w3.org/2000/svg" xmlns:xlink="http://www.w3.org/1999/xlink" x="0px" y="0px"
	 width="188.613px" height="104.111px" viewBox="0 0 188.613 104.111" enable-background="new 0 0 188.613 104.111"
	 xml:space="preserve">
<pattern  x="-386.188" y="-229.187" width="123" height="124" patternUnits="userSpaceOnUse" id="New_Pattern_4" viewBox="0 -124 123 124" overflow="visible">
	<g>
		<polygon fill="none" points="0,-124 123,-124 123,0 0,0 		"/>
		<path fill="#F2D039" d="M52.275-49.22c-4.082-2.972-5.48-6.909-5.382-11.84c0.183-6.759,0.551-13.437,0.915-20.206
			c0.052-0.732,0.104-1.465,0.247-2.201c1.993,1.442,4.394,3.684,5.521,5.994c1.733,3.372,3.406,2.279,6.953,2.088
			c1.818-0.099,3.571,0.263,5.304,0.26c1.279,0.022,2.148-0.754,3.205-1.449c1.051-0.785,2.23-1.563,3.415-2.367l4.656-3.541
			c-0.361,1.752,0.015,3.646-0.073,5.385c-0.135,2.561-0.548,5.045-0.684,7.607c-0.191,3.202,0.187,6.83-0.46,10.057
			c-0.495,2.672-2.193,6.686-4.388,8.264c-1.319,0.892-2.888,2.254-4.309,2.969c-1.512,0.719-3.537,0.373-5.25,0.738
			C58.43-46.725,55.409-46.926,52.275-49.22z M69.184-62.082c5.743-0.036,4.328-9.354-1.037-9.064l0.393,0.526
			C63.872-70.915,64.074-62.078,69.184-62.082z M53.672-70.638l0.768,0.688c-3.871-2.437-7.127,4.854-2.729,6.896
			C58.263-59.941,59.285-71.397,53.672-70.638z M57.158-51.957c1.625-0.086,2.752-0.916,3.42-1.609
			c0.104,0.591,0.278,1.003,0.556,1.107c1.364,0.516,4.283,1.422,6.937-3.021c0,0-0.864-0.496-1.008-0.238
			c-0.141,0.258-1.542,2.312-2.891,2.259c0,0-1.842,0.819-2.438,0.168c-0.646-0.704-0.696-4.549-0.55-6.591
			c1.059-0.344,3.104-1.168,2.146-2.135c-1.268-1.281-5.266-0.209-5.266-0.209c-0.127,1.533,2.537,2.518,2.537,2.518
			s0.047-0.012,0.125-0.033c-0.138,1.258-0.316,3.266-0.266,4.859c-1.059,1.458-2.102,2.096-3.734,2.184
			c-1.408,0.076-2.734-2.516-2.734-2.516s0.335-0.176-0.462-0.019C52.732-55.076,54.318-51.805,57.158-51.957z"/>
		<path fill="#F2D039" d="M55.742-67.975l0.086-0.096c-0.924-0.223-2.414-0.781-3.289-0.095c-0.875,0.685-0.695,2.317,0.071,3.005
			C54.437-63.434,57.967-65.631,55.742-67.975z"/>
		<path fill="#F2D039" d="M69.791-64.537c3.591,0.627,2.118-4.675-0.777-4.244l0.92,0.132
			C67.009-68.764,67.396-64.955,69.791-64.537z"/>
		<path fill="#F2D039" d="M113.776-108.446c2.998,2.194,5.898,2.463,9.224,1.837v-4.945c-0.131-0.045-0.255-0.088-0.365-0.131
			c-0.277-0.104-0.453-0.517-0.557-1.107c-0.668,0.693-1.795,1.523-3.42,1.609c-2.84,0.152-4.425-3.119-3.627-3.276
			c0.797-0.157,0.461,0.019,0.461,0.019s1.327,2.592,2.734,2.516c1.633-0.088,2.676-0.726,3.734-2.184
			c-0.05-1.594,0.129-3.602,0.266-4.859c-0.078,0.021-0.124,0.033-0.124,0.033s-2.665-0.984-2.538-2.518
			c0,0,1.853-0.496,3.436-0.409V-124h-4.579c-0.74,1.801-2.501,3.007-5.21,1.721c-0.873-0.406-1.439-1.02-1.765-1.721h-2.929
			c-0.045,1.236-0.09,2.473-0.123,3.714C108.295-115.355,109.693-111.418,113.776-108.446z"/>
		<path fill="#F2D039" d="M123-112.983v-6.233c-0.111,0.039-0.219,0.076-0.316,0.107C122.559-117.35,122.579-114.258,123-112.983z"
			/>
		<path fill="#F2D039" d="M116.725-124h-2.034C115.352-123.685,116.105-123.723,116.725-124z"/>
		<path fill="#F2D039" d="M115.078-12.699c-1.129-2.311-3.529-4.552-5.521-5.994c-0.145,0.736-0.195,1.469-0.247,2.201
			c-0.298,5.526-0.593,10.994-0.792,16.492h2.929c-1.312-2.834,1.391-7.129,4.493-5.176l-0.768-0.688
			c3.293-0.446,4.299,3.31,3.249,5.864H123v-10.612c-0.322-0.007-0.644-0.017-0.969,0.001
			C118.484-10.42,116.811-9.327,115.078-12.699z"/>
		<path fill="#F2D039" d="M117.243-3.201l0.085-0.096c-0.924-0.223-2.414-0.781-3.288-0.095c-0.875,0.685-0.696,2.317,0.071,3.005
			c0.178,0.168,0.375,0.289,0.579,0.387h2.034C117.871-0.514,118.545-1.829,117.243-3.201z"/>
		<path fill="#F2D039" d="M5.697-107.428c1.422-0.715,2.99-2.077,4.309-2.969c2.195-1.578,3.894-5.592,4.389-8.264
			c0.342-1.709,0.396-3.529,0.4-5.34h-3.578c-0.383,1.498-1.502,2.679-3.533,2.691c-1.879,0.002-3.088-1.195-3.641-2.691H0v2.138
			c0.742,0.041,1.426,0.208,1.83,0.618c0.87,0.879-0.734,1.637-1.83,2.027v6.233c0.067,0.205,0.145,0.367,0.234,0.465
			c0.597,0.651,2.438-0.168,2.438-0.168c1.35,0.054,2.75-2.001,2.892-2.259c0.144-0.258,1.007,0.238,1.007,0.238
			c-2.438,4.082-5.096,3.649-6.57,3.152v4.945c0.15-0.028,0.296-0.048,0.447-0.08C2.16-107.055,4.186-106.709,5.697-107.428z"/>
		<path fill="#F2D039" d="M9.846-124H7.622c0.202,0.107,0.423,0.193,0.669,0.236C8.999-123.641,9.504-123.752,9.846-124z"/>
		<path fill="#F2D039" d="M14.854-4.717c0.137-2.562,0.549-5.047,0.684-7.607c0.088-1.738-0.287-3.633,0.074-5.385l-4.656,3.541
			c-1.185,0.804-2.365,1.582-3.416,2.367c-1.057,0.695-1.926,1.472-3.205,1.449C2.912-10.35,1.475-10.579,0-10.612V0h4.043
			C3.091-2.572,4.089-6.033,7.04-5.847L6.646-6.373C10.115-6.56,11.916-2.74,11.217,0h3.578C14.799-1.609,14.764-3.211,14.854-4.717
			z"/>
		<path fill="#F2D039" d="M7.515-4.008l0.919,0.132C5.811-3.979,5.857-0.932,7.622,0h2.224C11.24-1.01,9.839-4.354,7.515-4.008z"/>
		<polygon fill="#F2D039" points="31,-97 31,-100 25,-100 25,-97 		"/>
		<polygon fill="#F2D039" points="22,-100 17,-100 17,-97 22,-97 		"/>
		<polygon fill="#F2D039" points="25,-105 22,-105 22,-100 25,-100 		"/>
		<polygon fill="#F2D039" points="22,-91 25,-91 25,-97 22,-97 		"/>
		<polygon fill="#F2D039" points="25,-97 25,-100 22,-100 22,-97 		"/>
		<polygon fill="#F2D039" points="69,-123 69,-124 63,-124 63,-123 		"/>
		<polygon fill="#F2D039" points="60,-123 60,-124 55,-124 55,-123 		"/>
		<polygon fill="#F2D039" points="60,-117 63,-117 63,-123 60,-123 		"/>
		<polygon fill="#F2D039" points="63,-123 63,-124 60,-124 60,-123 		"/>
		<polygon fill="#F2D039" points="55,-2 55,0 60,0 60,-2 		"/>
		<polygon fill="#F2D039" points="69,-2 63,-2 63,0 69,0 		"/>
		<polygon fill="#F2D039" points="60,-7 60,-2 63,-2 63,-7 		"/>
		<polygon fill="#F2D039" points="60,-2 60,0 63,0 63,-2 		"/>
		<polygon fill="#F2D039" points="89,-35 83,-35 83,-32 89,-32 		"/>
		<polygon fill="#F2D039" points="97,-32 97,-35 92,-35 92,-32 		"/>
		<polygon fill="#F2D039" points="89,-26 92,-26 92,-32 89,-32 		"/>
		<polygon fill="#F2D039" points="92,-40 89,-40 89,-35 92,-35 		"/>
		<polygon fill="#F2D039" points="92,-32 92,-35 89,-35 89,-32 		"/>
		<polygon fill="#F2D039" points="18,-30 32,-30 32,-33 18,-33 		"/>
		<polygon fill="#F2D039" points="7,-68 0,-68 0,-65 7,-65 		"/>
		<polygon fill="#F2D039" points="117,-65 123,-65 123,-68 117,-68 		"/>
		<polygon fill="#F2D039" points="97,-100 83,-100 83,-97 97,-97 		"/>
	</g>
</pattern>
<pattern  x="-386.188" y="-229.187" width="123" height="124" patternUnits="userSpaceOnUse" id="New_Pattern_6" viewBox="0 -124 123 124" overflow="visible">
	<g>
		<polygon fill="none" points="0,-124 123,-124 123,0 0,0 		"/>
		<path fill="#DC5136" d="M52.275-49.22c-4.082-2.972-5.48-6.909-5.382-11.84c0.183-6.759,0.551-13.437,0.915-20.206
			c0.052-0.732,0.104-1.465,0.247-2.201c1.993,1.442,4.394,3.684,5.521,5.994c1.733,3.372,3.406,2.279,6.953,2.088
			c1.818-0.099,3.571,0.263,5.304,0.26c1.279,0.022,2.148-0.754,3.205-1.449c1.051-0.785,2.23-1.563,3.415-2.367l4.656-3.541
			c-0.361,1.752,0.015,3.646-0.073,5.385c-0.135,2.561-0.548,5.045-0.684,7.607c-0.191,3.202,0.187,6.83-0.46,10.057
			c-0.495,2.672-2.193,6.686-4.388,8.264c-1.319,0.892-2.888,2.254-4.309,2.969c-1.512,0.719-3.537,0.373-5.25,0.738
			C58.43-46.725,55.409-46.926,52.275-49.22z M69.184-62.082c5.743-0.036,4.328-9.354-1.037-9.064l0.393,0.526
			C63.872-70.915,64.074-62.078,69.184-62.082z M53.672-70.638l0.768,0.688c-3.871-2.437-7.127,4.854-2.729,6.896
			C58.263-59.941,59.285-71.397,53.672-70.638z M57.158-51.957c1.625-0.086,2.752-0.916,3.42-1.609
			c0.104,0.591,0.278,1.003,0.556,1.107c1.364,0.516,4.283,1.422,6.937-3.021c0,0-0.864-0.496-1.008-0.238
			c-0.141,0.258-1.542,2.312-2.891,2.259c0,0-1.842,0.819-2.438,0.168c-0.646-0.704-0.696-4.549-0.55-6.591
			c1.059-0.344,3.104-1.168,2.146-2.135c-1.268-1.281-5.266-0.209-5.266-0.209c-0.127,1.533,2.537,2.518,2.537,2.518
			s0.047-0.012,0.125-0.033c-0.138,1.258-0.316,3.266-0.266,4.859c-1.059,1.458-2.102,2.096-3.734,2.184
			c-1.408,0.076-2.734-2.516-2.734-2.516s0.335-0.176-0.462-0.019C52.732-55.076,54.318-51.805,57.158-51.957z"/>
		<path fill="#DC5136" d="M55.742-67.975l0.086-0.096c-0.924-0.223-2.414-0.781-3.289-0.095c-0.875,0.685-0.695,2.317,0.071,3.005
			C54.437-63.434,57.967-65.631,55.742-67.975z"/>
		<path fill="#DC5136" d="M69.791-64.537c3.591,0.627,2.118-4.675-0.777-4.244l0.92,0.132
			C67.009-68.764,67.396-64.955,69.791-64.537z"/>
		<path fill="#DC5136" d="M113.776-108.446c2.998,2.194,5.898,2.463,9.224,1.837v-4.945c-0.131-0.045-0.255-0.088-0.365-0.131
			c-0.277-0.104-0.453-0.517-0.557-1.107c-0.668,0.693-1.795,1.523-3.42,1.609c-2.84,0.152-4.425-3.119-3.627-3.276
			c0.797-0.157,0.461,0.019,0.461,0.019s1.327,2.592,2.734,2.516c1.633-0.088,2.676-0.726,3.734-2.184
			c-0.05-1.594,0.129-3.602,0.266-4.859c-0.078,0.021-0.124,0.033-0.124,0.033s-2.665-0.984-2.538-2.518
			c0,0,1.853-0.496,3.436-0.409V-124h-4.579c-0.74,1.801-2.501,3.007-5.21,1.721c-0.873-0.406-1.439-1.02-1.765-1.721h-2.929
			c-0.045,1.236-0.09,2.473-0.123,3.714C108.295-115.355,109.693-111.418,113.776-108.446z"/>
		<path fill="#DC5136" d="M123-112.983v-6.233c-0.111,0.039-0.219,0.076-0.316,0.107C122.559-117.35,122.579-114.258,123-112.983z"
			/>
		<path fill="#DC5136" d="M116.725-124h-2.034C115.352-123.685,116.105-123.723,116.725-124z"/>
		<path fill="#DC5136" d="M115.078-12.699c-1.129-2.311-3.529-4.552-5.521-5.994c-0.145,0.736-0.195,1.469-0.247,2.201
			c-0.298,5.526-0.593,10.994-0.792,16.492h2.929c-1.312-2.834,1.391-7.129,4.493-5.176l-0.768-0.688
			c3.293-0.446,4.299,3.31,3.249,5.864H123v-10.612c-0.322-0.007-0.644-0.017-0.969,0.001
			C118.484-10.42,116.811-9.327,115.078-12.699z"/>
		<path fill="#DC5136" d="M117.243-3.201l0.085-0.096c-0.924-0.223-2.414-0.781-3.288-0.095c-0.875,0.685-0.696,2.317,0.071,3.005
			c0.178,0.168,0.375,0.289,0.579,0.387h2.034C117.871-0.514,118.545-1.829,117.243-3.201z"/>
		<path fill="#DC5136" d="M5.697-107.428c1.422-0.715,2.99-2.077,4.309-2.969c2.195-1.578,3.894-5.592,4.389-8.264
			c0.342-1.709,0.396-3.529,0.4-5.34h-3.578c-0.383,1.498-1.502,2.679-3.533,2.691c-1.879,0.002-3.088-1.195-3.641-2.691H0v2.138
			c0.742,0.041,1.426,0.208,1.83,0.618c0.87,0.879-0.734,1.637-1.83,2.027v6.233c0.067,0.205,0.145,0.367,0.234,0.465
			c0.597,0.651,2.438-0.168,2.438-0.168c1.35,0.054,2.75-2.001,2.892-2.259c0.144-0.258,1.007,0.238,1.007,0.238
			c-2.438,4.082-5.096,3.649-6.57,3.152v4.945c0.15-0.028,0.296-0.048,0.447-0.08C2.16-107.055,4.186-106.709,5.697-107.428z"/>
		<path fill="#DC5136" d="M9.846-124H7.622c0.202,0.107,0.423,0.193,0.669,0.236C8.999-123.641,9.504-123.752,9.846-124z"/>
		<path fill="#DC5136" d="M14.854-4.717c0.137-2.562,0.549-5.047,0.684-7.607c0.088-1.738-0.287-3.633,0.074-5.385l-4.656,3.541
			c-1.185,0.804-2.365,1.582-3.416,2.367c-1.057,0.695-1.926,1.472-3.205,1.449C2.912-10.35,1.475-10.579,0-10.612V0h4.043
			C3.091-2.572,4.089-6.033,7.04-5.847L6.646-6.373C10.115-6.56,11.916-2.74,11.217,0h3.578C14.799-1.609,14.764-3.211,14.854-4.717
			z"/>
		<path fill="#DC5136" d="M7.515-4.008l0.919,0.132C5.811-3.979,5.857-0.932,7.622,0h2.224C11.24-1.01,9.839-4.354,7.515-4.008z"/>
		<polygon fill="#DC5136" points="31,-97 31,-100 25,-100 25,-97 		"/>
		<polygon fill="#DC5136" points="22,-100 17,-100 17,-97 22,-97 		"/>
		<polygon fill="#DC5136" points="25,-105 22,-105 22,-100 25,-100 		"/>
		<polygon fill="#DC5136" points="22,-91 25,-91 25,-97 22,-97 		"/>
		<polygon fill="#DC5136" points="25,-97 25,-100 22,-100 22,-97 		"/>
		<polygon fill="#DC5136" points="69,-123 69,-124 63,-124 63,-123 		"/>
		<polygon fill="#DC5136" points="60,-123 60,-124 55,-124 55,-123 		"/>
		<polygon fill="#DC5136" points="60,-117 63,-117 63,-123 60,-123 		"/>
		<polygon fill="#DC5136" points="63,-123 63,-124 60,-124 60,-123 		"/>
		<polygon fill="#DC5136" points="55,-2 55,0 60,0 60,-2 		"/>
		<polygon fill="#DC5136" points="69,-2 63,-2 63,0 69,0 		"/>
		<polygon fill="#DC5136" points="60,-7 60,-2 63,-2 63,-7 		"/>
		<polygon fill="#DC5136" points="60,-2 60,0 63,0 63,-2 		"/>
		<polygon fill="#DC5136" points="89,-35 83,-35 83,-32 89,-32 		"/>
		<polygon fill="#DC5136" points="97,-32 97,-35 92,-35 92,-32 		"/>
		<polygon fill="#DC5136" points="89,-26 92,-26 92,-32 89,-32 		"/>
		<polygon fill="#DC5136" points="92,-40 89,-40 89,-35 92,-35 		"/>
		<polygon fill="#DC5136" points="92,-32 92,-35 89,-35 89,-32 		"/>
		<polygon fill="#DC5136" points="18,-30 32,-30 32,-33 18,-33 		"/>
		<polygon fill="#DC5136" points="7,-68 0,-68 0,-65 7,-65 		"/>
		<polygon fill="#DC5136" points="117,-65 123,-65 123,-68 117,-68 		"/>
		<polygon fill="#DC5136" points="97,-100 83,-100 83,-97 97,-97 		"/>
	</g>
</pattern>
<g>
	<path fill="#747678" d="M188.304,95.415l-0.546,0.783l0.495,0.682l-0.869,0.692l0.2,0.476l-0.729,0.879l0.229,1.124l-1.002,0.334
		l0.81,0.624l-1.31,0.543v0.837l0.271,0.937l0.687,0.786l-170.354-0.889L0,8.095l1.502-1.838l-0.168-1.5c0,0,1.168,0,1.668-0.5
		c0.502-0.502,1.336-2.005,1.336-2.005l2.657-0.687L188.304,95.415z"/>
	<g>
		
			<radialGradient id="SVGID_1_" cx="-41.5566" cy="-246.2041" r="79.4614" gradientTransform="matrix(1.0264 0.0031 0.1408 1.2761 143.8496 361.9272)" gradientUnits="userSpaceOnUse">
			<stop  offset="0" style="stop-color:#F6E867"/>
			<stop  offset="0.2846" style="stop-color:#F5E460"/>
			<stop  offset="0.7003" style="stop-color:#F4DA4C"/>
			<stop  offset="1" style="stop-color:#F2D03A"/>
		</radialGradient>
		<polygon fill="url(#SVGID_1_)" points="125.075,95.225 18.47,94.901 8.008,0.015 114.613,0.337 		"/>
		
			<pattern  id="SVGID_2_" xlink:href="#New_Pattern_4" patternTransform="matrix(0.2163 6.555330e-04 0.0231 0.2099 -5147.0596 -5981.9263)">
		</pattern>
		<polygon fill="url(#SVGID_2_)" points="188.613,95.434 18.609,94.918 8.145,0 178.148,0.518 		"/>
		<path fill="#DC5136" d="M178.141,0.671L64.514,0.328c8.687,30.284,5.947,60.695,11.918,91.041
			c0.139,1.002,0.345,2.673,0.479,3.711l111.576-0.541L178.141,0.671z"/>
		<path fill="#F1623D" d="M178.122,0.529L67.134,0.192C75,30.599,72.105,60.973,77.245,91.37c0.11,1.004,0.27,2.672,0.372,3.713
			l110.97,0.334L178.122,0.529z"/>
		
			<pattern  id="SVGID_3_" xlink:href="#New_Pattern_6" patternTransform="matrix(0.292 8.854485e-04 0.0306 0.2773 -4608.8633 -5448.3125)">
		</pattern>
		<path fill="url(#SVGID_3_)" d="M178.146,0.495L67.104,0.157c7.869,30.431,4.975,60.825,10.12,91.248
			c0.11,1.003,0.268,2.674,0.375,3.714l111.015,0.338L178.146,0.495z"/>
		<polygon fill="#DC5136" points="92.035,20.698 91.177,19.939 92.256,19.183 		"/>
		<polygon fill="#DC5136" points="102.785,33.409 102.034,32.689 103.087,31.277 104.207,31.604 		"/>
		<polygon fill="#DC5136" points="118.756,30.794 117.943,29.993 118.154,28.546 120.023,28.97 		"/>
		<polygon fill="#DC5136" points="122.413,18.286 121.547,17.524 123.733,15.887 		"/>
		<polygon fill="#DC5136" points="129.595,31.572 128.758,30.802 130.795,29.302 		"/>
		<polygon fill="#DC5136" points="138.923,10.399 139.835,11.089 138.29,11.553 		"/>
		<polygon fill="#DC5136" points="83.035,58.319 82.177,57.545 84.053,56.628 		"/>
		<polygon fill="#DC5136" points="94.323,53.987 93.585,53.547 94.347,52.167 95.108,54.006 		"/>
		<polygon fill="#DC5136" points="100.649,58.47 99.936,57.705 101.019,56.766 102.194,57.616 		"/>
		<polygon fill="#DC5136" points="105.143,37.531 106.052,38.201 104.961,38.838 		"/>
		<polygon fill="#DC5136" points="124.268,38.188 125.195,38.874 124.174,39.56 		"/>
		<polygon fill="#DC5136" points="109.043,57.554 108.34,56.821 110.414,55.638 		"/>
		<path fill="#DC5136" d="M125.714,59.101c0,0-0.874-0.677-0.888-0.782c-0.011-0.103,0.714-2.172,0.714-2.172L125.714,59.101z"/>
		<polygon fill="#DC5136" points="139.995,59.143 139.14,58.416 140.241,57.02 		"/>
		<polygon fill="#DC5136" points="147.533,37.146 147.597,37.24 148.215,38.158 147.589,38.647 		"/>
		<polygon fill="#DC5136" points="131.869,46.308 130.995,45.583 132.546,44.319 		"/>
		<polygon fill="#DC5136" points="160.171,38.722 159.297,38.062 159.032,39.382 		"/>
		<polygon fill="#DC5136" points="154.975,58.96 154.133,58.202 155.838,57.353 		"/>
		<polygon fill="#DC5136" points="169.063,59.134 168.149,58.322 169.819,57.395 		"/>
		<polygon fill="#DC5136" points="173.396,38.181 174.321,38.796 172.947,39.784 		"/>
		<polygon fill="#DC5136" points="90.006,86.139 89.257,85.411 90.238,84.664 		"/>
		<g>
			<path fill="#DC5136" stroke="#DC5136" stroke-width="0.6348" stroke-miterlimit="10" d="M99.46,28.735
				c-1.646,1.708-4.662,3.263-8.109,3.305c-6.137,0.079-11.35-3.639-12.165-9.998c-0.824-6.417,3.426-10.256,9.566-10.333
				c5.375-0.069,8.73,2.738,9.441,7.356l-5.985,1.27c-0.217-1.687-0.965-2.78-2.799-2.756c-2.227,0.027-3.648,1.588-3.29,4.375
				c0.345,2.729,2.16,4.249,4.635,4.215c2.136-0.026,3.793-0.949,5.046-2.129L99.46,28.735z"/>
			<path fill="#DC5136" stroke="#DC5136" stroke-width="0.6348" stroke-miterlimit="10" d="M104.632,12.401l7.683-1.3l13.092,18.22
				l-6.564,1.111l-1.919-2.8l-7.121,1.205l-0.117,3.146l-6.565,1.109L104.632,12.401z M110.034,23.988l3.964-0.671l-3.686-5.386
				L110.034,23.988z"/>
			<path fill="#DC5136" stroke="#DC5136" stroke-width="0.6348" stroke-miterlimit="10" d="M134.828,17.809l1.706,13.361
				l-6.715,0.085l-1.711-13.361l-5.495,0.071l-0.818-6.39l17.711-0.229l0.815,6.391L134.828,17.809z"/>
			<path fill="#DC5136" stroke="#DC5136" stroke-width="0.6348" stroke-miterlimit="10" d="M99.992,48.419l-4.379,5.589
				l-1.104-0.012l-5.538-5.681l1.002,9.729l-6.736-0.061l-2.037-19.752l5.512,0.052l7.484,7.324l5.984-7.198l5.509,0.052
				l2.04,19.749l-6.736-0.062L99.992,48.419z"/>
			<path fill="#DC5136" stroke="#DC5136" stroke-width="0.6348" stroke-miterlimit="10" d="M116.888,38.343l7.995,0.742l7.791,20.36
				l-6.826-0.631l-1.106-3.108l-7.412-0.685l-1.019,2.91l-6.821-0.636L116.888,38.343z M118.946,50.547l4.118,0.385l-2.116-5.974
				L118.946,50.547z"/>
			<path fill="#DC5136" stroke="#DC5136" stroke-width="0.6348" stroke-miterlimit="10" d="M144.09,44.963l2.753,13.309
				l-6.639,0.562l-2.751-13.31l-5.429,0.462l-1.317-6.367l17.497-1.483l1.314,6.367L144.09,44.963z"/>
			<path fill="#DC5136" stroke="#DC5136" stroke-width="0.6348" stroke-miterlimit="10" d="M168.51,51.53l-7.348-0.069l0.749,7.263
				l-6.73-0.064l-2.043-19.75l6.736,0.064l0.722,6.971l7.345,0.068l-0.722-6.97l6.736,0.062l2.034,19.751l-6.733-0.062L168.51,51.53
				z"/>
			<path fill="#DC5136" stroke="#DC5136" stroke-width="0.6348" stroke-miterlimit="10" d="M87.875,64.127l10.066,0.036
				c6.153,0.048,11.12,3.52,11.825,9.94c0.7,6.36-3.285,11.841-9.436,11.819l-10.061-0.032L87.875,64.127z M95.213,69.669
				l0.954,8.714l3.031,0.012c2.478,0.007,3.924-1.585,3.622-4.315c-0.305-2.788-2.104-4.39-4.579-4.399L95.213,69.669z"/>
			<path fill="#DC5136" stroke="#DC5136" stroke-width="0.6348" stroke-miterlimit="10" d="M122.584,63.147
				c6.423,0.022,11.713,4.588,12.381,10.684c0.665,6.035-2.973,11.151-9.393,11.13c-6.354-0.021-12.304-5.171-12.967-11.206
				C111.935,67.659,116.23,63.127,122.584,63.147z M124.228,78.097c2.588,0.012,4.103-1.893,3.838-4.29
				c-0.27-2.456-2.205-4.37-4.789-4.381c-2.529-0.011-4.101,1.896-3.831,4.351C119.705,76.175,121.704,78.089,124.228,78.097z"/>
		</g>
		<g>
			<path fill="#DC5136" stroke="#DC5136" stroke-width="0.4761" stroke-miterlimit="10" d="M98.661,28.046
				c-1.645,1.709-4.659,3.264-8.11,3.307c-6.137,0.08-11.35-3.638-12.162-9.997c-0.823-6.42,3.427-10.256,9.564-10.336
				c5.375-0.068,8.729,2.741,9.44,7.356l-5.984,1.27c-0.214-1.684-0.965-2.78-2.799-2.756c-2.227,0.028-3.648,1.589-3.293,4.377
				c0.348,2.73,2.165,4.249,4.638,4.215c2.136-0.025,3.795-0.949,5.047-2.129L98.661,28.046z"/>
			<path fill="#DC5136" stroke="#DC5136" stroke-width="0.4761" stroke-miterlimit="10" d="M103.83,11.711l7.688-1.3l13.09,18.223
				l-6.562,1.109l-1.919-2.8l-7.121,1.204l-0.12,3.146l-6.562,1.111L103.83,11.711z M109.235,23.3l3.964-0.669l-3.684-5.389
				L109.235,23.3z"/>
			<path fill="#DC5136" stroke="#DC5136" stroke-width="0.4761" stroke-miterlimit="10" d="M134.029,17.119l1.708,13.362
				l-6.717,0.085l-1.711-13.36l-5.493,0.071l-0.82-6.39l17.711-0.229l0.815,6.391L134.029,17.119z"/>
			<path fill="#DC5136" stroke="#DC5136" stroke-width="0.4761" stroke-miterlimit="10" d="M99.192,47.729l-4.381,5.589
				l-1.101-0.011l-5.541-5.683l1.005,9.732l-6.733-0.064l-2.04-19.753l5.512,0.054l7.484,7.327l5.985-7.201l5.512,0.054l2.036,19.75
				l-6.735-0.064L99.192,47.729z"/>
			<path fill="#DC5136" stroke="#DC5136" stroke-width="0.4761" stroke-miterlimit="10" d="M116.089,37.655l7.997,0.742
				l7.792,20.358l-6.827-0.63l-1.106-3.106l-7.412-0.687l-1.019,2.91l-6.826-0.635L116.089,37.655z M118.144,49.86l4.122,0.382
				l-2.114-5.972L118.144,49.86z"/>
			<path fill="#DC5136" stroke="#DC5136" stroke-width="0.4761" stroke-miterlimit="10" d="M143.294,44.273l2.75,13.309
				l-6.637,0.563l-2.751-13.31l-5.431,0.461l-1.318-6.364l17.503-1.484l1.31,6.365L143.294,44.273z"/>
			<path fill="#DC5136" stroke="#DC5136" stroke-width="0.4761" stroke-miterlimit="10" d="M167.711,50.841l-7.348-0.068
				l0.751,7.263l-6.736-0.062l-2.036-19.753l6.732,0.064l0.722,6.971l7.346,0.068l-0.722-6.969l6.733,0.062l2.042,19.75
				l-6.733-0.061L167.711,50.841z"/>
			<path fill="#DC5136" stroke="#DC5136" stroke-width="0.4761" stroke-miterlimit="10" d="M87.076,63.438l10.066,0.034
				c6.15,0.051,11.119,3.523,11.825,9.942c0.697,6.36-3.285,11.841-9.433,11.819l-10.066-0.033L87.076,63.438z M94.416,68.982
				l0.954,8.712l3.029,0.012c2.478,0.009,3.924-1.585,3.624-4.313c-0.308-2.791-2.104-4.394-4.581-4.401L94.416,68.982z"/>
			<path fill="#DC5136" stroke="#DC5136" stroke-width="0.4761" stroke-miterlimit="10" d="M121.752,62.428
				c6.418,0.024,11.711,4.59,12.382,10.684c0.662,6.036-2.973,11.152-9.396,11.129c-6.356-0.02-12.304-5.171-12.964-11.205
				C111.104,66.939,115.396,62.406,121.752,62.428z M123.394,77.378c2.59,0.011,4.103-1.893,3.838-4.29
				c-0.27-2.458-2.205-4.37-4.789-4.383c-2.523-0.009-4.104,1.896-3.833,4.354C118.871,75.456,120.87,77.371,123.394,77.378z"/>
		</g>
		<polygon fill="#DC5136" points="94.996,23.016 95.852,23.637 94.985,24.479 		"/>
		<polygon fill="#DC5136" points="111.518,10.159 112.41,10.811 111.576,11.622 		"/>
		<g>
			<path fill="#F2F2F2" d="M98.661,28.046c-1.645,1.709-4.659,3.264-8.11,3.307c-6.137,0.08-11.35-3.638-12.162-9.997
				c-0.823-6.42,3.427-10.256,9.564-10.336c5.375-0.068,8.729,2.741,9.44,7.356l-5.984,1.27c-0.214-1.684-0.965-2.78-2.799-2.756
				c-2.227,0.028-3.648,1.589-3.293,4.377c0.348,2.73,2.165,4.249,4.638,4.215c2.136-0.025,3.795-0.949,5.047-2.129L98.661,28.046z"
				/>
			<path fill="#F2F2F2" d="M103.83,11.711l7.688-1.3l13.09,18.223l-6.562,1.109l-1.919-2.8l-7.121,1.204l-0.12,3.146l-6.562,1.111
				L103.83,11.711z M109.235,23.3l3.964-0.669l-3.684-5.389L109.235,23.3z"/>
			<path fill="#F2F2F2" d="M134.029,17.119l1.708,13.362l-6.717,0.085l-1.711-13.36l-5.493,0.071l-0.82-6.39l17.711-0.229
				l0.815,6.391L134.029,17.119z"/>
			<path fill="#F2F2F2" d="M99.192,47.729l-4.381,5.589l-1.101-0.011l-5.541-5.683l1.005,9.732l-6.733-0.064l-2.04-19.753
				l5.512,0.054l7.484,7.327l5.985-7.201l5.512,0.054l2.036,19.75l-6.735-0.064L99.192,47.729z"/>
			<path fill="#F2F2F2" d="M116.089,37.655l7.997,0.742l7.792,20.358l-6.827-0.63l-1.106-3.106l-7.412-0.687l-1.019,2.91
				l-6.826-0.635L116.089,37.655z M118.144,49.86l4.122,0.382l-2.114-5.972L118.144,49.86z"/>
			<path fill="#F2F2F2" d="M143.294,44.273l2.75,13.309l-6.637,0.563l-2.751-13.31l-5.431,0.461l-1.318-6.364l17.503-1.484
				l1.31,6.365L143.294,44.273z"/>
			<path fill="#F2F2F2" d="M167.711,50.841l-7.348-0.068l0.751,7.263l-6.736-0.062l-2.036-19.753l6.732,0.064l0.722,6.971
				l7.346,0.068l-0.722-6.969l6.733,0.062l2.042,19.75l-6.733-0.061L167.711,50.841z"/>
			<path fill="#F2F2F2" d="M87.076,63.438l10.066,0.034c6.15,0.051,11.119,3.523,11.825,9.942c0.697,6.36-3.285,11.841-9.433,11.819
				l-10.066-0.033L87.076,63.438z M94.416,68.982l0.954,8.712l3.029,0.012c2.478,0.009,3.924-1.585,3.624-4.313
				c-0.308-2.791-2.104-4.394-4.581-4.401L94.416,68.982z"/>
			<path fill="#F2F2F2" d="M121.752,62.428c6.418,0.024,11.711,4.59,12.382,10.684c0.662,6.036-2.973,11.152-9.396,11.129
				c-6.356-0.02-12.304-5.171-12.964-11.205C111.104,66.939,115.396,62.406,121.752,62.428z M123.394,77.378
				c2.59,0.011,4.103-1.893,3.838-4.29c-0.27-2.458-2.205-4.37-4.789-4.383c-2.523-0.009-4.104,1.896-3.833,4.354
				C118.871,75.456,120.87,77.371,123.394,77.378z"/>
		</g>
		<path fill="none" d="M42.23,39.33c6.052-2.412,10.616-9.316,16.254-13.711c5.343-4.175,11.354-5.183,16.808-6.602"/>
		
			<text transform="matrix(0.6182 -0.4728 0.4069 0.7817 44.1489 38.6084)" fill="#F1623D" font-family="'Georgia-Italic'" font-size="8.4076">m</text>
		
			<text transform="matrix(0.5646 -0.5545 0.5419 0.6645 49.1323 34.5723)" fill="#F1623D" font-family="'Georgia-Italic'" font-size="8.4076">e</text>
		
			<text transform="matrix(0.5551 -0.5657 0.5613 0.645 51.4175 32.3115)" fill="#F1623D" font-family="'Georgia-Italic'" font-size="8.4076">e</text>
		
			<text transform="matrix(0.5667 -0.5518 0.5374 0.6689 53.5781 30.0879)" fill="#F1623D" font-family="'Georgia-Italic'" font-size="8.4076">a</text>
		
			<text transform="matrix(0.5933 -0.5152 0.4758 0.7255 56.2178 27.5283)" fill="#F1623D" font-family="'Georgia-Italic'" font-size="8.4076">t</text>
		
			<text transform="matrix(0.6287 -0.4513 0.3728 0.807 57.7847 26.0977)" fill="#F1623D" font-family="'Georgia-Italic'" font-size="8.4076">h</text>
		<g>
			<g>
				<g>
					<path fill="#1D427D" d="M57.351,33.999l-0.898-0.84c-1.179,1.007-6.02,7.208-7.057,8.178c-1.056,0.871-1.882,1.823-3.36,1.924
						c-1.997,0.171-4.103-0.051-6.175,0.237c-4.052,0.564-7.15,2.42-9.927-1.138c-1.831-2.447-3.694-5.167-6.324-6.564
						c0.003,0.829,0.112,1.65,0.219,2.462c1.142,7.521,2.253,14.952,3.601,22.447c1.021,5.463,3.539,9.684,8.936,12.565
						c4.143,2.221,7.674,2.147,11.561,0.983c1.893-0.58,4.309-0.396,5.88-1.342c1.481-0.936,2.975-2.591,4.288-3.711
						c2.173-1.966,3.202-6.573,3.162-9.581c-0.003-3.636-1.272-7.607-1.791-11.176c-0.433-2.841-0.526-5.632-0.962-8.479
						C58.206,38.032,57.334,35.969,57.351,33.999z M32.527,58.021c-5.543-1.82-3.472-10.211,1.561-7.901l-1.045-0.684
						C39.34,48.034,40.805,60.81,32.527,58.021z M45.838,68.803c-0.345-0.085-0.647-0.526-0.901-1.169
						c-0.607,0.831-1.719,1.864-3.574,2.123c-3.24,0.448-5.822-3.015-4.939-3.269c0.879-0.25,0.537-0.024,0.537-0.024
						s2.127,2.734,3.734,2.514c1.863-0.263,2.922-1.071,3.804-2.79c-0.425-1.758-0.679-3.995-0.81-5.403
						c-0.086,0.033-0.142,0.051-0.142,0.051s-3.295-0.823-3.501-2.531c0,0,4.362-1.588,6.121-0.291
						c1.329,0.97-0.839,2.087-1.986,2.573c0.305,2.275,1.248,6.523,2.154,7.236c0.836,0.663,2.774-0.428,2.774-0.428
						c1.566-0.075,2.71-2.484,2.814-2.785c0.104-0.3,1.219,0.163,1.219,0.163C51.101,69.952,47.527,69.24,45.838,68.803z
						 M52.905,57.354c-5.894,0.511-8.163-9.246-2.71-9.38l-0.578-0.544C55.741,46.579,59.519,56.748,52.905,57.354z"/>
				</g>
			</g>
			<polygon fill="#F2F2F2" points="54.148,44.424 26.748,47.649 30.193,65.808 46.539,73.244 60.125,61.657 			"/>
			<g>
				<g>
					<g>
						<path fill="#4478BB" d="M56.453,33.158l-4.56,4.382c-1.179,1.004-2.36,1.986-3.392,2.957
							c-1.059,0.873-1.884,1.823-3.363,1.922c-1.994,0.176-4.1-0.048-6.177,0.238c-4.05,0.564-5.723,1.943-8.498-1.613
							c-1.839-2.447-5.121-4.687-7.754-6.086c0,0.829,0.115,1.646,0.224,2.459c1.139,7.523,2.251,14.954,3.601,22.448
							c1.019,5.461,3.539,9.685,8.933,12.563c4.14,2.227,7.674,2.147,11.558,0.987c1.898-0.578,4.312-0.396,5.883-1.346
							c1.481-0.933,2.97-2.59,4.287-3.713c2.171-1.961,3.203-6.568,3.16-9.576c0.002-3.634-1.27-7.611-1.783-11.175
							c-0.441-2.846-0.529-5.635-0.965-8.48C57.308,37.195,56.439,35.129,56.453,33.158z M31.629,57.177
							c-5.544-1.82-3.472-10.207,1.558-7.897l-1.042-0.687C38.448,47.195,39.91,59.972,31.629,57.177z M44.935,67.965
							c-0.342-0.09-0.639-0.527-0.895-1.173c-0.61,0.835-1.719,1.865-3.571,2.123c-3.242,0.449-5.824-3.013-4.939-3.265
							c0.879-0.253,0.532-0.027,0.532-0.027s2.133,2.739,3.739,2.515c1.858-0.263,2.917-1.073,3.801-2.792
							c-0.422-1.755-0.682-3.992-0.812-5.399c-0.083,0.029-0.139,0.052-0.139,0.052s-3.293-0.828-3.499-2.534
							c0,0,4.36-1.583,6.119-0.294c1.331,0.974-0.842,2.094-1.981,2.576c0.3,2.272,1.24,6.522,2.149,7.239
							c0.836,0.66,2.777-0.431,2.777-0.431c1.564-0.073,2.703-2.487,2.815-2.786c0.102-0.298,1.21,0.167,1.21,0.167
							C50.201,69.11,46.629,68.399,44.935,67.965z M52.007,56.516c-5.896,0.513-8.163-9.246-2.71-9.385l-0.577-0.539
							C54.846,45.738,58.623,55.909,52.007,56.516z"/>
					</g>
				</g>
				<g>
					<path fill="#4478BB" d="M35.144,51.33l0.075-0.115c-1.117-0.152-2.964-0.62-3.812,0.226c-0.85,0.844-0.273,2.631,0.778,3.321
						C34.687,56.488,38.247,53.706,35.144,51.33z"/>
				</g>
				<g>
					<path fill="#4478BB" d="M50.267,49.122l1.091,0.054c-3.403,0.163-2.074,4.341,0.778,4.563
						C56.428,54.075,53.51,48.359,50.267,49.122z"/>
				</g>
			</g>
		</g>
	</g>
	
		<line fill="none" stroke="#5D5E60" stroke-width="0.2882" stroke-miterlimit="10" x1="187.79" y1="95.894" x2="18.609" y2="96.235"/>
	
		<line fill="none" stroke="#5D5E60" stroke-width="0.2882" stroke-miterlimit="10" x1="186.953" y1="99.137" x2="18.609" y2="99.043"/>
	
		<line fill="none" stroke="#5D5E60" stroke-width="0.2882" stroke-miterlimit="10" x1="187.479" y1="97.531" x2="18.299" y2="97.874"/>
	
		<line fill="none" stroke="#5D5E60" stroke-width="0.2882" stroke-miterlimit="10" x1="185.619" y1="101.496" x2="18.123" y2="100.774"/>
	
		<line fill="none" stroke="#5D5E60" stroke-width="0.2882" stroke-miterlimit="10" x1="187.79" y1="95.894" x2="18.609" y2="96.235"/>
	
		<line fill="none" stroke="#5D5E60" stroke-width="0.2882" stroke-miterlimit="10" x1="187.007" y1="98.597" x2="18.609" y2="99.043"/>
	
		<line fill="none" stroke="#5D5E60" stroke-width="0.2882" stroke-miterlimit="10" x1="187.479" y1="97.531" x2="18.299" y2="97.874"/>
	
		<line fill="none" stroke="#5D5E60" stroke-width="0.2882" stroke-miterlimit="10" x1="185.619" y1="102.577" x2="17.78" y2="101.333"/>
	
		<line fill="none" stroke="#5D5E60" stroke-width="0.2882" stroke-miterlimit="10" x1="187.79" y1="95.894" x2="18.609" y2="96.235"/>
	
		<line fill="none" stroke="#5D5E60" stroke-width="0.2882" stroke-miterlimit="10" x1="187.603" y1="98.042" x2="18.419" y2="98.385"/>
	
		<line fill="none" stroke="#5D5E60" stroke-width="0.2882" stroke-miterlimit="10" x1="187.479" y1="97.531" x2="18.299" y2="97.874"/>
	
		<line fill="none" stroke="#5D5E60" stroke-width="0.2882" stroke-miterlimit="10" x1="186.881" y1="101.009" x2="18.355" y2="100.395"/>
	
		<line fill="none" stroke="#5D5E60" stroke-width="0.2882" stroke-miterlimit="10" x1="188.25" y1="95.427" x2="18.609" y2="96.235"/>
	
		<line fill="none" stroke="#5D5E60" stroke-width="0.2882" stroke-miterlimit="10" x1="187.061" y1="100.002" x2="18.687" y2="99.992"/>
	
		<line fill="none" stroke="#5D5E60" stroke-width="0.2882" stroke-miterlimit="10" x1="187.653" y1="96.682" x2="18.473" y2="97.023"/>
	
		<line fill="none" stroke="#5D5E60" stroke-width="0.2882" stroke-miterlimit="10" x1="185.854" y1="103.297" x2="16.663" y2="102.412"/>
	<line fill="none" stroke="#5D5E60" stroke-width="0.2882" stroke-miterlimit="10" x1="18.31" y1="94.509" x2="4.165" y2="2.626"/>
	<path fill="none" stroke="#5D5E60" stroke-width="0.2882" stroke-miterlimit="10" d="M17.802,101.482"/>
	
		<line fill="none" stroke="#5D5E60" stroke-width="0.2882" stroke-miterlimit="10" x1="16.636" y1="102.498" x2="3.467" y2="3.768"/>
	<path fill="none" stroke="#5D5E60" stroke-width="0.2882" stroke-miterlimit="10" d="M17.802,101.482"/>
	
		<line fill="none" stroke="#5D5E60" stroke-width="0.2882" stroke-miterlimit="10" x1="18.336" y1="100.402" x2="1.775" y2="4.803"/>
	
		<line fill="none" stroke="#5D5E60" stroke-width="0.2882" stroke-miterlimit="10" x1="18.096" y1="100.954" x2="5.327" y2="2.076"/>
	
		<line fill="none" stroke="#5D5E60" stroke-width="0.2882" stroke-miterlimit="10" x1="17.802" y1="101.482" x2="0.232" y2="7.932"/>
	<line fill="none" stroke="#5D5E60" stroke-width="0.2882" stroke-miterlimit="10" x1="18.433" y1="96.749" x2="6.509" y2="1.779"/>
	<line fill="none" stroke="#5D5E60" stroke-width="0.2882" stroke-miterlimit="10" x1="18.614" y1="96.928" x2="2.831" y2="4.529"/>
	<line fill="none" stroke="#5D5E60" stroke-width="0.2882" stroke-miterlimit="10" x1="18.644" y1="100.044" x2="1.553" y2="7.21"/>
	
		<line fill="none" stroke="#5D5E60" stroke-width="0.2882" stroke-miterlimit="10" x1="17.802" y1="101.482" x2="0.655" y2="7.467"/>
</g>
</svg>
