<?xml version="1.0" encoding="utf-8"?>
<!-- Generator: Adobe Illustrator 16.0.0, SVG Export Plug-In . SVG Version: 6.00 Build 0)  -->
<!DOCTYPE svg PUBLIC "-//W3C//DTD SVG 1.1//EN" "http://www.w3.org/Graphics/SVG/1.1/DTD/svg11.dtd">
<svg version="1.1" id="Layer_1" xmlns="http://www.w3.org/2000/svg" xmlns:xlink="http://www.w3.org/1999/xlink" x="0px" y="0px"
	 width="162.224px" height="42.192px" viewBox="0 0 162.224 42.192" enable-background="new 0 0 162.224 42.192"
	 xml:space="preserve">
<g>
	<path fill="#235380" d="M88.367,36.643c13.239-1.684,44.992-3.438,57.973-5.608c8.091-1.109,18.201-0.337,15.411-17.183
		C158.976-2.915,55.515,7.909,48.008,9.518c-15.681,3.363-10.353,21.254-16.61,27.341c-3.029,2.947-5.081,4.112-6.058,4.373
		C27.306,41.445,73.902,38.346,88.367,36.643z"/>
</g>
<g>
	<path fill="#FFFFFF" d="M88.845,34.914c12.559-1.596,43.613-4.01,55.925-6.068c7.675-1.053,17.476-1.761,14.493-14.609
		C155.618-1.466,56.532,8.801,49.412,10.327c-14.875,3.19-9.826,17.578-15.345,24.92c-2.409,3.205-4.187,4.917-5.113,5.164
		C30.819,40.614,75.125,36.531,88.845,34.914z"/>
</g>
<g>
	<g>
		<g>
			<path fill="#1D427D" d="M36.501,5.64l-0.575-0.968c-1.392,0.735-7.741,5.706-8.992,6.433c-1.242,0.627-2.291,1.377-3.687,1.191
				c-1.893-0.215-3.77-0.823-5.768-0.942c-3.909-0.23-7.329,0.947-8.81-2.957c-0.946-2.67-1.842-5.606-3.841-7.43
				C4.576,1.756,4.431,2.554,4.282,3.345c-1.232,7.361-2.464,14.627-3.497,22.001c-0.72,5.381,0.321,9.864,4.422,13.622
				c3.145,2.895,6.426,3.494,10.365,3.121c1.925-0.192,4.097,0.438,5.833-0.164c1.65-0.608,3.532-1.897,5.085-2.713
				c2.601-1.456,4.953-5.638,5.829-8.5c1.104-3.453,1.135-7.466,1.744-10.951c0.467-2.783,1.225-5.452,1.69-8.236
				C36.064,9.634,35.887,7.508,36.501,5.64z M6.3,23.762c-4.56-2.777-0.099-10.355,3.841-7.211l-0.754-0.847
				C15.623,15.566,13.089,27.973,6.3,23.762z M15.301,36.518c-0.292-0.146-0.433-0.622-0.474-1.28
				c-0.812,0.673-2.149,1.443-3.942,1.339c-3.126-0.188-4.453-3.962-3.562-4.036c0.887-0.072,0.502,0.079,0.502,0.079
				s1.133,3,2.682,3.093c1.797,0.104,3.018-0.465,4.358-1.93c0.144-1.751,0.586-3.923,0.892-5.285
				c-0.089,0.014-0.145,0.021-0.145,0.021s-2.792-1.404-2.461-3.068c0,0,4.507-0.681,5.736,0.883
				c0.929,1.173-1.412,1.824-2.615,2.067c-0.411,2.22-0.831,6.432-0.212,7.28c0.571,0.789,2.688,0.118,2.688,0.118
				c1.47,0.226,3.252-1.847,3.445-2.115c0.188-0.264,1.072,0.387,1.072,0.387C19.809,38.604,16.729,37.254,15.301,36.518z
				 M25.301,26.982c-5.592-0.629-4.72-10.326,0.352-9.422l-0.368-0.626C31.193,17.282,31.587,27.655,25.301,26.982z"/>
		</g>
	</g>
	<polygon fill="#F2F2F2" points="30.375,14.937 4.12,12.817 1.781,30.715 14.601,40.867 30.655,32.432 	"/>
	<g>
		<g>
			<g>
				<path fill="#4478BB" d="M35.926,4.672L30.39,7.971c-1.393,0.731-2.782,1.441-4.026,2.164c-1.244,0.632-2.295,1.377-3.69,1.193
					c-1.892-0.211-3.769-0.822-5.771-0.942c-3.905-0.231-5.868,0.764-7.348-3.14C8.603,4.576,6.254,1.825,4.251,0
					C4.004,0.787,3.859,1.586,3.713,2.378C2.475,9.738,1.244,17.006,0.21,24.38c-0.719,5.379,0.324,9.866,4.426,13.618
					c3.145,2.896,6.427,3.49,10.362,3.123c1.925-0.189,4.097,0.441,5.837-0.163c1.648-0.606,3.525-1.898,5.083-2.715
					c2.597-1.453,4.951-5.637,5.824-8.496c1.108-3.454,1.14-7.472,1.748-10.951c0.462-2.787,1.225-5.453,1.689-8.239
					C35.488,8.669,35.314,6.542,35.926,4.672z M5.728,22.792c-4.562-2.778-0.099-10.354,3.837-7.209L8.81,14.736
					C15.05,14.6,12.517,27.007,5.728,22.792z M14.726,35.553c-0.287-0.153-0.429-0.623-0.469-1.283
					c-0.817,0.674-2.152,1.445-3.94,1.339c-3.128-0.184-4.456-3.96-3.566-4.035c0.889-0.073,0.501,0.078,0.501,0.078
					s1.134,3.001,2.685,3.093c1.794,0.104,3.017-0.465,4.354-1.932c0.144-1.75,0.584-3.922,0.892-5.283
					c-0.083,0.012-0.142,0.023-0.142,0.023s-2.789-1.409-2.46-3.067c0,0,4.504-0.679,5.734,0.878
					c0.929,1.175-1.414,1.827-2.611,2.07c-0.414,2.217-0.835,6.432-0.216,7.281c0.572,0.786,2.69,0.118,2.69,0.118
					c1.465,0.225,3.252-1.85,3.444-2.115c0.186-0.263,1.066,0.388,1.066,0.388C19.235,37.637,16.157,36.285,14.726,35.553z
					 M24.729,26.016c-5.598-0.628-4.722-10.325,0.353-9.428l-0.371-0.621C30.623,16.315,31.017,26.688,24.729,26.016z"/>
			</g>
		</g>
		<g>
			<path fill="#4478BB" d="M10.746,17.905l0.104-0.098c-0.98-0.357-2.544-1.15-3.583-0.507c-1.042,0.642-1.051,2.447-0.295,3.299
				C8.758,22.715,12.89,20.745,10.746,17.905z"/>
		</g>
		<g>
			<path fill="#4478BB" d="M25.368,18.662l0.992,0.26c-3.187-0.488-3.229,3.728-0.667,4.481
				C29.547,24.532,28.592,18.552,25.368,18.662z"/>
		</g>
	</g>
</g>
</svg>
