<?xml version="1.0" encoding="utf-8"?>
<!-- Generator: Adobe Illustrator 16.0.0, SVG Export Plug-In . SVG Version: 6.00 Build 0)  -->
<!DOCTYPE svg PUBLIC "-//W3C//DTD SVG 1.1//EN" "http://www.w3.org/Graphics/SVG/1.1/DTD/svg11.dtd">
<svg version="1.1" xmlns="http://www.w3.org/2000/svg" xmlns:xlink="http://www.w3.org/1999/xlink" x="0px" y="0px"
	 width="261.144px" height="153.143px" viewBox="0 0 261.144 153.143" enable-background="new 0 0 261.144 153.143"
	 xml:space="preserve">
<pattern  y="153.143" width="123" height="124" patternUnits="userSpaceOnUse" id="New_Pattern_4" viewBox="0 -124 123 124" overflow="visible">
	<g>
		<polygon fill="none" points="0,-124 123,-124 123,0 0,0 		"/>
		<path fill="#F2D03A" d="M52.275-49.22c-4.082-2.972-5.48-6.909-5.382-11.84c0.183-6.759,0.551-13.437,0.915-20.206
			c0.052-0.732,0.104-1.465,0.247-2.201c1.993,1.442,4.394,3.684,5.521,5.994c1.733,3.372,3.406,2.279,6.953,2.088
			c1.818-0.099,3.571,0.263,5.304,0.26c1.279,0.022,2.148-0.754,3.205-1.449c1.051-0.785,2.23-1.563,3.415-2.367l4.656-3.541
			c-0.361,1.752,0.015,3.646-0.073,5.385c-0.135,2.561-0.548,5.045-0.684,7.607c-0.191,3.202,0.187,6.83-0.46,10.057
			c-0.495,2.672-2.193,6.686-4.388,8.264c-1.319,0.892-2.888,2.254-4.309,2.969c-1.512,0.719-3.537,0.373-5.25,0.738
			C58.43-46.725,55.409-46.926,52.275-49.22z M69.184-62.082c5.743-0.036,4.328-9.354-1.037-9.064l0.393,0.526
			C63.872-70.915,64.074-62.078,69.184-62.082z M53.672-70.638l0.768,0.688c-3.871-2.437-7.127,4.854-2.729,6.896
			C58.263-59.941,59.285-71.397,53.672-70.638z M57.158-51.957c1.625-0.086,2.752-0.916,3.42-1.609
			c0.104,0.591,0.278,1.003,0.556,1.107c1.364,0.516,4.283,1.422,6.937-3.021c0,0-0.864-0.496-1.008-0.238
			c-0.141,0.258-1.542,2.312-2.891,2.259c0,0-1.842,0.819-2.438,0.168c-0.646-0.704-0.696-4.549-0.55-6.591
			c1.059-0.344,3.104-1.168,2.146-2.135c-1.268-1.281-5.266-0.209-5.266-0.209c-0.127,1.533,2.537,2.518,2.537,2.518
			s0.047-0.012,0.125-0.033c-0.138,1.258-0.316,3.266-0.266,4.859c-1.059,1.458-2.102,2.096-3.734,2.184
			c-1.408,0.076-2.734-2.516-2.734-2.516s0.335-0.176-0.462-0.019C52.732-55.076,54.318-51.805,57.158-51.957z"/>
		<path fill="#F2D03A" d="M55.742-67.975l0.086-0.096c-0.924-0.223-2.414-0.781-3.289-0.095c-0.875,0.685-0.695,2.317,0.071,3.005
			C54.437-63.434,57.967-65.631,55.742-67.975z"/>
		<path fill="#F2D03A" d="M69.791-64.537c3.591,0.627,2.118-4.675-0.777-4.244l0.92,0.132
			C67.009-68.764,67.396-64.955,69.791-64.537z"/>
		<path fill="#F2D03A" d="M113.776-108.446c2.998,2.194,5.898,2.463,9.224,1.837v-4.945c-0.131-0.045-0.255-0.088-0.365-0.131
			c-0.277-0.104-0.453-0.517-0.557-1.107c-0.668,0.693-1.795,1.523-3.42,1.609c-2.84,0.152-4.425-3.119-3.627-3.276
			c0.797-0.157,0.461,0.019,0.461,0.019s1.327,2.592,2.734,2.516c1.633-0.088,2.676-0.726,3.734-2.184
			c-0.05-1.594,0.129-3.602,0.266-4.859c-0.078,0.021-0.124,0.033-0.124,0.033s-2.665-0.984-2.538-2.518
			c0,0,1.853-0.496,3.436-0.409V-124h-4.579c-0.74,1.801-2.501,3.007-5.21,1.721c-0.873-0.406-1.439-1.02-1.765-1.721h-2.929
			c-0.045,1.236-0.09,2.473-0.123,3.714C108.295-115.355,109.693-111.418,113.776-108.446z"/>
		<path fill="#F2D03A" d="M123-112.983v-6.233c-0.111,0.039-0.219,0.076-0.316,0.107C122.559-117.35,122.579-114.258,123-112.983z"
			/>
		<path fill="#F2D03A" d="M116.725-124h-2.034C115.352-123.685,116.105-123.723,116.725-124z"/>
		<path fill="#F2D03A" d="M115.078-12.699c-1.129-2.311-3.529-4.552-5.521-5.994c-0.145,0.736-0.195,1.469-0.247,2.201
			c-0.298,5.526-0.593,10.994-0.792,16.492h2.929c-1.312-2.834,1.391-7.129,4.493-5.176l-0.768-0.688
			c3.293-0.446,4.299,3.31,3.249,5.864H123v-10.612c-0.322-0.007-0.644-0.017-0.969,0.001
			C118.484-10.42,116.811-9.327,115.078-12.699z"/>
		<path fill="#F2D03A" d="M117.243-3.201l0.085-0.096c-0.924-0.223-2.414-0.781-3.288-0.095c-0.875,0.685-0.696,2.317,0.071,3.005
			c0.178,0.168,0.375,0.289,0.579,0.387h2.034C117.871-0.514,118.545-1.829,117.243-3.201z"/>
		<path fill="#F2D03A" d="M5.697-107.428c1.422-0.715,2.99-2.077,4.309-2.969c2.195-1.578,3.894-5.592,4.389-8.264
			c0.342-1.709,0.396-3.529,0.4-5.34h-3.578c-0.383,1.498-1.502,2.679-3.533,2.691c-1.879,0.002-3.088-1.195-3.641-2.691H0v2.138
			c0.742,0.041,1.426,0.208,1.83,0.618c0.87,0.879-0.734,1.637-1.83,2.027v6.233c0.067,0.205,0.145,0.367,0.234,0.465
			c0.597,0.651,2.438-0.168,2.438-0.168c1.35,0.054,2.75-2.001,2.892-2.259c0.144-0.258,1.007,0.238,1.007,0.238
			c-2.438,4.082-5.096,3.649-6.57,3.152v4.945c0.15-0.028,0.296-0.048,0.447-0.08C2.16-107.055,4.186-106.709,5.697-107.428z"/>
		<path fill="#F2D03A" d="M9.846-124H7.622c0.202,0.107,0.423,0.193,0.669,0.236C8.999-123.641,9.504-123.752,9.846-124z"/>
		<path fill="#F2D03A" d="M14.854-4.717c0.137-2.562,0.549-5.047,0.684-7.607c0.088-1.738-0.287-3.633,0.074-5.385l-4.656,3.541
			c-1.185,0.804-2.365,1.582-3.416,2.367c-1.057,0.695-1.926,1.472-3.205,1.449C2.912-10.35,1.475-10.579,0-10.612V0h4.043
			C3.091-2.572,4.089-6.033,7.04-5.847L6.646-6.373C10.115-6.56,11.916-2.74,11.217,0h3.578C14.799-1.609,14.764-3.211,14.854-4.717
			z"/>
		<path fill="#F2D03A" d="M7.515-4.008l0.919,0.132C5.811-3.979,5.857-0.932,7.622,0h2.224C11.24-1.01,9.839-4.354,7.515-4.008z"/>
		<polygon fill="#F2D03A" points="31,-97 31,-100 25,-100 25,-97 		"/>
		<polygon fill="#F2D03A" points="22,-100 17,-100 17,-97 22,-97 		"/>
		<polygon fill="#F2D03A" points="25,-105 22,-105 22,-100 25,-100 		"/>
		<polygon fill="#F2D03A" points="22,-91 25,-91 25,-97 22,-97 		"/>
		<polygon fill="#F2D03A" points="25,-97 25,-100 22,-100 22,-97 		"/>
		<polygon fill="#F2D03A" points="69,-123 69,-124 63,-124 63,-123 		"/>
		<polygon fill="#F2D03A" points="60,-123 60,-124 55,-124 55,-123 		"/>
		<polygon fill="#F2D03A" points="60,-117 63,-117 63,-123 60,-123 		"/>
		<polygon fill="#F2D03A" points="63,-123 63,-124 60,-124 60,-123 		"/>
		<polygon fill="#F2D03A" points="55,-2 55,0 60,0 60,-2 		"/>
		<polygon fill="#F2D03A" points="69,-2 63,-2 63,0 69,0 		"/>
		<polygon fill="#F2D03A" points="60,-7 60,-2 63,-2 63,-7 		"/>
		<polygon fill="#F2D03A" points="60,-2 60,0 63,0 63,-2 		"/>
		<polygon fill="#F2D03A" points="89,-35 83,-35 83,-32 89,-32 		"/>
		<polygon fill="#F2D03A" points="97,-32 97,-35 92,-35 92,-32 		"/>
		<polygon fill="#F2D03A" points="89,-26 92,-26 92,-32 89,-32 		"/>
		<polygon fill="#F2D03A" points="92,-40 89,-40 89,-35 92,-35 		"/>
		<polygon fill="#F2D03A" points="92,-32 92,-35 89,-35 89,-32 		"/>
		<polygon fill="#F2D03A" points="18,-30 32,-30 32,-33 18,-33 		"/>
		<polygon fill="#F2D03A" points="7,-68 0,-68 0,-65 7,-65 		"/>
		<polygon fill="#F2D03A" points="117,-65 123,-65 123,-68 117,-68 		"/>
		<polygon fill="#F2D03A" points="97,-100 83,-100 83,-97 97,-97 		"/>
	</g>
</pattern>
<pattern  y="153.143" width="127.842" height="157.915" patternUnits="userSpaceOnUse" id="New_Pattern_5" viewBox="21.519 -157.915 127.842 157.915" overflow="visible">
	<g>
		<polygon fill="none" points="21.519,-157.915 149.36,-157.915 149.36,0 21.519,0 		"/>
		<g>
			<line fill="none" stroke="#DC5136" stroke-miterlimit="10" x1="141.844" y1="-31.229" x2="120.95" y2="-10.334"/>
			<line fill="none" stroke="#DC5136" stroke-miterlimit="10" x1="144.957" y1="-27.907" x2="124.062" y2="-7.012"/>
			<line fill="none" stroke="#DC5136" stroke-miterlimit="10" x1="149.09" y1="-24.57" x2="128.195" y2="-3.676"/>
			<line fill="none" stroke="#DC5136" stroke-miterlimit="10" x1="152.203" y1="-21.248" x2="131.309" y2="-0.354"/>
		</g>
		<g>
			<line fill="none" stroke="#DC5136" stroke-miterlimit="10" x1="109.884" y1="-31.229" x2="88.989" y2="-10.334"/>
			<line fill="none" stroke="#DC5136" stroke-miterlimit="10" x1="112.997" y1="-27.907" x2="92.103" y2="-7.012"/>
			<line fill="none" stroke="#DC5136" stroke-miterlimit="10" x1="117.13" y1="-24.57" x2="96.235" y2="-3.676"/>
			<line fill="none" stroke="#DC5136" stroke-miterlimit="10" x1="120.243" y1="-21.248" x2="99.349" y2="-0.354"/>
		</g>
		<g>
			<line fill="none" stroke="#DC5136" stroke-miterlimit="10" x1="77.923" y1="-31.229" x2="57.029" y2="-10.334"/>
			<line fill="none" stroke="#DC5136" stroke-miterlimit="10" x1="81.036" y1="-27.907" x2="60.142" y2="-7.012"/>
			<line fill="none" stroke="#DC5136" stroke-miterlimit="10" x1="85.169" y1="-24.57" x2="64.274" y2="-3.676"/>
			<line fill="none" stroke="#DC5136" stroke-miterlimit="10" x1="88.282" y1="-21.248" x2="67.388" y2="-0.354"/>
		</g>
		<g>
			<line fill="none" stroke="#DC5136" stroke-miterlimit="10" x1="45.962" y1="-31.229" x2="25.068" y2="-10.334"/>
			<line fill="none" stroke="#DC5136" stroke-miterlimit="10" x1="49.076" y1="-27.907" x2="28.181" y2="-7.012"/>
			<line fill="none" stroke="#DC5136" stroke-miterlimit="10" x1="53.208" y1="-24.57" x2="32.314" y2="-3.676"/>
			<line fill="none" stroke="#DC5136" stroke-miterlimit="10" x1="56.322" y1="-21.248" x2="35.427" y2="-0.354"/>
		</g>
		<g>
			<line fill="none" stroke="#DC5136" stroke-miterlimit="10" x1="21.248" y1="-24.57" x2="0.354" y2="-3.676"/>
			<line fill="none" stroke="#DC5136" stroke-miterlimit="10" x1="24.361" y1="-21.248" x2="3.467" y2="-0.354"/>
		</g>
		<g>
			<line fill="none" stroke="#DC5136" stroke-miterlimit="10" x1="148.236" y1="-62.812" x2="127.342" y2="-41.917"/>
			<line fill="none" stroke="#DC5136" stroke-miterlimit="10" x1="151.35" y1="-59.49" x2="130.455" y2="-38.595"/>
			<line fill="none" stroke="#DC5136" stroke-miterlimit="10" x1="155.482" y1="-56.153" x2="134.588" y2="-35.259"/>
			<line fill="none" stroke="#DC5136" stroke-miterlimit="10" x1="158.596" y1="-52.831" x2="137.701" y2="-31.937"/>
		</g>
		<g>
			<line fill="none" stroke="#DC5136" stroke-miterlimit="10" x1="116.275" y1="-62.812" x2="95.381" y2="-41.917"/>
			<line fill="none" stroke="#DC5136" stroke-miterlimit="10" x1="119.389" y1="-59.49" x2="98.494" y2="-38.595"/>
			<line fill="none" stroke="#DC5136" stroke-miterlimit="10" x1="123.521" y1="-56.153" x2="102.627" y2="-35.259"/>
			<line fill="none" stroke="#DC5136" stroke-miterlimit="10" x1="126.635" y1="-52.831" x2="105.74" y2="-31.937"/>
		</g>
		<g>
			<line fill="none" stroke="#DC5136" stroke-miterlimit="10" x1="84.314" y1="-62.812" x2="63.421" y2="-41.917"/>
			<line fill="none" stroke="#DC5136" stroke-miterlimit="10" x1="87.428" y1="-59.49" x2="66.534" y2="-38.595"/>
			<line fill="none" stroke="#DC5136" stroke-miterlimit="10" x1="91.561" y1="-56.153" x2="70.667" y2="-35.259"/>
			<line fill="none" stroke="#DC5136" stroke-miterlimit="10" x1="94.674" y1="-52.831" x2="73.779" y2="-31.937"/>
		</g>
		<g>
			<line fill="none" stroke="#DC5136" stroke-miterlimit="10" x1="52.354" y1="-62.812" x2="31.46" y2="-41.917"/>
			<line fill="none" stroke="#DC5136" stroke-miterlimit="10" x1="55.468" y1="-59.49" x2="34.573" y2="-38.595"/>
			<line fill="none" stroke="#DC5136" stroke-miterlimit="10" x1="59.601" y1="-56.153" x2="38.706" y2="-35.259"/>
			<line fill="none" stroke="#DC5136" stroke-miterlimit="10" x1="62.714" y1="-52.831" x2="41.819" y2="-31.937"/>
		</g>
		<g>
			<line fill="none" stroke="#DC5136" stroke-miterlimit="10" x1="23.507" y1="-59.49" x2="2.613" y2="-38.595"/>
			<line fill="none" stroke="#DC5136" stroke-miterlimit="10" x1="27.64" y1="-56.153" x2="6.746" y2="-35.259"/>
			<line fill="none" stroke="#DC5136" stroke-miterlimit="10" x1="30.753" y1="-52.831" x2="9.859" y2="-31.937"/>
		</g>
		<g>
			<line fill="none" stroke="#DC5136" stroke-miterlimit="10" x1="154.628" y1="-94.395" x2="133.734" y2="-73.5"/>
			<line fill="none" stroke="#DC5136" stroke-miterlimit="10" x1="157.741" y1="-91.073" x2="136.847" y2="-70.178"/>
			<line fill="none" stroke="#DC5136" stroke-miterlimit="10" x1="161.874" y1="-87.736" x2="140.979" y2="-66.842"/>
			<line fill="none" stroke="#DC5136" stroke-miterlimit="10" x1="164.987" y1="-84.414" x2="144.093" y2="-63.52"/>
		</g>
		<g>
			<line fill="none" stroke="#DC5136" stroke-miterlimit="10" x1="122.668" y1="-94.395" x2="101.773" y2="-73.5"/>
			<line fill="none" stroke="#DC5136" stroke-miterlimit="10" x1="125.781" y1="-91.073" x2="104.887" y2="-70.178"/>
			<line fill="none" stroke="#DC5136" stroke-miterlimit="10" x1="129.914" y1="-87.736" x2="109.02" y2="-66.842"/>
			<line fill="none" stroke="#DC5136" stroke-miterlimit="10" x1="133.027" y1="-84.414" x2="112.133" y2="-63.52"/>
		</g>
		<g>
			<line fill="none" stroke="#DC5136" stroke-miterlimit="10" x1="90.707" y1="-94.395" x2="69.813" y2="-73.5"/>
			<line fill="none" stroke="#DC5136" stroke-miterlimit="10" x1="93.82" y1="-91.073" x2="72.926" y2="-70.178"/>
			<line fill="none" stroke="#DC5136" stroke-miterlimit="10" x1="97.953" y1="-87.736" x2="77.059" y2="-66.842"/>
			<line fill="none" stroke="#DC5136" stroke-miterlimit="10" x1="101.066" y1="-84.414" x2="80.172" y2="-63.52"/>
		</g>
		<g>
			<line fill="none" stroke="#DC5136" stroke-miterlimit="10" x1="58.747" y1="-94.395" x2="37.853" y2="-73.5"/>
			<line fill="none" stroke="#DC5136" stroke-miterlimit="10" x1="61.86" y1="-91.073" x2="40.965" y2="-70.178"/>
			<line fill="none" stroke="#DC5136" stroke-miterlimit="10" x1="65.993" y1="-87.736" x2="45.098" y2="-66.842"/>
			<line fill="none" stroke="#DC5136" stroke-miterlimit="10" x1="69.106" y1="-84.414" x2="48.211" y2="-63.52"/>
		</g>
		<g>
			<line fill="none" stroke="#DC5136" stroke-miterlimit="10" x1="26.786" y1="-94.395" x2="5.892" y2="-73.5"/>
			<line fill="none" stroke="#DC5136" stroke-miterlimit="10" x1="29.899" y1="-91.073" x2="9.005" y2="-70.178"/>
			<line fill="none" stroke="#DC5136" stroke-miterlimit="10" x1="34.032" y1="-87.736" x2="13.138" y2="-66.842"/>
			<line fill="none" stroke="#DC5136" stroke-miterlimit="10" x1="37.146" y1="-84.414" x2="16.251" y2="-63.52"/>
		</g>
		<g>
			<line fill="none" stroke="#DC5136" stroke-miterlimit="10" x1="161.02" y1="-125.978" x2="140.127" y2="-105.083"/>
			<line fill="none" stroke="#DC5136" stroke-miterlimit="10" x1="164.133" y1="-122.656" x2="143.238" y2="-101.761"/>
			<line fill="none" stroke="#DC5136" stroke-miterlimit="10" x1="168.266" y1="-119.319" x2="147.371" y2="-98.425"/>
		</g>
		<g>
			<line fill="none" stroke="#DC5136" stroke-miterlimit="10" x1="129.061" y1="-125.978" x2="108.166" y2="-105.083"/>
			<line fill="none" stroke="#DC5136" stroke-miterlimit="10" x1="132.174" y1="-122.656" x2="111.279" y2="-101.761"/>
			<line fill="none" stroke="#DC5136" stroke-miterlimit="10" x1="136.307" y1="-119.319" x2="115.412" y2="-98.425"/>
			<line fill="none" stroke="#DC5136" stroke-miterlimit="10" x1="139.42" y1="-115.997" x2="118.525" y2="-95.103"/>
		</g>
		<g>
			<line fill="none" stroke="#DC5136" stroke-miterlimit="10" x1="97.1" y1="-125.978" x2="76.205" y2="-105.083"/>
			<line fill="none" stroke="#DC5136" stroke-miterlimit="10" x1="100.213" y1="-122.656" x2="79.318" y2="-101.761"/>
			<line fill="none" stroke="#DC5136" stroke-miterlimit="10" x1="104.346" y1="-119.319" x2="83.451" y2="-98.425"/>
			<line fill="none" stroke="#DC5136" stroke-miterlimit="10" x1="107.459" y1="-115.997" x2="86.564" y2="-95.103"/>
		</g>
		<g>
			<line fill="none" stroke="#DC5136" stroke-miterlimit="10" x1="65.139" y1="-125.978" x2="44.245" y2="-105.083"/>
			<line fill="none" stroke="#DC5136" stroke-miterlimit="10" x1="68.252" y1="-122.656" x2="47.357" y2="-101.761"/>
			<line fill="none" stroke="#DC5136" stroke-miterlimit="10" x1="72.385" y1="-119.319" x2="51.49" y2="-98.425"/>
			<line fill="none" stroke="#DC5136" stroke-miterlimit="10" x1="75.498" y1="-115.997" x2="54.604" y2="-95.103"/>
		</g>
		<g>
			<line fill="none" stroke="#DC5136" stroke-miterlimit="10" x1="33.178" y1="-125.978" x2="12.284" y2="-105.083"/>
			<line fill="none" stroke="#DC5136" stroke-miterlimit="10" x1="36.292" y1="-122.656" x2="15.397" y2="-101.761"/>
			<line fill="none" stroke="#DC5136" stroke-miterlimit="10" x1="40.424" y1="-119.319" x2="19.53" y2="-98.425"/>
			<line fill="none" stroke="#DC5136" stroke-miterlimit="10" x1="43.538" y1="-115.997" x2="22.643" y2="-95.103"/>
		</g>
		<g>
			<line fill="none" stroke="#DC5136" stroke-miterlimit="10" x1="167.412" y1="-157.561" x2="146.519" y2="-136.666"/>
			<line fill="none" stroke="#DC5136" stroke-miterlimit="10" x1="170.525" y1="-154.239" x2="149.631" y2="-133.344"/>
		</g>
		<g>
			<line fill="none" stroke="#DC5136" stroke-miterlimit="10" x1="135.452" y1="-157.561" x2="114.558" y2="-136.666"/>
			<line fill="none" stroke="#DC5136" stroke-miterlimit="10" x1="138.565" y1="-154.239" x2="117.671" y2="-133.344"/>
			<line fill="none" stroke="#DC5136" stroke-miterlimit="10" x1="142.698" y1="-150.902" x2="121.804" y2="-130.008"/>
			<line fill="none" stroke="#DC5136" stroke-miterlimit="10" x1="145.812" y1="-147.58" x2="124.917" y2="-126.686"/>
		</g>
		<g>
			<line fill="none" stroke="#DC5136" stroke-miterlimit="10" x1="103.491" y1="-157.561" x2="82.598" y2="-136.666"/>
			<line fill="none" stroke="#DC5136" stroke-miterlimit="10" x1="106.604" y1="-154.239" x2="85.71" y2="-133.344"/>
			<line fill="none" stroke="#DC5136" stroke-miterlimit="10" x1="110.737" y1="-150.902" x2="89.843" y2="-130.008"/>
			<line fill="none" stroke="#DC5136" stroke-miterlimit="10" x1="113.851" y1="-147.58" x2="92.956" y2="-126.686"/>
		</g>
		<g>
			<line fill="none" stroke="#DC5136" stroke-miterlimit="10" x1="71.531" y1="-157.561" x2="50.637" y2="-136.666"/>
			<line fill="none" stroke="#DC5136" stroke-miterlimit="10" x1="74.645" y1="-154.239" x2="53.75" y2="-133.344"/>
			<line fill="none" stroke="#DC5136" stroke-miterlimit="10" x1="78.777" y1="-150.902" x2="57.882" y2="-130.008"/>
			<line fill="none" stroke="#DC5136" stroke-miterlimit="10" x1="81.891" y1="-147.58" x2="60.996" y2="-126.686"/>
		</g>
		<g>
			<line fill="none" stroke="#DC5136" stroke-miterlimit="10" x1="39.57" y1="-157.561" x2="18.676" y2="-136.666"/>
			<line fill="none" stroke="#DC5136" stroke-miterlimit="10" x1="42.684" y1="-154.239" x2="21.789" y2="-133.344"/>
			<line fill="none" stroke="#DC5136" stroke-miterlimit="10" x1="46.816" y1="-150.902" x2="25.922" y2="-130.008"/>
			<line fill="none" stroke="#DC5136" stroke-miterlimit="10" x1="49.93" y1="-147.58" x2="29.035" y2="-126.686"/>
		</g>
	</g>
</pattern>
<g id="background_1_">
	
		<radialGradient id="SVGID_1_" cx="81.8613" cy="76.4575" r="125.1703" gradientTransform="matrix(1 0 0 1.3094 0 -23.6521)" gradientUnits="userSpaceOnUse">
		<stop  offset="0" style="stop-color:#F6E867"/>
		<stop  offset="0.3095" style="stop-color:#F6E45F"/>
		<stop  offset="0.7616" style="stop-color:#F3D849"/>
		<stop  offset="1" style="stop-color:#F2D13B"/>
	</radialGradient>
	<rect x="0.056" y="-0.229" fill="url(#SVGID_1_)" width="163.611" height="153.372"/>
	<pattern  id="SVGID_2_" xlink:href="#New_Pattern_4" patternTransform="matrix(0.3319 0 0 0.3392 -5360.1426 -5473.5981)">
	</pattern>
	<rect x="0.266" y="-0.252" fill="url(#SVGID_2_)" width="260.918" height="153.418"/>
	<path fill="#DC5136" d="M261.144,0H151.5c8.218,48.924-1.142,98.108,2.894,147.143c0.043,1.621,0.076,4.32,0.106,6l106.646-1.422
		L261.144,0z"/>
	<path fill="#F2623D" d="M261.144-0.229H155.55c6.926,49.124-2.654,98.248,0.089,147.372c0,1.622-0.037,4.321-0.052,6h105.557
		V-0.229z"/>
	<pattern  id="SVGID_3_" xlink:href="#New_Pattern_5" patternTransform="matrix(0.4482 0 0 0.4482 -4399.5576 -4588.1396)">
	</pattern>
	<path fill="url(#SVGID_3_)" d="M261.184-0.287H155.51c6.932,49.161-2.656,98.322,0.089,147.483c0,1.623-0.037,4.324-0.052,6.005
		h105.637V-0.287z"/>
	<text transform="matrix(1 0 0 1 200.8672 143.6157)"><tspan x="0" y="0" fill="#F6E867" font-family="'PlutoRegular'" font-size="5">Cat Math Do © </tspan><tspan x="40.274" y="0" fill="#F6E867" font-family="'PlutoRegular'" font-size="4">2014</tspan></text>
</g>
<g id="cats_copy">
	<g>
		<path fill="#1D427D" d="M177.541,58.243c3.864-16.927,12.876-20.957,19.581-26.967c12.236-10.968,42.491-17.718,47.932-9.384
			c6.438,9.861-6.708,21.68-17.223,27.984c-30.127,18.065-34.688,14.188-46.747,29.407c-1.004-1.129-1.056-1.129-1.056-1.129
			S176.746,61.726,177.541,58.243z"/>
	</g>
	<g>
		<path fill="#F2F2F2" d="M176.479,57.18c3.864-16.927,12.876-20.957,19.581-26.967c12.236-10.968,42.491-17.718,47.932-9.384
			c6.438,9.862-6.708,21.68-17.223,27.985c-30.127,18.065-34.688,14.188-46.748,29.407C178.644,73.487,175.242,62.596,176.479,57.18
			z"/>
	</g>
	<g>
		<g>
			<g>
				<path fill="#1D427D" d="M198.278,75.908l-0.88-0.8c-1.184,1.173-6.074,8.166-7.113,9.287c-1.062,1.021-1.893,2.101-3.361,2.344
					c-1.982,0.369-4.07,0.333-6.13,0.829c-4.026,0.974-7.123,3.223-9.828-0.271c-1.784-2.409-3.596-5.104-6.181-6.332
					c-0.012,0.875,0.086,1.729,0.182,2.575c1.026,7.83,2.024,15.562,3.256,23.343c0.935,5.669,3.375,9.884,8.683,12.417
					c4.078,1.96,7.584,1.55,11.455-0.043c1.886-0.785,4.279-0.819,5.852-1.967c1.481-1.123,2.986-3.013,4.307-4.315
					c2.181-2.277,3.271-7.233,3.272-10.402c0.05-3.835-1.157-7.908-1.617-11.622c-0.391-2.959-0.445-5.894-0.834-8.855
					C199.069,80.084,198.233,77.991,198.278,75.908z M173.314,103.577c-5.473-1.404-3.298-10.449,1.659-8.483l-1.026-0.625
					C180.217,92.402,181.486,105.742,173.314,103.577z M186.365,113.705c-0.34-0.06-0.629-0.495-0.874-1.15
					c-0.618,0.934-1.731,2.128-3.574,2.572c-3.223,0.777-5.733-2.633-4.854-2.983c0.876-0.348,0.532-0.076,0.532-0.076
					s2.071,2.688,3.669,2.304c1.849-0.451,2.911-1.405,3.812-3.302c-0.396-1.812-0.618-4.148-0.728-5.623
					c-0.086,0.042-0.139,0.066-0.139,0.066s-3.259-0.561-3.439-2.344c0,0,4.35-2.082,6.074-0.882
					c1.306,0.903-0.863,2.283-2.005,2.902c0.271,2.371,1.145,6.767,2.035,7.433c0.821,0.621,2.758-0.71,2.758-0.71
					c1.554-0.226,2.721-2.875,2.831-3.202c0.109-0.329,1.204,0.058,1.204,0.058C191.572,114.421,188.036,114.007,186.365,113.705z
					 M193.537,100.966c-5.854,1.09-7.966-8.99-2.554-9.644l-0.565-0.52C196.504,89.331,200.107,99.705,193.537,100.966z"/>
			</g>
		</g>
		<polygon fill="#F2F2F2" points="194.954,87.207 167.729,93.175 170.891,112.009 187,118.323 200.641,104.828 		"/>
		<g>
			<g>
				<g>
					<path fill="#4478BC" d="M197.398,75.107l-4.584,5.046c-1.184,1.171-2.369,2.319-3.405,3.437
						c-1.064,1.022-1.896,2.102-3.367,2.345c-1.98,0.373-4.066,0.334-6.128,0.831c-4.024,0.973-5.703,2.584-8.407-0.908
						c-1.788-2.408-5.015-4.465-7.605-5.694c-0.008,0.875,0.092,1.727,0.188,2.574c1.022,7.83,2.022,15.563,3.255,23.344
						c0.933,5.666,3.375,9.885,8.683,12.415c4.079,1.961,7.584,1.55,11.453-0.042c1.888-0.786,4.28-0.817,5.854-1.967
						c1.482-1.123,2.983-3.011,4.307-4.317c2.179-2.273,3.271-7.233,3.271-10.399c0.053-3.836-1.154-7.908-1.617-11.621
						c-0.391-2.961-0.444-5.894-0.836-8.858C198.19,79.286,197.357,77.189,197.398,75.107z M172.435,102.772
						c-5.474-1.401-3.295-10.445,1.659-8.482l-1.026-0.623C179.339,91.601,180.607,104.941,172.435,102.772z M185.484,112.904
						c-0.338-0.063-0.628-0.497-0.872-1.153c-0.618,0.938-1.73,2.128-3.572,2.573c-3.225,0.779-5.734-2.632-4.854-2.981
						c0.875-0.349,0.528-0.077,0.528-0.077s2.076,2.688,3.673,2.302c1.849-0.45,2.909-1.403,3.81-3.299
						c-0.393-1.814-0.617-4.149-0.729-5.622c-0.083,0.04-0.137,0.067-0.137,0.067s-3.258-0.562-3.438-2.343
						c0,0,4.348-2.083,6.074-0.886c1.305,0.904-0.865,2.287-2.004,2.901c0.267,2.372,1.142,6.768,2.032,7.437
						c0.82,0.617,2.761-0.714,2.761-0.714c1.552-0.224,2.719-2.875,2.83-3.203c0.107-0.324,1.2,0.063,1.2,0.063
						C190.692,113.62,187.158,113.205,185.484,112.904z M192.66,100.166c-5.855,1.09-7.966-8.989-2.557-9.647l-0.564-0.516
						C195.627,88.527,199.23,98.903,192.66,100.166z"/>
				</g>
			</g>
			<g>
				<path fill="#4478BC" d="M176.005,96.275l0.077-0.127c-1.104-0.061-2.932-0.38-3.783,0.592c-0.858,0.97-0.307,2.803,0.72,3.43
					C175.479,101.755,179.052,98.488,176.005,96.275z"/>
			</g>
			<g>
				<path fill="#4478BC" d="M191.038,92.527l1.081-0.045c-3.377,0.49-2.117,4.771,0.71,4.741
					C197.079,97.176,194.265,91.417,191.038,92.527z"/>
			</g>
		</g>
	</g>
	<path fill="#235380" d="M182.871,51.111l0.107,1.797c0.691-1.44,1.896-2.604,3.6-3.087c2.004-0.568,3.202-0.042,3.859,1.458
		c0.614-1.629,1.935-3.08,3.891-3.637c2.873-0.816,4.211,1.171,4.397,4.165l0.231,3.758c0.05,0.808,0.296,1.299,0.953,1.111
		c0.385-0.109,0.78-0.385,1.167-0.753l0.289,1.864c-0.47,0.438-1.35,0.946-2.139,1.169c-1.488,0.425-2.332-0.252-2.455-2.233
		l-0.239-3.916c-0.128-2.053-1.045-3.244-2.874-2.725c-1.533,0.438-2.443,1.89-2.725,3.306l0.466,7.556l-2.213,0.629l-0.4-6.589
		c-0.132-2.05-1.026-3.225-2.86-2.706c-1.573,0.447-2.478,1.924-2.779,3.345l0.462,7.536l-2.212,0.629l-0.742-12.052L182.871,51.111
		z"/>
	<path fill="#235380" d="M206.991,48.119c-0.395,0.93-1.138,1.793-2.188,2.412c-2.352,1.384-4.069,0.464-4.933-1.436
		c-0.873-1.923-0.306-4.205,1.698-5.386c1.898-1.117,3.337-0.412,4.017,1.087c0.178,0.388,0.356,0.947,0.393,1.227l-4.642,2.734
		c0.633,1.065,1.643,1.455,3.003,0.653c0.859-0.506,1.428-1.285,1.737-1.94L206.991,48.119z M204.297,45.286
		c-0.34-0.748-1.137-1.136-2.259-0.476c-1.168,0.689-1.474,1.914-1.137,2.919l3.531-2.08
		C204.399,45.544,204.349,45.399,204.297,45.286z"/>
	<path fill="#235380" d="M215.514,43.892c-0.573,0.837-1.471,1.544-2.62,1.947c-2.575,0.903-4.065-0.338-4.527-2.376
		c-0.467-2.066,0.546-4.203,2.739-4.974c2.077-0.728,3.34,0.247,3.705,1.857c0.093,0.414,0.154,1,0.136,1.284l-5.082,1.783
		c0.405,1.176,1.312,1.755,2.802,1.231c0.94-0.33,1.651-0.986,2.085-1.571L215.514,43.892z M213.453,40.577
		c-0.183-0.806-0.883-1.342-2.109-0.91c-1.281,0.449-1.825,1.596-1.698,2.652l3.866-1.358
		C213.5,40.849,213.48,40.697,213.453,40.577z"/>
	<path fill="#235380" d="M222.867,37.93c0.05,0.49,0.229,0.781,0.635,0.66c0.263-0.079,0.489-0.248,0.709-0.471l0.212,1.131
		c-0.297,0.275-0.792,0.582-1.291,0.732c-0.748,0.223-1.205-0.014-1.436-0.68c-0.426,0.732-1.19,1.449-2.162,1.741
		c-1.968,0.588-3.44-0.584-3.667-2.776c-0.227-2.219,0.922-4.191,2.891-4.781c0.945-0.282,1.728-0.156,2.269,0.215l-0.078-0.74
		l1.365-0.408L222.867,37.93z M221.15,34.929c-0.397-0.312-1.147-0.505-1.906-0.277c-1.38,0.413-2.152,1.708-1.998,3.203
		c0.15,1.468,1.149,2.232,2.513,1.825c0.762-0.227,1.392-0.818,1.741-1.368L221.15,34.929z"/>
	<path fill="#235380" d="M228.688,27.381l-0.204,1.962l2.663-0.509l-0.125,1.21l-2.663,0.508l-0.401,3.835
		c-0.104,1.002,0.238,1.4,0.943,1.266c0.522-0.1,1.166-0.497,1.578-0.878l0.318,1.11c-0.66,0.544-1.501,1.008-2.44,1.188
		c-1.268,0.24-1.961-0.479-1.787-2.132l0.431-4.13l-1.28,0.244l0.126-1.209l1.28-0.244l0.359-1.992L228.688,27.381z"/>
	<path fill="#235380" d="M235.784,22.469l-0.617,4.175c0.588-0.963,1.437-1.65,2.445-1.87c1.681-0.368,2.218,1.05,1.916,3.09
		l-0.378,2.559c-0.081,0.55-0.012,0.899,0.385,0.812c0.225-0.048,0.452-0.204,0.728-0.431l-0.105,1.284
		c-0.316,0.265-0.815,0.542-1.312,0.65c-0.884,0.193-1.242-0.321-1.041-1.671l0.394-2.669c0.205-1.397-0.186-2.253-1.256-2.02
		c-0.922,0.201-1.699,1.222-2.055,2.165l-0.749,5.071l-1.294,0.281l1.646-11.144L235.784,22.469z"/>
</g>
<g id="number__x26__sign">
	<g>
		<g>
			<path fill="#F2623D" stroke="#F2623D" stroke-width="4" stroke-miterlimit="10" d="M53.062,67.631l13.744,1.455l0.228,11.42
				l-15.417,1.143l-13.168,1.219l-14.356,0.494l0.142-14.122l14.613-0.898L53.062,67.631z"/>
		</g>
	</g>
	<g>
		<g>
			<path fill="#F2623D" stroke="#F2623D" stroke-width="4" stroke-miterlimit="10" d="M51.417,65.987l13.744,1.455l0.228,11.42
				l-15.417,1.143l-13.168,1.219l-14.356,0.494l0.142-14.121l14.613-0.899L51.417,65.987z"/>
		</g>
	</g>
	<g>
		<g>
			<path fill="#F2F2F2" stroke="#F2F2F2" stroke-width="0.5" stroke-miterlimit="10" d="M51.651,66.199l13.679,1.835l-0.09,11.423
				L49.797,80.17l-13.18,0.849l-14.381,0.097l0.535-14.111l14.653-0.499L51.651,66.199z"/>
		</g>
	</g>
	<g>
		<g>
			<path fill="#DC5136" stroke="#F2F2F2" stroke-width="0.5" stroke-miterlimit="10" d="M51.417,65.987l13.744,1.455l0.228,11.42
				l-15.417,1.143l-13.168,1.219l-14.356,0.494l0.142-14.121l14.613-0.899L51.417,65.987z"/>
		</g>
	</g>
	<polygon fill="#F2623D" points="23.768,82.53 20.445,83.835 22.067,85.497 24.125,82.57 	"/>
	<polygon fill="#F2623D" points="68.776,67.438 67.034,65.747 66.034,67.784 	"/>
	<path fill="#F2623D" d="M112.237,41.251l15.554,0.439l2.722,4.401l-1.873,60.136l-25.663-3.219l1.488-34.762l-11.542,5.648
		l-8.181-17.113L112.237,41.251z"/>
	<g>
		<path fill="#F2F2F2" stroke="#F2F2F2" stroke-width="0.5" stroke-miterlimit="10" d="M112.898,42.906l13.461,0.799
			c0,0-0.333,8.731-0.934,24.35c-0.6,15.618-1.301,33.891-1.301,33.891l-19.801-1.771l2.155-36.407l-13.22,6.474
			c0,0-5.788-11.502-6.53-13.037C88.975,55.539,112.898,42.906,112.898,42.906z"/>
	</g>
	<g>
		<path fill="#DC5136" stroke="#F2F2F2" stroke-width="0.5" stroke-miterlimit="10" d="M112.535,43.133l13.366,0.253
			c0,0-0.194,8.736-0.545,24.362c-0.351,15.625-0.759,33.907-0.759,33.907l-19.827-1.453l1.573-36.438l-13.116,6.684
			c0,0-5.97-11.408-6.737-12.931C88.71,55.816,112.535,43.133,112.535,43.133z"/>
	</g>
</g>
</svg>
