<?xml version="1.0" encoding="utf-8"?>
<!-- Generator: Adobe Illustrator 16.0.0, SVG Export Plug-In . SVG Version: 6.00 Build 0)  -->
<!DOCTYPE svg PUBLIC "-//W3C//DTD SVG 1.1//EN" "http://www.w3.org/Graphics/SVG/1.1/DTD/svg11.dtd">
<svg version="1.1" xmlns="http://www.w3.org/2000/svg" xmlns:xlink="http://www.w3.org/1999/xlink" x="0px" y="0px"
	 width="261.144px" height="153.143px" viewBox="0 0 261.144 153.143" enable-background="new 0 0 261.144 153.143"
	 xml:space="preserve">
<pattern  y="153.143" width="123" height="124" patternUnits="userSpaceOnUse" id="New_Pattern_4" viewBox="0 -124 123 124" overflow="visible">
	<g>
		<polygon fill="none" points="0,-124 123,-124 123,0 0,0 		"/>
		<path fill="#F2D03A" d="M52.275-49.22c-4.082-2.972-5.48-6.909-5.382-11.84c0.183-6.759,0.551-13.437,0.915-20.206
			c0.052-0.732,0.104-1.465,0.247-2.201c1.993,1.442,4.394,3.684,5.521,5.994c1.733,3.372,3.406,2.279,6.953,2.088
			c1.818-0.099,3.571,0.263,5.304,0.26c1.279,0.022,2.148-0.754,3.205-1.449c1.051-0.785,2.23-1.563,3.415-2.367l4.656-3.541
			c-0.361,1.752,0.015,3.646-0.073,5.385c-0.135,2.561-0.548,5.045-0.684,7.607c-0.191,3.202,0.187,6.83-0.46,10.057
			c-0.495,2.672-2.193,6.686-4.388,8.264c-1.319,0.892-2.888,2.254-4.309,2.969c-1.512,0.719-3.537,0.373-5.25,0.738
			C58.43-46.725,55.409-46.926,52.275-49.22z M69.184-62.082c5.743-0.036,4.328-9.354-1.037-9.064l0.393,0.526
			C63.872-70.915,64.074-62.078,69.184-62.082z M53.672-70.638l0.768,0.688c-3.871-2.437-7.127,4.854-2.729,6.896
			C58.263-59.941,59.285-71.397,53.672-70.638z M57.158-51.957c1.625-0.086,2.752-0.916,3.42-1.609
			c0.104,0.591,0.278,1.003,0.556,1.107c1.364,0.516,4.283,1.422,6.937-3.021c0,0-0.864-0.496-1.008-0.238
			c-0.141,0.258-1.542,2.312-2.891,2.259c0,0-1.842,0.819-2.438,0.168c-0.646-0.704-0.696-4.549-0.55-6.591
			c1.059-0.344,3.104-1.168,2.146-2.135c-1.268-1.281-5.266-0.209-5.266-0.209c-0.127,1.533,2.537,2.518,2.537,2.518
			s0.047-0.012,0.125-0.033c-0.138,1.258-0.316,3.266-0.266,4.859c-1.059,1.458-2.102,2.096-3.734,2.184
			c-1.408,0.076-2.734-2.516-2.734-2.516s0.335-0.176-0.462-0.019C52.732-55.076,54.318-51.805,57.158-51.957z"/>
		<path fill="#F2D03A" d="M55.742-67.975l0.086-0.096c-0.924-0.223-2.414-0.781-3.289-0.095c-0.875,0.685-0.695,2.317,0.071,3.005
			C54.437-63.434,57.967-65.631,55.742-67.975z"/>
		<path fill="#F2D03A" d="M69.791-64.537c3.591,0.627,2.118-4.675-0.777-4.244l0.92,0.132
			C67.009-68.764,67.396-64.955,69.791-64.537z"/>
		<path fill="#F2D03A" d="M113.776-108.446c2.998,2.194,5.898,2.463,9.224,1.837v-4.945c-0.131-0.045-0.255-0.088-0.365-0.131
			c-0.277-0.104-0.453-0.517-0.557-1.107c-0.668,0.693-1.795,1.523-3.42,1.609c-2.84,0.152-4.425-3.119-3.627-3.276
			c0.797-0.157,0.461,0.019,0.461,0.019s1.327,2.592,2.734,2.516c1.633-0.088,2.676-0.726,3.734-2.184
			c-0.05-1.594,0.129-3.602,0.266-4.859c-0.078,0.021-0.124,0.033-0.124,0.033s-2.665-0.984-2.538-2.518
			c0,0,1.853-0.496,3.436-0.409V-124h-4.579c-0.74,1.801-2.501,3.007-5.21,1.721c-0.873-0.406-1.439-1.02-1.765-1.721h-2.929
			c-0.045,1.236-0.09,2.473-0.123,3.714C108.295-115.355,109.693-111.418,113.776-108.446z"/>
		<path fill="#F2D03A" d="M123-112.983v-6.233c-0.111,0.039-0.219,0.076-0.316,0.107C122.559-117.35,122.579-114.258,123-112.983z"
			/>
		<path fill="#F2D03A" d="M116.725-124h-2.034C115.352-123.685,116.105-123.723,116.725-124z"/>
		<path fill="#F2D03A" d="M115.078-12.699c-1.129-2.311-3.529-4.552-5.521-5.994c-0.145,0.736-0.195,1.469-0.247,2.201
			c-0.298,5.526-0.593,10.994-0.792,16.492h2.929c-1.312-2.834,1.391-7.129,4.493-5.176l-0.768-0.688
			c3.293-0.446,4.299,3.31,3.249,5.864H123v-10.612c-0.322-0.007-0.644-0.017-0.969,0.001
			C118.484-10.42,116.811-9.327,115.078-12.699z"/>
		<path fill="#F2D03A" d="M117.243-3.201l0.085-0.096c-0.924-0.223-2.414-0.781-3.288-0.095c-0.875,0.685-0.696,2.317,0.071,3.005
			c0.178,0.168,0.375,0.289,0.579,0.387h2.034C117.871-0.514,118.545-1.829,117.243-3.201z"/>
		<path fill="#F2D03A" d="M5.697-107.428c1.422-0.715,2.99-2.077,4.309-2.969c2.195-1.578,3.894-5.592,4.389-8.264
			c0.342-1.709,0.396-3.529,0.4-5.34h-3.578c-0.383,1.498-1.502,2.679-3.533,2.691c-1.879,0.002-3.088-1.195-3.641-2.691H0v2.138
			c0.742,0.041,1.426,0.208,1.83,0.618c0.87,0.879-0.734,1.637-1.83,2.027v6.233c0.067,0.205,0.145,0.367,0.234,0.465
			c0.597,0.651,2.438-0.168,2.438-0.168c1.35,0.054,2.75-2.001,2.892-2.259c0.144-0.258,1.007,0.238,1.007,0.238
			c-2.438,4.082-5.096,3.649-6.57,3.152v4.945c0.15-0.028,0.296-0.048,0.447-0.08C2.16-107.055,4.186-106.709,5.697-107.428z"/>
		<path fill="#F2D03A" d="M9.846-124H7.622c0.202,0.107,0.423,0.193,0.669,0.236C8.999-123.641,9.504-123.752,9.846-124z"/>
		<path fill="#F2D03A" d="M14.854-4.717c0.137-2.562,0.549-5.047,0.684-7.607c0.088-1.738-0.287-3.633,0.074-5.385l-4.656,3.541
			c-1.185,0.804-2.365,1.582-3.416,2.367c-1.057,0.695-1.926,1.472-3.205,1.449C2.912-10.35,1.475-10.579,0-10.612V0h4.043
			C3.091-2.572,4.089-6.033,7.04-5.847L6.646-6.373C10.115-6.56,11.916-2.74,11.217,0h3.578C14.799-1.609,14.764-3.211,14.854-4.717
			z"/>
		<path fill="#F2D03A" d="M7.515-4.008l0.919,0.132C5.811-3.979,5.857-0.932,7.622,0h2.224C11.24-1.01,9.839-4.354,7.515-4.008z"/>
		<polygon fill="#F2D03A" points="31,-97 31,-100 25,-100 25,-97 		"/>
		<polygon fill="#F2D03A" points="22,-100 17,-100 17,-97 22,-97 		"/>
		<polygon fill="#F2D03A" points="25,-105 22,-105 22,-100 25,-100 		"/>
		<polygon fill="#F2D03A" points="22,-91 25,-91 25,-97 22,-97 		"/>
		<polygon fill="#F2D03A" points="25,-97 25,-100 22,-100 22,-97 		"/>
		<polygon fill="#F2D03A" points="69,-123 69,-124 63,-124 63,-123 		"/>
		<polygon fill="#F2D03A" points="60,-123 60,-124 55,-124 55,-123 		"/>
		<polygon fill="#F2D03A" points="60,-117 63,-117 63,-123 60,-123 		"/>
		<polygon fill="#F2D03A" points="63,-123 63,-124 60,-124 60,-123 		"/>
		<polygon fill="#F2D03A" points="55,-2 55,0 60,0 60,-2 		"/>
		<polygon fill="#F2D03A" points="69,-2 63,-2 63,0 69,0 		"/>
		<polygon fill="#F2D03A" points="60,-7 60,-2 63,-2 63,-7 		"/>
		<polygon fill="#F2D03A" points="60,-2 60,0 63,0 63,-2 		"/>
		<polygon fill="#F2D03A" points="89,-35 83,-35 83,-32 89,-32 		"/>
		<polygon fill="#F2D03A" points="97,-32 97,-35 92,-35 92,-32 		"/>
		<polygon fill="#F2D03A" points="89,-26 92,-26 92,-32 89,-32 		"/>
		<polygon fill="#F2D03A" points="92,-40 89,-40 89,-35 92,-35 		"/>
		<polygon fill="#F2D03A" points="92,-32 92,-35 89,-35 89,-32 		"/>
		<polygon fill="#F2D03A" points="18,-30 32,-30 32,-33 18,-33 		"/>
		<polygon fill="#F2D03A" points="7,-68 0,-68 0,-65 7,-65 		"/>
		<polygon fill="#F2D03A" points="117,-65 123,-65 123,-68 117,-68 		"/>
		<polygon fill="#F2D03A" points="97,-100 83,-100 83,-97 97,-97 		"/>
	</g>
</pattern>
<pattern  y="153.143" width="127.842" height="157.915" patternUnits="userSpaceOnUse" id="New_Pattern_5" viewBox="21.519 -157.915 127.842 157.915" overflow="visible">
	<g>
		<polygon fill="none" points="21.519,-157.915 149.36,-157.915 149.36,0 21.519,0 		"/>
		<g>
			<line fill="none" stroke="#DC5136" stroke-miterlimit="10" x1="141.844" y1="-31.229" x2="120.95" y2="-10.334"/>
			<line fill="none" stroke="#DC5136" stroke-miterlimit="10" x1="144.957" y1="-27.907" x2="124.062" y2="-7.012"/>
			<line fill="none" stroke="#DC5136" stroke-miterlimit="10" x1="149.09" y1="-24.57" x2="128.195" y2="-3.676"/>
			<line fill="none" stroke="#DC5136" stroke-miterlimit="10" x1="152.203" y1="-21.248" x2="131.309" y2="-0.354"/>
		</g>
		<g>
			<line fill="none" stroke="#DC5136" stroke-miterlimit="10" x1="109.884" y1="-31.229" x2="88.989" y2="-10.334"/>
			<line fill="none" stroke="#DC5136" stroke-miterlimit="10" x1="112.997" y1="-27.907" x2="92.103" y2="-7.012"/>
			<line fill="none" stroke="#DC5136" stroke-miterlimit="10" x1="117.13" y1="-24.57" x2="96.235" y2="-3.676"/>
			<line fill="none" stroke="#DC5136" stroke-miterlimit="10" x1="120.243" y1="-21.248" x2="99.349" y2="-0.354"/>
		</g>
		<g>
			<line fill="none" stroke="#DC5136" stroke-miterlimit="10" x1="77.923" y1="-31.229" x2="57.029" y2="-10.334"/>
			<line fill="none" stroke="#DC5136" stroke-miterlimit="10" x1="81.036" y1="-27.907" x2="60.142" y2="-7.012"/>
			<line fill="none" stroke="#DC5136" stroke-miterlimit="10" x1="85.169" y1="-24.57" x2="64.274" y2="-3.676"/>
			<line fill="none" stroke="#DC5136" stroke-miterlimit="10" x1="88.282" y1="-21.248" x2="67.388" y2="-0.354"/>
		</g>
		<g>
			<line fill="none" stroke="#DC5136" stroke-miterlimit="10" x1="45.962" y1="-31.229" x2="25.068" y2="-10.334"/>
			<line fill="none" stroke="#DC5136" stroke-miterlimit="10" x1="49.076" y1="-27.907" x2="28.181" y2="-7.012"/>
			<line fill="none" stroke="#DC5136" stroke-miterlimit="10" x1="53.208" y1="-24.57" x2="32.314" y2="-3.676"/>
			<line fill="none" stroke="#DC5136" stroke-miterlimit="10" x1="56.322" y1="-21.248" x2="35.427" y2="-0.354"/>
		</g>
		<g>
			<line fill="none" stroke="#DC5136" stroke-miterlimit="10" x1="21.248" y1="-24.57" x2="0.354" y2="-3.676"/>
			<line fill="none" stroke="#DC5136" stroke-miterlimit="10" x1="24.361" y1="-21.248" x2="3.467" y2="-0.354"/>
		</g>
		<g>
			<line fill="none" stroke="#DC5136" stroke-miterlimit="10" x1="148.236" y1="-62.812" x2="127.342" y2="-41.917"/>
			<line fill="none" stroke="#DC5136" stroke-miterlimit="10" x1="151.35" y1="-59.49" x2="130.455" y2="-38.595"/>
			<line fill="none" stroke="#DC5136" stroke-miterlimit="10" x1="155.482" y1="-56.153" x2="134.588" y2="-35.259"/>
			<line fill="none" stroke="#DC5136" stroke-miterlimit="10" x1="158.596" y1="-52.831" x2="137.701" y2="-31.937"/>
		</g>
		<g>
			<line fill="none" stroke="#DC5136" stroke-miterlimit="10" x1="116.275" y1="-62.812" x2="95.381" y2="-41.917"/>
			<line fill="none" stroke="#DC5136" stroke-miterlimit="10" x1="119.389" y1="-59.49" x2="98.494" y2="-38.595"/>
			<line fill="none" stroke="#DC5136" stroke-miterlimit="10" x1="123.521" y1="-56.153" x2="102.627" y2="-35.259"/>
			<line fill="none" stroke="#DC5136" stroke-miterlimit="10" x1="126.635" y1="-52.831" x2="105.74" y2="-31.937"/>
		</g>
		<g>
			<line fill="none" stroke="#DC5136" stroke-miterlimit="10" x1="84.314" y1="-62.812" x2="63.421" y2="-41.917"/>
			<line fill="none" stroke="#DC5136" stroke-miterlimit="10" x1="87.428" y1="-59.49" x2="66.534" y2="-38.595"/>
			<line fill="none" stroke="#DC5136" stroke-miterlimit="10" x1="91.561" y1="-56.153" x2="70.667" y2="-35.259"/>
			<line fill="none" stroke="#DC5136" stroke-miterlimit="10" x1="94.674" y1="-52.831" x2="73.779" y2="-31.937"/>
		</g>
		<g>
			<line fill="none" stroke="#DC5136" stroke-miterlimit="10" x1="52.354" y1="-62.812" x2="31.46" y2="-41.917"/>
			<line fill="none" stroke="#DC5136" stroke-miterlimit="10" x1="55.468" y1="-59.49" x2="34.573" y2="-38.595"/>
			<line fill="none" stroke="#DC5136" stroke-miterlimit="10" x1="59.601" y1="-56.153" x2="38.706" y2="-35.259"/>
			<line fill="none" stroke="#DC5136" stroke-miterlimit="10" x1="62.714" y1="-52.831" x2="41.819" y2="-31.937"/>
		</g>
		<g>
			<line fill="none" stroke="#DC5136" stroke-miterlimit="10" x1="23.507" y1="-59.49" x2="2.613" y2="-38.595"/>
			<line fill="none" stroke="#DC5136" stroke-miterlimit="10" x1="27.64" y1="-56.153" x2="6.746" y2="-35.259"/>
			<line fill="none" stroke="#DC5136" stroke-miterlimit="10" x1="30.753" y1="-52.831" x2="9.859" y2="-31.937"/>
		</g>
		<g>
			<line fill="none" stroke="#DC5136" stroke-miterlimit="10" x1="154.628" y1="-94.395" x2="133.734" y2="-73.5"/>
			<line fill="none" stroke="#DC5136" stroke-miterlimit="10" x1="157.741" y1="-91.073" x2="136.847" y2="-70.178"/>
			<line fill="none" stroke="#DC5136" stroke-miterlimit="10" x1="161.874" y1="-87.736" x2="140.979" y2="-66.842"/>
			<line fill="none" stroke="#DC5136" stroke-miterlimit="10" x1="164.987" y1="-84.414" x2="144.093" y2="-63.52"/>
		</g>
		<g>
			<line fill="none" stroke="#DC5136" stroke-miterlimit="10" x1="122.668" y1="-94.395" x2="101.773" y2="-73.5"/>
			<line fill="none" stroke="#DC5136" stroke-miterlimit="10" x1="125.781" y1="-91.073" x2="104.887" y2="-70.178"/>
			<line fill="none" stroke="#DC5136" stroke-miterlimit="10" x1="129.914" y1="-87.736" x2="109.02" y2="-66.842"/>
			<line fill="none" stroke="#DC5136" stroke-miterlimit="10" x1="133.027" y1="-84.414" x2="112.133" y2="-63.52"/>
		</g>
		<g>
			<line fill="none" stroke="#DC5136" stroke-miterlimit="10" x1="90.707" y1="-94.395" x2="69.813" y2="-73.5"/>
			<line fill="none" stroke="#DC5136" stroke-miterlimit="10" x1="93.82" y1="-91.073" x2="72.926" y2="-70.178"/>
			<line fill="none" stroke="#DC5136" stroke-miterlimit="10" x1="97.953" y1="-87.736" x2="77.059" y2="-66.842"/>
			<line fill="none" stroke="#DC5136" stroke-miterlimit="10" x1="101.066" y1="-84.414" x2="80.172" y2="-63.52"/>
		</g>
		<g>
			<line fill="none" stroke="#DC5136" stroke-miterlimit="10" x1="58.747" y1="-94.395" x2="37.853" y2="-73.5"/>
			<line fill="none" stroke="#DC5136" stroke-miterlimit="10" x1="61.86" y1="-91.073" x2="40.965" y2="-70.178"/>
			<line fill="none" stroke="#DC5136" stroke-miterlimit="10" x1="65.993" y1="-87.736" x2="45.098" y2="-66.842"/>
			<line fill="none" stroke="#DC5136" stroke-miterlimit="10" x1="69.106" y1="-84.414" x2="48.211" y2="-63.52"/>
		</g>
		<g>
			<line fill="none" stroke="#DC5136" stroke-miterlimit="10" x1="26.786" y1="-94.395" x2="5.892" y2="-73.5"/>
			<line fill="none" stroke="#DC5136" stroke-miterlimit="10" x1="29.899" y1="-91.073" x2="9.005" y2="-70.178"/>
			<line fill="none" stroke="#DC5136" stroke-miterlimit="10" x1="34.032" y1="-87.736" x2="13.138" y2="-66.842"/>
			<line fill="none" stroke="#DC5136" stroke-miterlimit="10" x1="37.146" y1="-84.414" x2="16.251" y2="-63.52"/>
		</g>
		<g>
			<line fill="none" stroke="#DC5136" stroke-miterlimit="10" x1="161.02" y1="-125.978" x2="140.127" y2="-105.083"/>
			<line fill="none" stroke="#DC5136" stroke-miterlimit="10" x1="164.133" y1="-122.656" x2="143.238" y2="-101.761"/>
			<line fill="none" stroke="#DC5136" stroke-miterlimit="10" x1="168.266" y1="-119.319" x2="147.371" y2="-98.425"/>
		</g>
		<g>
			<line fill="none" stroke="#DC5136" stroke-miterlimit="10" x1="129.061" y1="-125.978" x2="108.166" y2="-105.083"/>
			<line fill="none" stroke="#DC5136" stroke-miterlimit="10" x1="132.174" y1="-122.656" x2="111.279" y2="-101.761"/>
			<line fill="none" stroke="#DC5136" stroke-miterlimit="10" x1="136.307" y1="-119.319" x2="115.412" y2="-98.425"/>
			<line fill="none" stroke="#DC5136" stroke-miterlimit="10" x1="139.42" y1="-115.997" x2="118.525" y2="-95.103"/>
		</g>
		<g>
			<line fill="none" stroke="#DC5136" stroke-miterlimit="10" x1="97.1" y1="-125.978" x2="76.205" y2="-105.083"/>
			<line fill="none" stroke="#DC5136" stroke-miterlimit="10" x1="100.213" y1="-122.656" x2="79.318" y2="-101.761"/>
			<line fill="none" stroke="#DC5136" stroke-miterlimit="10" x1="104.346" y1="-119.319" x2="83.451" y2="-98.425"/>
			<line fill="none" stroke="#DC5136" stroke-miterlimit="10" x1="107.459" y1="-115.997" x2="86.564" y2="-95.103"/>
		</g>
		<g>
			<line fill="none" stroke="#DC5136" stroke-miterlimit="10" x1="65.139" y1="-125.978" x2="44.245" y2="-105.083"/>
			<line fill="none" stroke="#DC5136" stroke-miterlimit="10" x1="68.252" y1="-122.656" x2="47.357" y2="-101.761"/>
			<line fill="none" stroke="#DC5136" stroke-miterlimit="10" x1="72.385" y1="-119.319" x2="51.49" y2="-98.425"/>
			<line fill="none" stroke="#DC5136" stroke-miterlimit="10" x1="75.498" y1="-115.997" x2="54.604" y2="-95.103"/>
		</g>
		<g>
			<line fill="none" stroke="#DC5136" stroke-miterlimit="10" x1="33.178" y1="-125.978" x2="12.284" y2="-105.083"/>
			<line fill="none" stroke="#DC5136" stroke-miterlimit="10" x1="36.292" y1="-122.656" x2="15.397" y2="-101.761"/>
			<line fill="none" stroke="#DC5136" stroke-miterlimit="10" x1="40.424" y1="-119.319" x2="19.53" y2="-98.425"/>
			<line fill="none" stroke="#DC5136" stroke-miterlimit="10" x1="43.538" y1="-115.997" x2="22.643" y2="-95.103"/>
		</g>
		<g>
			<line fill="none" stroke="#DC5136" stroke-miterlimit="10" x1="167.412" y1="-157.561" x2="146.519" y2="-136.666"/>
			<line fill="none" stroke="#DC5136" stroke-miterlimit="10" x1="170.525" y1="-154.239" x2="149.631" y2="-133.344"/>
		</g>
		<g>
			<line fill="none" stroke="#DC5136" stroke-miterlimit="10" x1="135.452" y1="-157.561" x2="114.558" y2="-136.666"/>
			<line fill="none" stroke="#DC5136" stroke-miterlimit="10" x1="138.565" y1="-154.239" x2="117.671" y2="-133.344"/>
			<line fill="none" stroke="#DC5136" stroke-miterlimit="10" x1="142.698" y1="-150.902" x2="121.804" y2="-130.008"/>
			<line fill="none" stroke="#DC5136" stroke-miterlimit="10" x1="145.812" y1="-147.58" x2="124.917" y2="-126.686"/>
		</g>
		<g>
			<line fill="none" stroke="#DC5136" stroke-miterlimit="10" x1="103.491" y1="-157.561" x2="82.598" y2="-136.666"/>
			<line fill="none" stroke="#DC5136" stroke-miterlimit="10" x1="106.604" y1="-154.239" x2="85.71" y2="-133.344"/>
			<line fill="none" stroke="#DC5136" stroke-miterlimit="10" x1="110.737" y1="-150.902" x2="89.843" y2="-130.008"/>
			<line fill="none" stroke="#DC5136" stroke-miterlimit="10" x1="113.851" y1="-147.58" x2="92.956" y2="-126.686"/>
		</g>
		<g>
			<line fill="none" stroke="#DC5136" stroke-miterlimit="10" x1="71.531" y1="-157.561" x2="50.637" y2="-136.666"/>
			<line fill="none" stroke="#DC5136" stroke-miterlimit="10" x1="74.645" y1="-154.239" x2="53.75" y2="-133.344"/>
			<line fill="none" stroke="#DC5136" stroke-miterlimit="10" x1="78.777" y1="-150.902" x2="57.882" y2="-130.008"/>
			<line fill="none" stroke="#DC5136" stroke-miterlimit="10" x1="81.891" y1="-147.58" x2="60.996" y2="-126.686"/>
		</g>
		<g>
			<line fill="none" stroke="#DC5136" stroke-miterlimit="10" x1="39.57" y1="-157.561" x2="18.676" y2="-136.666"/>
			<line fill="none" stroke="#DC5136" stroke-miterlimit="10" x1="42.684" y1="-154.239" x2="21.789" y2="-133.344"/>
			<line fill="none" stroke="#DC5136" stroke-miterlimit="10" x1="46.816" y1="-150.902" x2="25.922" y2="-130.008"/>
			<line fill="none" stroke="#DC5136" stroke-miterlimit="10" x1="49.93" y1="-147.58" x2="29.035" y2="-126.686"/>
		</g>
	</g>
</pattern>
<g id="background_1_">
	
		<radialGradient id="SVGID_1_" cx="81.8613" cy="76.4575" r="125.1703" gradientTransform="matrix(1 0 0 1.3094 0 -23.6521)" gradientUnits="userSpaceOnUse">
		<stop  offset="0" style="stop-color:#F6E867"/>
		<stop  offset="0.3095" style="stop-color:#F6E45F"/>
		<stop  offset="0.7616" style="stop-color:#F3D849"/>
		<stop  offset="1" style="stop-color:#F2D13B"/>
	</radialGradient>
	<rect x="0.056" y="-0.229" fill="url(#SVGID_1_)" width="163.611" height="153.372"/>
	<pattern  id="SVGID_2_" xlink:href="#New_Pattern_4" patternTransform="matrix(0.3319 0 0 0.3392 -5360.1426 -5473.5981)">
	</pattern>
	<rect x="0.266" y="-0.252" fill="url(#SVGID_2_)" width="260.918" height="153.418"/>
	<path fill="#DC5136" d="M261.144,0H151.5c8.218,48.924-1.142,98.108,2.894,147.143c0.043,1.621,0.076,4.32,0.106,6l106.646-1.422
		L261.144,0z"/>
	<path fill="#F2623D" d="M261.144-0.229H155.55c6.926,49.124-2.654,98.248,0.089,147.372c0,1.622-0.037,4.321-0.052,6h105.557
		V-0.229z"/>
	<pattern  id="SVGID_3_" xlink:href="#New_Pattern_5" patternTransform="matrix(0.4482 0 0 0.4482 -4399.5576 -4588.1406)">
	</pattern>
	<path fill="url(#SVGID_3_)" d="M261.184-0.287H155.51c6.932,49.161-2.656,98.323,0.089,147.483c0,1.623-0.037,4.324-0.052,6.006
		h105.637V-0.287z"/>
	<text transform="matrix(1 0 0 1 200.8672 143.6157)"><tspan x="0" y="0" fill="#F6E867" font-family="'PlutoRegular'" font-size="5">Cat Math Do © </tspan><tspan x="40.274" y="0" fill="#F6E867" font-family="'PlutoRegular'" font-size="4">2014</tspan></text>
</g>
<g id="cats_copy">
	<g>
		<g>
			<g>
				<path fill="#1D427D" d="M195.08,99.467l-0.648-0.59c-0.872,0.864-4.477,6.018-5.242,6.844c-0.782,0.752-1.395,1.548-2.477,1.728
					c-1.461,0.271-3,0.245-4.518,0.611c-2.968,0.717-5.25,2.374-7.243-0.2c-1.314-1.775-2.649-3.762-4.555-4.666
					c-0.009,0.645,0.063,1.274,0.134,1.897c0.756,5.771,1.492,11.47,2.399,17.203c0.688,4.178,2.487,7.284,6.398,9.15
					c3.006,1.444,5.589,1.143,8.442-0.031c1.39-0.579,3.153-0.604,4.312-1.449c1.092-0.828,2.2-2.221,3.174-3.181
					c1.606-1.679,2.41-5.331,2.411-7.666c0.037-2.826-0.853-5.828-1.191-8.565c-0.288-2.181-0.328-4.343-0.615-6.525
					C195.663,102.545,195.047,101.002,195.08,99.467z M176.683,119.858c-4.032-1.034-2.43-7.7,1.224-6.252l-0.757-0.46
					C181.77,111.623,182.705,121.454,176.683,119.858z M186.301,127.322c-0.25-0.044-0.463-0.364-0.644-0.848
					c-0.456,0.688-1.276,1.568-2.635,1.896c-2.375,0.573-4.225-1.94-3.576-2.198c0.646-0.256,0.392-0.057,0.392-0.057
					s1.526,1.981,2.704,1.698c1.362-0.333,2.146-1.036,2.809-2.434c-0.291-1.336-0.455-3.057-0.536-4.144
					c-0.062,0.03-0.102,0.049-0.102,0.049s-2.402-0.413-2.535-1.728c0,0,3.206-1.534,4.477-0.649
					c0.962,0.665-0.636,1.683-1.478,2.139c0.199,1.747,0.844,4.986,1.5,5.478c0.605,0.458,2.032-0.523,2.032-0.523
					c1.146-0.166,2.005-2.118,2.087-2.359c0.08-0.243,0.887,0.042,0.887,0.042C190.139,127.85,187.532,127.545,186.301,127.322z
					 M191.586,117.934c-4.313,0.804-5.87-6.625-1.882-7.106l-0.416-0.383C193.772,109.359,196.429,117.004,191.586,117.934z"/>
			</g>
		</g>
		<polygon fill="#F2F2F2" points="192.631,107.794 172.566,112.193 174.896,126.073 186.769,130.725 196.821,120.78 		"/>
		<g>
			<g>
				<g>
					<path fill="#4478BC" d="M194.432,98.877l-3.378,3.719c-0.872,0.863-1.746,1.71-2.51,2.533
						c-0.784,0.753-1.397,1.549-2.481,1.728c-1.459,0.275-2.996,0.246-4.516,0.612c-2.966,0.717-4.203,1.904-6.196-0.669
						c-1.317-1.774-3.695-3.291-5.604-4.196c-0.006,0.645,0.067,1.272,0.139,1.896c0.754,5.771,1.49,11.47,2.398,17.204
						c0.688,4.175,2.487,7.284,6.399,9.149c3.006,1.444,5.589,1.142,8.44-0.031c1.391-0.579,3.154-0.603,4.313-1.449
						c1.093-0.828,2.199-2.219,3.174-3.182c1.605-1.676,2.41-5.331,2.41-7.664c0.039-2.827-0.851-5.828-1.191-8.564
						c-0.288-2.183-0.328-4.344-0.616-6.528C195.016,101.957,194.401,100.412,194.432,98.877z M176.034,119.265
						c-4.033-1.033-2.428-7.698,1.224-6.251l-0.757-0.459C181.123,111.033,182.058,120.864,176.034,119.265z M185.651,126.732
						c-0.249-0.047-0.462-0.366-0.643-0.85c-0.455,0.691-1.275,1.567-2.632,1.896c-2.377,0.574-4.227-1.94-3.578-2.197
						c0.645-0.258,0.39-0.058,0.39-0.058s1.53,1.981,2.707,1.696c1.362-0.331,2.144-1.034,2.807-2.431
						c-0.289-1.337-0.454-3.058-0.536-4.144c-0.062,0.029-0.102,0.05-0.102,0.05s-2.4-0.414-2.533-1.727
						c0,0,3.204-1.535,4.476-0.652c0.962,0.666-0.637,1.686-1.477,2.138c0.196,1.748,0.842,4.987,1.498,5.48
						c0.604,0.455,2.034-0.526,2.034-0.526c1.144-0.164,2.004-2.118,2.086-2.36c0.079-0.238,0.885,0.047,0.885,0.047
						C189.49,127.259,186.886,126.954,185.651,126.732z M190.94,117.344c-4.315,0.804-5.871-6.625-1.885-7.109l-0.416-0.38
						C193.127,108.767,195.782,116.414,190.94,117.344z"/>
				</g>
			</g>
			<g>
				<path fill="#4478BC" d="M178.666,114.477l0.057-0.094c-0.813-0.044-2.16-0.279-2.788,0.437c-0.633,0.715-0.226,2.065,0.53,2.527
					C178.278,118.516,180.911,116.108,178.666,114.477z"/>
			</g>
			<g>
				<path fill="#4478BC" d="M189.745,111.715l0.796-0.033c-2.488,0.361-1.56,3.516,0.523,3.494
					C194.196,115.141,192.122,110.897,189.745,111.715z"/>
			</g>
		</g>
	</g>
	<g>
		<g>
			<g>
				<path fill="#1D427D" d="M241.783,94.324l-0.521-0.685c-0.995,0.678-5.392,5.008-6.277,5.669
					c-0.89,0.586-1.622,1.245-2.698,1.225c-1.458,0.002-2.938-0.298-4.468-0.216c-2.991,0.163-5.488,1.356-6.952-1.483
					c-0.953-1.947-1.887-4.102-3.563-5.314c-0.123,0.621-0.166,1.241-0.209,1.855c-0.3,5.702-0.605,11.332-0.751,17.025
					c-0.081,4.153,1.102,7.472,4.541,9.97c2.643,1.93,5.19,2.098,8.152,1.475c1.443-0.312,3.149-0.021,4.419-0.63
					c1.2-0.604,2.519-1.751,3.629-2.503c1.849-1.333,3.276-4.714,3.693-6.967c0.539-2.721,0.216-5.775,0.377-8.477
					c0.11-2.155,0.457-4.249,0.57-6.406C241.797,97.397,241.478,95.798,241.783,94.324z M220.398,110.718
					c-3.708-1.718-0.973-7.863,2.294-5.814l-0.647-0.579C226.773,103.679,225.924,113.332,220.398,110.718z M228.348,119.634
					c-0.234-0.087-0.383-0.435-0.471-0.933c-0.562,0.582-1.511,1.285-2.879,1.359c-2.395,0.129-3.731-2.626-3.06-2.759
					c0.668-0.133,0.389,0.016,0.389,0.016s1.119,2.183,2.307,2.12c1.373-0.078,2.254-0.617,3.144-1.848
					c-0.044-1.341,0.104-3.03,0.221-4.094c-0.067,0.019-0.107,0.029-0.107,0.029s-2.243-0.826-2.138-2.118
					c0,0,3.366-0.909,4.435,0.171c0.811,0.813-0.913,1.51-1.806,1.8c-0.12,1.722-0.075,4.962,0.47,5.553
					c0.503,0.55,2.055-0.143,2.055-0.143c1.135,0.044,2.312-1.688,2.434-1.904c0.121-0.221,0.849,0.198,0.849,0.198
					C231.955,120.828,229.496,120.069,228.348,119.634z M235.12,111.519c-4.306,0.006-4.483-7.439-0.549-7.192l-0.334-0.444
					C238.758,103.635,239.958,111.485,235.12,111.519z"/>
			</g>
		</g>
		<polygon fill="#F2F2F2" points="237.936,101.92 217.792,102.588 217.566,116.396 228.192,123.001 239.664,115.198 		"/>
		<g>
			<g>
				<g>
					<path fill="#4478BC" d="M241.263,93.639l-3.923,2.985c-0.994,0.678-1.988,1.338-2.872,1.996
						c-0.892,0.588-1.625,1.246-2.702,1.226c-1.458,0.005-2.936-0.297-4.467-0.214c-2.989,0.163-4.395,1.088-5.858-1.751
						c-0.955-1.946-2.979-3.833-4.66-5.048c-0.12,0.621-0.161,1.24-0.204,1.855c-0.302,5.701-0.606,11.332-0.753,17.026
						c-0.08,4.151,1.102,7.472,4.544,9.968c2.643,1.931,5.188,2.099,8.149,1.476c1.445-0.312,3.15-0.02,4.42-0.63
						c1.201-0.604,2.517-1.748,3.629-2.504c1.849-1.33,3.276-4.714,3.692-6.965c0.541-2.722,0.219-5.775,0.377-8.476
						c0.111-2.156,0.458-4.249,0.568-6.409C241.277,96.713,240.961,95.114,241.263,93.639z M219.878,110.03
						c-3.708-1.715-0.971-7.859,2.294-5.812l-0.647-0.578C226.255,102.994,225.404,112.646,219.878,110.03z M227.826,118.95
						c-0.232-0.09-0.381-0.437-0.469-0.936c-0.563,0.586-1.51,1.286-2.878,1.361c-2.396,0.13-3.731-2.626-3.061-2.759
						c0.668-0.133,0.387,0.015,0.387,0.015s1.122,2.185,2.308,2.119c1.375-0.076,2.254-0.615,3.144-1.845
						c-0.041-1.342,0.105-3.031,0.22-4.094c-0.063,0.018-0.105,0.03-0.105,0.03s-2.243-0.828-2.138-2.117
						c0,0,3.365-0.91,4.437,0.168c0.809,0.814-0.916,1.513-1.807,1.8c-0.122,1.722-0.078,4.962,0.468,5.555
						c0.502,0.546,2.058-0.145,2.058-0.145c1.133,0.045,2.311-1.688,2.433-1.906c0.119-0.216,0.845,0.202,0.845,0.202
						C231.435,120.142,228.977,119.383,227.826,118.95z M234.602,110.834c-4.307,0.006-4.482-7.438-0.551-7.196l-0.333-0.44
						C238.24,102.948,239.439,110.799,234.602,110.834z"/>
				</g>
			</g>
			<g>
				<path fill="#4478BC" d="M223.271,105.88l0.071-0.081c-0.776-0.188-2.034-0.655-2.768-0.076
					c-0.738,0.577-0.587,1.953,0.061,2.533C222.176,109.708,225.146,107.854,223.271,105.88z"/>
			</g>
			<g>
				<path fill="#4478BC" d="M234.451,105.19l0.775,0.109c-2.466-0.095-2.132,3.115-0.118,3.466
					C238.137,109.29,236.892,104.825,234.451,105.19z"/>
			</g>
		</g>
	</g>
	<g>
		<g>
			<g>
				<path fill="#1D427D" d="M190.902,17.667l-0.648-0.59c-0.872,0.864-4.477,6.018-5.242,6.844
					c-0.782,0.752-1.395,1.548-2.477,1.728c-1.461,0.272-3,0.245-4.518,0.611c-2.968,0.718-5.25,2.375-7.243-0.199
					c-1.314-1.775-2.649-3.762-4.555-4.667c-0.009,0.645,0.063,1.274,0.134,1.898c0.756,5.77,1.492,11.469,2.399,17.203
					c0.688,4.178,2.487,7.284,6.398,9.151c3.006,1.444,5.589,1.142,8.442-0.032c1.39-0.579,3.153-0.604,4.312-1.45
					c1.092-0.828,2.2-2.22,3.174-3.18c1.606-1.678,2.41-5.331,2.411-7.666c0.037-2.826-0.853-5.828-1.191-8.565
					c-0.288-2.181-0.328-4.343-0.615-6.526C191.485,20.745,190.869,19.202,190.902,17.667z M172.505,38.058
					c-4.032-1.035-2.43-7.701,1.224-6.252l-0.757-0.461C177.592,29.822,178.527,39.653,172.505,38.058z M182.123,45.522
					c-0.25-0.044-0.463-0.365-0.644-0.848c-0.456,0.688-1.276,1.568-2.635,1.896c-2.375,0.573-4.225-1.94-3.576-2.199
					c0.646-0.256,0.392-0.056,0.392-0.056s1.526,1.98,2.704,1.698c1.362-0.333,2.146-1.036,2.809-2.434
					c-0.291-1.335-0.455-3.057-0.536-4.144c-0.062,0.031-0.102,0.049-0.102,0.049s-2.402-0.413-2.535-1.728
					c0,0,3.206-1.534,4.477-0.65c0.962,0.666-0.636,1.683-1.478,2.139c0.199,1.748,0.844,4.987,1.5,5.478
					c0.605,0.458,2.032-0.523,2.032-0.523c1.146-0.166,2.005-2.119,2.087-2.36c0.08-0.242,0.887,0.042,0.887,0.042
					C185.961,46.05,183.354,45.745,182.123,45.522z M187.408,36.134c-4.313,0.803-5.87-6.625-1.882-7.107l-0.416-0.383
					C189.595,27.559,192.251,35.204,187.408,36.134z"/>
			</g>
		</g>
		<polygon fill="#F2F2F2" points="188.453,25.994 168.389,30.393 170.719,44.272 182.591,48.925 192.644,38.98 		"/>
		<g>
			<g>
				<g>
					<path fill="#4478BC" d="M190.254,17.077l-3.378,3.719c-0.872,0.863-1.746,1.709-2.51,2.532
						c-0.784,0.753-1.397,1.549-2.481,1.728c-1.459,0.275-2.996,0.246-4.516,0.612c-2.966,0.717-4.203,1.904-6.196-0.669
						c-1.317-1.775-3.695-3.291-5.604-4.197c-0.006,0.645,0.067,1.272,0.139,1.897c0.754,5.77,1.49,11.469,2.398,17.203
						c0.688,4.176,2.487,7.285,6.399,9.149c3.006,1.445,5.589,1.142,8.44-0.031c1.391-0.58,3.154-0.603,4.313-1.45
						c1.093-0.828,2.199-2.219,3.174-3.182c1.605-1.675,2.41-5.331,2.41-7.664c0.039-2.827-0.851-5.828-1.191-8.564
						c-0.288-2.182-0.328-4.344-0.616-6.528C190.838,20.156,190.224,18.611,190.254,17.077z M171.856,37.465
						c-4.033-1.033-2.428-7.698,1.224-6.251l-0.757-0.459C176.945,29.232,177.88,39.063,171.856,37.465z M181.474,44.932
						c-0.249-0.047-0.462-0.366-0.643-0.85c-0.455,0.692-1.275,1.568-2.632,1.896c-2.377,0.574-4.227-1.939-3.578-2.197
						c0.645-0.257,0.39-0.057,0.39-0.057s1.53,1.981,2.707,1.696c1.362-0.332,2.144-1.034,2.807-2.431
						c-0.289-1.337-0.454-3.058-0.536-4.144c-0.062,0.03-0.102,0.05-0.102,0.05s-2.4-0.415-2.533-1.727c0,0,3.204-1.535,4.476-0.653
						c0.962,0.667-0.637,1.686-1.477,2.138c0.196,1.749,0.842,4.988,1.498,5.48c0.604,0.455,2.034-0.526,2.034-0.526
						c1.144-0.165,2.004-2.119,2.086-2.361c0.079-0.239,0.885,0.047,0.885,0.047C185.312,45.459,182.708,45.153,181.474,44.932z
						 M186.763,35.544c-4.315,0.803-5.871-6.625-1.885-7.11l-0.416-0.38C188.949,26.967,191.604,34.613,186.763,35.544z"/>
				</g>
			</g>
			<g>
				<path fill="#4478BC" d="M174.488,32.677l0.057-0.094c-0.813-0.044-2.16-0.28-2.788,0.437c-0.633,0.714-0.226,2.065,0.53,2.527
					C174.101,36.716,176.733,34.308,174.488,32.677z"/>
			</g>
			<g>
				<path fill="#4478BC" d="M185.567,29.915l0.796-0.033c-2.488,0.361-1.56,3.517,0.523,3.494
					C190.019,33.341,187.944,29.096,185.567,29.915z"/>
			</g>
		</g>
	</g>
	<g>
		<g>
			<g>
				<path fill="#1D427D" d="M242.011,18.932l-0.53-0.697c-1.015,0.691-5.496,5.104-6.398,5.778c-0.906,0.597-1.653,1.269-2.75,1.248
					c-1.485,0.002-2.994-0.303-4.553-0.22c-3.049,0.167-5.594,1.382-7.087-1.512c-0.971-1.985-1.923-4.181-3.631-5.416
					c-0.125,0.632-0.169,1.265-0.213,1.891c-0.306,5.812-0.617,11.549-0.766,17.352c-0.083,4.233,1.122,7.615,4.629,10.162
					c2.692,1.966,5.289,2.138,8.308,1.502c1.471-0.317,3.211-0.021,4.504-0.642c1.224-0.616,2.567-1.784,3.698-2.551
					c1.885-1.358,3.34-4.804,3.765-7.1c0.55-2.772,0.221-5.886,0.384-8.639c0.113-2.197,0.467-4.331,0.582-6.529
					C242.024,22.065,241.699,20.436,242.011,18.932z M220.215,35.641c-3.778-1.75-0.991-8.014,2.339-5.925l-0.66-0.59
					C226.713,28.467,225.848,38.305,220.215,35.641z M228.317,44.729c-0.239-0.089-0.391-0.443-0.48-0.951
					c-0.572,0.594-1.539,1.311-2.934,1.385c-2.44,0.132-3.803-2.676-3.118-2.812c0.681-0.134,0.396,0.016,0.396,0.016
					s1.141,2.225,2.35,2.161c1.4-0.08,2.298-0.629,3.204-1.883c-0.044-1.367,0.107-3.089,0.226-4.173
					c-0.068,0.02-0.109,0.03-0.109,0.03s-2.286-0.842-2.179-2.158c0,0,3.431-0.927,4.52,0.174c0.826,0.829-0.931,1.539-1.841,1.834
					c-0.122,1.755-0.076,5.057,0.479,5.659c0.513,0.561,2.094-0.146,2.094-0.146c1.156,0.045,2.356-1.719,2.48-1.941
					c0.123-0.225,0.865,0.203,0.865,0.203C231.994,45.945,229.487,45.172,228.317,44.729z M235.22,36.458
					c-4.388,0.006-4.569-7.582-0.56-7.33l-0.34-0.453C238.928,28.423,240.15,36.423,235.22,36.458z"/>
			</g>
		</g>
		<polygon fill="#F2F2F2" points="238.089,26.675 217.56,27.356 217.329,41.428 228.159,48.16 239.851,40.207 		"/>
		<g>
			<g>
				<g>
					<path fill="#4478BC" d="M241.48,18.235l-3.998,3.043c-1.014,0.69-2.027,1.364-2.928,2.035c-0.908,0.599-1.656,1.27-2.754,1.249
						c-1.485,0.005-2.992-0.302-4.553-0.218c-3.046,0.167-4.479,1.109-5.971-1.784c-0.973-1.984-3.036-3.907-4.749-5.146
						c-0.123,0.634-0.165,1.264-0.208,1.891c-0.308,5.812-0.618,11.55-0.768,17.354c-0.082,4.231,1.123,7.616,4.631,10.16
						c2.693,1.968,5.288,2.139,8.306,1.503c1.474-0.317,3.211-0.02,4.505-0.642c1.225-0.615,2.565-1.782,3.699-2.552
						c1.884-1.356,3.339-4.804,3.762-7.098c0.553-2.774,0.224-5.887,0.385-8.639c0.113-2.198,0.467-4.331,0.58-6.532
						C241.495,21.369,241.172,19.738,241.48,18.235z M219.686,34.94c-3.78-1.748-0.99-8.011,2.337-5.924l-0.659-0.589
						C226.184,27.77,225.317,37.607,219.686,34.94z M227.786,44.031c-0.236-0.091-0.389-0.445-0.478-0.953
						c-0.574,0.597-1.54,1.311-2.934,1.387c-2.441,0.132-3.803-2.676-3.119-2.811c0.681-0.135,0.394,0.015,0.394,0.015
						s1.145,2.226,2.353,2.16c1.4-0.079,2.297-0.627,3.203-1.881c-0.041-1.367,0.108-3.089,0.225-4.172
						c-0.065,0.018-0.107,0.03-0.107,0.03s-2.286-0.843-2.179-2.158c0,0,3.43-0.928,4.521,0.171
						c0.824,0.831-0.933,1.542-1.841,1.834c-0.124,1.754-0.079,5.057,0.477,5.661c0.513,0.557,2.098-0.147,2.098-0.147
						c1.154,0.046,2.354-1.72,2.479-1.942c0.121-0.22,0.861,0.207,0.861,0.207C231.464,45.246,228.958,44.473,227.786,44.031z
						 M234.691,35.76c-4.39,0.005-4.569-7.582-0.562-7.334l-0.34-0.449C238.4,27.723,239.622,35.725,234.691,35.76z"/>
				</g>
			</g>
			<g>
				<path fill="#4478BC" d="M223.143,30.711l0.073-0.082c-0.792-0.191-2.074-0.668-2.821-0.078c-0.752,0.588-0.598,1.99,0.062,2.582
					C222.027,34.611,225.054,32.722,223.143,30.711z"/>
			</g>
			<g>
				<path fill="#4478BC" d="M234.538,30.007l0.79,0.112c-2.513-0.097-2.173,3.175-0.12,3.532
					C238.294,34.186,237.025,29.635,234.538,30.007z"/>
			</g>
		</g>
	</g>
	<g>
		<g>
			<g>
				<path fill="#1D427D" d="M216.32,56.982l-0.53-0.698c-1.015,0.691-5.496,5.104-6.398,5.778c-0.906,0.597-1.653,1.269-2.75,1.248
					c-1.486,0.002-2.994-0.303-4.553-0.22c-3.049,0.167-5.594,1.382-7.087-1.512c-0.971-1.985-1.923-4.181-3.631-5.416
					c-0.126,0.632-0.169,1.265-0.213,1.891c-0.306,5.812-0.617,11.549-0.767,17.352c-0.082,4.234,1.123,7.616,4.63,10.162
					c2.692,1.966,5.289,2.138,8.308,1.503c1.471-0.317,3.211-0.021,4.504-0.643c1.224-0.616,2.567-1.784,3.698-2.551
					c1.885-1.358,3.34-4.804,3.765-7.101c0.549-2.772,0.221-5.886,0.384-8.639c0.113-2.197,0.467-4.331,0.581-6.529
					C216.334,60.115,216.009,58.486,216.32,56.982z M194.524,73.691c-3.778-1.75-0.991-8.014,2.338-5.925l-0.659-0.59
					C201.022,66.518,200.157,76.355,194.524,73.691z M202.627,82.779c-0.239-0.089-0.391-0.442-0.48-0.951
					c-0.572,0.594-1.539,1.311-2.934,1.386c-2.44,0.132-3.804-2.676-3.118-2.812c0.681-0.135,0.396,0.016,0.396,0.016
					s1.142,2.226,2.351,2.161c1.4-0.08,2.298-0.629,3.204-1.883c-0.044-1.366,0.107-3.089,0.226-4.173
					c-0.068,0.02-0.109,0.03-0.109,0.03s-2.286-0.842-2.179-2.158c0,0,3.431-0.927,4.52,0.174c0.826,0.829-0.931,1.539-1.841,1.834
					c-0.122,1.755-0.076,5.058,0.479,5.659c0.513,0.561,2.094-0.146,2.094-0.146c1.156,0.045,2.356-1.72,2.48-1.941
					c0.123-0.224,0.865,0.203,0.865,0.203C206.304,83.995,203.797,83.222,202.627,82.779z M209.529,74.507
					c-4.388,0.006-4.569-7.582-0.56-7.33l-0.34-0.453C213.237,66.473,214.46,74.473,209.529,74.507z"/>
			</g>
		</g>
		<polygon fill="#F2F2F2" points="212.398,64.725 191.869,65.406 191.639,79.478 202.469,86.21 214.16,78.256 		"/>
		<g>
			<g>
				<g>
					<path fill="#4478BC" d="M215.79,56.285l-3.998,3.043c-1.014,0.69-2.027,1.364-2.928,2.035c-0.908,0.599-1.656,1.27-2.754,1.249
						c-1.485,0.005-2.992-0.302-4.553-0.218c-3.046,0.166-4.479,1.109-5.971-1.784c-0.974-1.984-3.036-3.907-4.749-5.145
						c-0.123,0.633-0.165,1.264-0.208,1.891c-0.308,5.811-0.618,11.55-0.768,17.353c-0.082,4.231,1.123,7.615,4.631,10.16
						c2.693,1.967,5.288,2.139,8.306,1.503c1.473-0.317,3.211-0.02,4.505-0.642c1.225-0.615,2.565-1.782,3.699-2.553
						c1.884-1.355,3.339-4.804,3.762-7.098c0.553-2.774,0.224-5.887,0.385-8.639c0.113-2.198,0.467-4.33,0.58-6.532
						C215.804,59.418,215.481,57.788,215.79,56.285z M193.995,72.99c-3.78-1.748-0.99-8.011,2.337-5.924l-0.659-0.589
						C200.493,65.819,199.627,75.657,193.995,72.99z M202.096,82.081c-0.237-0.092-0.389-0.444-0.478-0.953
						c-0.575,0.598-1.54,1.311-2.934,1.387c-2.441,0.133-3.803-2.676-3.119-2.811c0.681-0.136,0.394,0.015,0.394,0.015
						s1.145,2.227,2.353,2.16c1.4-0.078,2.297-0.628,3.203-1.881c-0.042-1.367,0.108-3.089,0.225-4.172
						c-0.065,0.018-0.107,0.03-0.107,0.03s-2.286-0.843-2.179-2.158c0,0,3.43-0.928,4.521,0.171
						c0.824,0.831-0.934,1.542-1.841,1.834c-0.124,1.755-0.079,5.057,0.477,5.661c0.513,0.558,2.098-0.147,2.098-0.147
						c1.154,0.047,2.354-1.72,2.479-1.942c0.122-0.22,0.862,0.207,0.862,0.207C205.773,83.296,203.268,82.523,202.096,82.081z
						 M209.001,73.81c-4.39,0.006-4.569-7.581-0.562-7.334l-0.34-0.449C212.71,65.772,213.932,73.775,209.001,73.81z"/>
				</g>
			</g>
			<g>
				<path fill="#4478BC" d="M197.452,68.761l0.072-0.082c-0.791-0.191-2.073-0.668-2.82-0.078c-0.753,0.588-0.598,1.99,0.062,2.581
					C196.337,72.661,199.363,70.772,197.452,68.761z"/>
			</g>
			<g>
				<path fill="#4478BC" d="M208.848,68.057l0.79,0.112c-2.513-0.097-2.173,3.175-0.121,3.532
					C212.604,72.235,211.335,67.685,208.848,68.057z"/>
			</g>
		</g>
	</g>
</g>
<g id="number__x26__sign">
	<g>
		<g>
			<path fill="#F2623D" stroke="#F2623D" stroke-width="4" stroke-miterlimit="10" d="M53.062,67.631l13.744,1.455l0.228,11.42
				l-15.417,1.143l-13.168,1.219l-14.356,0.494l0.142-14.122l14.613-0.898L53.062,67.631z"/>
		</g>
	</g>
	<g>
		<g>
			<path fill="#F2623D" stroke="#F2623D" stroke-width="4" stroke-miterlimit="10" d="M51.417,65.987l13.744,1.455l0.228,11.42
				l-15.417,1.143l-13.168,1.219l-14.356,0.494l0.142-14.121l14.613-0.899L51.417,65.987z"/>
		</g>
	</g>
	<g>
		<g>
			<path fill="#F2F2F2" stroke="#F2F2F2" stroke-width="0.5" stroke-miterlimit="10" d="M51.651,66.199l13.679,1.835l-0.09,11.423
				L49.797,80.17l-13.18,0.849l-14.381,0.097l0.535-14.111l14.653-0.499L51.651,66.199z"/>
		</g>
	</g>
	<g>
		<g>
			<path fill="#DC5136" stroke="#F2F2F2" stroke-width="0.5" stroke-miterlimit="10" d="M51.417,65.987l13.744,1.455l0.228,11.42
				l-15.417,1.143l-13.168,1.219l-14.356,0.494l0.142-14.121l14.613-0.899L51.417,65.987z"/>
		</g>
	</g>
	<polygon fill="#F2623D" points="23.768,82.53 20.445,83.835 22.067,85.497 24.125,82.57 	"/>
	<polygon fill="#F2623D" points="68.776,67.438 67.034,65.747 66.034,67.784 	"/>
	<polygon fill="#91BE49" points="88.436,105.815 86.593,104.057 91.138,101.614 	"/>
	<polygon fill="#91BE49" points="141.03,42.751 139.231,40.908 135.929,44.552 	"/>
	<g>
		<g>
			<path fill="#F2623D" stroke="#F2623D" stroke-width="4" stroke-miterlimit="10" d="M139.437,61.042l-25.742,0.173l-0.389,6.521
				h0.461c17.469,0,26.71,5.822,26.71,18.3c0,14.787-10.259,22.273-28.28,22.273c-9.705,0-18.578-2.586-21.904-3.695
				c0,0,0.201-2.42,1.375-4.664c1.172-2.244,2.598-9.977,2.598-9.977c3.234,1.297,10.723,1.238,16.821,1.238
				c5.731,0,8.597-1.939,8.597-4.713c0-2.68-2.219-5.848-7.209-5.848l-18.115,1.781l-0.832-0.74l1.605-18.25l1.361-17.821
				c0,0,18.936-0.373,21.78-0.89c2.845-0.518,21.062-0.194,21.062-0.194L139.437,61.042z"/>
		</g>
	</g>
	<g>
		<g>
			<path fill="#F2623D" stroke="#F2623D" stroke-width="4" stroke-miterlimit="10" d="M137.654,59.26l-25.741,0.172l-0.391,6.521
				h0.463c17.469,0,26.71,5.823,26.71,18.3c0,14.787-10.259,22.275-28.282,22.275c-9.704,0-18.576-2.588-21.903-3.699
				c0,0,0.202-2.418,1.374-4.662c1.174-2.246,2.6-9.975,2.6-9.975c3.234,1.293,10.721,1.236,16.821,1.236
				c5.731,0,8.595-1.941,8.595-4.715c0-2.68-2.218-5.848-7.208-5.848l-18.115,1.783l-0.831-0.74l1.604-18.25l1.361-17.82
				c0,0,18.936-0.374,21.78-0.891c2.846-0.518,21.062-0.193,21.062-0.193L137.654,59.26z"/>
		</g>
	</g>
	<g>
		<g>
			<path fill="#F2F2F2" stroke="#F2F2F2" stroke-width="0.5" stroke-miterlimit="10" d="M137.399,58.866l-25.734,0.596l-0.283,6.527
				l0.462-0.007c17.467-0.288,26.802,5.382,27.008,17.86c0.243,14.783-9.892,22.438-27.911,22.734
				c-9.703,0.16-18.616-2.279-21.962-3.336c0,0,0.163-2.422,1.298-4.686c1.136-2.264,2.435-10.018,2.435-10.018
				c3.255,1.24,10.739,1.061,16.839,0.961c5.73-0.096,8.562-2.082,8.518-4.854c-0.045-2.68-2.314-5.811-7.305-5.729l-18.084,2.078
				l-0.844-0.725l1.306-18.274l1.067-17.841c0,0,18.927-0.685,21.764-1.249c2.835-0.565,21.056-0.541,21.056-0.541L137.399,58.866z"
				/>
		</g>
	</g>
	<g>
		<g>
			<path fill="#DC5136" stroke="#F2F2F2" stroke-width="0.5" stroke-miterlimit="10" d="M137.654,59.26l-25.741,0.172l-0.391,6.521
				h0.463c17.469,0,26.71,5.823,26.71,18.3c0,14.787-10.259,22.275-28.282,22.275c-9.704,0-18.576-2.588-21.903-3.699
				c0,0,0.202-2.418,1.374-4.662c1.174-2.246,2.6-9.975,2.6-9.975c3.234,1.293,10.721,1.236,16.821,1.236
				c5.731,0,8.595-1.941,8.595-4.715c0-2.68-2.218-5.848-7.208-5.848l-18.115,1.783l-0.831-0.74l1.604-18.25l1.361-17.82
				c0,0,18.936-0.374,21.78-0.891c2.846-0.518,21.062-0.193,21.062-0.193L137.654,59.26z"/>
		</g>
	</g>
	<polygon fill="#91BE49" points="93.84,83.95 93.583,84.122 89.938,80.778 90.368,79.792 	"/>
</g>
</svg>
