<?xml version="1.0" encoding="utf-8"?>
<!-- Generator: Adobe Illustrator 16.0.0, SVG Export Plug-In . SVG Version: 6.00 Build 0)  -->
<!DOCTYPE svg PUBLIC "-//W3C//DTD SVG 1.1//EN" "http://www.w3.org/Graphics/SVG/1.1/DTD/svg11.dtd">
<svg version="1.1" xmlns="http://www.w3.org/2000/svg" xmlns:xlink="http://www.w3.org/1999/xlink" x="0px" y="0px"
	 width="261.144px" height="153.143px" viewBox="0 0 261.144 153.143" enable-background="new 0 0 261.144 153.143"
	 xml:space="preserve">
<pattern  y="153.143" width="123" height="124" patternUnits="userSpaceOnUse" id="New_Pattern_4" viewBox="0 -124 123 124" overflow="visible">
	<g>
		<polygon fill="none" points="0,-124 123,-124 123,0 0,0 		"/>
		<path fill="#F2D03A" d="M52.275-49.22c-4.082-2.972-5.48-6.909-5.382-11.84c0.183-6.759,0.551-13.437,0.915-20.206
			c0.052-0.732,0.104-1.465,0.247-2.201c1.993,1.442,4.394,3.684,5.521,5.994c1.733,3.372,3.406,2.279,6.953,2.088
			c1.818-0.099,3.571,0.263,5.304,0.26c1.279,0.022,2.148-0.754,3.205-1.449c1.051-0.785,2.23-1.563,3.415-2.367l4.656-3.541
			c-0.361,1.752,0.015,3.646-0.073,5.385c-0.135,2.561-0.548,5.045-0.684,7.607c-0.191,3.202,0.187,6.83-0.46,10.057
			c-0.495,2.672-2.193,6.686-4.388,8.264c-1.319,0.892-2.888,2.254-4.309,2.969c-1.512,0.719-3.537,0.373-5.25,0.738
			C58.43-46.725,55.409-46.926,52.275-49.22z M69.184-62.082c5.743-0.036,4.328-9.354-1.037-9.064l0.393,0.526
			C63.872-70.915,64.074-62.078,69.184-62.082z M53.672-70.638l0.768,0.688c-3.871-2.437-7.127,4.854-2.729,6.896
			C58.263-59.941,59.285-71.397,53.672-70.638z M57.158-51.957c1.625-0.086,2.752-0.916,3.42-1.609
			c0.104,0.591,0.278,1.003,0.556,1.107c1.364,0.516,4.283,1.422,6.937-3.021c0,0-0.864-0.496-1.008-0.238
			c-0.141,0.258-1.542,2.312-2.891,2.259c0,0-1.842,0.819-2.438,0.168c-0.646-0.704-0.696-4.549-0.55-6.591
			c1.059-0.344,3.104-1.168,2.146-2.135c-1.268-1.281-5.266-0.209-5.266-0.209c-0.127,1.533,2.537,2.518,2.537,2.518
			s0.047-0.012,0.125-0.033c-0.138,1.258-0.316,3.266-0.266,4.859c-1.059,1.458-2.102,2.096-3.734,2.184
			c-1.408,0.076-2.734-2.516-2.734-2.516s0.335-0.176-0.462-0.019C52.732-55.076,54.318-51.805,57.158-51.957z"/>
		<path fill="#F2D03A" d="M55.742-67.975l0.086-0.096c-0.924-0.223-2.414-0.781-3.289-0.095c-0.875,0.685-0.695,2.317,0.071,3.005
			C54.437-63.434,57.967-65.631,55.742-67.975z"/>
		<path fill="#F2D03A" d="M69.791-64.537c3.591,0.627,2.118-4.675-0.777-4.244l0.92,0.132
			C67.009-68.764,67.396-64.955,69.791-64.537z"/>
		<path fill="#F2D03A" d="M113.776-108.446c2.998,2.194,5.898,2.463,9.224,1.837v-4.945c-0.131-0.045-0.255-0.088-0.365-0.131
			c-0.277-0.104-0.453-0.517-0.557-1.107c-0.668,0.693-1.795,1.523-3.42,1.609c-2.84,0.152-4.425-3.119-3.627-3.276
			c0.797-0.157,0.461,0.019,0.461,0.019s1.327,2.592,2.734,2.516c1.633-0.088,2.676-0.726,3.734-2.184
			c-0.05-1.594,0.129-3.602,0.266-4.859c-0.078,0.021-0.124,0.033-0.124,0.033s-2.665-0.984-2.538-2.518
			c0,0,1.853-0.496,3.436-0.409V-124h-4.579c-0.74,1.801-2.501,3.007-5.21,1.721c-0.873-0.406-1.439-1.02-1.765-1.721h-2.929
			c-0.045,1.236-0.09,2.473-0.123,3.714C108.295-115.355,109.693-111.418,113.776-108.446z"/>
		<path fill="#F2D03A" d="M123-112.983v-6.233c-0.111,0.039-0.219,0.076-0.316,0.107C122.559-117.35,122.579-114.258,123-112.983z"
			/>
		<path fill="#F2D03A" d="M116.725-124h-2.034C115.352-123.685,116.105-123.723,116.725-124z"/>
		<path fill="#F2D03A" d="M115.078-12.699c-1.129-2.311-3.529-4.552-5.521-5.994c-0.145,0.736-0.195,1.469-0.247,2.201
			c-0.298,5.526-0.593,10.994-0.792,16.492h2.929c-1.312-2.834,1.391-7.129,4.493-5.176l-0.768-0.688
			c3.293-0.446,4.299,3.31,3.249,5.864H123v-10.612c-0.322-0.007-0.644-0.017-0.969,0.001
			C118.484-10.42,116.811-9.327,115.078-12.699z"/>
		<path fill="#F2D03A" d="M117.243-3.201l0.085-0.096c-0.924-0.223-2.414-0.781-3.288-0.095c-0.875,0.685-0.696,2.317,0.071,3.005
			c0.178,0.168,0.375,0.289,0.579,0.387h2.034C117.871-0.514,118.545-1.829,117.243-3.201z"/>
		<path fill="#F2D03A" d="M5.697-107.428c1.422-0.715,2.99-2.077,4.309-2.969c2.195-1.578,3.894-5.592,4.389-8.264
			c0.342-1.709,0.396-3.529,0.4-5.34h-3.578c-0.383,1.498-1.502,2.679-3.533,2.691c-1.879,0.002-3.088-1.195-3.641-2.691H0v2.138
			c0.742,0.041,1.426,0.208,1.83,0.618c0.87,0.879-0.734,1.637-1.83,2.027v6.233c0.067,0.205,0.145,0.367,0.234,0.465
			c0.597,0.651,2.438-0.168,2.438-0.168c1.35,0.054,2.75-2.001,2.892-2.259c0.144-0.258,1.007,0.238,1.007,0.238
			c-2.438,4.082-5.096,3.649-6.57,3.152v4.945c0.15-0.028,0.296-0.048,0.447-0.08C2.16-107.055,4.186-106.709,5.697-107.428z"/>
		<path fill="#F2D03A" d="M9.846-124H7.622c0.202,0.107,0.423,0.193,0.669,0.236C8.999-123.641,9.504-123.752,9.846-124z"/>
		<path fill="#F2D03A" d="M14.854-4.717c0.137-2.562,0.549-5.047,0.684-7.607c0.088-1.738-0.287-3.633,0.074-5.385l-4.656,3.541
			c-1.185,0.804-2.365,1.582-3.416,2.367c-1.057,0.695-1.926,1.472-3.205,1.449C2.912-10.35,1.475-10.579,0-10.612V0h4.043
			C3.091-2.572,4.089-6.033,7.04-5.847L6.646-6.373C10.115-6.56,11.916-2.74,11.217,0h3.578C14.799-1.609,14.764-3.211,14.854-4.717
			z"/>
		<path fill="#F2D03A" d="M7.515-4.008l0.919,0.132C5.811-3.979,5.857-0.932,7.622,0h2.224C11.24-1.01,9.839-4.354,7.515-4.008z"/>
		<polygon fill="#F2D03A" points="31,-97 31,-100 25,-100 25,-97 		"/>
		<polygon fill="#F2D03A" points="22,-100 17,-100 17,-97 22,-97 		"/>
		<polygon fill="#F2D03A" points="25,-105 22,-105 22,-100 25,-100 		"/>
		<polygon fill="#F2D03A" points="22,-91 25,-91 25,-97 22,-97 		"/>
		<polygon fill="#F2D03A" points="25,-97 25,-100 22,-100 22,-97 		"/>
		<polygon fill="#F2D03A" points="69,-123 69,-124 63,-124 63,-123 		"/>
		<polygon fill="#F2D03A" points="60,-123 60,-124 55,-124 55,-123 		"/>
		<polygon fill="#F2D03A" points="60,-117 63,-117 63,-123 60,-123 		"/>
		<polygon fill="#F2D03A" points="63,-123 63,-124 60,-124 60,-123 		"/>
		<polygon fill="#F2D03A" points="55,-2 55,0 60,0 60,-2 		"/>
		<polygon fill="#F2D03A" points="69,-2 63,-2 63,0 69,0 		"/>
		<polygon fill="#F2D03A" points="60,-7 60,-2 63,-2 63,-7 		"/>
		<polygon fill="#F2D03A" points="60,-2 60,0 63,0 63,-2 		"/>
		<polygon fill="#F2D03A" points="89,-35 83,-35 83,-32 89,-32 		"/>
		<polygon fill="#F2D03A" points="97,-32 97,-35 92,-35 92,-32 		"/>
		<polygon fill="#F2D03A" points="89,-26 92,-26 92,-32 89,-32 		"/>
		<polygon fill="#F2D03A" points="92,-40 89,-40 89,-35 92,-35 		"/>
		<polygon fill="#F2D03A" points="92,-32 92,-35 89,-35 89,-32 		"/>
		<polygon fill="#F2D03A" points="18,-30 32,-30 32,-33 18,-33 		"/>
		<polygon fill="#F2D03A" points="7,-68 0,-68 0,-65 7,-65 		"/>
		<polygon fill="#F2D03A" points="117,-65 123,-65 123,-68 117,-68 		"/>
		<polygon fill="#F2D03A" points="97,-100 83,-100 83,-97 97,-97 		"/>
	</g>
</pattern>
<pattern  y="153.143" width="127.842" height="157.915" patternUnits="userSpaceOnUse" id="New_Pattern_5" viewBox="21.519 -157.915 127.842 157.915" overflow="visible">
	<g>
		<polygon fill="none" points="21.519,-157.915 149.36,-157.915 149.36,0 21.519,0 		"/>
		<g>
			<line fill="none" stroke="#DC5136" stroke-miterlimit="10" x1="141.844" y1="-31.229" x2="120.95" y2="-10.334"/>
			<line fill="none" stroke="#DC5136" stroke-miterlimit="10" x1="144.957" y1="-27.907" x2="124.062" y2="-7.012"/>
			<line fill="none" stroke="#DC5136" stroke-miterlimit="10" x1="149.09" y1="-24.57" x2="128.195" y2="-3.676"/>
			<line fill="none" stroke="#DC5136" stroke-miterlimit="10" x1="152.203" y1="-21.248" x2="131.309" y2="-0.354"/>
		</g>
		<g>
			<line fill="none" stroke="#DC5136" stroke-miterlimit="10" x1="109.884" y1="-31.229" x2="88.989" y2="-10.334"/>
			<line fill="none" stroke="#DC5136" stroke-miterlimit="10" x1="112.997" y1="-27.907" x2="92.103" y2="-7.012"/>
			<line fill="none" stroke="#DC5136" stroke-miterlimit="10" x1="117.13" y1="-24.57" x2="96.235" y2="-3.676"/>
			<line fill="none" stroke="#DC5136" stroke-miterlimit="10" x1="120.243" y1="-21.248" x2="99.349" y2="-0.354"/>
		</g>
		<g>
			<line fill="none" stroke="#DC5136" stroke-miterlimit="10" x1="77.923" y1="-31.229" x2="57.029" y2="-10.334"/>
			<line fill="none" stroke="#DC5136" stroke-miterlimit="10" x1="81.036" y1="-27.907" x2="60.142" y2="-7.012"/>
			<line fill="none" stroke="#DC5136" stroke-miterlimit="10" x1="85.169" y1="-24.57" x2="64.274" y2="-3.676"/>
			<line fill="none" stroke="#DC5136" stroke-miterlimit="10" x1="88.282" y1="-21.248" x2="67.388" y2="-0.354"/>
		</g>
		<g>
			<line fill="none" stroke="#DC5136" stroke-miterlimit="10" x1="45.962" y1="-31.229" x2="25.068" y2="-10.334"/>
			<line fill="none" stroke="#DC5136" stroke-miterlimit="10" x1="49.076" y1="-27.907" x2="28.181" y2="-7.012"/>
			<line fill="none" stroke="#DC5136" stroke-miterlimit="10" x1="53.208" y1="-24.57" x2="32.314" y2="-3.676"/>
			<line fill="none" stroke="#DC5136" stroke-miterlimit="10" x1="56.322" y1="-21.248" x2="35.427" y2="-0.354"/>
		</g>
		<g>
			<line fill="none" stroke="#DC5136" stroke-miterlimit="10" x1="21.248" y1="-24.57" x2="0.354" y2="-3.676"/>
			<line fill="none" stroke="#DC5136" stroke-miterlimit="10" x1="24.361" y1="-21.248" x2="3.467" y2="-0.354"/>
		</g>
		<g>
			<line fill="none" stroke="#DC5136" stroke-miterlimit="10" x1="148.236" y1="-62.812" x2="127.342" y2="-41.917"/>
			<line fill="none" stroke="#DC5136" stroke-miterlimit="10" x1="151.35" y1="-59.49" x2="130.455" y2="-38.595"/>
			<line fill="none" stroke="#DC5136" stroke-miterlimit="10" x1="155.482" y1="-56.153" x2="134.588" y2="-35.259"/>
			<line fill="none" stroke="#DC5136" stroke-miterlimit="10" x1="158.596" y1="-52.831" x2="137.701" y2="-31.937"/>
		</g>
		<g>
			<line fill="none" stroke="#DC5136" stroke-miterlimit="10" x1="116.275" y1="-62.812" x2="95.381" y2="-41.917"/>
			<line fill="none" stroke="#DC5136" stroke-miterlimit="10" x1="119.389" y1="-59.49" x2="98.494" y2="-38.595"/>
			<line fill="none" stroke="#DC5136" stroke-miterlimit="10" x1="123.521" y1="-56.153" x2="102.627" y2="-35.259"/>
			<line fill="none" stroke="#DC5136" stroke-miterlimit="10" x1="126.635" y1="-52.831" x2="105.74" y2="-31.937"/>
		</g>
		<g>
			<line fill="none" stroke="#DC5136" stroke-miterlimit="10" x1="84.314" y1="-62.812" x2="63.421" y2="-41.917"/>
			<line fill="none" stroke="#DC5136" stroke-miterlimit="10" x1="87.428" y1="-59.49" x2="66.534" y2="-38.595"/>
			<line fill="none" stroke="#DC5136" stroke-miterlimit="10" x1="91.561" y1="-56.153" x2="70.667" y2="-35.259"/>
			<line fill="none" stroke="#DC5136" stroke-miterlimit="10" x1="94.674" y1="-52.831" x2="73.779" y2="-31.937"/>
		</g>
		<g>
			<line fill="none" stroke="#DC5136" stroke-miterlimit="10" x1="52.354" y1="-62.812" x2="31.46" y2="-41.917"/>
			<line fill="none" stroke="#DC5136" stroke-miterlimit="10" x1="55.468" y1="-59.49" x2="34.573" y2="-38.595"/>
			<line fill="none" stroke="#DC5136" stroke-miterlimit="10" x1="59.601" y1="-56.153" x2="38.706" y2="-35.259"/>
			<line fill="none" stroke="#DC5136" stroke-miterlimit="10" x1="62.714" y1="-52.831" x2="41.819" y2="-31.937"/>
		</g>
		<g>
			<line fill="none" stroke="#DC5136" stroke-miterlimit="10" x1="23.507" y1="-59.49" x2="2.613" y2="-38.595"/>
			<line fill="none" stroke="#DC5136" stroke-miterlimit="10" x1="27.64" y1="-56.153" x2="6.746" y2="-35.259"/>
			<line fill="none" stroke="#DC5136" stroke-miterlimit="10" x1="30.753" y1="-52.831" x2="9.859" y2="-31.937"/>
		</g>
		<g>
			<line fill="none" stroke="#DC5136" stroke-miterlimit="10" x1="154.628" y1="-94.395" x2="133.734" y2="-73.5"/>
			<line fill="none" stroke="#DC5136" stroke-miterlimit="10" x1="157.741" y1="-91.073" x2="136.847" y2="-70.178"/>
			<line fill="none" stroke="#DC5136" stroke-miterlimit="10" x1="161.874" y1="-87.736" x2="140.979" y2="-66.842"/>
			<line fill="none" stroke="#DC5136" stroke-miterlimit="10" x1="164.987" y1="-84.414" x2="144.093" y2="-63.52"/>
		</g>
		<g>
			<line fill="none" stroke="#DC5136" stroke-miterlimit="10" x1="122.668" y1="-94.395" x2="101.773" y2="-73.5"/>
			<line fill="none" stroke="#DC5136" stroke-miterlimit="10" x1="125.781" y1="-91.073" x2="104.887" y2="-70.178"/>
			<line fill="none" stroke="#DC5136" stroke-miterlimit="10" x1="129.914" y1="-87.736" x2="109.02" y2="-66.842"/>
			<line fill="none" stroke="#DC5136" stroke-miterlimit="10" x1="133.027" y1="-84.414" x2="112.133" y2="-63.52"/>
		</g>
		<g>
			<line fill="none" stroke="#DC5136" stroke-miterlimit="10" x1="90.707" y1="-94.395" x2="69.813" y2="-73.5"/>
			<line fill="none" stroke="#DC5136" stroke-miterlimit="10" x1="93.82" y1="-91.073" x2="72.926" y2="-70.178"/>
			<line fill="none" stroke="#DC5136" stroke-miterlimit="10" x1="97.953" y1="-87.736" x2="77.059" y2="-66.842"/>
			<line fill="none" stroke="#DC5136" stroke-miterlimit="10" x1="101.066" y1="-84.414" x2="80.172" y2="-63.52"/>
		</g>
		<g>
			<line fill="none" stroke="#DC5136" stroke-miterlimit="10" x1="58.747" y1="-94.395" x2="37.853" y2="-73.5"/>
			<line fill="none" stroke="#DC5136" stroke-miterlimit="10" x1="61.86" y1="-91.073" x2="40.965" y2="-70.178"/>
			<line fill="none" stroke="#DC5136" stroke-miterlimit="10" x1="65.993" y1="-87.736" x2="45.098" y2="-66.842"/>
			<line fill="none" stroke="#DC5136" stroke-miterlimit="10" x1="69.106" y1="-84.414" x2="48.211" y2="-63.52"/>
		</g>
		<g>
			<line fill="none" stroke="#DC5136" stroke-miterlimit="10" x1="26.786" y1="-94.395" x2="5.892" y2="-73.5"/>
			<line fill="none" stroke="#DC5136" stroke-miterlimit="10" x1="29.899" y1="-91.073" x2="9.005" y2="-70.178"/>
			<line fill="none" stroke="#DC5136" stroke-miterlimit="10" x1="34.032" y1="-87.736" x2="13.138" y2="-66.842"/>
			<line fill="none" stroke="#DC5136" stroke-miterlimit="10" x1="37.146" y1="-84.414" x2="16.251" y2="-63.52"/>
		</g>
		<g>
			<line fill="none" stroke="#DC5136" stroke-miterlimit="10" x1="161.02" y1="-125.978" x2="140.127" y2="-105.083"/>
			<line fill="none" stroke="#DC5136" stroke-miterlimit="10" x1="164.133" y1="-122.656" x2="143.238" y2="-101.761"/>
			<line fill="none" stroke="#DC5136" stroke-miterlimit="10" x1="168.266" y1="-119.319" x2="147.371" y2="-98.425"/>
		</g>
		<g>
			<line fill="none" stroke="#DC5136" stroke-miterlimit="10" x1="129.061" y1="-125.978" x2="108.166" y2="-105.083"/>
			<line fill="none" stroke="#DC5136" stroke-miterlimit="10" x1="132.174" y1="-122.656" x2="111.279" y2="-101.761"/>
			<line fill="none" stroke="#DC5136" stroke-miterlimit="10" x1="136.307" y1="-119.319" x2="115.412" y2="-98.425"/>
			<line fill="none" stroke="#DC5136" stroke-miterlimit="10" x1="139.42" y1="-115.997" x2="118.525" y2="-95.103"/>
		</g>
		<g>
			<line fill="none" stroke="#DC5136" stroke-miterlimit="10" x1="97.1" y1="-125.978" x2="76.205" y2="-105.083"/>
			<line fill="none" stroke="#DC5136" stroke-miterlimit="10" x1="100.213" y1="-122.656" x2="79.318" y2="-101.761"/>
			<line fill="none" stroke="#DC5136" stroke-miterlimit="10" x1="104.346" y1="-119.319" x2="83.451" y2="-98.425"/>
			<line fill="none" stroke="#DC5136" stroke-miterlimit="10" x1="107.459" y1="-115.997" x2="86.564" y2="-95.103"/>
		</g>
		<g>
			<line fill="none" stroke="#DC5136" stroke-miterlimit="10" x1="65.139" y1="-125.978" x2="44.245" y2="-105.083"/>
			<line fill="none" stroke="#DC5136" stroke-miterlimit="10" x1="68.252" y1="-122.656" x2="47.357" y2="-101.761"/>
			<line fill="none" stroke="#DC5136" stroke-miterlimit="10" x1="72.385" y1="-119.319" x2="51.49" y2="-98.425"/>
			<line fill="none" stroke="#DC5136" stroke-miterlimit="10" x1="75.498" y1="-115.997" x2="54.604" y2="-95.103"/>
		</g>
		<g>
			<line fill="none" stroke="#DC5136" stroke-miterlimit="10" x1="33.178" y1="-125.978" x2="12.284" y2="-105.083"/>
			<line fill="none" stroke="#DC5136" stroke-miterlimit="10" x1="36.292" y1="-122.656" x2="15.397" y2="-101.761"/>
			<line fill="none" stroke="#DC5136" stroke-miterlimit="10" x1="40.424" y1="-119.319" x2="19.53" y2="-98.425"/>
			<line fill="none" stroke="#DC5136" stroke-miterlimit="10" x1="43.538" y1="-115.997" x2="22.643" y2="-95.103"/>
		</g>
		<g>
			<line fill="none" stroke="#DC5136" stroke-miterlimit="10" x1="167.412" y1="-157.561" x2="146.519" y2="-136.666"/>
			<line fill="none" stroke="#DC5136" stroke-miterlimit="10" x1="170.525" y1="-154.239" x2="149.631" y2="-133.344"/>
		</g>
		<g>
			<line fill="none" stroke="#DC5136" stroke-miterlimit="10" x1="135.452" y1="-157.561" x2="114.558" y2="-136.666"/>
			<line fill="none" stroke="#DC5136" stroke-miterlimit="10" x1="138.565" y1="-154.239" x2="117.671" y2="-133.344"/>
			<line fill="none" stroke="#DC5136" stroke-miterlimit="10" x1="142.698" y1="-150.902" x2="121.804" y2="-130.008"/>
			<line fill="none" stroke="#DC5136" stroke-miterlimit="10" x1="145.812" y1="-147.58" x2="124.917" y2="-126.686"/>
		</g>
		<g>
			<line fill="none" stroke="#DC5136" stroke-miterlimit="10" x1="103.491" y1="-157.561" x2="82.598" y2="-136.666"/>
			<line fill="none" stroke="#DC5136" stroke-miterlimit="10" x1="106.604" y1="-154.239" x2="85.71" y2="-133.344"/>
			<line fill="none" stroke="#DC5136" stroke-miterlimit="10" x1="110.737" y1="-150.902" x2="89.843" y2="-130.008"/>
			<line fill="none" stroke="#DC5136" stroke-miterlimit="10" x1="113.851" y1="-147.58" x2="92.956" y2="-126.686"/>
		</g>
		<g>
			<line fill="none" stroke="#DC5136" stroke-miterlimit="10" x1="71.531" y1="-157.561" x2="50.637" y2="-136.666"/>
			<line fill="none" stroke="#DC5136" stroke-miterlimit="10" x1="74.645" y1="-154.239" x2="53.75" y2="-133.344"/>
			<line fill="none" stroke="#DC5136" stroke-miterlimit="10" x1="78.777" y1="-150.902" x2="57.882" y2="-130.008"/>
			<line fill="none" stroke="#DC5136" stroke-miterlimit="10" x1="81.891" y1="-147.58" x2="60.996" y2="-126.686"/>
		</g>
		<g>
			<line fill="none" stroke="#DC5136" stroke-miterlimit="10" x1="39.57" y1="-157.561" x2="18.676" y2="-136.666"/>
			<line fill="none" stroke="#DC5136" stroke-miterlimit="10" x1="42.684" y1="-154.239" x2="21.789" y2="-133.344"/>
			<line fill="none" stroke="#DC5136" stroke-miterlimit="10" x1="46.816" y1="-150.902" x2="25.922" y2="-130.008"/>
			<line fill="none" stroke="#DC5136" stroke-miterlimit="10" x1="49.93" y1="-147.58" x2="29.035" y2="-126.686"/>
		</g>
	</g>
</pattern>
<g id="background_1_">
	
		<radialGradient id="SVGID_1_" cx="81.8613" cy="76.4575" r="125.1703" gradientTransform="matrix(1 0 0 1.3094 0 -23.6521)" gradientUnits="userSpaceOnUse">
		<stop  offset="0" style="stop-color:#F6E867"/>
		<stop  offset="0.3095" style="stop-color:#F6E45F"/>
		<stop  offset="0.7616" style="stop-color:#F3D849"/>
		<stop  offset="1" style="stop-color:#F2D13B"/>
	</radialGradient>
	<rect x="0.056" y="-0.229" fill="url(#SVGID_1_)" width="163.611" height="153.372"/>
	<pattern  id="SVGID_2_" xlink:href="#New_Pattern_4" patternTransform="matrix(0.3319 0 0 0.3392 -5360.1426 -5473.5981)">
	</pattern>
	<rect x="0.266" y="-0.252" fill="url(#SVGID_2_)" width="260.918" height="153.418"/>
	<path fill="#DC5136" d="M261.144,0H151.5c8.218,48.924-1.142,98.108,2.894,147.143c0.043,1.621,0.076,4.32,0.106,6l106.646-1.422
		L261.144,0z"/>
	<path fill="#F2623D" d="M261.144-0.229H155.55c6.926,49.124-2.654,98.248,0.089,147.372c0,1.622-0.037,4.321-0.052,6h105.557
		V-0.229z"/>
	<pattern  id="SVGID_3_" xlink:href="#New_Pattern_5" patternTransform="matrix(0.4482 0 0 0.4482 -4399.5576 -4588.1396)">
	</pattern>
	<path fill="url(#SVGID_3_)" d="M261.184-0.287H155.51c6.932,49.161-2.656,98.322,0.089,147.483c0,1.623-0.037,4.324-0.052,6.005
		h105.637V-0.287z"/>
	<text transform="matrix(1 0 0 1 200.8672 143.6157)"><tspan x="0" y="0" fill="#F6E867" font-family="'PlutoRegular'" font-size="5">Cat Math Do © </tspan><tspan x="40.274" y="0" fill="#F6E867" font-family="'PlutoRegular'" font-size="4">2014</tspan></text>
</g>
<g id="cats_copy">
	<g>
		<g>
			<g>
				<path fill="#1D427D" d="M225.695,20.924l-0.699-1.173c-1.691,0.895-9.393,6.942-10.908,7.827
					c-1.507,0.766-2.779,1.675-4.473,1.452c-2.3-0.255-4.581-0.991-7.008-1.133c-4.746-0.273-8.896,1.163-10.702-3.574
					c-1.156-3.24-2.247-6.805-4.676-9.014c-0.305,0.956-0.482,1.928-0.659,2.888c-1.484,8.94-2.967,17.765-4.209,26.719
					c-0.863,6.537,0.41,11.979,5.396,16.53c3.823,3.513,7.811,4.231,12.593,3.773c2.333-0.234,4.973,0.526,7.082-0.209
					c2.001-0.739,4.283-2.312,6.168-3.303c3.154-1.773,6.005-6.853,7.062-10.332c1.333-4.195,1.365-9.07,2.099-13.303
					c0.558-3.379,1.477-6.619,2.036-10.002C225.171,25.775,224.951,23.197,225.695,20.924z M189.056,42.985
					c-5.541-3.367-0.138-12.575,4.651-8.763l-0.919-1.029C200.361,33.015,197.307,48.086,189.056,42.985z M200.01,58.458
					c-0.353-0.179-0.525-0.753-0.576-1.554c-0.99,0.818-2.61,1.759-4.783,1.633c-3.797-0.222-5.417-4.803-4.334-4.895
					c1.077-0.09,0.609,0.094,0.609,0.094s1.379,3.642,3.262,3.753c2.18,0.12,3.665-0.573,5.285-2.355
					c0.171-2.122,0.705-4.761,1.076-6.417c-0.107,0.018-0.174,0.027-0.174,0.027s-3.392-1.703-2.996-3.722
					c0,0,5.472-0.836,6.965,1.058c1.133,1.428-1.709,2.219-3.17,2.519c-0.493,2.693-0.999,7.812-0.243,8.841
					c0.695,0.955,3.266,0.14,3.266,0.14c1.781,0.271,3.946-2.25,4.177-2.572c0.229-0.325,1.303,0.465,1.303,0.465
					C205.489,60.981,201.744,59.347,200.01,58.458z M212.133,46.861c-6.791-0.755-5.75-12.528,0.412-11.441l-0.447-0.759
					C219.271,35.073,219.769,47.667,212.133,46.861z"/>
			</g>
		</g>
		<polygon fill="#F2F2F2" points="218.277,32.223 186.391,29.701 183.583,51.436 199.167,63.741 218.646,53.47 		"/>
		<g>
			<g>
				<g>
					<path fill="#4478BC" d="M224.996,19.751l-6.717,4.014c-1.69,0.892-3.375,1.758-4.886,2.639
						c-1.51,0.768-2.783,1.675-4.479,1.452c-2.299-0.251-4.576-0.989-7.006-1.131c-4.744-0.274-7.125,0.936-8.93-3.801
						c-1.16-3.241-4.018-6.575-6.453-8.789c-0.3,0.958-0.475,1.927-0.651,2.89c-1.487,8.939-2.969,17.766-4.21,26.72
						c-0.864,6.533,0.411,11.98,5.396,16.528c3.826,3.514,7.812,4.23,12.592,3.773c2.335-0.234,4.973,0.529,7.083-0.209
						c2.003-0.738,4.28-2.312,6.169-3.305c3.151-1.77,6.003-6.853,7.06-10.329c1.337-4.194,1.368-9.069,2.098-13.302
						c0.559-3.381,1.478-6.619,2.037-10.006C224.473,24.605,224.257,22.024,224.996,19.751z M188.357,41.807
						c-5.544-3.363-0.135-12.568,4.65-8.761l-0.919-1.027C199.664,31.842,196.609,46.915,188.357,41.807z M199.311,57.285
						c-0.351-0.182-0.524-0.755-0.574-1.558c-0.992,0.825-2.609,1.76-4.78,1.635c-3.802-0.22-5.42-4.802-4.337-4.892
						c1.077-0.092,0.605,0.09,0.605,0.09s1.385,3.646,3.266,3.753c2.181,0.122,3.663-0.571,5.284-2.352
						c0.174-2.124,0.706-4.763,1.075-6.417c-0.105,0.016-0.174,0.028-0.174,0.028s-3.389-1.704-2.994-3.72
						c0,0,5.469-0.838,6.966,1.053c1.131,1.429-1.713,2.224-3.168,2.519c-0.499,2.693-1.003,7.812-0.249,8.844
						c0.695,0.951,3.27,0.136,3.27,0.136c1.779,0.272,3.945-2.25,4.176-2.573c0.227-0.319,1.298,0.471,1.298,0.471
						C204.79,59.807,201.048,58.173,199.311,57.285z M211.438,45.689c-6.794-0.756-5.751-12.527,0.409-11.446l-0.448-0.755
						C218.576,33.898,219.073,46.494,211.438,45.689z"/>
				</g>
			</g>
			<g>
				<path fill="#4478BC" d="M194.445,35.863l0.126-0.113c-1.19-0.435-3.092-1.395-4.352-0.611c-1.266,0.779-1.271,2.976-0.354,4.006
					C192.039,41.707,197.053,39.309,194.445,35.863z"/>
			</g>
			<g>
				<path fill="#4478BC" d="M212.203,36.76l1.202,0.312c-3.872-0.589-3.916,4.533-0.802,5.442
					C217.286,43.88,216.116,36.617,212.203,36.76z"/>
			</g>
		</g>
	</g>
	<g>
		<g>
			<g>
				<path fill="#1D427D" d="M225.97,76.509l-1.01-0.919c-1.358,1.347-6.971,9.371-8.164,10.657
					c-1.219,1.173-2.172,2.412-3.857,2.689c-2.274,0.424-4.671,0.384-7.034,0.953c-4.621,1.116-8.175,3.698-11.279-0.312
					c-2.048-2.764-4.127-5.857-7.093-7.267c-0.014,1.004,0.099,1.985,0.208,2.956c1.178,8.986,2.323,17.86,3.736,26.788
					c1.072,6.507,3.873,11.344,9.965,14.251c4.68,2.248,8.703,1.777,13.146-0.049c2.164-0.901,4.91-0.941,6.715-2.258
					c1.7-1.288,3.428-3.458,4.942-4.953c2.503-2.614,3.755-8.301,3.756-11.938c0.057-4.399-1.328-9.075-1.856-13.337
					c-0.448-3.396-0.511-6.765-0.957-10.162C226.877,81.303,225.918,78.9,225.97,76.509z M197.32,108.263
					c-6.28-1.611-3.785-11.991,1.904-9.736l-1.178-0.718C205.241,95.438,206.698,110.747,197.32,108.263z M212.298,119.885
					c-0.39-0.067-0.722-0.567-1.003-1.32c-0.71,1.071-1.987,2.443-4.103,2.952c-3.698,0.893-6.579-3.021-5.569-3.423
					c1.005-0.398,0.61-0.087,0.61-0.087s2.377,3.084,4.211,2.643c2.121-0.518,3.341-1.611,4.374-3.788
					c-0.454-2.08-0.709-4.761-0.835-6.453c-0.099,0.047-0.159,0.076-0.159,0.076s-3.74-0.644-3.947-2.689
					c0,0,4.992-2.39,6.971-1.014c1.499,1.038-0.99,2.62-2.301,3.331c0.311,2.721,1.313,7.767,2.336,8.531
					c0.942,0.712,3.165-0.816,3.165-0.816c1.783-0.258,3.122-3.3,3.249-3.674c0.125-0.379,1.382,0.065,1.382,0.065
					C218.273,120.708,214.216,120.233,212.298,119.885z M220.528,105.266c-6.718,1.251-9.142-10.317-2.931-11.065l-0.648-0.597
					C223.934,91.915,228.068,103.819,220.528,105.266z"/>
			</g>
		</g>
		<polygon fill="#F2F2F2" points="222.154,89.475 190.909,96.326 194.539,117.94 213.026,125.186 228.681,109.698 		"/>
		<g>
			<g>
				<g>
					<path fill="#4478BC" d="M224.96,75.59l-5.261,5.791c-1.358,1.345-2.719,2.663-3.908,3.945
						c-1.222,1.172-2.177,2.411-3.864,2.689c-2.272,0.428-4.667,0.384-7.032,0.955c-4.619,1.116-6.546,2.966-9.648-1.042
						c-2.053-2.764-5.755-5.124-8.729-6.536c-0.009,1.004,0.105,1.981,0.216,2.954c1.174,8.985,2.321,17.862,3.735,26.79
						c1.07,6.502,3.874,11.344,9.965,14.249c4.682,2.25,8.704,1.777,13.144-0.05c2.167-0.9,4.913-0.937,6.718-2.257
						c1.702-1.289,3.424-3.454,4.942-4.954c2.501-2.608,3.754-8.302,3.754-11.936c0.061-4.402-1.325-9.075-1.856-13.337
						c-0.448-3.397-0.51-6.763-0.959-10.165C225.869,80.386,224.913,77.979,224.96,75.59z M196.311,107.34
						c-6.282-1.609-3.781-11.987,1.904-9.735l-1.178-0.715C204.234,94.519,205.689,109.828,196.311,107.34z M211.287,118.966
						c-0.388-0.071-0.721-0.569-1.001-1.322c-0.71,1.076-1.986,2.44-4.1,2.952c-3.701,0.895-6.581-3.02-5.571-3.421
						c1.004-0.401,0.606-0.09,0.606-0.09s2.383,3.087,4.215,2.644c2.122-0.519,3.339-1.612,4.372-3.786
						c-0.45-2.082-0.708-4.764-0.836-6.453c-0.096,0.047-0.157,0.078-0.157,0.078s-3.738-0.646-3.946-2.689
						c0,0,4.99-2.39,6.972-1.016c1.497,1.038-0.993,2.625-2.3,3.328c0.306,2.724,1.31,7.768,2.332,8.536
						c0.941,0.708,3.168-0.82,3.168-0.82c1.781-0.256,3.12-3.3,3.248-3.676c0.123-0.372,1.378,0.073,1.378,0.073
						C217.264,119.789,213.208,119.312,211.287,118.966z M219.522,104.347c-6.721,1.251-9.143-10.314-2.935-11.07l-0.647-0.592
						C222.927,90.991,227.062,102.9,219.522,104.347z"/>
				</g>
			</g>
			<g>
				<path fill="#4478BC" d="M200.408,99.882l0.088-0.146c-1.266-0.069-3.364-0.435-4.342,0.68c-0.984,1.113-0.352,3.216,0.826,3.936
					C199.804,106.172,203.904,102.422,200.408,99.882z"/>
			</g>
			<g>
				<path fill="#4478BC" d="M217.66,95.582l1.241-0.052c-3.876,0.562-2.43,5.476,0.814,5.442
					C224.594,100.918,221.363,94.308,217.66,95.582z"/>
			</g>
		</g>
	</g>
</g>
<g id="number__x26__sign">
	<g>
		<g>
			<path fill="#F2623D" stroke="#F2623D" stroke-width="4" stroke-miterlimit="10" d="M53.062,67.631l13.744,1.455l0.228,11.42
				l-15.417,1.143l-13.168,1.219l-14.356,0.494l0.142-14.122l14.613-0.898L53.062,67.631z"/>
		</g>
	</g>
	<g>
		<g>
			<path fill="#F2623D" stroke="#F2623D" stroke-width="4" stroke-miterlimit="10" d="M51.417,65.987l13.744,1.455l0.228,11.42
				l-15.417,1.143l-13.168,1.219l-14.356,0.494l0.142-14.121l14.613-0.899L51.417,65.987z"/>
		</g>
	</g>
	<g>
		<g>
			<path fill="#F2F2F2" stroke="#F2F2F2" stroke-width="0.5" stroke-miterlimit="10" d="M51.651,66.199l13.679,1.835l-0.09,11.423
				L49.797,80.17l-13.18,0.849l-14.381,0.097l0.535-14.111l14.653-0.499L51.651,66.199z"/>
		</g>
	</g>
	<g>
		<g>
			<path fill="#DC5136" stroke="#F2F2F2" stroke-width="0.5" stroke-miterlimit="10" d="M51.417,65.987l13.744,1.455l0.228,11.42
				l-15.417,1.143l-13.168,1.219l-14.356,0.494l0.142-14.121l14.613-0.899L51.417,65.987z"/>
		</g>
	</g>
	<polygon fill="#F2623D" points="23.768,82.53 20.445,83.835 22.067,85.497 24.125,82.57 	"/>
	<polygon fill="#F2623D" points="68.776,67.438 67.034,65.747 66.034,67.784 	"/>
	<path fill="#F2623D" d="M136.259,102.542l-46.013,0.084l-3.488-2.314L111.39,75.26c4.266-3.139,5.554-5.634,5.554-8.208
		c0-2.093-1.529-3.944-4.266-3.944c-4.829,0-6.6,3.059-6.6,7.726L84.96,67.695c-0.279-2.036-0.342-2.585-0.342-2.585
		S95.001,43.31,116,43.31c14.971,0,19.133,11.587,19.133,22.131c0,6.439-3.14,12.071-11.75,17.624l-6.439,4.186l17.843-6.146
		l1.473,6.146V102.542z"/>
	<path fill="#F2623D" stroke="#F2623D" stroke-width="4" stroke-miterlimit="10" d="M132.816,98.307H88.713V85.27l19.234-14.246
		c4.266-3.14,5.555-5.634,5.555-8.209c0-2.093-1.529-3.944-4.266-3.944c-4.83,0-6.601,3.058-6.601,7.726L86.62,63.459
		c0.321-12.798,8.772-20.684,22.938-20.684c14.97,0,22.133,7.886,22.133,18.43c0,6.439-3.139,12.073-11.751,17.625l-6.438,4.186
		h19.314V98.307z"/>
	<path fill="#F2F2F2" stroke="#F2F2F2" stroke-width="0.5" stroke-miterlimit="10" d="M131.846,99.252l-43.76-1.84l0.543-12.936
		l19.679-13.332c4.362-2.937,5.745-5.359,5.853-7.914c0.088-2.076-1.354-3.977-4.067-4.09c-4.792-0.202-6.677,2.759-6.871,7.391
		L87.463,62.75c0.853-12.684,9.565-20.157,23.62-19.566c14.853,0.624,21.63,8.747,21.191,19.208
		c-0.268,6.39-3.618,11.848-12.394,16.999l-6.562,3.883c0,0,5.696,0.789,9.623,1.312c3.924,0.523,9.492,0.637,9.492,0.637
		L131.846,99.252z"/>
	<path fill="#DC5136" stroke="#F2F2F2" stroke-width="0.5" stroke-miterlimit="10" d="M132.816,98.307H88.713V85.27l19.234-14.246
		c4.266-3.14,5.555-5.634,5.555-8.209c0-2.093-1.529-3.944-4.266-3.944c-4.83,0-6.601,3.058-6.601,7.726L86.62,63.459
		c0.321-12.798,8.772-20.684,22.938-20.684c14.97,0,22.133,7.886,22.133,18.43c0,6.439-3.139,12.073-11.751,17.625l-6.438,4.186
		c0,0,5.764,0.553,9.736,0.914c3.971,0.359,9.578,0.238,9.578,0.238V98.307z"/>
</g>
</svg>
