<?xml version="1.0" encoding="utf-8"?>
<!-- Generator: Adobe Illustrator 16.0.0, SVG Export Plug-In . SVG Version: 6.00 Build 0)  -->
<!DOCTYPE svg PUBLIC "-//W3C//DTD SVG 1.1//EN" "http://www.w3.org/Graphics/SVG/1.1/DTD/svg11.dtd">
<svg version="1.1" xmlns="http://www.w3.org/2000/svg" xmlns:xlink="http://www.w3.org/1999/xlink" x="0px" y="0px"
	 width="261.144px" height="153.143px" viewBox="0 0 261.144 153.143" enable-background="new 0 0 261.144 153.143"
	 xml:space="preserve">
<pattern  y="153.143" width="123" height="124" patternUnits="userSpaceOnUse" id="New_Pattern_4" viewBox="0 -124 123 124" overflow="visible">
	<g>
		<polygon fill="none" points="0,-124 123,-124 123,0 0,0 		"/>
		<path fill="#F2D03A" d="M52.275-49.22c-4.082-2.972-5.48-6.909-5.382-11.84c0.183-6.759,0.551-13.437,0.915-20.206
			c0.052-0.732,0.104-1.465,0.247-2.201c1.993,1.442,4.394,3.684,5.521,5.994c1.733,3.372,3.406,2.279,6.953,2.088
			c1.818-0.099,3.571,0.263,5.304,0.26c1.279,0.022,2.148-0.754,3.205-1.449c1.051-0.785,2.23-1.563,3.415-2.367l4.656-3.541
			c-0.361,1.752,0.015,3.646-0.073,5.385c-0.135,2.561-0.548,5.045-0.684,7.607c-0.191,3.202,0.187,6.83-0.46,10.057
			c-0.495,2.672-2.193,6.686-4.388,8.264c-1.319,0.892-2.888,2.254-4.309,2.969c-1.512,0.719-3.537,0.373-5.25,0.738
			C58.43-46.725,55.409-46.926,52.275-49.22z M69.184-62.082c5.743-0.036,4.328-9.354-1.037-9.064l0.393,0.526
			C63.872-70.915,64.074-62.078,69.184-62.082z M53.672-70.638l0.768,0.688c-3.871-2.437-7.127,4.854-2.729,6.896
			C58.263-59.941,59.285-71.397,53.672-70.638z M57.158-51.957c1.625-0.086,2.752-0.916,3.42-1.609
			c0.104,0.591,0.278,1.003,0.556,1.107c1.364,0.516,4.283,1.422,6.937-3.021c0,0-0.864-0.496-1.008-0.238
			c-0.141,0.258-1.542,2.312-2.891,2.259c0,0-1.842,0.819-2.438,0.168c-0.646-0.704-0.696-4.549-0.55-6.591
			c1.059-0.344,3.104-1.168,2.146-2.135c-1.268-1.281-5.266-0.209-5.266-0.209c-0.127,1.533,2.537,2.518,2.537,2.518
			s0.047-0.012,0.125-0.033c-0.138,1.258-0.316,3.266-0.266,4.859c-1.059,1.458-2.102,2.096-3.734,2.184
			c-1.408,0.076-2.734-2.516-2.734-2.516s0.335-0.176-0.462-0.019C52.732-55.076,54.318-51.805,57.158-51.957z"/>
		<path fill="#F2D03A" d="M55.742-67.975l0.086-0.096c-0.924-0.223-2.414-0.781-3.289-0.095c-0.875,0.685-0.695,2.317,0.071,3.005
			C54.437-63.434,57.967-65.631,55.742-67.975z"/>
		<path fill="#F2D03A" d="M69.791-64.537c3.591,0.627,2.118-4.675-0.777-4.244l0.92,0.132
			C67.009-68.764,67.396-64.955,69.791-64.537z"/>
		<path fill="#F2D03A" d="M113.776-108.446c2.998,2.194,5.898,2.463,9.224,1.837v-4.945c-0.131-0.045-0.255-0.088-0.365-0.131
			c-0.277-0.104-0.453-0.517-0.557-1.107c-0.668,0.693-1.795,1.523-3.42,1.609c-2.84,0.152-4.425-3.119-3.627-3.276
			c0.797-0.157,0.461,0.019,0.461,0.019s1.327,2.592,2.734,2.516c1.633-0.088,2.676-0.726,3.734-2.184
			c-0.05-1.594,0.129-3.602,0.266-4.859c-0.078,0.021-0.124,0.033-0.124,0.033s-2.665-0.984-2.538-2.518
			c0,0,1.853-0.496,3.436-0.409V-124h-4.579c-0.74,1.801-2.501,3.007-5.21,1.721c-0.873-0.406-1.439-1.02-1.765-1.721h-2.929
			c-0.045,1.236-0.09,2.473-0.123,3.714C108.295-115.355,109.693-111.418,113.776-108.446z"/>
		<path fill="#F2D03A" d="M123-112.983v-6.233c-0.111,0.039-0.219,0.076-0.316,0.107C122.559-117.35,122.579-114.258,123-112.983z"
			/>
		<path fill="#F2D03A" d="M116.725-124h-2.034C115.352-123.685,116.105-123.723,116.725-124z"/>
		<path fill="#F2D03A" d="M115.078-12.699c-1.129-2.311-3.529-4.552-5.521-5.994c-0.145,0.736-0.195,1.469-0.247,2.201
			c-0.298,5.526-0.593,10.994-0.792,16.492h2.929c-1.312-2.834,1.391-7.129,4.493-5.176l-0.768-0.688
			c3.293-0.446,4.299,3.31,3.249,5.864H123v-10.612c-0.322-0.007-0.644-0.017-0.969,0.001
			C118.484-10.42,116.811-9.327,115.078-12.699z"/>
		<path fill="#F2D03A" d="M117.243-3.201l0.085-0.096c-0.924-0.223-2.414-0.781-3.288-0.095c-0.875,0.685-0.696,2.317,0.071,3.005
			c0.178,0.168,0.375,0.289,0.579,0.387h2.034C117.871-0.514,118.545-1.829,117.243-3.201z"/>
		<path fill="#F2D03A" d="M5.697-107.428c1.422-0.715,2.99-2.077,4.309-2.969c2.195-1.578,3.894-5.592,4.389-8.264
			c0.342-1.709,0.396-3.529,0.4-5.34h-3.578c-0.383,1.498-1.502,2.679-3.533,2.691c-1.879,0.002-3.088-1.195-3.641-2.691H0v2.138
			c0.742,0.041,1.426,0.208,1.83,0.618c0.87,0.879-0.734,1.637-1.83,2.027v6.233c0.067,0.205,0.145,0.367,0.234,0.465
			c0.597,0.651,2.438-0.168,2.438-0.168c1.35,0.054,2.75-2.001,2.892-2.259c0.144-0.258,1.007,0.238,1.007,0.238
			c-2.438,4.082-5.096,3.649-6.57,3.152v4.945c0.15-0.028,0.296-0.048,0.447-0.08C2.16-107.055,4.186-106.709,5.697-107.428z"/>
		<path fill="#F2D03A" d="M9.846-124H7.622c0.202,0.107,0.423,0.193,0.669,0.236C8.999-123.641,9.504-123.752,9.846-124z"/>
		<path fill="#F2D03A" d="M14.854-4.717c0.137-2.562,0.549-5.047,0.684-7.607c0.088-1.738-0.287-3.633,0.074-5.385l-4.656,3.541
			c-1.185,0.804-2.365,1.582-3.416,2.367c-1.057,0.695-1.926,1.472-3.205,1.449C2.912-10.35,1.475-10.579,0-10.612V0h4.043
			C3.091-2.572,4.089-6.033,7.04-5.847L6.646-6.373C10.115-6.56,11.916-2.74,11.217,0h3.578C14.799-1.609,14.764-3.211,14.854-4.717
			z"/>
		<path fill="#F2D03A" d="M7.515-4.008l0.919,0.132C5.811-3.979,5.857-0.932,7.622,0h2.224C11.24-1.01,9.839-4.354,7.515-4.008z"/>
		<polygon fill="#F2D03A" points="31,-97 31,-100 25,-100 25,-97 		"/>
		<polygon fill="#F2D03A" points="22,-100 17,-100 17,-97 22,-97 		"/>
		<polygon fill="#F2D03A" points="25,-105 22,-105 22,-100 25,-100 		"/>
		<polygon fill="#F2D03A" points="22,-91 25,-91 25,-97 22,-97 		"/>
		<polygon fill="#F2D03A" points="25,-97 25,-100 22,-100 22,-97 		"/>
		<polygon fill="#F2D03A" points="69,-123 69,-124 63,-124 63,-123 		"/>
		<polygon fill="#F2D03A" points="60,-123 60,-124 55,-124 55,-123 		"/>
		<polygon fill="#F2D03A" points="60,-117 63,-117 63,-123 60,-123 		"/>
		<polygon fill="#F2D03A" points="63,-123 63,-124 60,-124 60,-123 		"/>
		<polygon fill="#F2D03A" points="55,-2 55,0 60,0 60,-2 		"/>
		<polygon fill="#F2D03A" points="69,-2 63,-2 63,0 69,0 		"/>
		<polygon fill="#F2D03A" points="60,-7 60,-2 63,-2 63,-7 		"/>
		<polygon fill="#F2D03A" points="60,-2 60,0 63,0 63,-2 		"/>
		<polygon fill="#F2D03A" points="89,-35 83,-35 83,-32 89,-32 		"/>
		<polygon fill="#F2D03A" points="97,-32 97,-35 92,-35 92,-32 		"/>
		<polygon fill="#F2D03A" points="89,-26 92,-26 92,-32 89,-32 		"/>
		<polygon fill="#F2D03A" points="92,-40 89,-40 89,-35 92,-35 		"/>
		<polygon fill="#F2D03A" points="92,-32 92,-35 89,-35 89,-32 		"/>
		<polygon fill="#F2D03A" points="18,-30 32,-30 32,-33 18,-33 		"/>
		<polygon fill="#F2D03A" points="7,-68 0,-68 0,-65 7,-65 		"/>
		<polygon fill="#F2D03A" points="117,-65 123,-65 123,-68 117,-68 		"/>
		<polygon fill="#F2D03A" points="97,-100 83,-100 83,-97 97,-97 		"/>
	</g>
</pattern>
<pattern  y="153.143" width="127.842" height="157.915" patternUnits="userSpaceOnUse" id="New_Pattern_5" viewBox="21.519 -157.915 127.842 157.915" overflow="visible">
	<g>
		<polygon fill="none" points="21.519,-157.915 149.36,-157.915 149.36,0 21.519,0 		"/>
		<g>
			<line fill="none" stroke="#DC5136" stroke-miterlimit="10" x1="141.844" y1="-31.229" x2="120.95" y2="-10.334"/>
			<line fill="none" stroke="#DC5136" stroke-miterlimit="10" x1="144.957" y1="-27.907" x2="124.062" y2="-7.012"/>
			<line fill="none" stroke="#DC5136" stroke-miterlimit="10" x1="149.09" y1="-24.57" x2="128.195" y2="-3.676"/>
			<line fill="none" stroke="#DC5136" stroke-miterlimit="10" x1="152.203" y1="-21.248" x2="131.309" y2="-0.354"/>
		</g>
		<g>
			<line fill="none" stroke="#DC5136" stroke-miterlimit="10" x1="109.884" y1="-31.229" x2="88.989" y2="-10.334"/>
			<line fill="none" stroke="#DC5136" stroke-miterlimit="10" x1="112.997" y1="-27.907" x2="92.103" y2="-7.012"/>
			<line fill="none" stroke="#DC5136" stroke-miterlimit="10" x1="117.13" y1="-24.57" x2="96.235" y2="-3.676"/>
			<line fill="none" stroke="#DC5136" stroke-miterlimit="10" x1="120.243" y1="-21.248" x2="99.349" y2="-0.354"/>
		</g>
		<g>
			<line fill="none" stroke="#DC5136" stroke-miterlimit="10" x1="77.923" y1="-31.229" x2="57.029" y2="-10.334"/>
			<line fill="none" stroke="#DC5136" stroke-miterlimit="10" x1="81.036" y1="-27.907" x2="60.142" y2="-7.012"/>
			<line fill="none" stroke="#DC5136" stroke-miterlimit="10" x1="85.169" y1="-24.57" x2="64.274" y2="-3.676"/>
			<line fill="none" stroke="#DC5136" stroke-miterlimit="10" x1="88.282" y1="-21.248" x2="67.388" y2="-0.354"/>
		</g>
		<g>
			<line fill="none" stroke="#DC5136" stroke-miterlimit="10" x1="45.962" y1="-31.229" x2="25.068" y2="-10.334"/>
			<line fill="none" stroke="#DC5136" stroke-miterlimit="10" x1="49.076" y1="-27.907" x2="28.181" y2="-7.012"/>
			<line fill="none" stroke="#DC5136" stroke-miterlimit="10" x1="53.208" y1="-24.57" x2="32.314" y2="-3.676"/>
			<line fill="none" stroke="#DC5136" stroke-miterlimit="10" x1="56.322" y1="-21.248" x2="35.427" y2="-0.354"/>
		</g>
		<g>
			<line fill="none" stroke="#DC5136" stroke-miterlimit="10" x1="21.248" y1="-24.57" x2="0.354" y2="-3.676"/>
			<line fill="none" stroke="#DC5136" stroke-miterlimit="10" x1="24.361" y1="-21.248" x2="3.467" y2="-0.354"/>
		</g>
		<g>
			<line fill="none" stroke="#DC5136" stroke-miterlimit="10" x1="148.236" y1="-62.812" x2="127.342" y2="-41.917"/>
			<line fill="none" stroke="#DC5136" stroke-miterlimit="10" x1="151.35" y1="-59.49" x2="130.455" y2="-38.595"/>
			<line fill="none" stroke="#DC5136" stroke-miterlimit="10" x1="155.482" y1="-56.153" x2="134.588" y2="-35.259"/>
			<line fill="none" stroke="#DC5136" stroke-miterlimit="10" x1="158.596" y1="-52.831" x2="137.701" y2="-31.937"/>
		</g>
		<g>
			<line fill="none" stroke="#DC5136" stroke-miterlimit="10" x1="116.275" y1="-62.812" x2="95.381" y2="-41.917"/>
			<line fill="none" stroke="#DC5136" stroke-miterlimit="10" x1="119.389" y1="-59.49" x2="98.494" y2="-38.595"/>
			<line fill="none" stroke="#DC5136" stroke-miterlimit="10" x1="123.521" y1="-56.153" x2="102.627" y2="-35.259"/>
			<line fill="none" stroke="#DC5136" stroke-miterlimit="10" x1="126.635" y1="-52.831" x2="105.74" y2="-31.937"/>
		</g>
		<g>
			<line fill="none" stroke="#DC5136" stroke-miterlimit="10" x1="84.314" y1="-62.812" x2="63.421" y2="-41.917"/>
			<line fill="none" stroke="#DC5136" stroke-miterlimit="10" x1="87.428" y1="-59.49" x2="66.534" y2="-38.595"/>
			<line fill="none" stroke="#DC5136" stroke-miterlimit="10" x1="91.561" y1="-56.153" x2="70.667" y2="-35.259"/>
			<line fill="none" stroke="#DC5136" stroke-miterlimit="10" x1="94.674" y1="-52.831" x2="73.779" y2="-31.937"/>
		</g>
		<g>
			<line fill="none" stroke="#DC5136" stroke-miterlimit="10" x1="52.354" y1="-62.812" x2="31.46" y2="-41.917"/>
			<line fill="none" stroke="#DC5136" stroke-miterlimit="10" x1="55.468" y1="-59.49" x2="34.573" y2="-38.595"/>
			<line fill="none" stroke="#DC5136" stroke-miterlimit="10" x1="59.601" y1="-56.153" x2="38.706" y2="-35.259"/>
			<line fill="none" stroke="#DC5136" stroke-miterlimit="10" x1="62.714" y1="-52.831" x2="41.819" y2="-31.937"/>
		</g>
		<g>
			<line fill="none" stroke="#DC5136" stroke-miterlimit="10" x1="23.507" y1="-59.49" x2="2.613" y2="-38.595"/>
			<line fill="none" stroke="#DC5136" stroke-miterlimit="10" x1="27.64" y1="-56.153" x2="6.746" y2="-35.259"/>
			<line fill="none" stroke="#DC5136" stroke-miterlimit="10" x1="30.753" y1="-52.831" x2="9.859" y2="-31.937"/>
		</g>
		<g>
			<line fill="none" stroke="#DC5136" stroke-miterlimit="10" x1="154.628" y1="-94.395" x2="133.734" y2="-73.5"/>
			<line fill="none" stroke="#DC5136" stroke-miterlimit="10" x1="157.741" y1="-91.073" x2="136.847" y2="-70.178"/>
			<line fill="none" stroke="#DC5136" stroke-miterlimit="10" x1="161.874" y1="-87.736" x2="140.979" y2="-66.842"/>
			<line fill="none" stroke="#DC5136" stroke-miterlimit="10" x1="164.987" y1="-84.414" x2="144.093" y2="-63.52"/>
		</g>
		<g>
			<line fill="none" stroke="#DC5136" stroke-miterlimit="10" x1="122.668" y1="-94.395" x2="101.773" y2="-73.5"/>
			<line fill="none" stroke="#DC5136" stroke-miterlimit="10" x1="125.781" y1="-91.073" x2="104.887" y2="-70.178"/>
			<line fill="none" stroke="#DC5136" stroke-miterlimit="10" x1="129.914" y1="-87.736" x2="109.02" y2="-66.842"/>
			<line fill="none" stroke="#DC5136" stroke-miterlimit="10" x1="133.027" y1="-84.414" x2="112.133" y2="-63.52"/>
		</g>
		<g>
			<line fill="none" stroke="#DC5136" stroke-miterlimit="10" x1="90.707" y1="-94.395" x2="69.813" y2="-73.5"/>
			<line fill="none" stroke="#DC5136" stroke-miterlimit="10" x1="93.82" y1="-91.073" x2="72.926" y2="-70.178"/>
			<line fill="none" stroke="#DC5136" stroke-miterlimit="10" x1="97.953" y1="-87.736" x2="77.059" y2="-66.842"/>
			<line fill="none" stroke="#DC5136" stroke-miterlimit="10" x1="101.066" y1="-84.414" x2="80.172" y2="-63.52"/>
		</g>
		<g>
			<line fill="none" stroke="#DC5136" stroke-miterlimit="10" x1="58.747" y1="-94.395" x2="37.853" y2="-73.5"/>
			<line fill="none" stroke="#DC5136" stroke-miterlimit="10" x1="61.86" y1="-91.073" x2="40.965" y2="-70.178"/>
			<line fill="none" stroke="#DC5136" stroke-miterlimit="10" x1="65.993" y1="-87.736" x2="45.098" y2="-66.842"/>
			<line fill="none" stroke="#DC5136" stroke-miterlimit="10" x1="69.106" y1="-84.414" x2="48.211" y2="-63.52"/>
		</g>
		<g>
			<line fill="none" stroke="#DC5136" stroke-miterlimit="10" x1="26.786" y1="-94.395" x2="5.892" y2="-73.5"/>
			<line fill="none" stroke="#DC5136" stroke-miterlimit="10" x1="29.899" y1="-91.073" x2="9.005" y2="-70.178"/>
			<line fill="none" stroke="#DC5136" stroke-miterlimit="10" x1="34.032" y1="-87.736" x2="13.138" y2="-66.842"/>
			<line fill="none" stroke="#DC5136" stroke-miterlimit="10" x1="37.146" y1="-84.414" x2="16.251" y2="-63.52"/>
		</g>
		<g>
			<line fill="none" stroke="#DC5136" stroke-miterlimit="10" x1="161.02" y1="-125.978" x2="140.127" y2="-105.083"/>
			<line fill="none" stroke="#DC5136" stroke-miterlimit="10" x1="164.133" y1="-122.656" x2="143.238" y2="-101.761"/>
			<line fill="none" stroke="#DC5136" stroke-miterlimit="10" x1="168.266" y1="-119.319" x2="147.371" y2="-98.425"/>
		</g>
		<g>
			<line fill="none" stroke="#DC5136" stroke-miterlimit="10" x1="129.061" y1="-125.978" x2="108.166" y2="-105.083"/>
			<line fill="none" stroke="#DC5136" stroke-miterlimit="10" x1="132.174" y1="-122.656" x2="111.279" y2="-101.761"/>
			<line fill="none" stroke="#DC5136" stroke-miterlimit="10" x1="136.307" y1="-119.319" x2="115.412" y2="-98.425"/>
			<line fill="none" stroke="#DC5136" stroke-miterlimit="10" x1="139.42" y1="-115.997" x2="118.525" y2="-95.103"/>
		</g>
		<g>
			<line fill="none" stroke="#DC5136" stroke-miterlimit="10" x1="97.1" y1="-125.978" x2="76.205" y2="-105.083"/>
			<line fill="none" stroke="#DC5136" stroke-miterlimit="10" x1="100.213" y1="-122.656" x2="79.318" y2="-101.761"/>
			<line fill="none" stroke="#DC5136" stroke-miterlimit="10" x1="104.346" y1="-119.319" x2="83.451" y2="-98.425"/>
			<line fill="none" stroke="#DC5136" stroke-miterlimit="10" x1="107.459" y1="-115.997" x2="86.564" y2="-95.103"/>
		</g>
		<g>
			<line fill="none" stroke="#DC5136" stroke-miterlimit="10" x1="65.139" y1="-125.978" x2="44.245" y2="-105.083"/>
			<line fill="none" stroke="#DC5136" stroke-miterlimit="10" x1="68.252" y1="-122.656" x2="47.357" y2="-101.761"/>
			<line fill="none" stroke="#DC5136" stroke-miterlimit="10" x1="72.385" y1="-119.319" x2="51.49" y2="-98.425"/>
			<line fill="none" stroke="#DC5136" stroke-miterlimit="10" x1="75.498" y1="-115.997" x2="54.604" y2="-95.103"/>
		</g>
		<g>
			<line fill="none" stroke="#DC5136" stroke-miterlimit="10" x1="33.178" y1="-125.978" x2="12.284" y2="-105.083"/>
			<line fill="none" stroke="#DC5136" stroke-miterlimit="10" x1="36.292" y1="-122.656" x2="15.397" y2="-101.761"/>
			<line fill="none" stroke="#DC5136" stroke-miterlimit="10" x1="40.424" y1="-119.319" x2="19.53" y2="-98.425"/>
			<line fill="none" stroke="#DC5136" stroke-miterlimit="10" x1="43.538" y1="-115.997" x2="22.643" y2="-95.103"/>
		</g>
		<g>
			<line fill="none" stroke="#DC5136" stroke-miterlimit="10" x1="167.412" y1="-157.561" x2="146.519" y2="-136.666"/>
			<line fill="none" stroke="#DC5136" stroke-miterlimit="10" x1="170.525" y1="-154.239" x2="149.631" y2="-133.344"/>
		</g>
		<g>
			<line fill="none" stroke="#DC5136" stroke-miterlimit="10" x1="135.452" y1="-157.561" x2="114.558" y2="-136.666"/>
			<line fill="none" stroke="#DC5136" stroke-miterlimit="10" x1="138.565" y1="-154.239" x2="117.671" y2="-133.344"/>
			<line fill="none" stroke="#DC5136" stroke-miterlimit="10" x1="142.698" y1="-150.902" x2="121.804" y2="-130.008"/>
			<line fill="none" stroke="#DC5136" stroke-miterlimit="10" x1="145.812" y1="-147.58" x2="124.917" y2="-126.686"/>
		</g>
		<g>
			<line fill="none" stroke="#DC5136" stroke-miterlimit="10" x1="103.491" y1="-157.561" x2="82.598" y2="-136.666"/>
			<line fill="none" stroke="#DC5136" stroke-miterlimit="10" x1="106.604" y1="-154.239" x2="85.71" y2="-133.344"/>
			<line fill="none" stroke="#DC5136" stroke-miterlimit="10" x1="110.737" y1="-150.902" x2="89.843" y2="-130.008"/>
			<line fill="none" stroke="#DC5136" stroke-miterlimit="10" x1="113.851" y1="-147.58" x2="92.956" y2="-126.686"/>
		</g>
		<g>
			<line fill="none" stroke="#DC5136" stroke-miterlimit="10" x1="71.531" y1="-157.561" x2="50.637" y2="-136.666"/>
			<line fill="none" stroke="#DC5136" stroke-miterlimit="10" x1="74.645" y1="-154.239" x2="53.75" y2="-133.344"/>
			<line fill="none" stroke="#DC5136" stroke-miterlimit="10" x1="78.777" y1="-150.902" x2="57.882" y2="-130.008"/>
			<line fill="none" stroke="#DC5136" stroke-miterlimit="10" x1="81.891" y1="-147.58" x2="60.996" y2="-126.686"/>
		</g>
		<g>
			<line fill="none" stroke="#DC5136" stroke-miterlimit="10" x1="39.57" y1="-157.561" x2="18.676" y2="-136.666"/>
			<line fill="none" stroke="#DC5136" stroke-miterlimit="10" x1="42.684" y1="-154.239" x2="21.789" y2="-133.344"/>
			<line fill="none" stroke="#DC5136" stroke-miterlimit="10" x1="46.816" y1="-150.902" x2="25.922" y2="-130.008"/>
			<line fill="none" stroke="#DC5136" stroke-miterlimit="10" x1="49.93" y1="-147.58" x2="29.035" y2="-126.686"/>
		</g>
	</g>
</pattern>
<g id="background_1_">
	
		<radialGradient id="SVGID_1_" cx="81.8613" cy="76.4575" r="125.1703" gradientTransform="matrix(1 0 0 1.3094 0 -23.6521)" gradientUnits="userSpaceOnUse">
		<stop  offset="0" style="stop-color:#F6E867"/>
		<stop  offset="0.3095" style="stop-color:#F6E45F"/>
		<stop  offset="0.7616" style="stop-color:#F3D849"/>
		<stop  offset="1" style="stop-color:#F2D13B"/>
	</radialGradient>
	<rect x="0.056" y="-0.229" fill="url(#SVGID_1_)" width="163.611" height="153.372"/>
	<pattern  id="SVGID_2_" xlink:href="#New_Pattern_4" patternTransform="matrix(0.3319 0 0 0.3392 -5360.1426 -5473.5981)">
	</pattern>
	<rect x="0.266" y="-0.252" fill="url(#SVGID_2_)" width="260.918" height="153.418"/>
	<path fill="#DC5136" d="M261.144,0H151.5c8.218,48.924-1.142,98.108,2.894,147.143c0.043,1.621,0.076,4.32,0.106,6l106.646-1.422
		L261.144,0z"/>
	<path fill="#F2623D" d="M261.144-0.229H155.55c6.926,49.124-2.654,98.248,0.089,147.372c0,1.622-0.037,4.321-0.052,6h105.557
		V-0.229z"/>
	<pattern  id="SVGID_3_" xlink:href="#New_Pattern_5" patternTransform="matrix(0.4482 0 0 0.4482 -4399.5576 -4588.1396)">
	</pattern>
	<path fill="url(#SVGID_3_)" d="M261.184-0.287H155.51c6.932,49.161-2.656,98.322,0.089,147.483c0,1.623-0.037,4.324-0.052,6.005
		h105.637V-0.287z"/>
	<text transform="matrix(1 0 0 1 200.8672 143.6157)"><tspan x="0" y="0" fill="#F6E867" font-family="'PlutoRegular'" font-size="5">Cat Math Do © </tspan><tspan x="40.274" y="0" fill="#F6E867" font-family="'PlutoRegular'" font-size="4">2014</tspan></text>
</g>
<g id="cats_copy">
	<g>
		<g>
			<g>
				<path fill="#1D427D" d="M201.355,87.809l-0.613-1.02c-1.471,0.783-8.162,6.077-9.48,6.852c-1.311,0.673-2.417,1.469-3.894,1.279
					c-2.005-0.216-3.994-0.851-6.108-0.967c-4.137-0.224-7.75,1.04-9.336-3.083c-1.019-2.819-1.979-5.922-4.103-7.839
					c-0.262,0.833-0.415,1.681-0.565,2.518c-1.266,7.795-2.531,15.488-3.588,23.294c-0.732,5.698,0.395,10.438,4.751,14.389
					c3.343,3.049,6.817,3.663,10.984,3.249c2.032-0.21,4.335,0.444,6.169-0.203c1.742-0.649,3.727-2.026,5.365-2.896
					c2.742-1.555,5.212-5.989,6.123-9.024c1.148-3.658,1.163-7.906,1.789-11.597c0.477-2.946,1.268-5.773,1.746-8.722
					C200.914,92.037,200.714,89.792,201.355,87.809z M169.495,107.14c-4.839-2.917-0.156-10.956,4.026-7.648l-0.803-0.895
					C179.317,98.419,176.701,111.562,169.495,107.14z M179.086,120.589c-0.309-0.154-0.459-0.654-0.507-1.353
					c-0.859,0.717-2.27,1.542-4.161,1.438c-3.311-0.182-4.736-4.169-3.793-4.253c0.939-0.081,0.532,0.081,0.532,0.081
					s1.212,3.17,2.853,3.261c1.9,0.098,3.192-0.51,4.599-2.067c0.143-1.85,0.6-4.151,0.919-5.596
					c-0.094,0.017-0.152,0.024-0.152,0.024s-2.961-1.474-2.62-3.234c0,0,4.764-0.744,6.07,0.901c0.992,1.24-1.482,1.938-2.753,2.204
					c-0.422,2.349-0.848,6.81-0.186,7.703c0.607,0.832,2.845,0.113,2.845,0.113c1.553,0.229,3.432-1.972,3.632-2.255
					c0.199-0.283,1.137,0.401,1.137,0.401C183.868,122.772,180.601,121.361,179.086,120.589z M189.616,110.45
					c-5.921-0.639-5.048-10.9,0.325-9.971l-0.394-0.661C195.801,100.157,196.271,111.127,189.616,110.45z"/>
			</g>
		</g>
		<polygon fill="#F2F2F2" points="194.926,97.676 167.133,95.572 164.752,114.522 178.369,125.197 195.31,116.188 		"/>
		<g>
			<g>
				<g>
					<path fill="#4478BC" d="M200.742,86.79l-5.84,3.517c-1.469,0.782-2.936,1.541-4.249,2.313
						c-1.313,0.674-2.419,1.468-3.898,1.278c-2.003-0.211-3.991-0.848-6.107-0.964c-4.136-0.225-6.206,0.837-7.794-3.285
						c-1.02-2.819-3.52-5.718-5.648-7.64c-0.258,0.837-0.409,1.681-0.559,2.521c-1.271,7.793-2.533,15.488-3.589,23.295
						c-0.734,5.694,0.394,10.438,4.75,14.386c3.345,3.05,6.819,3.663,10.983,3.25c2.032-0.211,4.334,0.447,6.172-0.202
						c1.742-0.65,3.723-2.027,5.363-2.899c2.742-1.55,5.212-5.987,6.121-9.021c1.152-3.659,1.167-7.906,1.789-11.596
						c0.477-2.948,1.268-5.772,1.744-8.726C200.301,91.019,200.105,88.772,200.742,86.79z M168.883,106.117
						c-4.839-2.915-0.154-10.951,4.027-7.648l-0.805-0.891C178.707,97.4,176.09,110.542,168.883,106.117z M178.475,119.571
						c-0.307-0.159-0.46-0.656-0.506-1.355c-0.863,0.721-2.27,1.541-4.162,1.438c-3.312-0.181-4.735-4.169-3.792-4.25
						c0.938-0.083,0.528,0.077,0.528,0.077s1.217,3.172,2.856,3.26c1.9,0.1,3.189-0.509,4.597-2.065
						c0.146-1.85,0.602-4.151,0.918-5.594c-0.091,0.014-0.15,0.025-0.15,0.025s-2.959-1.475-2.621-3.232
						c0,0,4.763-0.746,6.072,0.897c0.99,1.239-1.486,1.942-2.753,2.202c-0.426,2.35-0.851,6.812-0.189,7.708
						c0.608,0.826,2.85,0.108,2.85,0.108c1.55,0.232,3.431-1.973,3.631-2.255c0.196-0.279,1.132,0.405,1.132,0.405
						C183.256,121.751,179.99,120.339,178.475,119.571z M189.006,109.43c-5.923-0.639-5.048-10.898,0.322-9.975l-0.393-0.656
						C195.19,99.134,195.663,110.108,189.006,109.43z"/>
				</g>
			</g>
			<g>
				<path fill="#4478BC" d="M174.17,100.918l0.109-0.099c-1.039-0.375-2.697-1.206-3.792-0.521c-1.102,0.683-1.1,2.598-0.296,3.492
					C172.091,106.017,176.453,103.915,174.17,100.918z"/>
			</g>
			<g>
				<path fill="#4478BC" d="M189.646,101.648l1.048,0.268c-3.376-0.501-3.397,3.962-0.681,4.745
					C194.098,107.837,193.056,101.51,189.646,101.648z"/>
			</g>
		</g>
	</g>
	<g>
		<g>
			<g>
				<path fill="#1D427D" d="M247.018,55.791l-0.685-0.973c-1.41,0.888-7.705,6.648-8.963,7.517c-1.26,0.766-2.305,1.639-3.791,1.557
					c-2.016-0.07-4.045-0.561-6.163-0.524c-4.142,0.074-7.653,1.596-9.534-2.402c-1.218-2.739-2.399-5.764-4.655-7.524
					c-0.202,0.852-0.292,1.707-0.383,2.553c-0.702,7.866-1.409,15.63-1.9,23.492c-0.321,5.736,1.145,10.381,5.773,14.01
					c3.554,2.799,7.065,3.162,11.19,2.449c2.012-0.355,4.355,0.131,6.139-0.646c1.691-0.773,3.57-2.291,5.143-3.275
					c2.624-1.748,4.768-6.348,5.457-9.441c0.883-3.732,0.591-7.97,0.95-11.696c0.263-2.973,0.847-5.849,1.112-8.824
					C246.881,60.04,246.521,57.814,247.018,55.791z M216.632,77.366c-5.035-2.56-0.945-10.916,3.466-7.918l-0.866-0.833
					C225.801,67.961,224.138,81.258,216.632,77.366z M227.167,90.09c-0.318-0.131-0.506-0.619-0.603-1.312
					c-0.807,0.777-2.153,1.701-4.048,1.732c-3.314,0.059-5.023-3.816-4.088-3.967c0.93-0.148,0.535,0.041,0.535,0.041
					s1.438,3.074,3.08,3.047c1.902-0.037,3.147-0.738,4.439-2.393c0.008-1.855,0.299-4.184,0.512-5.648
					c-0.093,0.023-0.149,0.035-0.149,0.035s-3.059-1.256-2.847-3.035c0,0,4.697-1.086,6.121,0.461
					c1.077,1.166-1.34,2.041-2.589,2.396c-0.252,2.373-0.354,6.854,0.369,7.697c0.667,0.785,2.847-0.094,2.847-0.094
					c1.565,0.119,3.281-2.213,3.459-2.51c0.18-0.297,1.163,0.318,1.163,0.318C232.094,91.924,228.732,90.75,227.167,90.09z
					 M236.938,79.217c-5.95-0.209-5.819-10.507-0.395-9.967l-0.438-0.63C242.366,68.507,243.626,79.417,236.938,79.217z"/>
			</g>
		</g>
		<polygon fill="#F2F2F2" points="241.315,66.097 213.442,65.999 212.433,85.069 226.782,94.737 243.032,84.532 		"/>
		<g>
			<g>
				<g>
					<path fill="#4478BC" d="M246.333,54.818l-5.572,3.929c-1.41,0.885-2.816,1.748-4.071,2.613
						c-1.261,0.767-2.308,1.639-3.796,1.556c-2.015-0.066-4.042-0.559-6.162-0.521c-4.141,0.074-6.129,1.281-8.009-2.716
						c-1.222-2.739-3.923-5.448-6.185-7.212c-0.198,0.852-0.285,1.705-0.376,2.554c-0.705,7.864-1.411,15.631-1.901,23.492
						c-0.322,5.734,1.145,10.383,5.773,14.008c3.555,2.801,7.065,3.162,11.188,2.449c2.014-0.355,4.355,0.135,6.142-0.645
						c1.691-0.775,3.566-2.291,5.143-3.279c2.621-1.744,4.766-6.348,5.454-9.438c0.886-3.732,0.594-7.97,0.95-11.695
						c0.262-2.975,0.848-5.849,1.11-8.828C246.196,59.068,245.84,56.841,246.333,54.818z M215.949,76.39
						c-5.038-2.559-0.944-10.912,3.464-7.918l-0.865-0.832C225.118,66.988,223.454,80.286,215.949,76.39z M226.481,89.118
						c-0.315-0.135-0.504-0.621-0.6-1.314c-0.808,0.781-2.152,1.699-4.047,1.734c-3.316,0.059-5.024-3.816-4.09-3.967
						c0.931-0.15,0.533,0.039,0.533,0.039s1.441,3.076,3.084,3.047c1.902-0.037,3.145-0.738,4.436-2.393
						c0.012-1.855,0.301-4.184,0.512-5.645c-0.09,0.021-0.147,0.035-0.147,0.035s-3.058-1.258-2.847-3.035
						c0,0,4.697-1.086,6.121,0.457c1.077,1.168-1.342,2.045-2.587,2.396c-0.256,2.373-0.358,6.854,0.366,7.701
						c0.666,0.779,2.85-0.096,2.85-0.096c1.563,0.119,3.279-2.215,3.459-2.512c0.176-0.293,1.158,0.322,1.158,0.322
						C231.409,90.95,228.05,89.776,226.481,89.118z M236.257,78.245c-5.952-0.209-5.819-10.505-0.396-9.972l-0.438-0.625
						C241.685,67.531,242.944,78.442,236.257,78.245z"/>
				</g>
			</g>
			<g>
				<path fill="#4478BC" d="M220.847,70.825l0.104-0.107c-1.064-0.299-2.779-1.008-3.822-0.245c-1.049,0.76-0.908,2.669-0.043,3.504
					C219.141,76.06,223.339,73.647,220.847,70.825z"/>
			</g>
			<g>
				<path fill="#4478BC" d="M236.335,70.438l1.065,0.19c-3.402-0.256-3.104,4.197-0.339,4.783
					C241.221,76.289,239.727,70.055,236.335,70.438z"/>
			</g>
		</g>
	</g>
	<g>
		<g>
			<g>
				<path fill="#1D427D" d="M202.379,25.046l-0.562-0.882c-1.275,0.723-7.037,5.533-8.177,6.245
					c-1.138,0.622-2.091,1.348-3.395,1.217c-1.768-0.145-3.532-0.656-5.395-0.709c-3.643-0.101-6.79,1.095-8.281-2.494
					c-0.96-2.456-1.877-5.161-3.788-6.799c-0.212,0.741-0.325,1.489-0.439,2.229c-0.932,6.884-1.866,13.678-2.612,20.566
					c-0.513,5.028,0.589,9.168,4.511,12.541c3.011,2.604,6.082,3.063,9.734,2.603c1.781-0.233,3.821,0.291,5.421-0.322
					c1.517-0.612,3.229-1.87,4.65-2.671c2.376-1.431,4.442-5.387,5.174-8.077c0.926-3.245,0.839-6.98,1.305-10.239
					c0.35-2.602,0.979-5.106,1.331-7.709C202.089,28.773,201.861,26.804,202.379,25.046z M174.813,42.786
					c-4.323-2.454-0.393-9.631,3.362-6.82l-0.728-0.767C183.247,34.888,181.252,46.505,174.813,42.786z M183.561,54.389
					c-0.275-0.129-0.42-0.565-0.478-1.178c-0.74,0.65-1.961,1.408-3.627,1.36c-2.915-0.082-4.261-3.556-3.434-3.651
					c0.824-0.093,0.47,0.059,0.47,0.059s1.14,2.759,2.584,2.8c1.674,0.043,2.796-0.522,3.996-1.924
					c0.083-1.63,0.432-3.665,0.678-4.941c-0.082,0.015-0.133,0.024-0.133,0.024s-2.638-1.227-2.381-2.781c0,0,4.173-0.767,5.36,0.65
					c0.9,1.067-1.258,1.74-2.37,2.001c-0.316,2.076-0.587,6.009,0.016,6.779c0.555,0.716,2.505,0.033,2.505,0.033
					c1.371,0.167,2.972-1.814,3.141-2.066c0.169-0.254,1.009,0.326,1.009,0.326C187.816,56.197,184.909,55.031,183.561,54.389z
					 M192.583,45.227c-5.221-0.423-4.692-9.467,0.053-8.775l-0.36-0.571C197.781,36.033,198.45,45.669,192.583,45.227z"/>
			</g>
		</g>
		<polygon fill="#F2F2F2" points="196.955,33.873 172.467,32.668 170.813,49.385 183.035,58.456 197.724,50.141 		"/>
		<g>
			<g>
				<g>
					<path fill="#4478BC" d="M201.816,24.164l-5.054,3.228c-1.274,0.722-2.545,1.423-3.683,2.133
						c-1.139,0.623-2.094,1.348-3.398,1.216c-1.768-0.14-3.528-0.654-5.394-0.707c-3.641-0.101-5.437,0.88-6.928-2.708
						c-0.964-2.456-3.229-4.945-5.145-6.586c-0.209,0.741-0.32,1.487-0.435,2.229c-0.935,6.882-1.867,13.678-2.612,20.566
						c-0.514,5.025,0.588,9.169,4.511,12.54c3.012,2.604,6.081,3.062,9.733,2.602c1.783-0.232,3.821,0.292,5.422-0.321
						c1.517-0.612,3.227-1.869,4.65-2.673c2.373-1.429,4.443-5.388,5.171-8.075c0.929-3.245,0.842-6.979,1.305-10.239
						c0.351-2.603,0.98-5.106,1.331-7.712C201.526,27.893,201.303,25.921,201.816,24.164z M174.252,41.899
						c-4.324-2.45-0.392-9.626,3.362-6.819l-0.729-0.764C182.686,34.006,180.69,45.623,174.252,41.899z M182.997,53.506
						c-0.272-0.131-0.419-0.566-0.476-1.18c-0.741,0.655-1.959,1.409-3.625,1.362c-2.917-0.081-4.262-3.555-3.435-3.649
						c0.823-0.095,0.466,0.056,0.466,0.056s1.144,2.761,2.589,2.8c1.673,0.044,2.792-0.521,3.994-1.923
						c0.084-1.631,0.432-3.665,0.676-4.94c-0.08,0.015-0.131,0.025-0.131,0.025s-2.637-1.227-2.38-2.78c0,0,4.171-0.767,5.36,0.647
						c0.899,1.068-1.261,1.742-2.369,2.001c-0.32,2.074-0.589,6.008,0.012,6.781c0.555,0.713,2.509,0.03,2.509,0.03
						c1.369,0.167,2.971-1.814,3.141-2.068c0.165-0.25,1.004,0.331,1.004,0.331C187.252,55.313,184.348,54.147,182.997,53.506z
						 M192.022,44.346c-5.222-0.424-4.691-9.466,0.052-8.779l-0.36-0.568C197.222,35.148,197.891,44.787,192.022,44.346z"/>
				</g>
			</g>
			<g>
				<path fill="#4478BC" d="M178.779,37.206l0.095-0.09c-0.923-0.306-2.401-0.998-3.348-0.37c-0.953,0.626-0.906,2.309-0.18,3.078
					C177.07,41.738,180.856,39.787,178.779,37.206z"/>
			</g>
			<g>
				<path fill="#4478BC" d="M192.405,37.487l0.928,0.21c-2.979-0.362-2.896,3.563-0.489,4.188
					C196.463,42.825,195.399,37.287,192.405,37.487z"/>
			</g>
		</g>
	</g>
</g>
<g id="number__x26__sign">
	<g>
		<g>
			<path fill="#F2623D" stroke="#F2623D" stroke-width="4" stroke-miterlimit="10" d="M53.062,67.631l13.744,1.455l0.228,11.42
				l-15.417,1.143l-13.168,1.219l-14.356,0.494l0.142-14.122l14.613-0.898L53.062,67.631z"/>
		</g>
	</g>
	<g>
		<g>
			<path fill="#F2623D" stroke="#F2623D" stroke-width="4" stroke-miterlimit="10" d="M51.417,65.987l13.744,1.455l0.228,11.42
				l-15.417,1.143l-13.168,1.219l-14.356,0.494l0.142-14.121l14.613-0.899L51.417,65.987z"/>
		</g>
	</g>
	<g>
		<g>
			<path fill="#F2F2F2" stroke="#F2F2F2" stroke-width="0.5" stroke-miterlimit="10" d="M51.651,66.199l13.679,1.835l-0.09,11.423
				L49.797,80.17l-13.18,0.849l-14.381,0.097l0.535-14.111l14.653-0.499L51.651,66.199z"/>
		</g>
	</g>
	<g>
		<g>
			<path fill="#DC5136" stroke="#F2F2F2" stroke-width="0.5" stroke-miterlimit="10" d="M51.417,65.987l13.744,1.455l0.228,11.42
				l-15.417,1.143l-13.168,1.219l-14.356,0.494l0.142-14.121l14.613-0.899L51.417,65.987z"/>
		</g>
	</g>
	<polygon fill="#F2623D" points="23.768,82.53 20.445,83.835 22.067,85.497 24.125,82.57 	"/>
	<polygon fill="#F2623D" points="68.776,67.438 67.034,65.747 66.034,67.784 	"/>
	<rect x="99.839" y="58.899" fill="#F2623D" width="13.248" height="4.147"/>
	<polygon fill="#F2623D" points="115.188,85.602 99.86,85.602 93.395,78.176 115.188,78.686 	"/>
	<g>
		<path fill="#F2623D" d="M94.586,64.122l14.699,2.714c3.935,0.179,5.884-1.128,5.985-3.341c0.096-2.132-2.256-2.233-5.863-2.398
			c-5.164-0.235-11.654,0.807-14.401,1.584l-3.575-0.864L89.975,44.84c3.577-0.986,13.738,0.056,20.297,0.355
			c16.558,0.754,23.884,4.01,23.281,17.243c-0.232,5.164-1.965,8.785-7.784,10.328c6.717,2.195,8.954,7.304,8.614,14.763
			c-0.438,9.59-8.528,15.875-26.725,15.047c-7.46-0.34-15.56-2.844-18.388-3.877l-3.532-2.32l6.219-13.26
			c2.738,1.195,11.064,4.049,16.393,4.291c5,0.227,7.533-1.299,7.637-3.596c0.121-2.621-1.752-5.117-6.751-5.346l-15.26-0.822
			L94.586,64.122z"/>
	</g>
	<g>
		<path fill="#F2623D" stroke="#F2623D" stroke-width="4" stroke-miterlimit="10" d="M96.025,63.233l11.559,0.527
			c3.934,0.179,5.883-1.129,5.982-3.342c0.098-2.131-2.078-3.053-5.684-3.217c-5.166-0.235-12.387,1.409-15.133,2.186l-3.24-15.425
			c3.577-0.987,12.5-2.141,19.06-1.843c16.558,0.754,23.759,6.75,23.281,17.243c-0.234,5.165-3.711,9.359-9.532,10.901
			c6.719,2.196,10.702,6.729,10.362,14.191c-0.438,9.588-8.528,15.877-26.725,15.047c-7.46-0.34-16.271-2.838-18.634-4.492
			l5.118-13.959c2.56,1.318,8.878,3.041,14.207,3.285c4.999,0.229,7.533-1.299,7.637-3.596c0.121-2.621-2.298-3.636-7.297-3.865
			l-11.559-0.525L96.025,63.233z"/>
	</g>
	<g>
		<path fill="#F2F2F2" stroke="#F2F2F2" stroke-width="0.5" stroke-miterlimit="10" d="M95.842,62.642l11.543,0.8
			c3.93,0.273,5.908-0.989,6.062-3.199c0.146-2.129-2.008-3.101-5.607-3.351c-5.159-0.357-12.416,1.114-15.181,1.828l-2.874-15.5
			c3.6-0.9,12.549-1.844,19.096-1.39c16.539,1.146,23.593,7.312,22.869,17.79c-0.355,5.157-3.933,9.267-9.786,10.671
			c6.663,2.354,10.534,6.983,10.02,14.434c-0.664,9.574-8.898,15.668-27.073,14.408c-7.448-0.516-15.489-3.211-18.29-4.311
			l5.277-14.443c2.711,1.26,8.74,3.24,14.062,3.609c4.994,0.348,7.563-1.119,7.721-3.414c0.182-2.617-2.211-3.69-7.204-4.036
			l-11.543-0.801L95.842,62.642z"/>
	</g>
	<g>
		<path fill="#DC5136" stroke="#F2F2F2" stroke-width="0.5" stroke-miterlimit="10" d="M95.66,62.974l11.559,0.526
			c3.934,0.18,5.883-1.128,5.984-3.342c0.096-2.131-2.08-3.052-5.686-3.216c-5.166-0.235-12.386,1.408-15.133,2.186l-3.239-15.426
			c3.577-0.986,12.501-2.141,19.058-1.842c16.561,0.754,23.76,6.75,23.284,17.243c-0.234,5.164-3.713,9.358-9.532,10.901
			c6.717,2.195,10.698,6.73,10.36,14.191c-0.438,9.59-8.526,15.875-26.725,15.047c-7.459-0.34-15.561-2.846-18.387-3.877
			l4.934-14.562c2.739,1.193,8.815,3.031,14.145,3.273c5,0.229,7.535-1.297,7.639-3.594c0.119-2.623-2.299-3.639-7.299-3.866
			l-11.559-0.527L95.66,62.974z"/>
	</g>
</g>
</svg>
