<?xml version="1.0" encoding="utf-8"?>
<!-- Generator: Adobe Illustrator 16.0.0, SVG Export Plug-In . SVG Version: 6.00 Build 0)  -->
<!DOCTYPE svg PUBLIC "-//W3C//DTD SVG 1.1//EN" "http://www.w3.org/Graphics/SVG/1.1/DTD/svg11.dtd">
<svg version="1.1" xmlns="http://www.w3.org/2000/svg" xmlns:xlink="http://www.w3.org/1999/xlink" x="0px" y="0px"
	 width="261.144px" height="153.143px" viewBox="0 0 261.144 153.143" enable-background="new 0 0 261.144 153.143"
	 xml:space="preserve">
<pattern  y="153.143" width="123" height="124" patternUnits="userSpaceOnUse" id="New_Pattern_4" viewBox="0 -124 123 124" overflow="visible">
	<g>
		<polygon fill="none" points="0,-124 123,-124 123,0 0,0 		"/>
		<path fill="#F2D03A" d="M52.275-49.22c-4.082-2.972-5.48-6.909-5.382-11.84c0.183-6.759,0.551-13.437,0.915-20.206
			c0.052-0.732,0.104-1.465,0.247-2.201c1.993,1.442,4.394,3.684,5.521,5.994c1.733,3.372,3.406,2.279,6.953,2.088
			c1.818-0.099,3.571,0.263,5.304,0.26c1.279,0.022,2.148-0.754,3.205-1.449c1.051-0.785,2.23-1.563,3.415-2.367l4.656-3.541
			c-0.361,1.752,0.015,3.646-0.073,5.385c-0.135,2.561-0.548,5.045-0.684,7.607c-0.191,3.202,0.187,6.83-0.46,10.057
			c-0.495,2.672-2.193,6.686-4.388,8.264c-1.319,0.892-2.888,2.254-4.309,2.969c-1.512,0.719-3.537,0.373-5.25,0.738
			C58.43-46.725,55.409-46.926,52.275-49.22z M69.184-62.082c5.743-0.036,4.328-9.354-1.037-9.064l0.393,0.526
			C63.872-70.915,64.074-62.078,69.184-62.082z M53.672-70.638l0.768,0.688c-3.871-2.437-7.127,4.854-2.729,6.896
			C58.263-59.941,59.285-71.397,53.672-70.638z M57.158-51.957c1.625-0.086,2.752-0.916,3.42-1.609
			c0.104,0.591,0.278,1.003,0.556,1.107c1.364,0.516,4.283,1.422,6.937-3.021c0,0-0.864-0.496-1.008-0.238
			c-0.141,0.258-1.542,2.312-2.891,2.259c0,0-1.842,0.819-2.438,0.168c-0.646-0.704-0.696-4.549-0.55-6.591
			c1.059-0.344,3.104-1.168,2.146-2.135c-1.268-1.281-5.266-0.209-5.266-0.209c-0.127,1.533,2.537,2.518,2.537,2.518
			s0.047-0.012,0.125-0.033c-0.138,1.258-0.316,3.266-0.266,4.859c-1.059,1.458-2.102,2.096-3.734,2.184
			c-1.408,0.076-2.734-2.516-2.734-2.516s0.335-0.176-0.462-0.019C52.732-55.076,54.318-51.805,57.158-51.957z"/>
		<path fill="#F2D03A" d="M55.742-67.975l0.086-0.096c-0.924-0.223-2.414-0.781-3.289-0.095c-0.875,0.685-0.695,2.317,0.071,3.005
			C54.437-63.434,57.967-65.631,55.742-67.975z"/>
		<path fill="#F2D03A" d="M69.791-64.537c3.591,0.627,2.118-4.675-0.777-4.244l0.92,0.132
			C67.009-68.764,67.396-64.955,69.791-64.537z"/>
		<path fill="#F2D03A" d="M113.776-108.446c2.998,2.194,5.898,2.463,9.224,1.837v-4.945c-0.131-0.045-0.255-0.088-0.365-0.131
			c-0.277-0.104-0.453-0.517-0.557-1.107c-0.668,0.693-1.795,1.523-3.42,1.609c-2.84,0.152-4.425-3.119-3.627-3.276
			c0.797-0.157,0.461,0.019,0.461,0.019s1.327,2.592,2.734,2.516c1.633-0.088,2.676-0.726,3.734-2.184
			c-0.05-1.594,0.129-3.602,0.266-4.859c-0.078,0.021-0.124,0.033-0.124,0.033s-2.665-0.984-2.538-2.518
			c0,0,1.853-0.496,3.436-0.409V-124h-4.579c-0.74,1.801-2.501,3.007-5.21,1.721c-0.873-0.406-1.439-1.02-1.765-1.721h-2.929
			c-0.045,1.236-0.09,2.473-0.123,3.714C108.295-115.355,109.693-111.418,113.776-108.446z"/>
		<path fill="#F2D03A" d="M123-112.983v-6.233c-0.111,0.039-0.219,0.076-0.316,0.107C122.559-117.35,122.579-114.258,123-112.983z"
			/>
		<path fill="#F2D03A" d="M116.725-124h-2.034C115.352-123.685,116.105-123.723,116.725-124z"/>
		<path fill="#F2D03A" d="M115.078-12.699c-1.129-2.311-3.529-4.552-5.521-5.994c-0.145,0.736-0.195,1.469-0.247,2.201
			c-0.298,5.526-0.593,10.994-0.792,16.492h2.929c-1.312-2.834,1.391-7.129,4.493-5.176l-0.768-0.688
			c3.293-0.446,4.299,3.31,3.249,5.864H123v-10.612c-0.322-0.007-0.644-0.017-0.969,0.001
			C118.484-10.42,116.811-9.327,115.078-12.699z"/>
		<path fill="#F2D03A" d="M117.243-3.201l0.085-0.096c-0.924-0.223-2.414-0.781-3.288-0.095c-0.875,0.685-0.696,2.317,0.071,3.005
			c0.178,0.168,0.375,0.289,0.579,0.387h2.034C117.871-0.514,118.545-1.829,117.243-3.201z"/>
		<path fill="#F2D03A" d="M5.697-107.428c1.422-0.715,2.99-2.077,4.309-2.969c2.195-1.578,3.894-5.592,4.389-8.264
			c0.342-1.709,0.396-3.529,0.4-5.34h-3.578c-0.383,1.498-1.502,2.679-3.533,2.691c-1.879,0.002-3.088-1.195-3.641-2.691H0v2.138
			c0.742,0.041,1.426,0.208,1.83,0.618c0.87,0.879-0.734,1.637-1.83,2.027v6.233c0.067,0.205,0.145,0.367,0.234,0.465
			c0.597,0.651,2.438-0.168,2.438-0.168c1.35,0.054,2.75-2.001,2.892-2.259c0.144-0.258,1.007,0.238,1.007,0.238
			c-2.438,4.082-5.096,3.649-6.57,3.152v4.945c0.15-0.028,0.296-0.048,0.447-0.08C2.16-107.055,4.186-106.709,5.697-107.428z"/>
		<path fill="#F2D03A" d="M9.846-124H7.622c0.202,0.107,0.423,0.193,0.669,0.236C8.999-123.641,9.504-123.752,9.846-124z"/>
		<path fill="#F2D03A" d="M14.854-4.717c0.137-2.562,0.549-5.047,0.684-7.607c0.088-1.738-0.287-3.633,0.074-5.385l-4.656,3.541
			c-1.185,0.804-2.365,1.582-3.416,2.367c-1.057,0.695-1.926,1.472-3.205,1.449C2.912-10.35,1.475-10.579,0-10.612V0h4.043
			C3.091-2.572,4.089-6.033,7.04-5.847L6.646-6.373C10.115-6.56,11.916-2.74,11.217,0h3.578C14.799-1.609,14.764-3.211,14.854-4.717
			z"/>
		<path fill="#F2D03A" d="M7.515-4.008l0.919,0.132C5.811-3.979,5.857-0.932,7.622,0h2.224C11.24-1.01,9.839-4.354,7.515-4.008z"/>
		<polygon fill="#F2D03A" points="31,-97 31,-100 25,-100 25,-97 		"/>
		<polygon fill="#F2D03A" points="22,-100 17,-100 17,-97 22,-97 		"/>
		<polygon fill="#F2D03A" points="25,-105 22,-105 22,-100 25,-100 		"/>
		<polygon fill="#F2D03A" points="22,-91 25,-91 25,-97 22,-97 		"/>
		<polygon fill="#F2D03A" points="25,-97 25,-100 22,-100 22,-97 		"/>
		<polygon fill="#F2D03A" points="69,-123 69,-124 63,-124 63,-123 		"/>
		<polygon fill="#F2D03A" points="60,-123 60,-124 55,-124 55,-123 		"/>
		<polygon fill="#F2D03A" points="60,-117 63,-117 63,-123 60,-123 		"/>
		<polygon fill="#F2D03A" points="63,-123 63,-124 60,-124 60,-123 		"/>
		<polygon fill="#F2D03A" points="55,-2 55,0 60,0 60,-2 		"/>
		<polygon fill="#F2D03A" points="69,-2 63,-2 63,0 69,0 		"/>
		<polygon fill="#F2D03A" points="60,-7 60,-2 63,-2 63,-7 		"/>
		<polygon fill="#F2D03A" points="60,-2 60,0 63,0 63,-2 		"/>
		<polygon fill="#F2D03A" points="89,-35 83,-35 83,-32 89,-32 		"/>
		<polygon fill="#F2D03A" points="97,-32 97,-35 92,-35 92,-32 		"/>
		<polygon fill="#F2D03A" points="89,-26 92,-26 92,-32 89,-32 		"/>
		<polygon fill="#F2D03A" points="92,-40 89,-40 89,-35 92,-35 		"/>
		<polygon fill="#F2D03A" points="92,-32 92,-35 89,-35 89,-32 		"/>
		<polygon fill="#F2D03A" points="18,-30 32,-30 32,-33 18,-33 		"/>
		<polygon fill="#F2D03A" points="7,-68 0,-68 0,-65 7,-65 		"/>
		<polygon fill="#F2D03A" points="117,-65 123,-65 123,-68 117,-68 		"/>
		<polygon fill="#F2D03A" points="97,-100 83,-100 83,-97 97,-97 		"/>
	</g>
</pattern>
<pattern  y="153.143" width="127.842" height="157.915" patternUnits="userSpaceOnUse" id="New_Pattern_5" viewBox="21.519 -157.915 127.842 157.915" overflow="visible">
	<g>
		<polygon fill="none" points="21.519,-157.915 149.36,-157.915 149.36,0 21.519,0 		"/>
		<g>
			<line fill="none" stroke="#DC5136" stroke-miterlimit="10" x1="141.844" y1="-31.229" x2="120.95" y2="-10.334"/>
			<line fill="none" stroke="#DC5136" stroke-miterlimit="10" x1="144.957" y1="-27.907" x2="124.062" y2="-7.012"/>
			<line fill="none" stroke="#DC5136" stroke-miterlimit="10" x1="149.09" y1="-24.57" x2="128.195" y2="-3.676"/>
			<line fill="none" stroke="#DC5136" stroke-miterlimit="10" x1="152.203" y1="-21.248" x2="131.309" y2="-0.354"/>
		</g>
		<g>
			<line fill="none" stroke="#DC5136" stroke-miterlimit="10" x1="109.884" y1="-31.229" x2="88.989" y2="-10.334"/>
			<line fill="none" stroke="#DC5136" stroke-miterlimit="10" x1="112.997" y1="-27.907" x2="92.103" y2="-7.012"/>
			<line fill="none" stroke="#DC5136" stroke-miterlimit="10" x1="117.13" y1="-24.57" x2="96.235" y2="-3.676"/>
			<line fill="none" stroke="#DC5136" stroke-miterlimit="10" x1="120.243" y1="-21.248" x2="99.349" y2="-0.354"/>
		</g>
		<g>
			<line fill="none" stroke="#DC5136" stroke-miterlimit="10" x1="77.923" y1="-31.229" x2="57.029" y2="-10.334"/>
			<line fill="none" stroke="#DC5136" stroke-miterlimit="10" x1="81.036" y1="-27.907" x2="60.142" y2="-7.012"/>
			<line fill="none" stroke="#DC5136" stroke-miterlimit="10" x1="85.169" y1="-24.57" x2="64.274" y2="-3.676"/>
			<line fill="none" stroke="#DC5136" stroke-miterlimit="10" x1="88.282" y1="-21.248" x2="67.388" y2="-0.354"/>
		</g>
		<g>
			<line fill="none" stroke="#DC5136" stroke-miterlimit="10" x1="45.962" y1="-31.229" x2="25.068" y2="-10.334"/>
			<line fill="none" stroke="#DC5136" stroke-miterlimit="10" x1="49.076" y1="-27.907" x2="28.181" y2="-7.012"/>
			<line fill="none" stroke="#DC5136" stroke-miterlimit="10" x1="53.208" y1="-24.57" x2="32.314" y2="-3.676"/>
			<line fill="none" stroke="#DC5136" stroke-miterlimit="10" x1="56.322" y1="-21.248" x2="35.427" y2="-0.354"/>
		</g>
		<g>
			<line fill="none" stroke="#DC5136" stroke-miterlimit="10" x1="21.248" y1="-24.57" x2="0.354" y2="-3.676"/>
			<line fill="none" stroke="#DC5136" stroke-miterlimit="10" x1="24.361" y1="-21.248" x2="3.467" y2="-0.354"/>
		</g>
		<g>
			<line fill="none" stroke="#DC5136" stroke-miterlimit="10" x1="148.236" y1="-62.812" x2="127.342" y2="-41.917"/>
			<line fill="none" stroke="#DC5136" stroke-miterlimit="10" x1="151.35" y1="-59.49" x2="130.455" y2="-38.595"/>
			<line fill="none" stroke="#DC5136" stroke-miterlimit="10" x1="155.482" y1="-56.153" x2="134.588" y2="-35.259"/>
			<line fill="none" stroke="#DC5136" stroke-miterlimit="10" x1="158.596" y1="-52.831" x2="137.701" y2="-31.937"/>
		</g>
		<g>
			<line fill="none" stroke="#DC5136" stroke-miterlimit="10" x1="116.275" y1="-62.812" x2="95.381" y2="-41.917"/>
			<line fill="none" stroke="#DC5136" stroke-miterlimit="10" x1="119.389" y1="-59.49" x2="98.494" y2="-38.595"/>
			<line fill="none" stroke="#DC5136" stroke-miterlimit="10" x1="123.521" y1="-56.153" x2="102.627" y2="-35.259"/>
			<line fill="none" stroke="#DC5136" stroke-miterlimit="10" x1="126.635" y1="-52.831" x2="105.74" y2="-31.937"/>
		</g>
		<g>
			<line fill="none" stroke="#DC5136" stroke-miterlimit="10" x1="84.314" y1="-62.812" x2="63.421" y2="-41.917"/>
			<line fill="none" stroke="#DC5136" stroke-miterlimit="10" x1="87.428" y1="-59.49" x2="66.534" y2="-38.595"/>
			<line fill="none" stroke="#DC5136" stroke-miterlimit="10" x1="91.561" y1="-56.153" x2="70.667" y2="-35.259"/>
			<line fill="none" stroke="#DC5136" stroke-miterlimit="10" x1="94.674" y1="-52.831" x2="73.779" y2="-31.937"/>
		</g>
		<g>
			<line fill="none" stroke="#DC5136" stroke-miterlimit="10" x1="52.354" y1="-62.812" x2="31.46" y2="-41.917"/>
			<line fill="none" stroke="#DC5136" stroke-miterlimit="10" x1="55.468" y1="-59.49" x2="34.573" y2="-38.595"/>
			<line fill="none" stroke="#DC5136" stroke-miterlimit="10" x1="59.601" y1="-56.153" x2="38.706" y2="-35.259"/>
			<line fill="none" stroke="#DC5136" stroke-miterlimit="10" x1="62.714" y1="-52.831" x2="41.819" y2="-31.937"/>
		</g>
		<g>
			<line fill="none" stroke="#DC5136" stroke-miterlimit="10" x1="23.507" y1="-59.49" x2="2.613" y2="-38.595"/>
			<line fill="none" stroke="#DC5136" stroke-miterlimit="10" x1="27.64" y1="-56.153" x2="6.746" y2="-35.259"/>
			<line fill="none" stroke="#DC5136" stroke-miterlimit="10" x1="30.753" y1="-52.831" x2="9.859" y2="-31.937"/>
		</g>
		<g>
			<line fill="none" stroke="#DC5136" stroke-miterlimit="10" x1="154.628" y1="-94.395" x2="133.734" y2="-73.5"/>
			<line fill="none" stroke="#DC5136" stroke-miterlimit="10" x1="157.741" y1="-91.073" x2="136.847" y2="-70.178"/>
			<line fill="none" stroke="#DC5136" stroke-miterlimit="10" x1="161.874" y1="-87.736" x2="140.979" y2="-66.842"/>
			<line fill="none" stroke="#DC5136" stroke-miterlimit="10" x1="164.987" y1="-84.414" x2="144.093" y2="-63.52"/>
		</g>
		<g>
			<line fill="none" stroke="#DC5136" stroke-miterlimit="10" x1="122.668" y1="-94.395" x2="101.773" y2="-73.5"/>
			<line fill="none" stroke="#DC5136" stroke-miterlimit="10" x1="125.781" y1="-91.073" x2="104.887" y2="-70.178"/>
			<line fill="none" stroke="#DC5136" stroke-miterlimit="10" x1="129.914" y1="-87.736" x2="109.02" y2="-66.842"/>
			<line fill="none" stroke="#DC5136" stroke-miterlimit="10" x1="133.027" y1="-84.414" x2="112.133" y2="-63.52"/>
		</g>
		<g>
			<line fill="none" stroke="#DC5136" stroke-miterlimit="10" x1="90.707" y1="-94.395" x2="69.813" y2="-73.5"/>
			<line fill="none" stroke="#DC5136" stroke-miterlimit="10" x1="93.82" y1="-91.073" x2="72.926" y2="-70.178"/>
			<line fill="none" stroke="#DC5136" stroke-miterlimit="10" x1="97.953" y1="-87.736" x2="77.059" y2="-66.842"/>
			<line fill="none" stroke="#DC5136" stroke-miterlimit="10" x1="101.066" y1="-84.414" x2="80.172" y2="-63.52"/>
		</g>
		<g>
			<line fill="none" stroke="#DC5136" stroke-miterlimit="10" x1="58.747" y1="-94.395" x2="37.853" y2="-73.5"/>
			<line fill="none" stroke="#DC5136" stroke-miterlimit="10" x1="61.86" y1="-91.073" x2="40.965" y2="-70.178"/>
			<line fill="none" stroke="#DC5136" stroke-miterlimit="10" x1="65.993" y1="-87.736" x2="45.098" y2="-66.842"/>
			<line fill="none" stroke="#DC5136" stroke-miterlimit="10" x1="69.106" y1="-84.414" x2="48.211" y2="-63.52"/>
		</g>
		<g>
			<line fill="none" stroke="#DC5136" stroke-miterlimit="10" x1="26.786" y1="-94.395" x2="5.892" y2="-73.5"/>
			<line fill="none" stroke="#DC5136" stroke-miterlimit="10" x1="29.899" y1="-91.073" x2="9.005" y2="-70.178"/>
			<line fill="none" stroke="#DC5136" stroke-miterlimit="10" x1="34.032" y1="-87.736" x2="13.138" y2="-66.842"/>
			<line fill="none" stroke="#DC5136" stroke-miterlimit="10" x1="37.146" y1="-84.414" x2="16.251" y2="-63.52"/>
		</g>
		<g>
			<line fill="none" stroke="#DC5136" stroke-miterlimit="10" x1="161.02" y1="-125.978" x2="140.127" y2="-105.083"/>
			<line fill="none" stroke="#DC5136" stroke-miterlimit="10" x1="164.133" y1="-122.656" x2="143.238" y2="-101.761"/>
			<line fill="none" stroke="#DC5136" stroke-miterlimit="10" x1="168.266" y1="-119.319" x2="147.371" y2="-98.425"/>
		</g>
		<g>
			<line fill="none" stroke="#DC5136" stroke-miterlimit="10" x1="129.061" y1="-125.978" x2="108.166" y2="-105.083"/>
			<line fill="none" stroke="#DC5136" stroke-miterlimit="10" x1="132.174" y1="-122.656" x2="111.279" y2="-101.761"/>
			<line fill="none" stroke="#DC5136" stroke-miterlimit="10" x1="136.307" y1="-119.319" x2="115.412" y2="-98.425"/>
			<line fill="none" stroke="#DC5136" stroke-miterlimit="10" x1="139.42" y1="-115.997" x2="118.525" y2="-95.103"/>
		</g>
		<g>
			<line fill="none" stroke="#DC5136" stroke-miterlimit="10" x1="97.1" y1="-125.978" x2="76.205" y2="-105.083"/>
			<line fill="none" stroke="#DC5136" stroke-miterlimit="10" x1="100.213" y1="-122.656" x2="79.318" y2="-101.761"/>
			<line fill="none" stroke="#DC5136" stroke-miterlimit="10" x1="104.346" y1="-119.319" x2="83.451" y2="-98.425"/>
			<line fill="none" stroke="#DC5136" stroke-miterlimit="10" x1="107.459" y1="-115.997" x2="86.564" y2="-95.103"/>
		</g>
		<g>
			<line fill="none" stroke="#DC5136" stroke-miterlimit="10" x1="65.139" y1="-125.978" x2="44.245" y2="-105.083"/>
			<line fill="none" stroke="#DC5136" stroke-miterlimit="10" x1="68.252" y1="-122.656" x2="47.357" y2="-101.761"/>
			<line fill="none" stroke="#DC5136" stroke-miterlimit="10" x1="72.385" y1="-119.319" x2="51.49" y2="-98.425"/>
			<line fill="none" stroke="#DC5136" stroke-miterlimit="10" x1="75.498" y1="-115.997" x2="54.604" y2="-95.103"/>
		</g>
		<g>
			<line fill="none" stroke="#DC5136" stroke-miterlimit="10" x1="33.178" y1="-125.978" x2="12.284" y2="-105.083"/>
			<line fill="none" stroke="#DC5136" stroke-miterlimit="10" x1="36.292" y1="-122.656" x2="15.397" y2="-101.761"/>
			<line fill="none" stroke="#DC5136" stroke-miterlimit="10" x1="40.424" y1="-119.319" x2="19.53" y2="-98.425"/>
			<line fill="none" stroke="#DC5136" stroke-miterlimit="10" x1="43.538" y1="-115.997" x2="22.643" y2="-95.103"/>
		</g>
		<g>
			<line fill="none" stroke="#DC5136" stroke-miterlimit="10" x1="167.412" y1="-157.561" x2="146.519" y2="-136.666"/>
			<line fill="none" stroke="#DC5136" stroke-miterlimit="10" x1="170.525" y1="-154.239" x2="149.631" y2="-133.344"/>
		</g>
		<g>
			<line fill="none" stroke="#DC5136" stroke-miterlimit="10" x1="135.452" y1="-157.561" x2="114.558" y2="-136.666"/>
			<line fill="none" stroke="#DC5136" stroke-miterlimit="10" x1="138.565" y1="-154.239" x2="117.671" y2="-133.344"/>
			<line fill="none" stroke="#DC5136" stroke-miterlimit="10" x1="142.698" y1="-150.902" x2="121.804" y2="-130.008"/>
			<line fill="none" stroke="#DC5136" stroke-miterlimit="10" x1="145.812" y1="-147.58" x2="124.917" y2="-126.686"/>
		</g>
		<g>
			<line fill="none" stroke="#DC5136" stroke-miterlimit="10" x1="103.491" y1="-157.561" x2="82.598" y2="-136.666"/>
			<line fill="none" stroke="#DC5136" stroke-miterlimit="10" x1="106.604" y1="-154.239" x2="85.71" y2="-133.344"/>
			<line fill="none" stroke="#DC5136" stroke-miterlimit="10" x1="110.737" y1="-150.902" x2="89.843" y2="-130.008"/>
			<line fill="none" stroke="#DC5136" stroke-miterlimit="10" x1="113.851" y1="-147.58" x2="92.956" y2="-126.686"/>
		</g>
		<g>
			<line fill="none" stroke="#DC5136" stroke-miterlimit="10" x1="71.531" y1="-157.561" x2="50.637" y2="-136.666"/>
			<line fill="none" stroke="#DC5136" stroke-miterlimit="10" x1="74.645" y1="-154.239" x2="53.75" y2="-133.344"/>
			<line fill="none" stroke="#DC5136" stroke-miterlimit="10" x1="78.777" y1="-150.902" x2="57.882" y2="-130.008"/>
			<line fill="none" stroke="#DC5136" stroke-miterlimit="10" x1="81.891" y1="-147.58" x2="60.996" y2="-126.686"/>
		</g>
		<g>
			<line fill="none" stroke="#DC5136" stroke-miterlimit="10" x1="39.57" y1="-157.561" x2="18.676" y2="-136.666"/>
			<line fill="none" stroke="#DC5136" stroke-miterlimit="10" x1="42.684" y1="-154.239" x2="21.789" y2="-133.344"/>
			<line fill="none" stroke="#DC5136" stroke-miterlimit="10" x1="46.816" y1="-150.902" x2="25.922" y2="-130.008"/>
			<line fill="none" stroke="#DC5136" stroke-miterlimit="10" x1="49.93" y1="-147.58" x2="29.035" y2="-126.686"/>
		</g>
	</g>
</pattern>
<g id="background_1_">
	
		<radialGradient id="SVGID_1_" cx="81.8613" cy="76.4575" r="125.1703" gradientTransform="matrix(1 0 0 1.3094 0 -23.6521)" gradientUnits="userSpaceOnUse">
		<stop  offset="0" style="stop-color:#F6E867"/>
		<stop  offset="0.3095" style="stop-color:#F6E45F"/>
		<stop  offset="0.7616" style="stop-color:#F3D849"/>
		<stop  offset="1" style="stop-color:#F2D13B"/>
	</radialGradient>
	<rect x="0.056" y="-0.229" fill="url(#SVGID_1_)" width="163.611" height="153.372"/>
	<pattern  id="SVGID_2_" xlink:href="#New_Pattern_4" patternTransform="matrix(0.3319 0 0 0.3392 -5360.1426 -5473.5981)">
	</pattern>
	<rect x="0.266" y="-0.252" fill="url(#SVGID_2_)" width="260.918" height="153.418"/>
	<path fill="#DC5136" d="M261.144,0H151.5c8.218,48.924-1.142,98.108,2.894,147.143c0.043,1.621,0.076,4.32,0.106,6l106.646-1.422
		L261.144,0z"/>
	<path fill="#F2623D" d="M261.188-0.293H155.331c6.944,49.246-2.66,98.493,0.09,147.739c0,1.625-0.038,4.332-0.052,6.015h105.819
		V-0.293z"/>
	<pattern  id="SVGID_3_" xlink:href="#New_Pattern_5" patternTransform="matrix(0.4482 0 0 0.4482 -4399.5576 -4588.1406)">
	</pattern>
	<path fill="url(#SVGID_3_)" d="M261.184-0.287H155.51c6.932,49.161-2.656,98.323,0.089,147.483c0,1.623-0.037,4.324-0.052,6.006
		h105.637V-0.287z"/>
	<text transform="matrix(1 0 0 1 200.8672 143.6157)"><tspan x="0" y="0" fill="#F6E867" font-family="'PlutoRegular'" font-size="5">Cat Math Do © </tspan><tspan x="40.274" y="0" fill="#F6E867" font-family="'PlutoRegular'" font-size="4">2014</tspan></text>
</g>
<g id="cats_copy">
	<g>
		<g>
			<g>
				<path fill="#1D427D" d="M194.457,74.768l-0.851-0.773c-1.144,1.134-5.87,7.892-6.874,8.975c-1.027,0.986-1.829,2.03-3.249,2.265
					c-1.916,0.357-3.934,0.322-5.924,0.802c-3.891,0.94-6.884,3.114-9.498-0.262c-1.725-2.328-3.475-4.933-5.973-6.119
					c-0.012,0.846,0.083,1.672,0.175,2.488c0.992,7.567,1.957,15.04,3.146,22.56c0.903,5.479,3.262,9.552,8.392,12
					c3.941,1.894,7.329,1.497,11.07-0.042c1.822-0.759,4.136-0.792,5.655-1.9c1.432-1.086,2.886-2.912,4.162-4.171
					c2.107-2.2,3.161-6.99,3.162-10.053c0.048-3.706-1.118-7.643-1.562-11.231c-0.378-2.86-0.431-5.696-0.807-8.559
					C195.222,78.804,194.413,76.781,194.457,74.768z M170.331,101.507c-5.289-1.356-3.187-10.098,1.604-8.198l-0.991-0.604
					C177.002,90.708,178.229,103.6,170.331,101.507z M182.943,111.295c-0.328-0.058-0.607-0.479-0.844-1.111
					c-0.598,0.902-1.674,2.057-3.455,2.485c-3.114,0.752-5.54-2.544-4.69-2.883c0.847-0.336,0.515-0.074,0.515-0.074
					s2.002,2.598,3.546,2.227c1.786-0.436,2.813-1.357,3.684-3.19c-0.383-1.752-0.598-4.01-0.703-5.435
					c-0.083,0.041-0.134,0.064-0.134,0.064s-3.149-0.542-3.324-2.266c0,0,4.203-2.012,5.87-0.852
					c1.262,0.873-0.834,2.206-1.938,2.805c0.262,2.291,1.106,6.539,1.967,7.183c0.794,0.601,2.665-0.686,2.665-0.686
					c1.502-0.218,2.63-2.778,2.736-3.095c0.105-0.318,1.163,0.056,1.163,0.056C187.976,111.989,184.559,111.588,182.943,111.295z
					 M189.875,98.985c-5.657,1.054-7.698-8.688-2.468-9.319l-0.547-0.502C192.742,87.74,196.225,97.766,189.875,98.985z"/>
			</g>
		</g>
		<polygon fill="#F2F2F2" points="191.244,85.687 164.933,91.456 167.989,109.657 183.558,115.758 196.74,102.716 		"/>
		<g>
			<g>
				<g>
					<path fill="#4478BC" d="M193.606,73.995l-4.43,4.877c-1.145,1.132-2.29,2.241-3.291,3.321c-1.029,0.988-1.833,2.03-3.254,2.266
						c-1.914,0.36-3.931,0.323-5.923,0.804c-3.889,0.939-5.512,2.497-8.125-0.878c-1.728-2.327-4.846-4.315-7.35-5.503
						c-0.008,0.845,0.089,1.668,0.183,2.487c0.987,7.567,1.954,15.041,3.146,22.56c0.901,5.476,3.262,9.553,8.391,11.998
						c3.942,1.896,7.329,1.498,11.068-0.04c1.824-0.76,4.137-0.79,5.657-1.901c1.433-1.085,2.883-2.909,4.162-4.172
						c2.105-2.197,3.16-6.99,3.16-10.05c0.051-3.708-1.115-7.644-1.562-11.231c-0.378-2.861-0.43-5.695-0.808-8.561
						C194.372,78.033,193.566,76.006,193.606,73.995z M169.481,100.73c-5.29-1.354-3.185-10.095,1.603-8.197l-0.991-0.603
						C176.153,89.934,177.379,102.827,169.481,100.73z M182.093,110.522c-0.327-0.062-0.607-0.48-0.843-1.115
						c-0.598,0.907-1.673,2.057-3.452,2.487c-3.117,0.753-5.542-2.544-4.691-2.882c0.845-0.337,0.51-0.074,0.51-0.074
						s2.007,2.599,3.55,2.225c1.787-0.436,2.812-1.356,3.682-3.188c-0.379-1.753-0.597-4.01-0.704-5.433
						c-0.08,0.038-0.132,0.064-0.132,0.064s-3.148-0.543-3.323-2.264c0,0,4.202-2.013,5.87-0.856
						c1.261,0.874-0.836,2.211-1.937,2.805c0.258,2.292,1.104,6.54,1.964,7.187c0.793,0.597,2.668-0.69,2.668-0.69
						c1.5-0.216,2.628-2.778,2.735-3.095c0.104-0.313,1.16,0.061,1.16,0.061C187.126,111.213,183.71,110.812,182.093,110.522z
						 M189.027,98.211c-5.659,1.053-7.698-8.688-2.471-9.324l-0.546-0.498C191.895,86.963,195.377,96.991,189.027,98.211z"/>
				</g>
			</g>
			<g>
				<path fill="#4478BC" d="M172.932,94.452l0.074-0.123c-1.066-0.059-2.833-0.367-3.656,0.572
					c-0.829,0.937-0.296,2.708,0.695,3.314C172.423,99.748,175.876,96.589,172.932,94.452z"/>
			</g>
			<g>
				<path fill="#4478BC" d="M187.46,90.829l1.045-0.043c-3.264,0.474-2.047,4.611,0.686,4.582
					C193.298,95.323,190.578,89.756,187.46,90.829z"/>
			</g>
		</g>
	</g>
	<g>
		<g>
			<g>
				<path fill="#1D427D" d="M243.712,73.882l-0.633-0.962c-1.388,0.815-7.643,6.19-8.884,6.99c-1.238,0.701-2.275,1.514-3.709,1.391
					c-1.943-0.129-3.891-0.664-5.938-0.693c-4.004-0.053-7.44,1.312-9.139-2.608c-1.091-2.683-2.141-5.639-4.268-7.41
					c-0.221,0.818-0.334,1.642-0.445,2.456c-0.918,7.576-1.836,15.055-2.547,22.635c-0.482,5.53,0.791,10.062,5.152,13.705
					c3.35,2.812,6.73,3.269,10.736,2.705c1.953-0.282,4.203,0.259,5.95-0.439c1.655-0.696,3.519-2.104,5.065-3.009
					c2.589-1.608,4.797-5.989,5.558-8.955c0.966-3.577,0.811-7.681,1.271-11.268c0.343-2.865,0.996-5.626,1.341-8.491
					C243.451,77.982,243.171,75.821,243.712,73.882z M213.71,93.805c-4.786-2.627-0.583-10.572,3.585-7.546l-0.809-0.831
					C222.85,84.997,220.843,97.791,213.71,93.805z M223.504,106.416c-0.307-0.139-0.473-0.614-0.543-1.288
					c-0.804,0.727-2.131,1.578-3.964,1.552c-3.205-0.045-4.738-3.839-3.829-3.955c0.904-0.116,0.516,0.056,0.516,0.056
					s1.295,3.014,2.883,3.036c1.84,0.02,3.064-0.618,4.361-2.178c0.062-1.793,0.414-4.033,0.666-5.438
					c-0.091,0.018-0.146,0.027-0.146,0.027s-2.918-1.305-2.658-3.018c0,0,4.57-0.907,5.896,0.63
					c1.008,1.158-1.354,1.931-2.572,2.237c-0.314,2.285-0.549,6.608,0.125,7.445c0.619,0.779,2.754-0.004,2.754-0.004
					c1.507,0.162,3.234-2.039,3.416-2.318c0.182-0.282,1.114,0.342,1.114,0.342C228.205,108.333,224.994,107.097,223.504,106.416z
					 M233.27,96.208c-5.741-0.384-5.305-10.326-0.082-9.642l-0.402-0.621C238.834,86.024,239.723,96.6,233.27,96.208z"/>
			</g>
		</g>
		<polygon fill="#F2F2F2" points="237.893,83.664 210.973,82.728 209.421,101.118 222.99,110.891 238.994,101.524 		"/>
		<g>
			<g>
				<g>
					<path fill="#4478BC" d="M243.079,72.92l-5.501,3.627c-1.388,0.812-2.771,1.604-4.01,2.402
						c-1.241,0.702-2.279,1.513-3.714,1.388c-1.946-0.125-3.888-0.661-5.938-0.689c-4-0.053-5.96,1.053-7.653-2.865
						c-1.097-2.683-3.624-5.382-5.755-7.154c-0.219,0.817-0.33,1.639-0.441,2.456c-0.918,7.575-1.836,15.056-2.546,22.635
						c-0.485,5.528,0.792,10.064,5.153,13.705c3.352,2.812,6.73,3.269,10.734,2.704c1.955-0.283,4.203,0.261,5.951-0.438
						c1.657-0.695,3.514-2.104,5.066-3.01c2.583-1.608,4.797-5.988,5.556-8.954c0.968-3.578,0.812-7.68,1.269-11.267
						c0.345-2.865,0.996-5.624,1.34-8.493C242.82,77.022,242.543,74.861,243.079,72.92z M213.078,92.841
						c-4.789-2.624-0.581-10.57,3.587-7.544l-0.812-0.83C222.221,84.037,220.21,96.831,213.078,92.841z M222.869,105.453
						c-0.301-0.14-0.469-0.615-0.539-1.289c-0.805,0.732-2.131,1.578-3.963,1.554c-3.204-0.042-4.737-3.837-3.83-3.954
						c0.903-0.116,0.514,0.055,0.514,0.055s1.299,3.015,2.887,3.035c1.838,0.022,3.061-0.616,4.355-2.175
						c0.07-1.795,0.418-4.033,0.666-5.439c-0.087,0.019-0.143,0.031-0.143,0.031s-2.917-1.308-2.66-3.018c0,0,4.571-0.908,5.9,0.627
						c1.005,1.159-1.359,1.933-2.57,2.235c-0.318,2.283-0.555,6.609,0.121,7.448c0.619,0.775,2.754-0.006,2.754-0.006
						c1.507,0.161,3.235-2.041,3.418-2.321c0.179-0.277,1.109,0.348,1.109,0.348C227.573,107.371,224.363,106.137,222.869,105.453z
						 M232.639,95.248c-5.742-0.385-5.303-10.326-0.082-9.646l-0.404-0.618C238.207,85.06,239.095,95.638,232.639,95.248z"/>
				</g>
			</g>
			<g>
				<path fill="#4478BC" d="M217.98,87.613l0.101-0.101c-1.02-0.319-2.653-1.057-3.683-0.353c-1.036,0.704-0.959,2.552-0.149,3.385
					C216.172,92.619,220.301,90.416,217.98,87.613z"/>
			</g>
			<g>
				<path fill="#4478BC" d="M232.951,87.707l1.023,0.216c-3.281-0.35-3.125,3.961-0.471,4.609
					C237.494,93.506,236.238,87.44,232.951,87.707z"/>
			</g>
		</g>
	</g>
	<g>
		<g>
			<g>
				<path fill="#1D427D" d="M195.515,24.27l-0.585-0.779c-1.131,0.761-6.14,5.63-7.146,6.371c-1.013,0.657-1.846,1.398-3.064,1.368
					c-1.65-0.008-3.323-0.359-5.055-0.277c-3.387,0.163-6.223,1.495-7.859-1.729c-1.064-2.211-2.105-4.657-3.994-6.042
					c-0.145,0.701-0.197,1.404-0.251,2.098c-0.38,6.453-0.768,12.823-0.975,19.268c-0.122,4.701,1.191,8.465,5.069,11.318
					c2.978,2.204,5.858,2.414,9.216,1.729c1.637-0.342,3.566,0,5.007-0.681c1.364-0.675,2.864-1.962,4.127-2.807
					c2.104-1.496,3.742-5.312,4.23-7.859c0.63-3.075,0.287-6.536,0.489-9.592c0.141-2.439,0.549-4.806,0.691-7.248
					C195.508,27.749,195.157,25.937,195.515,24.27z M171.188,42.671c-4.185-1.971-1.044-8.907,2.639-6.564l-0.728-0.66
					C178.456,34.75,177.423,45.669,171.188,42.671z M180.12,52.821c-0.265-0.099-0.43-0.495-0.524-1.059
					c-0.642,0.655-1.72,1.444-3.27,1.518c-2.711,0.129-4.205-2.999-3.443-3.146c0.757-0.145,0.439,0.021,0.439,0.021
					s1.252,2.479,2.595,2.417c1.556-0.079,2.558-0.682,3.573-2.068c-0.04-1.519,0.141-3.431,0.279-4.632
					c-0.075,0.021-0.12,0.032-0.12,0.032s-2.534-0.952-2.405-2.414c0,0,3.816-1.005,5.019,0.226
					c0.911,0.927-1.046,1.703-2.058,2.025c-0.147,1.948-0.121,5.616,0.492,6.289c0.564,0.625,2.326-0.146,2.326-0.146
					c1.284,0.057,2.631-1.893,2.77-2.139c0.137-0.248,0.958,0.231,0.958,0.231C184.195,54.199,181.417,53.323,180.12,52.821z
					 M187.847,43.685c-4.874-0.025-5.021-8.453-0.568-8.146l-0.376-0.505C192.022,34.787,193.323,43.682,187.847,43.685z"/>
			</g>
		</g>
		<polygon fill="#F2F2F2" points="191.103,32.841 168.297,33.45 167.941,49.078 179.92,56.632 192.963,47.883 		"/>
		<g>
			<g>
				<g>
					<path fill="#4478BC" d="M194.93,23.49l-4.461,3.352c-1.133,0.759-2.263,1.5-3.267,2.239c-1.014,0.659-1.849,1.397-3.067,1.367
						c-1.65-0.004-3.321-0.357-5.055-0.275c-3.385,0.162-4.982,1.2-6.62-2.024c-1.066-2.21-3.344-4.361-5.237-5.748
						c-0.141,0.702-0.191,1.403-0.244,2.098c-0.384,6.452-0.77,12.824-0.976,19.269c-0.122,4.698,1.191,8.465,5.069,11.316
						c2.978,2.204,5.858,2.413,9.214,1.729c1.639-0.341,3.566,0.002,5.009-0.681c1.364-0.675,2.861-1.961,4.126-2.808
						c2.103-1.492,3.743-5.312,4.229-7.856c0.633-3.076,0.289-6.535,0.488-9.592c0.142-2.44,0.55-4.805,0.692-7.25
						C194.924,26.972,194.577,25.158,194.93,23.49z M170.604,41.89c-4.185-1.97-1.041-8.905,2.639-6.564l-0.729-0.66
						C177.873,33.971,176.84,44.89,170.604,41.89z M179.536,52.043c-0.263-0.104-0.43-0.496-0.524-1.062
						c-0.642,0.659-1.719,1.444-3.268,1.52c-2.712,0.13-4.205-2.999-3.443-3.145c0.756-0.146,0.437,0.02,0.437,0.02
						s1.255,2.48,2.598,2.416c1.557-0.078,2.555-0.682,3.57-2.066c-0.035-1.52,0.143-3.432,0.279-4.633
						c-0.072,0.02-0.119,0.034-0.119,0.034s-2.533-0.954-2.404-2.413c0,0,3.816-1.005,5.02,0.223
						c0.909,0.928-1.048,1.706-2.058,2.024c-0.151,1.948-0.124,5.617,0.489,6.292c0.564,0.622,2.329-0.15,2.329-0.15
						c1.282,0.059,2.629-1.893,2.77-2.14c0.135-0.243,0.954,0.236,0.954,0.236C183.612,53.419,180.835,52.542,179.536,52.043z
						 M187.265,42.907c-4.875-0.025-5.021-8.453-0.57-8.15l-0.376-0.501C191.44,34.006,192.74,42.902,187.265,42.907z"/>
				</g>
			</g>
			<g>
				<path fill="#4478BC" d="M174.475,37.215l0.081-0.09c-0.878-0.219-2.299-0.757-3.133-0.107c-0.839,0.647-0.678,2.206,0.051,2.868
					C173.207,41.54,176.583,39.463,174.475,37.215z"/>
			</g>
			<g>
				<path fill="#4478BC" d="M187.136,36.516l0.877,0.13c-2.791-0.125-2.437,3.51-0.159,3.92
					C191.277,41.183,189.901,36.12,187.136,36.516z"/>
			</g>
		</g>
	</g>
	<g>
		<g>
			<g>
				<path fill="#1D427D" d="M241.446,22.737l-0.749-0.756c-1.109,0.992-5.8,7.007-6.78,7.96c-0.993,0.862-1.786,1.787-3.108,1.937
					c-1.785,0.237-3.647,0.109-5.511,0.456c-3.638,0.682-6.507,2.547-8.76-0.696c-1.48-2.234-2.973-4.724-5.224-5.94
					c-0.052,0.782-0.003,1.549,0.043,2.308c0.553,7.038,1.085,13.986,1.825,20.989c0.572,5.103,2.555,8.979,7.175,11.485
					c3.55,1.938,6.698,1.734,10.229,0.493c1.719-0.614,3.857-0.534,5.314-1.485c1.374-0.934,2.805-2.551,4.044-3.653
					c2.053-1.932,3.254-6.306,3.403-9.135c0.222-3.42-0.668-7.112-0.905-10.449c-0.212-2.659-0.124-5.282-0.335-7.943
					C241.958,26.501,241.309,24.594,241.446,22.737z M217.881,46.279c-4.82-1.507-2.46-9.48,1.872-7.496l-0.886-0.606
					C224.561,36.623,225.076,48.59,217.881,46.279z M229.062,55.924c-0.301-0.069-0.54-0.471-0.728-1.067
					c-0.596,0.805-1.644,1.819-3.31,2.13c-2.914,0.545-4.997-2.615-4.194-2.888c0.799-0.27,0.479-0.043,0.479-0.043
					s1.724,2.496,3.169,2.227c1.671-0.318,2.664-1.12,3.555-2.771c-0.27-1.636-0.361-3.732-0.389-5.053
					c-0.079,0.034-0.127,0.053-0.127,0.053s-2.884-0.651-2.962-2.251c0,0,3.979-1.657,5.463-0.506
					c1.125,0.866-0.876,1.998-1.925,2.498c0.133,2.129,0.709,6.093,1.474,6.729c0.702,0.593,2.494-0.507,2.494-0.507
					c1.396-0.128,2.561-2.439,2.675-2.726c0.113-0.289,1.074,0.106,1.074,0.106C233.678,56.804,230.54,56.271,229.062,55.924z
					 M236.054,44.885c-5.275,0.702-6.694-8.394-1.833-8.726l-0.48-0.49C239.241,34.636,241.978,44.063,236.054,44.885z"/>
			</g>
		</g>
		<polygon fill="#F2F2F2" points="237.955,32.668 213.377,36.734 215.326,53.694 229.415,60.075 242.216,48.661 		"/>
		<g>
			<g>
				<g>
					<path fill="#4478BC" d="M240.697,21.981l-4.324,4.292c-1.111,0.991-2.223,1.96-3.198,2.91
						c-0.997,0.863-1.791,1.788-3.114,1.937c-1.787,0.242-3.646,0.11-5.51,0.458c-3.637,0.683-5.212,2.043-7.463-1.199
						c-1.485-2.232-4.27-4.218-6.524-5.436c-0.049,0.781,0,1.545,0.048,2.307c0.551,7.037,1.084,13.987,1.825,20.989
						c0.569,5.101,2.554,8.98,7.175,11.484c3.551,1.938,6.698,1.735,10.226,0.493c1.723-0.614,3.859-0.532,5.316-1.485
						c1.376-0.934,2.802-2.55,4.045-3.654c2.049-1.929,3.254-6.306,3.401-9.132c0.224-3.421-0.665-7.112-0.907-10.448
						c-0.21-2.661-0.122-5.282-0.335-7.946C241.212,25.747,240.564,23.837,240.697,21.981z M217.132,45.52
						c-4.82-1.504-2.456-9.478,1.874-7.496l-0.887-0.604C223.814,35.868,224.327,47.834,217.132,45.52z M228.312,55.168
						c-0.299-0.072-0.537-0.473-0.725-1.07c-0.597,0.81-1.644,1.82-3.31,2.132c-2.914,0.546-4.996-2.615-4.193-2.887
						c0.797-0.271,0.474-0.044,0.474-0.044s1.729,2.496,3.173,2.225c1.671-0.316,2.662-1.118,3.553-2.768
						c-0.266-1.639-0.358-3.733-0.391-5.052c-0.074,0.031-0.123,0.054-0.123,0.054s-2.883-0.653-2.962-2.25
						c0,0,3.979-1.658,5.463-0.509c1.123,0.867-0.879,2.002-1.922,2.497c0.128,2.129,0.704,6.094,1.47,6.732
						c0.702,0.589,2.496-0.51,2.496-0.51c1.396-0.127,2.561-2.44,2.675-2.728c0.112-0.285,1.07,0.113,1.07,0.113
						C232.928,56.048,229.794,55.515,228.312,55.168z M235.308,44.13c-5.277,0.701-6.693-8.394-1.835-8.731l-0.479-0.486
						C238.496,33.877,241.231,43.307,235.308,44.13z"/>
				</g>
			</g>
			<g>
				<path fill="#4478BC" d="M220.621,39.885l0.074-0.109c-0.982-0.105-2.599-0.475-3.403,0.353
					c-0.812,0.828-0.403,2.488,0.482,3.096C219.896,44.753,223.238,42.002,220.621,39.885z"/>
			</g>
			<g>
				<path fill="#4478BC" d="M234.213,37.236l0.968,0.009c-3.038,0.282-2.11,4.162,0.414,4.265
					C239.392,41.666,237.146,36.395,234.213,37.236z"/>
			</g>
		</g>
	</g>
</g>
<g id="number__x26__sign">
	<g>
		<g>
			<path fill="#F2623D" stroke="#F2623D" stroke-width="4" stroke-miterlimit="10" d="M53.062,67.631l13.744,1.455l0.228,11.42
				l-15.417,1.143l-13.168,1.219l-14.356,0.494l0.142-14.122l14.613-0.898L53.062,67.631z"/>
		</g>
	</g>
	<g>
		<g>
			<path fill="#F2623D" stroke="#F2623D" stroke-width="4" stroke-miterlimit="10" d="M51.417,65.987l13.744,1.455l0.228,11.42
				l-15.417,1.143l-13.168,1.219l-14.356,0.494l0.142-14.121l14.613-0.899L51.417,65.987z"/>
		</g>
	</g>
	<g>
		<g>
			<path fill="#F2F2F2" stroke="#F2F2F2" stroke-width="0.5" stroke-miterlimit="10" d="M51.651,66.199l13.679,1.835l-0.09,11.423
				L49.797,80.17l-13.18,0.849l-14.381,0.097l0.535-14.111l14.653-0.499L51.651,66.199z"/>
		</g>
	</g>
	<g>
		<g>
			<path fill="#DC5136" stroke="#F2F2F2" stroke-width="0.5" stroke-miterlimit="10" d="M51.417,65.987l13.744,1.455l0.228,11.42
				l-15.417,1.143l-13.168,1.219l-14.356,0.494l0.142-14.121l14.613-0.899L51.417,65.987z"/>
		</g>
	</g>
	<polygon fill="#F2623D" points="23.768,82.53 20.445,83.835 22.067,85.497 24.125,82.57 	"/>
	<polygon fill="#F2623D" points="68.776,67.438 67.034,65.747 66.034,67.784 	"/>
	<g>
		<path fill="#F2623D" d="M133.775,91.364l0.907,11.814l-1.625,0.602l-21.713-1.119l4.888-11.457l-30.144-0.359l-1.128-0.446
			l24.548-45.038l22.315-4.083l1.202,2.244l-0.222,34.671l7.174-3.668l2.394,1.527l0.234,15.207L133.775,91.364z M116.048,78.446
			l-0.229-15.87l-9.021,16.003L116.048,78.446z"/>
	</g>
	<g>
		<path fill="#F2623D" stroke="#F2623D" stroke-width="4" stroke-miterlimit="10" d="M130.102,89.309l0.788,12.229h-18.332V89.309
			l-25.771-0.787l-0.786-10.378l20.496-33.983l23.604-0.787l-0.787,33.176h8.831l0.787,12.759H130.102z M112.558,76.55V60.68
			l-9.251,15.87H112.558z"/>
	</g>
	<g>
		<path fill="#F2F2F2" stroke="#F2F2F2" stroke-width="0.5" stroke-miterlimit="10" d="M130.247,88.903l1.065,12.209l-18.326,0.418
			l-0.279-12.227l-25.781-0.2l-1.022-10.357l19.716-34.44l23.582-1.325l-0.032,33.185l8.83-0.201l1.077,12.738L130.247,88.903z
			 M112.417,76.547l-0.362-15.866l-8.887,16.076L112.417,76.547z"/>
	</g>
	<g>
		<path fill="#DC5136" stroke="#F2F2F2" stroke-width="0.5" stroke-miterlimit="10" d="M129.868,89.309l0.787,12.229h-18.332V89.309
			l-25.769-0.787l-0.787-10.378l20.495-33.983l23.605-0.787l-0.787,33.176h8.831l0.788,12.759H129.868z M112.323,76.55V60.68
			l-9.25,15.87H112.323z"/>
	</g>
</g>
</svg>
