<?xml version="1.0" encoding="utf-8"?>
<!-- Generator: Adobe Illustrator 16.0.0, SVG Export Plug-In . SVG Version: 6.00 Build 0)  -->
<!DOCTYPE svg PUBLIC "-//W3C//DTD SVG 1.1//EN" "http://www.w3.org/Graphics/SVG/1.1/DTD/svg11.dtd">
<svg version="1.1" xmlns="http://www.w3.org/2000/svg" xmlns:xlink="http://www.w3.org/1999/xlink" x="0px" y="0px"
	 width="261.144px" height="153.143px" viewBox="0 0 261.144 153.143" enable-background="new 0 0 261.144 153.143"
	 xml:space="preserve">
<pattern  y="153.143" width="127.841" height="157.914" patternUnits="userSpaceOnUse" id="New_Pattern_2" viewBox="21.519 -157.914 127.841 157.914" overflow="visible">
	<g>
		<polygon fill="none" points="21.519,-157.914 149.36,-157.914 149.36,0 21.519,0 		"/>
		<g>
			<line fill="none" stroke="#1E9647" stroke-miterlimit="10" x1="141.844" y1="-31.229" x2="120.949" y2="-10.334"/>
			<line fill="none" stroke="#1E9647" stroke-miterlimit="10" x1="144.957" y1="-27.907" x2="124.062" y2="-7.012"/>
			<line fill="none" stroke="#1E9647" stroke-miterlimit="10" x1="149.09" y1="-24.57" x2="128.195" y2="-3.676"/>
			<line fill="none" stroke="#1E9647" stroke-miterlimit="10" x1="152.203" y1="-21.248" x2="131.309" y2="-0.354"/>
		</g>
		<g>
			<line fill="none" stroke="#1E9647" stroke-miterlimit="10" x1="109.883" y1="-31.229" x2="88.989" y2="-10.334"/>
			<line fill="none" stroke="#1E9647" stroke-miterlimit="10" x1="112.996" y1="-27.907" x2="92.102" y2="-7.012"/>
			<line fill="none" stroke="#1E9647" stroke-miterlimit="10" x1="117.129" y1="-24.57" x2="96.234" y2="-3.676"/>
			<line fill="none" stroke="#1E9647" stroke-miterlimit="10" x1="120.242" y1="-21.248" x2="99.348" y2="-0.354"/>
		</g>
		<g>
			<line fill="none" stroke="#1E9647" stroke-miterlimit="10" x1="77.923" y1="-31.229" x2="57.029" y2="-10.334"/>
			<line fill="none" stroke="#1E9647" stroke-miterlimit="10" x1="81.036" y1="-27.907" x2="60.142" y2="-7.012"/>
			<line fill="none" stroke="#1E9647" stroke-miterlimit="10" x1="85.169" y1="-24.57" x2="64.274" y2="-3.676"/>
			<line fill="none" stroke="#1E9647" stroke-miterlimit="10" x1="88.282" y1="-21.248" x2="67.388" y2="-0.354"/>
		</g>
		<g>
			<line fill="none" stroke="#1E9647" stroke-miterlimit="10" x1="45.962" y1="-31.229" x2="25.068" y2="-10.334"/>
			<line fill="none" stroke="#1E9647" stroke-miterlimit="10" x1="49.076" y1="-27.907" x2="28.181" y2="-7.012"/>
			<line fill="none" stroke="#1E9647" stroke-miterlimit="10" x1="53.208" y1="-24.57" x2="32.314" y2="-3.676"/>
			<line fill="none" stroke="#1E9647" stroke-miterlimit="10" x1="56.322" y1="-21.248" x2="35.427" y2="-0.354"/>
		</g>
		<g>
			<line fill="none" stroke="#1E9647" stroke-miterlimit="10" x1="21.248" y1="-24.57" x2="0.354" y2="-3.676"/>
			<line fill="none" stroke="#1E9647" stroke-miterlimit="10" x1="24.361" y1="-21.248" x2="3.467" y2="-0.354"/>
		</g>
		<g>
			<line fill="none" stroke="#1E9647" stroke-miterlimit="10" x1="148.236" y1="-62.812" x2="127.342" y2="-41.917"/>
			<line fill="none" stroke="#1E9647" stroke-miterlimit="10" x1="151.35" y1="-59.49" x2="130.455" y2="-38.595"/>
			<line fill="none" stroke="#1E9647" stroke-miterlimit="10" x1="155.482" y1="-56.153" x2="134.588" y2="-35.259"/>
			<line fill="none" stroke="#1E9647" stroke-miterlimit="10" x1="158.596" y1="-52.831" x2="137.701" y2="-31.937"/>
		</g>
		<g>
			<line fill="none" stroke="#1E9647" stroke-miterlimit="10" x1="116.275" y1="-62.812" x2="95.381" y2="-41.917"/>
			<line fill="none" stroke="#1E9647" stroke-miterlimit="10" x1="119.389" y1="-59.49" x2="98.494" y2="-38.595"/>
			<line fill="none" stroke="#1E9647" stroke-miterlimit="10" x1="123.521" y1="-56.153" x2="102.626" y2="-35.259"/>
			<line fill="none" stroke="#1E9647" stroke-miterlimit="10" x1="126.635" y1="-52.831" x2="105.74" y2="-31.937"/>
		</g>
		<g>
			<line fill="none" stroke="#1E9647" stroke-miterlimit="10" x1="84.315" y1="-62.812" x2="63.421" y2="-41.917"/>
			<line fill="none" stroke="#1E9647" stroke-miterlimit="10" x1="87.428" y1="-59.49" x2="66.534" y2="-38.595"/>
			<line fill="none" stroke="#1E9647" stroke-miterlimit="10" x1="91.561" y1="-56.153" x2="70.667" y2="-35.259"/>
			<line fill="none" stroke="#1E9647" stroke-miterlimit="10" x1="94.674" y1="-52.831" x2="73.78" y2="-31.937"/>
		</g>
		<g>
			<line fill="none" stroke="#1E9647" stroke-miterlimit="10" x1="52.354" y1="-62.812" x2="31.46" y2="-41.917"/>
			<line fill="none" stroke="#1E9647" stroke-miterlimit="10" x1="55.468" y1="-59.49" x2="34.573" y2="-38.595"/>
			<line fill="none" stroke="#1E9647" stroke-miterlimit="10" x1="59.601" y1="-56.153" x2="38.706" y2="-35.259"/>
			<line fill="none" stroke="#1E9647" stroke-miterlimit="10" x1="62.714" y1="-52.831" x2="41.819" y2="-31.937"/>
		</g>
		<g>
			<line fill="none" stroke="#1E9647" stroke-miterlimit="10" x1="23.507" y1="-59.49" x2="2.613" y2="-38.595"/>
			<line fill="none" stroke="#1E9647" stroke-miterlimit="10" x1="27.64" y1="-56.153" x2="6.746" y2="-35.259"/>
			<line fill="none" stroke="#1E9647" stroke-miterlimit="10" x1="30.753" y1="-52.831" x2="9.859" y2="-31.937"/>
		</g>
		<g>
			<line fill="none" stroke="#1E9647" stroke-miterlimit="10" x1="154.628" y1="-94.395" x2="133.733" y2="-73.5"/>
			<line fill="none" stroke="#1E9647" stroke-miterlimit="10" x1="157.741" y1="-91.073" x2="136.847" y2="-70.178"/>
			<line fill="none" stroke="#1E9647" stroke-miterlimit="10" x1="161.874" y1="-87.736" x2="140.979" y2="-66.842"/>
			<line fill="none" stroke="#1E9647" stroke-miterlimit="10" x1="164.987" y1="-84.414" x2="144.093" y2="-63.52"/>
		</g>
		<g>
			<line fill="none" stroke="#1E9647" stroke-miterlimit="10" x1="122.667" y1="-94.395" x2="101.773" y2="-73.5"/>
			<line fill="none" stroke="#1E9647" stroke-miterlimit="10" x1="125.78" y1="-91.073" x2="104.886" y2="-70.178"/>
			<line fill="none" stroke="#1E9647" stroke-miterlimit="10" x1="129.913" y1="-87.736" x2="109.019" y2="-66.842"/>
			<line fill="none" stroke="#1E9647" stroke-miterlimit="10" x1="133.026" y1="-84.414" x2="112.132" y2="-63.52"/>
		</g>
		<g>
			<line fill="none" stroke="#1E9647" stroke-miterlimit="10" x1="90.707" y1="-94.395" x2="69.813" y2="-73.5"/>
			<line fill="none" stroke="#1E9647" stroke-miterlimit="10" x1="93.82" y1="-91.073" x2="72.926" y2="-70.178"/>
			<line fill="none" stroke="#1E9647" stroke-miterlimit="10" x1="97.953" y1="-87.736" x2="77.059" y2="-66.842"/>
			<line fill="none" stroke="#1E9647" stroke-miterlimit="10" x1="101.066" y1="-84.414" x2="80.172" y2="-63.52"/>
		</g>
		<g>
			<line fill="none" stroke="#1E9647" stroke-miterlimit="10" x1="58.747" y1="-94.395" x2="37.853" y2="-73.5"/>
			<line fill="none" stroke="#1E9647" stroke-miterlimit="10" x1="61.86" y1="-91.073" x2="40.965" y2="-70.178"/>
			<line fill="none" stroke="#1E9647" stroke-miterlimit="10" x1="65.993" y1="-87.736" x2="45.098" y2="-66.842"/>
			<line fill="none" stroke="#1E9647" stroke-miterlimit="10" x1="69.106" y1="-84.414" x2="48.211" y2="-63.52"/>
		</g>
		<g>
			<line fill="none" stroke="#1E9647" stroke-miterlimit="10" x1="26.786" y1="-94.395" x2="5.892" y2="-73.5"/>
			<line fill="none" stroke="#1E9647" stroke-miterlimit="10" x1="29.899" y1="-91.073" x2="9.005" y2="-70.178"/>
			<line fill="none" stroke="#1E9647" stroke-miterlimit="10" x1="34.032" y1="-87.736" x2="13.138" y2="-66.842"/>
			<line fill="none" stroke="#1E9647" stroke-miterlimit="10" x1="37.146" y1="-84.414" x2="16.251" y2="-63.52"/>
		</g>
		<g>
			<line fill="none" stroke="#1E9647" stroke-miterlimit="10" x1="161.02" y1="-125.978" x2="140.125" y2="-105.083"/>
			<line fill="none" stroke="#1E9647" stroke-miterlimit="10" x1="164.133" y1="-122.656" x2="143.238" y2="-101.761"/>
			<line fill="none" stroke="#1E9647" stroke-miterlimit="10" x1="168.266" y1="-119.319" x2="147.371" y2="-98.425"/>
		</g>
		<g>
			<line fill="none" stroke="#1E9647" stroke-miterlimit="10" x1="129.059" y1="-125.978" x2="108.165" y2="-105.083"/>
			<line fill="none" stroke="#1E9647" stroke-miterlimit="10" x1="132.172" y1="-122.656" x2="111.278" y2="-101.761"/>
			<line fill="none" stroke="#1E9647" stroke-miterlimit="10" x1="136.305" y1="-119.319" x2="115.41" y2="-98.425"/>
			<line fill="none" stroke="#1E9647" stroke-miterlimit="10" x1="139.418" y1="-115.997" x2="118.523" y2="-95.103"/>
		</g>
		<g>
			<line fill="none" stroke="#1E9647" stroke-miterlimit="10" x1="97.099" y1="-125.978" x2="76.205" y2="-105.083"/>
			<line fill="none" stroke="#1E9647" stroke-miterlimit="10" x1="100.212" y1="-122.656" x2="79.318" y2="-101.761"/>
			<line fill="none" stroke="#1E9647" stroke-miterlimit="10" x1="104.345" y1="-119.319" x2="83.451" y2="-98.425"/>
			<line fill="none" stroke="#1E9647" stroke-miterlimit="10" x1="107.458" y1="-115.997" x2="86.564" y2="-95.103"/>
		</g>
		<g>
			<line fill="none" stroke="#1E9647" stroke-miterlimit="10" x1="65.139" y1="-125.978" x2="44.245" y2="-105.083"/>
			<line fill="none" stroke="#1E9647" stroke-miterlimit="10" x1="68.252" y1="-122.656" x2="47.357" y2="-101.761"/>
			<line fill="none" stroke="#1E9647" stroke-miterlimit="10" x1="72.385" y1="-119.319" x2="51.49" y2="-98.425"/>
			<line fill="none" stroke="#1E9647" stroke-miterlimit="10" x1="75.498" y1="-115.997" x2="54.604" y2="-95.103"/>
		</g>
		<g>
			<line fill="none" stroke="#1E9647" stroke-miterlimit="10" x1="33.178" y1="-125.978" x2="12.284" y2="-105.083"/>
			<line fill="none" stroke="#1E9647" stroke-miterlimit="10" x1="36.292" y1="-122.656" x2="15.397" y2="-101.761"/>
			<line fill="none" stroke="#1E9647" stroke-miterlimit="10" x1="40.424" y1="-119.319" x2="19.53" y2="-98.425"/>
			<line fill="none" stroke="#1E9647" stroke-miterlimit="10" x1="43.538" y1="-115.997" x2="22.643" y2="-95.103"/>
		</g>
		<g>
			<line fill="none" stroke="#1E9647" stroke-miterlimit="10" x1="167.412" y1="-157.561" x2="146.518" y2="-136.666"/>
			<line fill="none" stroke="#1E9647" stroke-miterlimit="10" x1="170.525" y1="-154.239" x2="149.631" y2="-133.344"/>
		</g>
		<g>
			<line fill="none" stroke="#1E9647" stroke-miterlimit="10" x1="135.451" y1="-157.561" x2="114.558" y2="-136.666"/>
			<line fill="none" stroke="#1E9647" stroke-miterlimit="10" x1="138.564" y1="-154.239" x2="117.67" y2="-133.344"/>
			<line fill="none" stroke="#1E9647" stroke-miterlimit="10" x1="142.697" y1="-150.902" x2="121.803" y2="-130.008"/>
			<line fill="none" stroke="#1E9647" stroke-miterlimit="10" x1="145.811" y1="-147.58" x2="124.916" y2="-126.686"/>
		</g>
		<g>
			<line fill="none" stroke="#1E9647" stroke-miterlimit="10" x1="103.491" y1="-157.561" x2="82.597" y2="-136.666"/>
			<line fill="none" stroke="#1E9647" stroke-miterlimit="10" x1="106.604" y1="-154.239" x2="85.71" y2="-133.344"/>
			<line fill="none" stroke="#1E9647" stroke-miterlimit="10" x1="110.737" y1="-150.902" x2="89.843" y2="-130.008"/>
			<line fill="none" stroke="#1E9647" stroke-miterlimit="10" x1="113.851" y1="-147.58" x2="92.956" y2="-126.686"/>
		</g>
		<g>
			<line fill="none" stroke="#1E9647" stroke-miterlimit="10" x1="71.531" y1="-157.561" x2="50.637" y2="-136.666"/>
			<line fill="none" stroke="#1E9647" stroke-miterlimit="10" x1="74.644" y1="-154.239" x2="53.75" y2="-133.344"/>
			<line fill="none" stroke="#1E9647" stroke-miterlimit="10" x1="78.777" y1="-150.902" x2="57.882" y2="-130.008"/>
			<line fill="none" stroke="#1E9647" stroke-miterlimit="10" x1="81.89" y1="-147.58" x2="60.996" y2="-126.686"/>
		</g>
		<g>
			<line fill="none" stroke="#1E9647" stroke-miterlimit="10" x1="39.57" y1="-157.561" x2="18.676" y2="-136.666"/>
			<line fill="none" stroke="#1E9647" stroke-miterlimit="10" x1="42.684" y1="-154.239" x2="21.789" y2="-133.344"/>
			<line fill="none" stroke="#1E9647" stroke-miterlimit="10" x1="46.816" y1="-150.902" x2="25.922" y2="-130.008"/>
			<line fill="none" stroke="#1E9647" stroke-miterlimit="10" x1="49.93" y1="-147.58" x2="29.035" y2="-126.686"/>
		</g>
	</g>
</pattern>
<pattern  y="153.143" width="123" height="124" patternUnits="userSpaceOnUse" id="New_Pattern_4" viewBox="0 -124 123 124" overflow="visible">
	<g>
		<polygon fill="none" points="0,-124 123,-124 123,0 0,0 		"/>
		<path fill="#F2D03A" d="M52.275-49.22c-4.082-2.972-5.48-6.909-5.382-11.84c0.183-6.759,0.551-13.437,0.915-20.206
			c0.052-0.732,0.104-1.465,0.247-2.201c1.993,1.442,4.394,3.684,5.521,5.994c1.733,3.372,3.406,2.279,6.953,2.088
			c1.818-0.099,3.571,0.263,5.304,0.26c1.279,0.022,2.148-0.754,3.205-1.449c1.051-0.785,2.23-1.563,3.415-2.367l4.656-3.541
			c-0.361,1.752,0.015,3.646-0.073,5.385c-0.135,2.561-0.548,5.045-0.684,7.607c-0.191,3.202,0.187,6.83-0.46,10.057
			c-0.495,2.672-2.193,6.686-4.388,8.264c-1.319,0.892-2.888,2.254-4.309,2.969c-1.512,0.719-3.537,0.373-5.25,0.738
			C58.43-46.725,55.409-46.926,52.275-49.22z M69.184-62.082c5.743-0.036,4.328-9.354-1.037-9.064l0.393,0.526
			C63.872-70.915,64.074-62.078,69.184-62.082z M53.672-70.638l0.768,0.688c-3.871-2.437-7.127,4.854-2.729,6.896
			C58.263-59.941,59.285-71.397,53.672-70.638z M57.158-51.957c1.625-0.086,2.752-0.916,3.42-1.609
			c0.104,0.591,0.278,1.003,0.556,1.107c1.364,0.516,4.283,1.422,6.937-3.021c0,0-0.864-0.496-1.008-0.238
			c-0.141,0.258-1.542,2.312-2.891,2.259c0,0-1.842,0.819-2.438,0.168c-0.646-0.704-0.696-4.549-0.55-6.591
			c1.059-0.344,3.104-1.168,2.146-2.135c-1.268-1.281-5.266-0.209-5.266-0.209c-0.127,1.533,2.537,2.518,2.537,2.518
			s0.047-0.012,0.125-0.033c-0.138,1.258-0.316,3.266-0.266,4.859c-1.059,1.458-2.102,2.096-3.734,2.184
			c-1.408,0.076-2.734-2.516-2.734-2.516s0.335-0.176-0.462-0.019C52.732-55.076,54.318-51.805,57.158-51.957z"/>
		<path fill="#F2D03A" d="M55.742-67.975l0.086-0.096c-0.924-0.223-2.414-0.781-3.289-0.095c-0.875,0.685-0.695,2.317,0.071,3.005
			C54.437-63.434,57.967-65.631,55.742-67.975z"/>
		<path fill="#F2D03A" d="M69.791-64.537c3.591,0.627,2.118-4.675-0.777-4.244l0.92,0.132
			C67.009-68.764,67.396-64.955,69.791-64.537z"/>
		<path fill="#F2D03A" d="M113.776-108.446c2.998,2.194,5.898,2.463,9.224,1.837v-4.945c-0.131-0.045-0.255-0.088-0.365-0.131
			c-0.277-0.104-0.453-0.517-0.557-1.107c-0.668,0.693-1.795,1.523-3.42,1.609c-2.84,0.152-4.425-3.119-3.627-3.276
			c0.797-0.157,0.461,0.019,0.461,0.019s1.327,2.592,2.734,2.516c1.633-0.088,2.676-0.726,3.734-2.184
			c-0.05-1.594,0.129-3.602,0.266-4.859c-0.078,0.021-0.124,0.033-0.124,0.033s-2.665-0.984-2.538-2.518
			c0,0,1.853-0.496,3.436-0.409V-124h-4.579c-0.74,1.801-2.501,3.007-5.21,1.721c-0.873-0.406-1.439-1.02-1.765-1.721h-2.929
			c-0.045,1.236-0.09,2.473-0.123,3.714C108.295-115.355,109.693-111.418,113.776-108.446z"/>
		<path fill="#F2D03A" d="M123-112.983v-6.233c-0.111,0.039-0.219,0.076-0.316,0.107C122.559-117.35,122.579-114.258,123-112.983z"
			/>
		<path fill="#F2D03A" d="M116.725-124h-2.034C115.352-123.685,116.105-123.723,116.725-124z"/>
		<path fill="#F2D03A" d="M115.078-12.699c-1.129-2.311-3.529-4.552-5.521-5.994c-0.145,0.736-0.195,1.469-0.247,2.201
			c-0.298,5.526-0.593,10.994-0.792,16.492h2.929c-1.312-2.834,1.391-7.129,4.493-5.176l-0.768-0.688
			c3.293-0.446,4.299,3.31,3.249,5.864H123v-10.612c-0.322-0.007-0.644-0.017-0.969,0.001
			C118.484-10.42,116.811-9.327,115.078-12.699z"/>
		<path fill="#F2D03A" d="M117.243-3.201l0.085-0.096c-0.924-0.223-2.414-0.781-3.288-0.095c-0.875,0.685-0.696,2.317,0.071,3.005
			c0.178,0.168,0.375,0.289,0.579,0.387h2.034C117.871-0.514,118.545-1.829,117.243-3.201z"/>
		<path fill="#F2D03A" d="M5.697-107.428c1.422-0.715,2.99-2.077,4.309-2.969c2.195-1.578,3.894-5.592,4.389-8.264
			c0.342-1.709,0.396-3.529,0.4-5.34h-3.578c-0.383,1.498-1.502,2.679-3.533,2.691c-1.879,0.002-3.088-1.195-3.641-2.691H0v2.138
			c0.742,0.041,1.426,0.208,1.83,0.618c0.87,0.879-0.734,1.637-1.83,2.027v6.233c0.067,0.205,0.145,0.367,0.234,0.465
			c0.597,0.651,2.438-0.168,2.438-0.168c1.35,0.054,2.75-2.001,2.892-2.259c0.144-0.258,1.007,0.238,1.007,0.238
			c-2.438,4.082-5.096,3.649-6.57,3.152v4.945c0.15-0.028,0.296-0.048,0.447-0.08C2.16-107.055,4.186-106.709,5.697-107.428z"/>
		<path fill="#F2D03A" d="M9.846-124H7.622c0.202,0.107,0.423,0.193,0.669,0.236C8.999-123.641,9.504-123.752,9.846-124z"/>
		<path fill="#F2D03A" d="M14.854-4.717c0.137-2.562,0.549-5.047,0.684-7.607c0.088-1.738-0.287-3.633,0.074-5.385l-4.656,3.541
			c-1.185,0.804-2.365,1.582-3.416,2.367c-1.057,0.695-1.926,1.472-3.205,1.449C2.912-10.35,1.475-10.579,0-10.612V0h4.043
			C3.091-2.572,4.089-6.033,7.04-5.847L6.646-6.373C10.115-6.56,11.916-2.74,11.217,0h3.578C14.799-1.609,14.764-3.211,14.854-4.717
			z"/>
		<path fill="#F2D03A" d="M7.515-4.008l0.919,0.132C5.811-3.979,5.857-0.932,7.622,0h2.224C11.24-1.01,9.839-4.354,7.515-4.008z"/>
		<polygon fill="#F2D03A" points="31,-97 31,-100 25,-100 25,-97 		"/>
		<polygon fill="#F2D03A" points="22,-100 17,-100 17,-97 22,-97 		"/>
		<polygon fill="#F2D03A" points="25,-105 22,-105 22,-100 25,-100 		"/>
		<polygon fill="#F2D03A" points="22,-91 25,-91 25,-97 22,-97 		"/>
		<polygon fill="#F2D03A" points="25,-97 25,-100 22,-100 22,-97 		"/>
		<polygon fill="#F2D03A" points="69,-123 69,-124 63,-124 63,-123 		"/>
		<polygon fill="#F2D03A" points="60,-123 60,-124 55,-124 55,-123 		"/>
		<polygon fill="#F2D03A" points="60,-117 63,-117 63,-123 60,-123 		"/>
		<polygon fill="#F2D03A" points="63,-123 63,-124 60,-124 60,-123 		"/>
		<polygon fill="#F2D03A" points="55,-2 55,0 60,0 60,-2 		"/>
		<polygon fill="#F2D03A" points="69,-2 63,-2 63,0 69,0 		"/>
		<polygon fill="#F2D03A" points="60,-7 60,-2 63,-2 63,-7 		"/>
		<polygon fill="#F2D03A" points="60,-2 60,0 63,0 63,-2 		"/>
		<polygon fill="#F2D03A" points="89,-35 83,-35 83,-32 89,-32 		"/>
		<polygon fill="#F2D03A" points="97,-32 97,-35 92,-35 92,-32 		"/>
		<polygon fill="#F2D03A" points="89,-26 92,-26 92,-32 89,-32 		"/>
		<polygon fill="#F2D03A" points="92,-40 89,-40 89,-35 92,-35 		"/>
		<polygon fill="#F2D03A" points="92,-32 92,-35 89,-35 89,-32 		"/>
		<polygon fill="#F2D03A" points="18,-30 32,-30 32,-33 18,-33 		"/>
		<polygon fill="#F2D03A" points="7,-68 0,-68 0,-65 7,-65 		"/>
		<polygon fill="#F2D03A" points="117,-65 123,-65 123,-68 117,-68 		"/>
		<polygon fill="#F2D03A" points="97,-100 83,-100 83,-97 97,-97 		"/>
	</g>
</pattern>
<g id="background_1_">
	
		<radialGradient id="SVGID_1_" cx="81.8613" cy="76.4575" r="125.1703" gradientTransform="matrix(1 0 0 1.3094 0 -23.6521)" gradientUnits="userSpaceOnUse">
		<stop  offset="0" style="stop-color:#F6E867"/>
		<stop  offset="0.3095" style="stop-color:#F6E45F"/>
		<stop  offset="0.7616" style="stop-color:#F3D849"/>
		<stop  offset="1" style="stop-color:#F2D13B"/>
	</radialGradient>
	<rect x="0.056" y="-0.229" fill="url(#SVGID_1_)" width="163.611" height="153.372"/>
	<pattern  id="SVGID_2_" xlink:href="#New_Pattern_4" patternTransform="matrix(0.3319 0 0 0.3392 -5360.1426 -5473.5981)">
	</pattern>
	<rect x="0.266" y="-0.252" fill="url(#SVGID_2_)" width="260.918" height="153.418"/>
	<path fill="#1E9647" d="M261.144,0H151.5c8.218,48.924-1.142,98.108,2.894,147.143c0.043,1.621,0.076,4.32,0.106,6l106.646-1.422
		L261.144,0z"/>
	<path fill="#91BE49" d="M261.144-0.229H155.55c6.926,49.124-2.654,98.248,0.089,147.372c0,1.622-0.037,4.321-0.052,6h105.557
		V-0.229z"/>
	<pattern  id="SVGID_3_" xlink:href="#New_Pattern_2" patternTransform="matrix(0.3763 0 0 0.3763 -4955.7178 -5196.7305)">
	</pattern>
	<path fill="url(#SVGID_3_)" d="M261.188-0.293H155.331c6.944,49.246-2.66,98.493,0.09,147.739c0,1.625-0.038,4.332-0.052,6.016
		h105.819V-0.293z"/>
	<text transform="matrix(1 0 0 1 200.8672 143.6157)"><tspan x="0" y="0" fill="#F6E867" font-family="'PlutoRegular'" font-size="5">Cat Math Do © </tspan><tspan x="40.274" y="0" fill="#F6E867" font-family="'PlutoRegular'" font-size="4">2014</tspan></text>
</g>
<g id="cats_copy">
	<g>
		<g>
			<g>
				<path fill="#1D427D" d="M194.485,99.984l-0.521-0.797c-1.155,0.668-6.356,5.101-7.389,5.76c-1.03,0.576-1.891,1.246-3.077,1.139
					c-1.612-0.115-3.224-0.564-4.92-0.596c-3.317-0.059-6.172,1.06-7.562-2.194c-0.896-2.228-1.757-4.683-3.513-6.155
					c-0.187,0.676-0.282,1.357-0.379,2.031c-0.786,6.277-1.573,12.472-2.191,18.751c-0.419,4.581,0.621,8.341,4.223,11.377
					c2.767,2.342,5.566,2.731,8.888,2.278c1.62-0.227,3.482,0.229,4.933-0.343c1.375-0.57,2.923-1.731,4.208-2.474
					c2.15-1.325,3.997-4.946,4.638-7.401c0.813-2.963,0.7-6.363,1.094-9.335c0.295-2.372,0.845-4.657,1.141-7.032
					C194.254,103.381,194.029,101.588,194.485,99.984z M169.549,116.387c-3.957-2.193-0.445-8.765,2.999-6.24l-0.668-0.691
					C177.155,109.12,175.445,119.715,169.549,116.387z M177.619,126.874c-0.252-0.115-0.388-0.512-0.444-1.069
					c-0.668,0.6-1.773,1.3-3.29,1.271c-2.655-0.047-3.912-3.197-3.159-3.292c0.748-0.093,0.428,0.049,0.428,0.049
					s1.062,2.501,2.378,2.526c1.524,0.023,2.54-0.502,3.621-1.789c0.06-1.484,0.358-3.341,0.571-4.506
					c-0.074,0.016-0.121,0.024-0.121,0.024s-2.412-1.093-2.191-2.512c0,0,3.792-0.735,4.886,0.543
					c0.829,0.965-1.13,1.596-2.14,1.846c-0.27,1.892-0.48,5.475,0.076,6.171c0.511,0.647,2.281,0.007,2.281,0.007
					c1.249,0.138,2.688-1.68,2.84-1.91c0.151-0.233,0.922,0.288,0.922,0.288C181.511,128.48,178.854,127.445,177.619,126.874z
					 M185.75,118.449c-4.757-0.338-4.358-8.577-0.031-7.99l-0.333-0.517C190.399,110.029,191.098,118.797,185.75,118.449z"/>
			</g>
		</g>
		<polygon fill="#F2F2F2" points="189.628,108.07 167.32,107.198 165.968,122.434 177.179,130.581 190.476,122.875 		"/>
		<g>
			<g>
				<g>
					<path fill="#4478BC" d="M193.965,99.187l-4.572,2.985c-1.154,0.667-2.305,1.318-3.333,1.975
						c-1.031,0.579-1.895,1.246-3.083,1.138c-1.61-0.11-3.22-0.562-4.918-0.594c-3.315-0.059-4.941,0.852-6.332-2.401
						c-0.9-2.227-2.985-4.473-4.745-5.949c-0.183,0.677-0.277,1.356-0.373,2.034c-0.79,6.274-1.575,12.47-2.192,18.749
						c-0.42,4.579,0.621,8.344,4.224,11.376c2.766,2.344,5.564,2.732,8.886,2.28c1.62-0.229,3.481,0.23,4.933-0.343
						c1.376-0.57,2.92-1.73,4.21-2.477c2.148-1.323,3.995-4.946,4.635-7.4c0.815-2.962,0.703-6.361,1.093-9.332
						c0.296-2.375,0.847-4.658,1.142-7.034C193.734,102.583,193.513,100.792,193.965,99.187z M169.029,115.586
						c-3.959-2.191-0.443-8.762,2.999-6.239l-0.669-0.689C176.637,108.323,174.926,118.917,169.029,115.586z M177.099,126.075
						c-0.249-0.117-0.387-0.513-0.443-1.07c-0.668,0.603-1.771,1.299-3.288,1.272c-2.656-0.047-3.913-3.198-3.16-3.291
						c0.748-0.094,0.425,0.047,0.425,0.047s1.066,2.504,2.382,2.526c1.523,0.024,2.538-0.501,3.619-1.789
						c0.062-1.484,0.358-3.339,0.57-4.504c-0.072,0.016-0.119,0.025-0.119,0.025s-2.413-1.095-2.192-2.51
						c0,0,3.79-0.737,4.887,0.539c0.828,0.965-1.133,1.599-2.14,1.844c-0.272,1.894-0.482,5.477,0.073,6.175
						c0.512,0.644,2.284,0.004,2.284,0.004c1.247,0.141,2.688-1.679,2.84-1.91c0.149-0.23,0.918,0.291,0.918,0.291
						C180.99,127.681,178.335,126.645,177.099,126.075z M185.232,117.65c-4.759-0.337-4.359-8.575-0.032-7.993l-0.335-0.515
						C189.882,109.229,190.579,117.999,185.232,117.65z"/>
				</g>
			</g>
			<g>
				<path fill="#4478BC" d="M173.108,111.272l0.087-0.083c-0.844-0.27-2.196-0.887-3.053-0.306
					c-0.861,0.579-0.804,2.111-0.135,2.804C171.594,115.414,175.023,113.602,173.108,111.272z"/>
			</g>
			<g>
				<path fill="#4478BC" d="M185.519,111.402l0.847,0.184c-2.717-0.301-2.605,3.271-0.408,3.818
					C189.261,116.226,188.242,111.193,185.519,111.402z"/>
			</g>
		</g>
	</g>
	<g>
		<g>
			<g>
				<path fill="#1D427D" d="M215.303,53.627l-0.721-0.607c-0.9,0.964-4.56,6.644-5.349,7.562c-0.81,0.839-1.435,1.719-2.589,1.956
					c-1.558,0.351-3.212,0.385-4.826,0.84c-3.157,0.892-5.54,2.764-7.785,0.082c-1.483-1.853-2.998-3.931-5.081-4.825
					c0.017,0.693,0.12,1.367,0.221,2.032c1.048,6.166,2.07,12.254,3.279,18.374c0.91,4.458,2.967,7.72,7.244,9.565
					c3.285,1.428,6.047,0.998,9.062-0.379c1.469-0.679,3.362-0.778,4.572-1.732c1.139-0.934,2.272-2.473,3.277-3.544
					c1.658-1.868,2.371-5.823,2.276-8.331c-0.075-3.035-1.152-6.222-1.629-9.147c-0.397-2.329-0.529-4.649-0.927-6.982
					C216.055,56.909,215.33,55.277,215.303,53.627z M196.381,76.272c-4.372-0.945-2.924-8.168,1.059-6.762l-0.831-0.464
					C201.508,67.222,202.912,77.74,196.381,76.272z M207.013,83.894c-0.271-0.036-0.514-0.373-0.726-0.884
					c-0.461,0.758-1.306,1.736-2.753,2.144c-2.525,0.712-4.614-1.911-3.93-2.215c0.683-0.302,0.419-0.076,0.419-0.076
					s1.721,2.063,2.973,1.712c1.45-0.413,2.261-1.2,2.918-2.728c-0.368-1.423-0.614-3.264-0.745-4.428
					c-0.066,0.036-0.108,0.058-0.108,0.058s-2.596-0.346-2.792-1.751c0,0,3.38-1.779,4.781-0.881c1.06,0.675-0.614,1.833-1.5,2.356
					c0.285,1.869,1.109,5.319,1.834,5.82c0.667,0.468,2.16-0.645,2.16-0.645c1.224-0.226,2.067-2.356,2.145-2.619
					c0.076-0.264,0.955,0.01,0.955,0.01C211.154,84.305,208.345,84.083,207.013,83.894z M212.306,73.599
					c-4.6,1.038-6.574-6.874-2.312-7.555l-0.463-0.394C214.303,64.302,217.467,72.403,212.306,73.599z"/>
			</g>
		</g>
		<polygon fill="#F2F2F2" points="213.012,62.669 191.649,68.21 194.716,83.019 207.653,87.53 218.042,76.441 		"/>
		<g>
			<g>
				<g>
					<path fill="#4478BC" d="M214.582,53.021l-3.475,4.132c-0.901,0.961-1.806,1.906-2.591,2.822
						c-0.812,0.841-1.438,1.72-2.594,1.956c-1.556,0.354-3.208,0.387-4.825,0.842c-3.155,0.89-4.435,2.215-6.68-0.466
						c-1.487-1.852-4.102-3.382-6.188-4.277c0.019,0.692,0.124,1.363,0.227,2.031c1.044,6.165,2.067,12.255,3.276,18.375
						c0.909,4.455,2.968,7.721,7.245,9.562c3.285,1.429,6.047,0.997,9.06-0.377c1.471-0.68,3.363-0.776,4.574-1.733
						c1.139-0.934,2.27-2.472,3.277-3.546c1.656-1.864,2.37-5.821,2.275-8.327c-0.074-3.036-1.152-6.224-1.628-9.146
						c-0.399-2.332-0.529-4.651-0.928-6.985C215.335,56.304,214.613,54.67,214.582,53.021z M195.661,75.662
						c-4.374-0.944-2.922-8.165,1.057-6.761l-0.829-0.463C200.789,66.616,202.194,77.133,195.661,75.662z M206.292,83.288
						c-0.27-0.041-0.512-0.375-0.725-0.887c-0.462,0.761-1.306,1.735-2.75,2.145c-2.527,0.713-4.616-1.91-3.932-2.214
						c0.683-0.302,0.417-0.077,0.417-0.077s1.723,2.065,2.976,1.711c1.448-0.412,2.259-1.198,2.915-2.726
						c-0.366-1.424-0.613-3.265-0.746-4.427c-0.063,0.034-0.106,0.059-0.106,0.059s-2.595-0.349-2.79-1.752
						c0,0,3.379-1.777,4.779-0.883c1.059,0.676-0.616,1.836-1.497,2.356c0.281,1.868,1.105,5.32,1.83,5.824
						c0.668,0.463,2.163-0.648,2.163-0.648c1.221-0.225,2.064-2.357,2.144-2.62c0.074-0.26,0.951,0.015,0.951,0.015
						C210.434,83.697,207.625,83.475,206.292,83.288z M211.587,72.992c-4.602,1.039-6.574-6.874-2.312-7.558l-0.463-0.391
						C213.585,63.693,216.748,71.795,211.587,72.992z"/>
				</g>
			</g>
			<g>
				<path fill="#4478BC" d="M198.29,70.414l0.058-0.104c-0.875-0.014-2.332-0.212-2.977,0.583c-0.648,0.793-0.158,2.227,0.674,2.692
					C198.039,74.767,200.768,72.074,198.29,70.414z"/>
			</g>
			<g>
				<path fill="#4478BC" d="M210.072,66.997l0.855-0.068c-2.657,0.489-1.531,3.839,0.704,3.73
					C214.993,70.493,212.594,66.021,210.072,66.997z"/>
			</g>
		</g>
	</g>
	<g>
		<g>
			<g>
				<path fill="#1D427D" d="M240.803,13.96l-0.721-0.607c-0.9,0.964-4.56,6.644-5.349,7.562c-0.81,0.839-1.435,1.719-2.589,1.956
					c-1.558,0.351-3.212,0.385-4.826,0.84c-3.157,0.892-5.54,2.764-7.785,0.082c-1.483-1.853-2.998-3.931-5.081-4.825
					c0.017,0.693,0.12,1.367,0.221,2.032c1.048,6.166,2.07,12.254,3.279,18.374c0.91,4.458,2.967,7.72,7.244,9.565
					c3.285,1.428,6.047,0.998,9.062-0.379c1.469-0.679,3.362-0.778,4.572-1.732c1.139-0.934,2.272-2.473,3.277-3.544
					c1.658-1.868,2.371-5.823,2.276-8.331c-0.075-3.035-1.152-6.222-1.629-9.147c-0.397-2.329-0.529-4.649-0.927-6.982
					C241.555,17.242,240.83,15.61,240.803,13.96z M221.881,36.605c-4.372-0.945-2.924-8.168,1.059-6.762l-0.831-0.464
					C227.008,27.555,228.412,38.073,221.881,36.605z M232.513,44.227c-0.271-0.036-0.514-0.373-0.726-0.884
					c-0.461,0.758-1.306,1.736-2.753,2.144c-2.525,0.712-4.614-1.911-3.93-2.215c0.683-0.302,0.419-0.076,0.419-0.076
					s1.721,2.063,2.973,1.712c1.45-0.413,2.261-1.2,2.918-2.728c-0.368-1.423-0.614-3.264-0.745-4.428
					c-0.066,0.036-0.108,0.058-0.108,0.058s-2.596-0.346-2.792-1.751c0,0,3.38-1.779,4.781-0.881c1.06,0.675-0.614,1.833-1.5,2.356
					c0.285,1.869,1.109,5.319,1.834,5.82c0.667,0.468,2.16-0.645,2.16-0.645c1.224-0.226,2.067-2.356,2.145-2.619
					c0.076-0.264,0.955,0.01,0.955,0.01C236.654,44.638,233.845,44.417,232.513,44.227z M237.806,33.932
					c-4.6,1.038-6.574-6.874-2.312-7.555l-0.463-0.394C239.803,24.635,242.967,32.736,237.806,33.932z"/>
			</g>
		</g>
		<polygon fill="#F2F2F2" points="238.512,23.002 217.149,28.543 220.216,43.352 233.153,47.863 243.542,36.774 		"/>
		<g>
			<g>
				<g>
					<path fill="#4478BC" d="M240.082,13.354l-3.475,4.132c-0.901,0.961-1.806,1.906-2.591,2.822
						c-0.812,0.841-1.438,1.72-2.594,1.956c-1.556,0.354-3.208,0.387-4.825,0.842c-3.155,0.89-4.435,2.215-6.68-0.466
						c-1.487-1.852-4.102-3.382-6.188-4.277c0.019,0.692,0.124,1.363,0.227,2.031c1.044,6.165,2.067,12.255,3.276,18.375
						c0.909,4.455,2.968,7.721,7.245,9.562c3.285,1.429,6.047,0.997,9.06-0.377c1.471-0.68,3.363-0.776,4.574-1.733
						c1.139-0.934,2.27-2.472,3.277-3.546c1.656-1.864,2.37-5.821,2.275-8.327c-0.074-3.036-1.152-6.224-1.628-9.146
						c-0.399-2.332-0.529-4.651-0.928-6.985C240.835,16.637,240.113,15.003,240.082,13.354z M221.161,35.995
						c-4.374-0.944-2.922-8.165,1.057-6.761l-0.829-0.463C226.289,26.949,227.694,37.466,221.161,35.995z M231.792,43.621
						c-0.27-0.041-0.512-0.375-0.725-0.887c-0.462,0.761-1.306,1.735-2.75,2.145c-2.527,0.713-4.616-1.91-3.932-2.214
						c0.683-0.302,0.417-0.077,0.417-0.077s1.723,2.065,2.976,1.711c1.448-0.412,2.259-1.198,2.915-2.726
						c-0.366-1.424-0.613-3.265-0.746-4.427c-0.063,0.034-0.106,0.059-0.106,0.059s-2.595-0.349-2.79-1.752
						c0,0,3.379-1.777,4.779-0.883c1.059,0.676-0.616,1.836-1.497,2.356c0.281,1.868,1.105,5.32,1.83,5.824
						c0.668,0.463,2.163-0.648,2.163-0.648c1.221-0.225,2.064-2.357,2.144-2.62c0.074-0.26,0.951,0.015,0.951,0.015
						C235.934,44.03,233.125,43.808,231.792,43.621z M237.087,33.325c-4.602,1.039-6.574-6.874-2.312-7.558l-0.463-0.391
						C239.085,24.026,242.248,32.128,237.087,33.325z"/>
				</g>
			</g>
			<g>
				<path fill="#4478BC" d="M223.79,30.747l0.058-0.104c-0.875-0.014-2.332-0.212-2.977,0.583c-0.648,0.793-0.158,2.227,0.674,2.692
					C223.539,35.1,226.268,32.407,223.79,30.747z"/>
			</g>
			<g>
				<path fill="#4478BC" d="M235.572,27.33l0.855-0.068c-2.657,0.489-1.531,3.839,0.704,3.73
					C240.493,30.826,238.094,26.354,235.572,27.33z"/>
			</g>
		</g>
	</g>
	<g>
		<g>
			<g>
				<path fill="#1D427D" d="M245.242,101.684l-0.415-0.847c-1.212,0.521-6.85,4.245-7.941,4.768
					c-1.079,0.442-2.005,0.995-3.158,0.748c-1.567-0.307-3.095-0.941-4.756-1.175c-3.249-0.456-6.184,0.297-7.158-3.062
					c-0.61-2.293-1.16-4.806-2.706-6.464c-0.265,0.643-0.441,1.301-0.617,1.95c-1.524,6.065-3.041,12.05-4.4,18.138
					c-0.963,4.446-0.395,8.261,2.777,11.673c2.432,2.63,5.132,3.35,8.445,3.304c1.618-0.029,3.392,0.643,4.884,0.256
					c1.418-0.396,3.075-1.348,4.427-1.923c2.271-1.042,4.516-4.374,5.439-6.708c1.154-2.809,1.452-6.158,2.195-9.029
					c0.574-2.291,1.388-4.468,1.964-6.764C244.609,104.991,244.604,103.205,245.242,101.684z M218.802,114.787
					c-3.621-2.626,0.614-8.652,3.692-5.762l-0.573-0.76C227.14,108.57,224.188,118.762,218.802,114.787z M225.462,126.046
					c-0.233-0.142-0.32-0.549-0.308-1.101c-0.728,0.507-1.895,1.063-3.384,0.853c-2.599-0.366-3.453-3.607-2.704-3.61
					c0.746-0.001,0.414,0.1,0.414,0.1s0.743,2.581,2.031,2.764c1.493,0.206,2.553-0.188,3.77-1.32
					c0.236-1.451,0.752-3.235,1.102-4.354c-0.075,0.007-0.123,0.01-0.123,0.01s-2.236-1.362-1.85-2.728c0,0,3.811-0.267,4.731,1.12
					c0.698,1.044-1.302,1.43-2.322,1.552c-0.493,1.826-1.128,5.316-0.666,6.066c0.422,0.697,2.236,0.28,2.236,0.28
					c1.21,0.286,2.842-1.323,3.019-1.533c0.175-0.211,0.869,0.394,0.869,0.394C229.087,128.091,226.604,126.757,225.462,126.046z
					 M234.453,118.756c-4.627-0.903-3.248-8.94,0.929-7.846l-0.266-0.547C240.027,111.051,239.659,119.741,234.453,118.756z"/>
			</g>
		</g>
		<polygon fill="#F2F2F2" points="239.504,109.037 217.719,105.502 214.56,120.292 224.584,129.632 238.559,123.668 		"/>
		<g>
			<g>
				<g>
					<path fill="#4478BC" d="M244.827,100.837l-4.845,2.383c-1.212,0.517-2.42,1.018-3.508,1.539
						c-1.082,0.443-2.01,0.994-3.162,0.745c-1.566-0.302-3.092-0.938-4.755-1.173c-3.247-0.456-4.952,0.242-5.927-3.117
						c-0.615-2.294-2.392-4.748-3.941-6.407c-0.262,0.64-0.436,1.297-0.61,1.95c-1.528,6.062-3.044,12.049-4.403,18.137
						c-0.963,4.444-0.395,8.263,2.778,11.671c2.432,2.632,5.133,3.349,8.444,3.306c1.619-0.03,3.391,0.645,4.885,0.256
						c1.418-0.396,3.073-1.348,4.428-1.926c2.268-1.038,4.515-4.373,5.438-6.704c1.155-2.81,1.453-6.161,2.194-9.028
						c0.574-2.295,1.39-4.47,1.965-6.766C244.194,104.146,244.191,102.361,244.827,100.837z M218.389,113.939
						c-3.623-2.627,0.615-8.65,3.691-5.763l-0.573-0.757C226.727,107.725,223.775,117.917,218.389,113.939z M225.047,125.202
						c-0.23-0.146-0.317-0.55-0.307-1.104c-0.729,0.51-1.895,1.062-3.381,0.854c-2.6-0.365-3.455-3.607-2.707-3.609
						c0.747-0.002,0.413,0.097,0.413,0.097s0.745,2.585,2.034,2.765c1.492,0.206,2.551-0.187,3.767-1.32
						c0.238-1.451,0.753-3.234,1.101-4.353c-0.072,0.006-0.121,0.011-0.121,0.011s-2.234-1.364-1.848-2.728
						c0,0,3.809-0.265,4.729,1.117c0.696,1.046-1.304,1.433-2.319,1.555c-0.496,1.822-1.132,5.314-0.672,6.067
						c0.426,0.692,2.241,0.277,2.241,0.277c1.208,0.287,2.839-1.325,3.018-1.534c0.173-0.208,0.864,0.396,0.864,0.396
						C228.672,127.245,226.191,125.91,225.047,125.202z M234.041,117.912c-4.631-0.903-3.248-8.941,0.928-7.85l-0.267-0.544
						C239.615,110.206,239.246,118.895,234.041,117.912z"/>
				</g>
			</g>
			<g>
				<path fill="#4478BC" d="M222.909,110.195l0.095-0.072c-0.796-0.365-2.05-1.133-2.96-0.665c-0.913,0.464-1.042,1.974-0.468,2.735
					C220.926,114.078,224.508,112.712,222.909,110.195z"/>
			</g>
			<g>
				<path fill="#4478BC" d="M235.069,111.814l0.811,0.281c-2.629-0.622-2.948,2.897-0.858,3.698
					C238.165,116.996,237.77,111.936,235.069,111.814z"/>
			</g>
		</g>
	</g>
	<g>
		<g>
			<g>
				<path fill="#1D427D" d="M197.578,25.705l-0.348-0.875c-1.249,0.422-7.162,3.692-8.292,4.127
					c-1.112,0.355-2.079,0.834-3.209,0.497c-1.536-0.428-3.009-1.181-4.646-1.546c-3.203-0.709-6.188-0.189-6.896-3.616
					c-0.43-2.334-0.779-4.882-2.19-6.655c-0.312,0.617-0.542,1.26-0.768,1.895c-1.997,5.925-3.981,11.771-5.814,17.734
					c-1.311,4.356-1.042,8.204,1.851,11.854c2.218,2.813,4.854,3.743,8.161,3.958c1.615,0.1,3.328,0.909,4.845,0.641
					c1.447-0.283,3.175-1.103,4.567-1.569c2.345-0.86,4.846-4.004,5.95-6.259c1.371-2.708,1.932-6.026,2.897-8.828
					c0.753-2.24,1.735-4.346,2.492-6.588C196.686,28.95,196.821,27.17,197.578,25.705z M170.188,36.687
					c-3.403-2.905,1.293-8.579,4.134-5.455l-0.513-0.802C178.988,31.145,175.245,41.072,170.188,36.687z M175.939,48.436
					c-0.219-0.161-0.272-0.571-0.218-1.122c-0.767,0.448-1.974,0.91-3.439,0.583c-2.562-0.569-3.159-3.869-2.412-3.812
					c0.743,0.058,0.404,0.131,0.404,0.131s0.538,2.631,1.808,2.916c1.473,0.322,2.559,0.013,3.861-1.021
					c0.349-1.427,1.005-3.165,1.441-4.251c-0.077,0-0.123-0.001-0.123-0.001s-2.122-1.534-1.629-2.865c0,0,3.818,0.035,4.626,1.489
					c0.614,1.097-1.408,1.323-2.436,1.365c-0.635,1.78-1.543,5.21-1.142,5.995c0.367,0.728,2.207,0.456,2.207,0.456
					c1.186,0.38,2.937-1.097,3.13-1.292c0.191-0.195,0.837,0.46,0.837,0.46C179.395,50.758,177.024,49.233,175.939,48.436z
					 M185.479,41.875c-4.543-1.264-2.533-9.168,1.543-7.749l-0.223-0.565C191.641,34.633,190.591,43.265,185.479,41.875z"/>
			</g>
		</g>
		<polygon fill="#F2F2F2" points="191.278,32.582 169.839,27.345 165.526,41.84 174.784,51.941 189.185,47.094 		"/>
		<g>
			<g>
				<g>
					<path fill="#4478BC" d="M197.23,24.829l-5.017,1.993c-1.25,0.419-2.493,0.824-3.619,1.257
						c-1.113,0.357-2.081,0.835-3.211,0.496c-1.539-0.425-3.009-1.179-4.646-1.543c-3.202-0.71-4.957-0.148-5.665-3.574
						c-0.433-2.335-2.01-4.922-3.424-6.698c-0.312,0.62-0.537,1.26-0.763,1.896c-2,5.925-3.982,11.772-5.816,17.736
						c-1.31,4.354-1.042,8.206,1.851,11.854c2.219,2.813,4.854,3.742,8.16,3.959c1.616,0.098,3.329,0.908,4.848,0.638
						c1.445-0.282,3.171-1.102,4.566-1.569c2.342-0.859,4.845-4.005,5.948-6.258c1.374-2.709,1.933-6.026,2.897-8.827
						c0.753-2.242,1.736-4.346,2.491-6.591C196.339,28.077,196.478,26.296,197.23,24.829z M169.843,35.809
						c-3.405-2.903,1.295-8.577,4.134-5.455l-0.514-0.801C178.643,30.27,174.899,40.199,169.843,35.809z M175.594,47.56
						c-0.217-0.164-0.273-0.571-0.218-1.125c-0.767,0.452-1.973,0.911-3.438,0.587c-2.563-0.57-3.16-3.87-2.413-3.812
						c0.744,0.058,0.403,0.129,0.403,0.129s0.54,2.635,1.81,2.916c1.473,0.323,2.558,0.015,3.859-1.019
						c0.352-1.428,1.007-3.166,1.439-4.253c-0.072,0-0.122,0-0.122,0s-2.12-1.535-1.628-2.864c0,0,3.817,0.034,4.628,1.486
						c0.611,1.097-1.412,1.325-2.435,1.365c-0.638,1.78-1.546,5.21-1.146,5.997c0.369,0.724,2.212,0.454,2.212,0.454
						c1.182,0.38,2.936-1.099,3.128-1.292c0.188-0.193,0.831,0.463,0.831,0.463C179.049,49.882,176.68,48.355,175.594,47.56z
						 M185.134,41c-4.545-1.265-2.533-9.168,1.542-7.752l-0.223-0.563C191.297,33.756,190.247,42.39,185.134,41z"/>
				</g>
			</g>
			<g>
				<path fill="#4478BC" d="M174.645,32.431l0.099-0.063c-0.765-0.426-1.953-1.291-2.897-0.896c-0.948,0.39-1.194,1.886-0.682,2.689
					C172.36,36.146,176.04,35.067,174.645,32.431z"/>
			</g>
			<g>
				<path fill="#4478BC" d="M186.64,35.002l0.784,0.345c-2.57-0.828-3.167,2.656-1.146,3.619
					C189.316,40.412,189.322,35.336,186.64,35.002z"/>
			</g>
		</g>
	</g>
</g>
<g id="number__x26__sign">
	<g>
		<g>
			<path fill="#3DB54A" stroke="#91BE49" stroke-width="4" stroke-miterlimit="10" d="M53.101,66.916l13.705,2.17l0.228,11.42
				l-15.417,1.143l0.685,13.704l-14.846,1.941l0.86-15.043l-14.223,1.11l0.142-14.122l14.363-1.639l-0.686-13.362l14.903-0.646
				L53.101,66.916z"/>
		</g>
	</g>
	<g>
		<g>
			<path fill="#3DB54A" stroke="#91BE49" stroke-width="4" stroke-miterlimit="10" d="M51.457,65.271l13.705,2.17l0.228,11.42
				l-15.417,1.143l0.685,13.704L35.811,95.65l0.86-15.043l-14.222,1.11l0.142-14.121l14.362-1.64l-0.686-13.362l14.903-0.646
				L51.457,65.271z"/>
		</g>
	</g>
	<g>
		<g>
			<path fill="#F2F2F2" stroke="#F2F2F2" stroke-width="0.5" stroke-miterlimit="10" d="M51.691,65.484l13.639,2.551l-0.09,11.423
				L49.797,80.17l0.303,13.718l-14.895,1.527l1.278-15.013l-14.248,0.713l0.535-14.111l14.402-1.239L36.86,52.389l14.916-0.23
				L51.691,65.484z"/>
		</g>
	</g>
	<g>
		<g>
			<path fill="#1E9647" stroke="#F2F2F2" stroke-width="0.5" stroke-miterlimit="10" d="M51.457,65.271l13.705,2.17l0.228,11.42
				l-15.417,1.143l0.685,13.704L35.811,95.65l0.86-15.043l-14.222,1.11l0.142-14.121l14.362-1.64l-0.686-13.362l14.903-0.646
				L51.457,65.271z"/>
		</g>
	</g>
	<polygon fill="#91BE49" points="54.698,51.486 53.075,49.824 52.285,52.356 	"/>
	<polygon fill="#91BE49" points="23.768,82.53 20.445,83.835 22.067,85.497 24.125,82.57 	"/>
	<polygon fill="#91BE49" points="68.776,67.438 67.034,65.747 66.034,67.784 	"/>
	<polygon fill="#91BE49" points="35.387,99.611 33.631,97.897 37.144,96.309 	"/>
	<g>
		<polygon fill="#91BE49" points="80.769,105.815 78.926,104.057 83.47,101.614 		"/>
		<polygon fill="#91BE49" points="133.363,42.75 131.564,40.907 128.262,44.551 		"/>
		<g>
			<g>
				<path fill="#1E9647" stroke="#91BE49" stroke-width="4" stroke-miterlimit="10" d="M131.77,61.041l-25.742,0.173l-0.389,6.521
					h0.461c17.469,0,26.71,5.822,26.71,18.3c0,14.787-10.258,22.273-28.281,22.273c-9.705,0-18.577-2.587-21.904-3.696
					c0,0,0.202-2.419,1.375-4.664c1.173-2.244,2.598-9.976,2.598-9.976c3.235,1.296,10.722,1.237,16.821,1.237
					c5.731,0,8.596-1.939,8.596-4.713c0-2.68-2.219-5.848-7.209-5.848l-18.115,1.781l-0.832-0.739l1.605-18.25l1.362-17.821
					c0,0,18.935-0.373,21.78-0.89c2.845-0.518,21.062-0.194,21.062-0.194L131.77,61.041z"/>
			</g>
		</g>
		<g>
			<g>
				<path fill="#1E9647" stroke="#91BE49" stroke-width="4" stroke-miterlimit="10" d="M129.987,59.26l-25.741,0.172l-0.39,6.521
					h0.462c17.469,0,26.71,5.823,26.71,18.301c0,14.786-10.259,22.274-28.282,22.274c-9.705,0-18.577-2.588-21.904-3.698
					c0,0,0.202-2.419,1.375-4.663c1.173-2.245,2.599-9.975,2.599-9.975c3.234,1.294,10.721,1.236,16.821,1.236
					c5.731,0,8.595-1.94,8.595-4.714c0-2.68-2.218-5.848-7.208-5.848L84.909,80.65l-0.832-0.74l1.605-18.25l1.361-17.82
					c0,0,18.936-0.374,21.781-0.891c2.845-0.518,21.062-0.193,21.062-0.193L129.987,59.26z"/>
			</g>
		</g>
		<g>
			<g>
				<path fill="#F2F2F2" stroke="#F2F2F2" stroke-width="0.5" stroke-miterlimit="10" d="M129.732,58.866l-25.734,0.596
					l-0.283,6.527l0.462-0.007c17.467-0.288,26.802,5.382,27.008,17.86c0.243,14.784-9.891,22.438-27.911,22.734
					c-9.704,0.16-18.617-2.279-21.962-3.336c0,0,0.163-2.422,1.298-4.686c1.136-2.264,2.435-10.017,2.435-10.017
					c3.255,1.24,10.74,1.061,16.839,0.961c5.73-0.096,8.562-2.082,8.517-4.854c-0.044-2.68-2.314-5.811-7.304-5.729l-18.084,2.079
					l-0.844-0.726l1.305-18.273l1.067-17.841c0,0,18.927-0.685,21.763-1.249c2.835-0.565,21.056-0.541,21.056-0.541L129.732,58.866z
					"/>
			</g>
		</g>
		<g>
			<g>
				<path fill="#1E9647" stroke="#F2F2F2" stroke-width="0.5" stroke-miterlimit="10" d="M129.987,59.26l-25.741,0.172l-0.39,6.521
					h0.462c17.469,0,26.71,5.823,26.71,18.301c0,14.786-10.259,22.274-28.282,22.274c-9.705,0-18.577-2.588-21.904-3.698
					c0,0,0.202-2.419,1.375-4.663c1.173-2.245,2.599-9.975,2.599-9.975c3.234,1.294,10.721,1.236,16.821,1.236
					c5.731,0,8.595-1.94,8.595-4.714c0-2.68-2.218-5.848-7.208-5.848L84.909,80.65l-0.832-0.74l1.605-18.25l1.361-17.82
					c0,0,18.936-0.374,21.781-0.891c2.845-0.518,21.062-0.193,21.062-0.193L129.987,59.26z"/>
			</g>
		</g>
		<polygon fill="#91BE49" points="86.173,83.95 85.916,84.122 82.271,80.778 82.701,79.791 		"/>
	</g>
</g>
<g id="borders" display="none">
	<g display="inline">
		<defs>
			<rect id="SVGID_4_" width="261.144" height="153.143"/>
		</defs>
		<clipPath id="SVGID_5_">
			<use xlink:href="#SVGID_4_"  overflow="visible"/>
		</clipPath>
		
			<rect x="4.5" y="4.416" clip-path="url(#SVGID_5_)" fill="none" stroke="#363895" stroke-dasharray="3,3" width="252" height="144"/>
		<path clip-path="url(#SVGID_5_)" fill="#EF3839" d="M251,143H10V10h241V143z M252,8.999H9v135h243V8.999z"/>
		<path clip-path="url(#SVGID_5_)" fill="#51B848" d="M1,1h259.125v151.124H1V1z M0,153.124h261.125V0H0V153.124z"/>
	</g>
</g>
</svg>
