<?xml version="1.0" encoding="utf-8"?>
<!-- Generator: Adobe Illustrator 16.0.0, SVG Export Plug-In . SVG Version: 6.00 Build 0)  -->
<!DOCTYPE svg PUBLIC "-//W3C//DTD SVG 1.1//EN" "http://www.w3.org/Graphics/SVG/1.1/DTD/svg11.dtd">
<svg version="1.1" xmlns="http://www.w3.org/2000/svg" xmlns:xlink="http://www.w3.org/1999/xlink" x="0px" y="0px"
	 width="261.144px" height="153.143px" viewBox="0 0 261.144 153.143" enable-background="new 0 0 261.144 153.143"
	 xml:space="preserve">
<pattern  y="153.143" width="127.841" height="157.914" patternUnits="userSpaceOnUse" id="New_Pattern_2" viewBox="21.519 -157.914 127.841 157.914" overflow="visible">
	<g>
		<polygon fill="none" points="21.519,-157.914 149.36,-157.914 149.36,0 21.519,0 		"/>
		<g>
			<line fill="none" stroke="#1E9647" stroke-miterlimit="10" x1="141.844" y1="-31.229" x2="120.949" y2="-10.334"/>
			<line fill="none" stroke="#1E9647" stroke-miterlimit="10" x1="144.957" y1="-27.907" x2="124.062" y2="-7.012"/>
			<line fill="none" stroke="#1E9647" stroke-miterlimit="10" x1="149.09" y1="-24.57" x2="128.195" y2="-3.676"/>
			<line fill="none" stroke="#1E9647" stroke-miterlimit="10" x1="152.203" y1="-21.248" x2="131.309" y2="-0.354"/>
		</g>
		<g>
			<line fill="none" stroke="#1E9647" stroke-miterlimit="10" x1="109.883" y1="-31.229" x2="88.989" y2="-10.334"/>
			<line fill="none" stroke="#1E9647" stroke-miterlimit="10" x1="112.996" y1="-27.907" x2="92.102" y2="-7.012"/>
			<line fill="none" stroke="#1E9647" stroke-miterlimit="10" x1="117.129" y1="-24.57" x2="96.234" y2="-3.676"/>
			<line fill="none" stroke="#1E9647" stroke-miterlimit="10" x1="120.242" y1="-21.248" x2="99.348" y2="-0.354"/>
		</g>
		<g>
			<line fill="none" stroke="#1E9647" stroke-miterlimit="10" x1="77.923" y1="-31.229" x2="57.029" y2="-10.334"/>
			<line fill="none" stroke="#1E9647" stroke-miterlimit="10" x1="81.036" y1="-27.907" x2="60.142" y2="-7.012"/>
			<line fill="none" stroke="#1E9647" stroke-miterlimit="10" x1="85.169" y1="-24.57" x2="64.274" y2="-3.676"/>
			<line fill="none" stroke="#1E9647" stroke-miterlimit="10" x1="88.282" y1="-21.248" x2="67.388" y2="-0.354"/>
		</g>
		<g>
			<line fill="none" stroke="#1E9647" stroke-miterlimit="10" x1="45.962" y1="-31.229" x2="25.068" y2="-10.334"/>
			<line fill="none" stroke="#1E9647" stroke-miterlimit="10" x1="49.076" y1="-27.907" x2="28.181" y2="-7.012"/>
			<line fill="none" stroke="#1E9647" stroke-miterlimit="10" x1="53.208" y1="-24.57" x2="32.314" y2="-3.676"/>
			<line fill="none" stroke="#1E9647" stroke-miterlimit="10" x1="56.322" y1="-21.248" x2="35.427" y2="-0.354"/>
		</g>
		<g>
			<line fill="none" stroke="#1E9647" stroke-miterlimit="10" x1="21.248" y1="-24.57" x2="0.354" y2="-3.676"/>
			<line fill="none" stroke="#1E9647" stroke-miterlimit="10" x1="24.361" y1="-21.248" x2="3.467" y2="-0.354"/>
		</g>
		<g>
			<line fill="none" stroke="#1E9647" stroke-miterlimit="10" x1="148.236" y1="-62.812" x2="127.342" y2="-41.917"/>
			<line fill="none" stroke="#1E9647" stroke-miterlimit="10" x1="151.35" y1="-59.49" x2="130.455" y2="-38.595"/>
			<line fill="none" stroke="#1E9647" stroke-miterlimit="10" x1="155.482" y1="-56.153" x2="134.588" y2="-35.259"/>
			<line fill="none" stroke="#1E9647" stroke-miterlimit="10" x1="158.596" y1="-52.831" x2="137.701" y2="-31.937"/>
		</g>
		<g>
			<line fill="none" stroke="#1E9647" stroke-miterlimit="10" x1="116.275" y1="-62.812" x2="95.381" y2="-41.917"/>
			<line fill="none" stroke="#1E9647" stroke-miterlimit="10" x1="119.389" y1="-59.49" x2="98.494" y2="-38.595"/>
			<line fill="none" stroke="#1E9647" stroke-miterlimit="10" x1="123.521" y1="-56.153" x2="102.626" y2="-35.259"/>
			<line fill="none" stroke="#1E9647" stroke-miterlimit="10" x1="126.635" y1="-52.831" x2="105.74" y2="-31.937"/>
		</g>
		<g>
			<line fill="none" stroke="#1E9647" stroke-miterlimit="10" x1="84.315" y1="-62.812" x2="63.421" y2="-41.917"/>
			<line fill="none" stroke="#1E9647" stroke-miterlimit="10" x1="87.428" y1="-59.49" x2="66.534" y2="-38.595"/>
			<line fill="none" stroke="#1E9647" stroke-miterlimit="10" x1="91.561" y1="-56.153" x2="70.667" y2="-35.259"/>
			<line fill="none" stroke="#1E9647" stroke-miterlimit="10" x1="94.674" y1="-52.831" x2="73.78" y2="-31.937"/>
		</g>
		<g>
			<line fill="none" stroke="#1E9647" stroke-miterlimit="10" x1="52.354" y1="-62.812" x2="31.46" y2="-41.917"/>
			<line fill="none" stroke="#1E9647" stroke-miterlimit="10" x1="55.468" y1="-59.49" x2="34.573" y2="-38.595"/>
			<line fill="none" stroke="#1E9647" stroke-miterlimit="10" x1="59.601" y1="-56.153" x2="38.706" y2="-35.259"/>
			<line fill="none" stroke="#1E9647" stroke-miterlimit="10" x1="62.714" y1="-52.831" x2="41.819" y2="-31.937"/>
		</g>
		<g>
			<line fill="none" stroke="#1E9647" stroke-miterlimit="10" x1="23.507" y1="-59.49" x2="2.613" y2="-38.595"/>
			<line fill="none" stroke="#1E9647" stroke-miterlimit="10" x1="27.64" y1="-56.153" x2="6.746" y2="-35.259"/>
			<line fill="none" stroke="#1E9647" stroke-miterlimit="10" x1="30.753" y1="-52.831" x2="9.859" y2="-31.937"/>
		</g>
		<g>
			<line fill="none" stroke="#1E9647" stroke-miterlimit="10" x1="154.628" y1="-94.395" x2="133.733" y2="-73.5"/>
			<line fill="none" stroke="#1E9647" stroke-miterlimit="10" x1="157.741" y1="-91.073" x2="136.847" y2="-70.178"/>
			<line fill="none" stroke="#1E9647" stroke-miterlimit="10" x1="161.874" y1="-87.736" x2="140.979" y2="-66.842"/>
			<line fill="none" stroke="#1E9647" stroke-miterlimit="10" x1="164.987" y1="-84.414" x2="144.093" y2="-63.52"/>
		</g>
		<g>
			<line fill="none" stroke="#1E9647" stroke-miterlimit="10" x1="122.667" y1="-94.395" x2="101.773" y2="-73.5"/>
			<line fill="none" stroke="#1E9647" stroke-miterlimit="10" x1="125.78" y1="-91.073" x2="104.886" y2="-70.178"/>
			<line fill="none" stroke="#1E9647" stroke-miterlimit="10" x1="129.913" y1="-87.736" x2="109.019" y2="-66.842"/>
			<line fill="none" stroke="#1E9647" stroke-miterlimit="10" x1="133.026" y1="-84.414" x2="112.132" y2="-63.52"/>
		</g>
		<g>
			<line fill="none" stroke="#1E9647" stroke-miterlimit="10" x1="90.707" y1="-94.395" x2="69.813" y2="-73.5"/>
			<line fill="none" stroke="#1E9647" stroke-miterlimit="10" x1="93.82" y1="-91.073" x2="72.926" y2="-70.178"/>
			<line fill="none" stroke="#1E9647" stroke-miterlimit="10" x1="97.953" y1="-87.736" x2="77.059" y2="-66.842"/>
			<line fill="none" stroke="#1E9647" stroke-miterlimit="10" x1="101.066" y1="-84.414" x2="80.172" y2="-63.52"/>
		</g>
		<g>
			<line fill="none" stroke="#1E9647" stroke-miterlimit="10" x1="58.747" y1="-94.395" x2="37.853" y2="-73.5"/>
			<line fill="none" stroke="#1E9647" stroke-miterlimit="10" x1="61.86" y1="-91.073" x2="40.965" y2="-70.178"/>
			<line fill="none" stroke="#1E9647" stroke-miterlimit="10" x1="65.993" y1="-87.736" x2="45.098" y2="-66.842"/>
			<line fill="none" stroke="#1E9647" stroke-miterlimit="10" x1="69.106" y1="-84.414" x2="48.211" y2="-63.52"/>
		</g>
		<g>
			<line fill="none" stroke="#1E9647" stroke-miterlimit="10" x1="26.786" y1="-94.395" x2="5.892" y2="-73.5"/>
			<line fill="none" stroke="#1E9647" stroke-miterlimit="10" x1="29.899" y1="-91.073" x2="9.005" y2="-70.178"/>
			<line fill="none" stroke="#1E9647" stroke-miterlimit="10" x1="34.032" y1="-87.736" x2="13.138" y2="-66.842"/>
			<line fill="none" stroke="#1E9647" stroke-miterlimit="10" x1="37.146" y1="-84.414" x2="16.251" y2="-63.52"/>
		</g>
		<g>
			<line fill="none" stroke="#1E9647" stroke-miterlimit="10" x1="161.02" y1="-125.978" x2="140.125" y2="-105.083"/>
			<line fill="none" stroke="#1E9647" stroke-miterlimit="10" x1="164.133" y1="-122.656" x2="143.238" y2="-101.761"/>
			<line fill="none" stroke="#1E9647" stroke-miterlimit="10" x1="168.266" y1="-119.319" x2="147.371" y2="-98.425"/>
		</g>
		<g>
			<line fill="none" stroke="#1E9647" stroke-miterlimit="10" x1="129.059" y1="-125.978" x2="108.165" y2="-105.083"/>
			<line fill="none" stroke="#1E9647" stroke-miterlimit="10" x1="132.172" y1="-122.656" x2="111.278" y2="-101.761"/>
			<line fill="none" stroke="#1E9647" stroke-miterlimit="10" x1="136.305" y1="-119.319" x2="115.41" y2="-98.425"/>
			<line fill="none" stroke="#1E9647" stroke-miterlimit="10" x1="139.418" y1="-115.997" x2="118.523" y2="-95.103"/>
		</g>
		<g>
			<line fill="none" stroke="#1E9647" stroke-miterlimit="10" x1="97.099" y1="-125.978" x2="76.205" y2="-105.083"/>
			<line fill="none" stroke="#1E9647" stroke-miterlimit="10" x1="100.212" y1="-122.656" x2="79.318" y2="-101.761"/>
			<line fill="none" stroke="#1E9647" stroke-miterlimit="10" x1="104.345" y1="-119.319" x2="83.451" y2="-98.425"/>
			<line fill="none" stroke="#1E9647" stroke-miterlimit="10" x1="107.458" y1="-115.997" x2="86.564" y2="-95.103"/>
		</g>
		<g>
			<line fill="none" stroke="#1E9647" stroke-miterlimit="10" x1="65.139" y1="-125.978" x2="44.245" y2="-105.083"/>
			<line fill="none" stroke="#1E9647" stroke-miterlimit="10" x1="68.252" y1="-122.656" x2="47.357" y2="-101.761"/>
			<line fill="none" stroke="#1E9647" stroke-miterlimit="10" x1="72.385" y1="-119.319" x2="51.49" y2="-98.425"/>
			<line fill="none" stroke="#1E9647" stroke-miterlimit="10" x1="75.498" y1="-115.997" x2="54.604" y2="-95.103"/>
		</g>
		<g>
			<line fill="none" stroke="#1E9647" stroke-miterlimit="10" x1="33.178" y1="-125.978" x2="12.284" y2="-105.083"/>
			<line fill="none" stroke="#1E9647" stroke-miterlimit="10" x1="36.292" y1="-122.656" x2="15.397" y2="-101.761"/>
			<line fill="none" stroke="#1E9647" stroke-miterlimit="10" x1="40.424" y1="-119.319" x2="19.53" y2="-98.425"/>
			<line fill="none" stroke="#1E9647" stroke-miterlimit="10" x1="43.538" y1="-115.997" x2="22.643" y2="-95.103"/>
		</g>
		<g>
			<line fill="none" stroke="#1E9647" stroke-miterlimit="10" x1="167.412" y1="-157.561" x2="146.518" y2="-136.666"/>
			<line fill="none" stroke="#1E9647" stroke-miterlimit="10" x1="170.525" y1="-154.239" x2="149.631" y2="-133.344"/>
		</g>
		<g>
			<line fill="none" stroke="#1E9647" stroke-miterlimit="10" x1="135.451" y1="-157.561" x2="114.558" y2="-136.666"/>
			<line fill="none" stroke="#1E9647" stroke-miterlimit="10" x1="138.564" y1="-154.239" x2="117.67" y2="-133.344"/>
			<line fill="none" stroke="#1E9647" stroke-miterlimit="10" x1="142.697" y1="-150.902" x2="121.803" y2="-130.008"/>
			<line fill="none" stroke="#1E9647" stroke-miterlimit="10" x1="145.811" y1="-147.58" x2="124.916" y2="-126.686"/>
		</g>
		<g>
			<line fill="none" stroke="#1E9647" stroke-miterlimit="10" x1="103.491" y1="-157.561" x2="82.597" y2="-136.666"/>
			<line fill="none" stroke="#1E9647" stroke-miterlimit="10" x1="106.604" y1="-154.239" x2="85.71" y2="-133.344"/>
			<line fill="none" stroke="#1E9647" stroke-miterlimit="10" x1="110.737" y1="-150.902" x2="89.843" y2="-130.008"/>
			<line fill="none" stroke="#1E9647" stroke-miterlimit="10" x1="113.851" y1="-147.58" x2="92.956" y2="-126.686"/>
		</g>
		<g>
			<line fill="none" stroke="#1E9647" stroke-miterlimit="10" x1="71.531" y1="-157.561" x2="50.637" y2="-136.666"/>
			<line fill="none" stroke="#1E9647" stroke-miterlimit="10" x1="74.644" y1="-154.239" x2="53.75" y2="-133.344"/>
			<line fill="none" stroke="#1E9647" stroke-miterlimit="10" x1="78.777" y1="-150.902" x2="57.882" y2="-130.008"/>
			<line fill="none" stroke="#1E9647" stroke-miterlimit="10" x1="81.89" y1="-147.58" x2="60.996" y2="-126.686"/>
		</g>
		<g>
			<line fill="none" stroke="#1E9647" stroke-miterlimit="10" x1="39.57" y1="-157.561" x2="18.676" y2="-136.666"/>
			<line fill="none" stroke="#1E9647" stroke-miterlimit="10" x1="42.684" y1="-154.239" x2="21.789" y2="-133.344"/>
			<line fill="none" stroke="#1E9647" stroke-miterlimit="10" x1="46.816" y1="-150.902" x2="25.922" y2="-130.008"/>
			<line fill="none" stroke="#1E9647" stroke-miterlimit="10" x1="49.93" y1="-147.58" x2="29.035" y2="-126.686"/>
		</g>
	</g>
</pattern>
<pattern  y="153.143" width="123" height="124" patternUnits="userSpaceOnUse" id="New_Pattern_4" viewBox="0 -124 123 124" overflow="visible">
	<g>
		<polygon fill="none" points="0,-124 123,-124 123,0 0,0 		"/>
		<path fill="#F2D03A" d="M52.275-49.22c-4.082-2.972-5.48-6.909-5.382-11.84c0.183-6.759,0.551-13.437,0.915-20.206
			c0.052-0.732,0.104-1.465,0.247-2.201c1.993,1.442,4.394,3.684,5.521,5.994c1.733,3.372,3.406,2.279,6.953,2.088
			c1.818-0.099,3.571,0.263,5.304,0.26c1.279,0.022,2.148-0.754,3.205-1.449c1.051-0.785,2.23-1.563,3.415-2.367l4.656-3.541
			c-0.361,1.752,0.015,3.646-0.073,5.385c-0.135,2.561-0.548,5.045-0.684,7.607c-0.191,3.202,0.187,6.83-0.46,10.057
			c-0.495,2.672-2.193,6.686-4.388,8.264c-1.319,0.892-2.888,2.254-4.309,2.969c-1.512,0.719-3.537,0.373-5.25,0.738
			C58.43-46.725,55.409-46.926,52.275-49.22z M69.184-62.082c5.743-0.036,4.328-9.354-1.037-9.064l0.393,0.526
			C63.872-70.915,64.074-62.078,69.184-62.082z M53.672-70.638l0.768,0.688c-3.871-2.437-7.127,4.854-2.729,6.896
			C58.263-59.941,59.285-71.397,53.672-70.638z M57.158-51.957c1.625-0.086,2.752-0.916,3.42-1.609
			c0.104,0.591,0.278,1.003,0.556,1.107c1.364,0.516,4.283,1.422,6.937-3.021c0,0-0.864-0.496-1.008-0.238
			c-0.141,0.258-1.542,2.312-2.891,2.259c0,0-1.842,0.819-2.438,0.168c-0.646-0.704-0.696-4.549-0.55-6.591
			c1.059-0.344,3.104-1.168,2.146-2.135c-1.268-1.281-5.266-0.209-5.266-0.209c-0.127,1.533,2.537,2.518,2.537,2.518
			s0.047-0.012,0.125-0.033c-0.138,1.258-0.316,3.266-0.266,4.859c-1.059,1.458-2.102,2.096-3.734,2.184
			c-1.408,0.076-2.734-2.516-2.734-2.516s0.335-0.176-0.462-0.019C52.732-55.076,54.318-51.805,57.158-51.957z"/>
		<path fill="#F2D03A" d="M55.742-67.975l0.086-0.096c-0.924-0.223-2.414-0.781-3.289-0.095c-0.875,0.685-0.695,2.317,0.071,3.005
			C54.437-63.434,57.967-65.631,55.742-67.975z"/>
		<path fill="#F2D03A" d="M69.791-64.537c3.591,0.627,2.118-4.675-0.777-4.244l0.92,0.132
			C67.009-68.764,67.396-64.955,69.791-64.537z"/>
		<path fill="#F2D03A" d="M113.776-108.446c2.998,2.194,5.898,2.463,9.224,1.837v-4.945c-0.131-0.045-0.255-0.088-0.365-0.131
			c-0.277-0.104-0.453-0.517-0.557-1.107c-0.668,0.693-1.795,1.523-3.42,1.609c-2.84,0.152-4.425-3.119-3.627-3.276
			c0.797-0.157,0.461,0.019,0.461,0.019s1.327,2.592,2.734,2.516c1.633-0.088,2.676-0.726,3.734-2.184
			c-0.05-1.594,0.129-3.602,0.266-4.859c-0.078,0.021-0.124,0.033-0.124,0.033s-2.665-0.984-2.538-2.518
			c0,0,1.853-0.496,3.436-0.409V-124h-4.579c-0.74,1.801-2.501,3.007-5.21,1.721c-0.873-0.406-1.439-1.02-1.765-1.721h-2.929
			c-0.045,1.236-0.09,2.473-0.123,3.714C108.295-115.355,109.693-111.418,113.776-108.446z"/>
		<path fill="#F2D03A" d="M123-112.983v-6.233c-0.111,0.039-0.219,0.076-0.316,0.107C122.559-117.35,122.579-114.258,123-112.983z"
			/>
		<path fill="#F2D03A" d="M116.725-124h-2.034C115.352-123.685,116.105-123.723,116.725-124z"/>
		<path fill="#F2D03A" d="M115.078-12.699c-1.129-2.311-3.529-4.552-5.521-5.994c-0.145,0.736-0.195,1.469-0.247,2.201
			c-0.298,5.526-0.593,10.994-0.792,16.492h2.929c-1.312-2.834,1.391-7.129,4.493-5.176l-0.768-0.688
			c3.293-0.446,4.299,3.31,3.249,5.864H123v-10.612c-0.322-0.007-0.644-0.017-0.969,0.001
			C118.484-10.42,116.811-9.327,115.078-12.699z"/>
		<path fill="#F2D03A" d="M117.243-3.201l0.085-0.096c-0.924-0.223-2.414-0.781-3.288-0.095c-0.875,0.685-0.696,2.317,0.071,3.005
			c0.178,0.168,0.375,0.289,0.579,0.387h2.034C117.871-0.514,118.545-1.829,117.243-3.201z"/>
		<path fill="#F2D03A" d="M5.697-107.428c1.422-0.715,2.99-2.077,4.309-2.969c2.195-1.578,3.894-5.592,4.389-8.264
			c0.342-1.709,0.396-3.529,0.4-5.34h-3.578c-0.383,1.498-1.502,2.679-3.533,2.691c-1.879,0.002-3.088-1.195-3.641-2.691H0v2.138
			c0.742,0.041,1.426,0.208,1.83,0.618c0.87,0.879-0.734,1.637-1.83,2.027v6.233c0.067,0.205,0.145,0.367,0.234,0.465
			c0.597,0.651,2.438-0.168,2.438-0.168c1.35,0.054,2.75-2.001,2.892-2.259c0.144-0.258,1.007,0.238,1.007,0.238
			c-2.438,4.082-5.096,3.649-6.57,3.152v4.945c0.15-0.028,0.296-0.048,0.447-0.08C2.16-107.055,4.186-106.709,5.697-107.428z"/>
		<path fill="#F2D03A" d="M9.846-124H7.622c0.202,0.107,0.423,0.193,0.669,0.236C8.999-123.641,9.504-123.752,9.846-124z"/>
		<path fill="#F2D03A" d="M14.854-4.717c0.137-2.562,0.549-5.047,0.684-7.607c0.088-1.738-0.287-3.633,0.074-5.385l-4.656,3.541
			c-1.185,0.804-2.365,1.582-3.416,2.367c-1.057,0.695-1.926,1.472-3.205,1.449C2.912-10.35,1.475-10.579,0-10.612V0h4.043
			C3.091-2.572,4.089-6.033,7.04-5.847L6.646-6.373C10.115-6.56,11.916-2.74,11.217,0h3.578C14.799-1.609,14.764-3.211,14.854-4.717
			z"/>
		<path fill="#F2D03A" d="M7.515-4.008l0.919,0.132C5.811-3.979,5.857-0.932,7.622,0h2.224C11.24-1.01,9.839-4.354,7.515-4.008z"/>
		<polygon fill="#F2D03A" points="31,-97 31,-100 25,-100 25,-97 		"/>
		<polygon fill="#F2D03A" points="22,-100 17,-100 17,-97 22,-97 		"/>
		<polygon fill="#F2D03A" points="25,-105 22,-105 22,-100 25,-100 		"/>
		<polygon fill="#F2D03A" points="22,-91 25,-91 25,-97 22,-97 		"/>
		<polygon fill="#F2D03A" points="25,-97 25,-100 22,-100 22,-97 		"/>
		<polygon fill="#F2D03A" points="69,-123 69,-124 63,-124 63,-123 		"/>
		<polygon fill="#F2D03A" points="60,-123 60,-124 55,-124 55,-123 		"/>
		<polygon fill="#F2D03A" points="60,-117 63,-117 63,-123 60,-123 		"/>
		<polygon fill="#F2D03A" points="63,-123 63,-124 60,-124 60,-123 		"/>
		<polygon fill="#F2D03A" points="55,-2 55,0 60,0 60,-2 		"/>
		<polygon fill="#F2D03A" points="69,-2 63,-2 63,0 69,0 		"/>
		<polygon fill="#F2D03A" points="60,-7 60,-2 63,-2 63,-7 		"/>
		<polygon fill="#F2D03A" points="60,-2 60,0 63,0 63,-2 		"/>
		<polygon fill="#F2D03A" points="89,-35 83,-35 83,-32 89,-32 		"/>
		<polygon fill="#F2D03A" points="97,-32 97,-35 92,-35 92,-32 		"/>
		<polygon fill="#F2D03A" points="89,-26 92,-26 92,-32 89,-32 		"/>
		<polygon fill="#F2D03A" points="92,-40 89,-40 89,-35 92,-35 		"/>
		<polygon fill="#F2D03A" points="92,-32 92,-35 89,-35 89,-32 		"/>
		<polygon fill="#F2D03A" points="18,-30 32,-30 32,-33 18,-33 		"/>
		<polygon fill="#F2D03A" points="7,-68 0,-68 0,-65 7,-65 		"/>
		<polygon fill="#F2D03A" points="117,-65 123,-65 123,-68 117,-68 		"/>
		<polygon fill="#F2D03A" points="97,-100 83,-100 83,-97 97,-97 		"/>
	</g>
</pattern>
<g id="background_1_">
	
		<radialGradient id="SVGID_1_" cx="81.8613" cy="76.4575" r="125.1703" gradientTransform="matrix(1 0 0 1.3094 0 -23.6521)" gradientUnits="userSpaceOnUse">
		<stop  offset="0" style="stop-color:#F6E867"/>
		<stop  offset="0.3095" style="stop-color:#F6E45F"/>
		<stop  offset="0.7616" style="stop-color:#F3D849"/>
		<stop  offset="1" style="stop-color:#F2D13B"/>
	</radialGradient>
	<rect x="0.056" y="-0.229" fill="url(#SVGID_1_)" width="163.611" height="153.372"/>
	<pattern  id="SVGID_2_" xlink:href="#New_Pattern_4" patternTransform="matrix(0.3319 0 0 0.3392 -5360.1426 -5473.5981)">
	</pattern>
	<rect x="0.266" y="-0.252" fill="url(#SVGID_2_)" width="260.918" height="153.418"/>
	<path fill="#1E9647" d="M261.144,0H151.5c8.218,48.924-1.142,98.108,2.894,147.143c0.043,1.621,0.076,4.32,0.106,6l106.646-1.422
		L261.144,0z"/>
	<path fill="#91BE49" d="M261.144-0.229H155.55c6.926,49.124-2.654,98.248,0.089,147.372c0,1.622-0.037,4.321-0.052,6h105.557
		V-0.229z"/>
	<pattern  id="SVGID_3_" xlink:href="#New_Pattern_2" patternTransform="matrix(0.3763 0 0 0.3763 -4955.7178 -5196.7305)">
	</pattern>
	<path fill="url(#SVGID_3_)" d="M261.188-0.293H155.331c6.944,49.246-2.66,98.493,0.09,147.739c0,1.625-0.038,4.332-0.052,6.016
		h105.819V-0.293z"/>
	<text transform="matrix(1 0 0 1 200.8672 143.6157)"><tspan x="0" y="0" fill="#F6E867" font-family="'PlutoRegular'" font-size="5">Cat Math Do © </tspan><tspan x="40.274" y="0" fill="#F6E867" font-family="'PlutoRegular'" font-size="4">2014</tspan></text>
</g>
<g id="cats_copy">
	<g>
		<g>
			<g>
				<path fill="#1D427D" d="M205.21,78.74l-0.715-1.096c-1.587,0.92-8.735,7.01-10.154,7.916c-1.415,0.792-2.599,1.713-4.229,1.564
					c-2.215-0.157-4.429-0.775-6.761-0.818c-4.559-0.08-8.48,1.457-10.392-3.015c-1.231-3.062-2.414-6.436-4.826-8.459
					c-0.256,0.929-0.389,1.866-0.521,2.792c-1.08,8.625-2.162,17.138-3.011,25.767c-0.577,6.297,0.853,11.464,5.803,15.636
					c3.801,3.218,7.648,3.755,12.214,3.132c2.226-0.312,4.785,0.315,6.778-0.471c1.89-0.784,4.017-2.38,5.783-3.4
					c2.955-1.821,5.493-6.797,6.373-10.172c1.117-4.071,0.962-8.744,1.503-12.828c0.405-3.26,1.161-6.4,1.568-9.664
					C204.893,83.409,204.584,80.946,205.21,78.74z M170.941,101.283c-5.438-3.014-0.612-12.045,4.122-8.575l-0.92-0.95
					C181.395,91.295,179.045,105.857,170.941,101.283z M182.032,115.693c-0.347-0.158-0.533-0.702-0.611-1.469
					c-0.918,0.823-2.437,1.786-4.521,1.748c-3.648-0.065-5.376-4.396-4.341-4.524c1.028-0.128,0.588,0.066,0.588,0.066
					s1.459,3.438,3.268,3.472c2.095,0.032,3.491-0.688,4.977-2.459c0.081-2.04,0.492-4.59,0.785-6.191
					c-0.103,0.021-0.166,0.033-0.166,0.033s-3.315-1.502-3.013-3.451c0,0,5.211-1.011,6.715,0.746
					c1.139,1.325-1.554,2.192-2.941,2.535c-0.37,2.601-0.659,7.524,0.105,8.481c0.702,0.89,3.135,0.01,3.135,0.01
					c1.717,0.189,3.695-2.309,3.903-2.625c0.208-0.321,1.267,0.396,1.267,0.396C187.38,117.901,183.728,116.478,182.032,115.693z
					 M193.205,104.115c-6.536-0.463-5.989-11.786-0.043-10.979l-0.457-0.711C199.595,92.544,200.555,104.594,193.205,104.115z"/>
			</g>
		</g>
		<polygon fill="#F2F2F2" points="198.534,89.852 167.879,88.654 166.021,109.592 181.427,120.788 199.7,110.199 		"/>
		<g>
			<g>
				<g>
					<path fill="#4478BC" d="M204.495,77.644l-6.283,4.103c-1.586,0.918-3.167,1.812-4.581,2.715
						c-1.417,0.795-2.604,1.713-4.237,1.563c-2.213-0.151-4.424-0.773-6.758-0.816c-4.556-0.08-6.791,1.17-8.702-3.3
						c-1.236-3.061-4.103-6.147-6.521-8.175c-0.251,0.93-0.381,1.864-0.513,2.795c-1.085,8.623-2.165,17.137-3.013,25.766
						c-0.578,6.294,0.853,11.466,5.804,15.633c3.801,3.222,7.647,3.756,12.211,3.134c2.228-0.313,4.785,0.317,6.78-0.471
						c1.891-0.784,4.013-2.378,5.785-3.402c2.951-1.818,5.49-6.798,6.369-10.17c1.12-4.071,0.966-8.743,1.502-12.826
						c0.406-3.263,1.163-6.401,1.568-9.667C204.178,82.313,203.874,79.849,204.495,77.644z M170.228,100.182
						c-5.44-3.012-0.61-12.041,4.122-8.574l-0.921-0.948C180.682,90.2,178.331,104.76,170.228,100.182z M181.316,114.595
						c-0.343-0.161-0.531-0.704-0.609-1.471c-0.918,0.828-2.434,1.786-4.519,1.749c-3.65-0.064-5.377-4.395-4.344-4.522
						c1.028-0.129,0.584,0.063,0.584,0.063s1.466,3.441,3.273,3.472c2.094,0.034,3.488-0.688,4.974-2.457
						c0.085-2.041,0.493-4.59,0.784-6.19c-0.1,0.021-0.164,0.035-0.164,0.035s-3.315-1.504-3.013-3.449c0,0,5.209-1.013,6.716,0.741
						c1.138,1.325-1.557,2.196-2.94,2.534c-0.374,2.602-0.662,7.525,0.102,8.485c0.703,0.885,3.139,0.006,3.139,0.006
						c1.714,0.192,3.693-2.308,3.902-2.626c0.205-0.316,1.262,0.399,1.262,0.399C186.665,116.803,183.016,115.379,181.316,114.595z
						 M192.494,103.018c-6.54-0.464-5.99-11.784-0.045-10.984l-0.459-0.707C198.884,91.445,199.843,103.497,192.494,103.018z"/>
				</g>
			</g>
			<g>
				<path fill="#4478BC" d="M175.833,94.252l0.118-0.113c-1.158-0.371-3.017-1.219-4.193-0.421
					c-1.184,0.796-1.104,2.901-0.186,3.854C173.752,99.945,178.465,97.455,175.833,94.252z"/>
			</g>
			<g>
				<path fill="#4478BC" d="M192.887,94.432l1.164,0.252c-3.733-0.414-3.58,4.495-0.561,5.247
					C198.03,101.061,196.631,94.145,192.887,94.432z"/>
			</g>
		</g>
	</g>
	<g>
		<g>
			<g>
				<path fill="#1D427D" d="M233.924,19.208L232.84,18.5c-1.067,1.465-5.11,9.824-6.033,11.209c-0.965,1.28-1.669,2.585-3.205,3.101
					c-2.065,0.74-4.315,1.063-6.442,1.952c-4.157,1.744-7.095,4.696-10.605,1.412c-2.334-2.279-4.747-4.86-7.737-5.732
					c0.139,0.942,0.392,1.843,0.642,2.735c2.459,8.235,4.87,16.369,7.542,24.515c1.985,5.929,5.337,10.034,11.479,11.837
					c4.721,1.398,8.416,0.351,12.299-2.031c1.891-1.17,4.456-1.622,5.946-3.126c1.397-1.463,2.687-3.753,3.88-5.382
					c1.948-2.825,2.262-8.337,1.713-11.743c-0.61-4.128-2.612-8.295-3.75-12.206c-0.933-3.111-1.5-6.254-2.431-9.369
					C235.497,23.558,234.236,21.453,233.924,19.208z M211.896,53.258c-6.122-0.56-5.353-10.654,0.313-9.401l-1.211-0.494
					C217.377,40.057,221.051,54.169,211.896,53.258z M227.672,61.879c-0.375-0.005-0.761-0.423-1.137-1.084
					c-0.503,1.11-1.492,2.586-3.396,3.383c-3.327,1.393-6.615-1.836-5.731-2.365c0.881-0.525,0.559-0.174,0.559-0.174
					s2.691,2.528,4.341,1.839c1.908-0.805,2.884-2.014,3.523-4.208c-0.739-1.879-1.383-4.35-1.755-5.916
					c-0.086,0.061-0.139,0.096-0.139,0.096s-3.598-0.038-4.101-1.922c0,0,4.312-2.991,6.373-2c1.56,0.744-0.531,2.602-1.651,3.465
					c0.701,2.5,2.401,7.071,3.475,7.633c0.989,0.525,2.84-1.24,2.84-1.24c1.63-0.513,2.425-3.561,2.486-3.931
					c0.061-0.373,1.304-0.147,1.304-0.147C233.391,61.747,229.521,61.915,227.672,61.879z M233.172,46.951
					c-6.101,2.185-10.116-8.278-4.415-9.918l-0.698-0.459C234.343,33.936,240.012,44.457,233.172,46.951z"/>
			</g>
		</g>
		<polygon fill="#F2F2F2" points="232.31,31.923 204.095,43.052 210.753,62.738 229.154,66.73 241.472,49.869 		"/>
		<g>
			<g>
				<g>
					<path fill="#4478BC" d="M232.84,18.5l-4.05,6.216c-1.069,1.462-2.144,2.902-3.063,4.282c-0.967,1.283-1.674,2.586-3.211,3.102
						c-2.063,0.744-4.312,1.063-6.44,1.955c-4.155,1.742-5.679,3.764-9.19,0.481c-2.338-2.277-6.16-3.929-9.156-4.8
						c0.143,0.941,0.397,1.839,0.648,2.732c2.455,8.235,4.868,16.371,7.54,24.517c1.984,5.926,5.339,10.035,11.479,11.834
						c4.722,1.399,8.416,0.351,12.297-2.029c1.893-1.172,4.457-1.62,5.948-3.127c1.398-1.463,2.684-3.75,3.879-5.384
						c1.947-2.82,2.261-8.337,1.712-11.739c-0.607-4.13-2.61-8.296-3.749-12.205c-0.934-3.114-1.5-6.255-2.434-9.372
						C234.415,22.853,233.157,20.744,232.84,18.5z M210.812,52.546c-6.123-0.557-5.35-10.651,0.312-9.4l-1.21-0.492
						C216.296,39.349,219.97,53.461,210.812,52.546z M226.588,61.171c-0.374-0.01-0.761-0.425-1.137-1.088
						c-0.502,1.115-1.491,2.585-3.393,3.384c-3.329,1.396-6.616-1.834-5.732-2.362c0.88-0.526,0.555-0.175,0.555-0.175
						s2.696,2.529,4.345,1.837c1.908-0.804,2.882-2.012,3.521-4.204c-0.736-1.881-1.381-4.351-1.757-5.915
						c-0.081,0.058-0.136,0.097-0.136,0.097s-3.598-0.041-4.099-1.922c0,0,4.311-2.991,6.372-2.003
						c1.558,0.746-0.533,2.607-1.65,3.464c0.697,2.502,2.398,7.073,3.472,7.638c0.987,0.521,2.842-1.245,2.842-1.245
						c1.628-0.51,2.423-3.561,2.485-3.932c0.06-0.367,1.301-0.14,1.301-0.14C232.307,61.038,228.438,61.204,226.588,61.171z
						 M232.091,46.243c-6.103,2.186-10.116-8.278-4.418-9.922l-0.696-0.456C233.262,33.225,238.931,43.748,232.091,46.243z"/>
				</g>
			</g>
			<g>
				<path fill="#4478BC" d="M213.522,44.948l0.061-0.15c-1.196,0.126-3.216,0.1-3.962,1.292c-0.754,1.19,0.156,3.064,1.368,3.56
					C213.906,50.927,217.18,46.797,213.522,44.948z"/>
			</g>
			<g>
				<path fill="#4478BC" d="M229.023,38.317l1.154-0.236c-3.543,1.111-1.447,5.493,1.584,4.971
					C236.319,42.265,232.299,36.565,229.023,38.317z"/>
			</g>
		</g>
	</g>
</g>
<g id="number__x26__sign">
	<g>
		<g>
			<path fill="#3DB54A" stroke="#91BE49" stroke-width="4" stroke-miterlimit="10" d="M53.101,66.916l13.705,2.17l0.228,11.42
				l-15.417,1.143l0.685,13.704l-14.846,1.941l0.86-15.043l-14.223,1.11l0.142-14.122l14.363-1.639l-0.686-13.362l14.903-0.646
				L53.101,66.916z"/>
		</g>
	</g>
	<g>
		<g>
			<path fill="#3DB54A" stroke="#91BE49" stroke-width="4" stroke-miterlimit="10" d="M51.457,65.271l13.705,2.17l0.228,11.42
				l-15.417,1.143l0.685,13.704L35.811,95.65l0.86-15.043l-14.222,1.11l0.142-14.121l14.362-1.64l-0.686-13.362l14.903-0.646
				L51.457,65.271z"/>
		</g>
	</g>
	<g>
		<g>
			<path fill="#F2F2F2" stroke="#F2F2F2" stroke-width="0.5" stroke-miterlimit="10" d="M51.691,65.484l13.639,2.551l-0.09,11.423
				L49.797,80.17l0.303,13.718l-14.895,1.527l1.278-15.013l-14.248,0.713l0.535-14.111l14.402-1.239L36.86,52.389l14.916-0.23
				L51.691,65.484z"/>
		</g>
	</g>
	<g>
		<g>
			<path fill="#1E9647" stroke="#F2F2F2" stroke-width="0.5" stroke-miterlimit="10" d="M51.457,65.271l13.705,2.17l0.228,11.42
				l-15.417,1.143l0.685,13.704L35.811,95.65l0.86-15.043l-14.222,1.11l0.142-14.121l14.362-1.64l-0.686-13.362l14.903-0.646
				L51.457,65.271z"/>
		</g>
	</g>
	<polygon fill="#91BE49" points="54.698,51.486 53.075,49.824 52.285,52.356 	"/>
	<polygon fill="#91BE49" points="23.768,82.53 20.445,83.835 22.067,85.497 24.125,82.57 	"/>
	<polygon fill="#91BE49" points="68.776,67.438 67.034,65.747 66.034,67.784 	"/>
	<polygon fill="#91BE49" points="35.387,99.611 33.631,97.897 37.144,96.309 	"/>
	<path fill="#91BE49" d="M136.759,104.375l-46.012,0.083l-3.489-2.313l24.632-25.052c4.266-3.139,5.554-5.634,5.554-8.208
		c0-2.093-1.53-3.944-4.265-3.944c-4.83,0-6.6,3.059-6.6,7.726l-21.119-3.138c-0.279-2.036-0.342-2.585-0.342-2.585
		s10.383-21.8,31.382-21.8c14.971,0,19.133,11.587,19.133,22.131c0,6.439-3.14,12.072-11.75,17.625l-6.439,4.185l17.843-6.146
		l1.473,6.146V104.375z"/>
	<path fill="#91BE49" stroke="#91BE49" stroke-width="4" stroke-miterlimit="10" d="M133.316,100.141H89.213V87.103l19.235-14.246
		c4.265-3.14,5.554-5.634,5.554-8.209c0-2.093-1.53-3.944-4.266-3.944c-4.83,0-6.6,3.058-6.6,7.726L87.12,65.292
		c0.322-12.798,8.772-20.684,22.938-20.684c14.97,0,22.133,7.886,22.133,18.43c0,6.439-3.139,12.073-11.75,17.626l-6.438,4.185
		h19.314V100.141z"/>
	<path fill="#F2F2F2" stroke="#F2F2F2" stroke-width="0.5" stroke-miterlimit="10" d="M132.346,101.085l-43.76-1.839l0.543-12.936
		l19.678-13.333c4.363-2.937,5.746-5.359,5.853-7.914c0.087-2.076-1.354-3.977-4.068-4.09c-4.792-0.202-6.677,2.759-6.871,7.391
		l-15.759-3.782c0.853-12.684,9.566-20.157,23.621-19.566c14.853,0.624,21.63,8.747,21.191,19.208
		c-0.268,6.39-3.618,11.848-12.394,16.999l-6.562,3.884c0,0,5.696,0.789,9.623,1.312c3.924,0.522,9.493,0.637,9.493,0.637
		L132.346,101.085z"/>
	<path fill="#1E9647" stroke="#F2F2F2" stroke-width="0.5" stroke-miterlimit="10" d="M133.316,100.141H89.213V87.103l19.235-14.246
		c4.265-3.14,5.554-5.634,5.554-8.209c0-2.093-1.53-3.944-4.266-3.944c-4.83,0-6.6,3.058-6.6,7.726L87.12,65.292
		c0.322-12.798,8.772-20.684,22.938-20.684c14.97,0,22.133,7.886,22.133,18.43c0,6.439-3.139,12.073-11.75,17.626l-6.438,4.185
		c0,0,5.764,0.553,9.736,0.914c3.97,0.36,9.578,0.239,9.578,0.239V100.141z"/>
</g>
<g id="borders" display="none">
	<g display="inline">
		<defs>
			<rect id="SVGID_4_" width="261.144" height="153.143"/>
		</defs>
		<clipPath id="SVGID_5_">
			<use xlink:href="#SVGID_4_"  overflow="visible"/>
		</clipPath>
		
			<rect x="4.5" y="4.416" clip-path="url(#SVGID_5_)" fill="none" stroke="#363895" stroke-dasharray="3,3" width="252" height="144"/>
		<path clip-path="url(#SVGID_5_)" fill="#EF3839" d="M251,143H10V10h241V143z M252,8.999H9v135h243V8.999z"/>
		<path clip-path="url(#SVGID_5_)" fill="#51B848" d="M1,1h259.125v151.124H1V1z M0,153.124h261.125V0H0V153.124z"/>
	</g>
</g>
</svg>
