<?xml version="1.0" encoding="utf-8"?>
<!-- Generator: Adobe Illustrator 16.0.0, SVG Export Plug-In . SVG Version: 6.00 Build 0)  -->
<!DOCTYPE svg PUBLIC "-//W3C//DTD SVG 1.1//EN" "http://www.w3.org/Graphics/SVG/1.1/DTD/svg11.dtd">
<svg version="1.1" xmlns="http://www.w3.org/2000/svg" xmlns:xlink="http://www.w3.org/1999/xlink" x="0px" y="0px"
	 width="261.144px" height="153.143px" viewBox="0 0 261.144 153.143" enable-background="new 0 0 261.144 153.143"
	 xml:space="preserve">
<pattern  y="153.143" width="127.841" height="157.914" patternUnits="userSpaceOnUse" id="New_Pattern_2" viewBox="21.519 -157.914 127.841 157.914" overflow="visible">
	<g>
		<polygon fill="none" points="21.519,-157.914 149.36,-157.914 149.36,0 21.519,0 		"/>
		<g>
			<line fill="none" stroke="#1E9647" stroke-miterlimit="10" x1="141.844" y1="-31.229" x2="120.949" y2="-10.334"/>
			<line fill="none" stroke="#1E9647" stroke-miterlimit="10" x1="144.957" y1="-27.907" x2="124.062" y2="-7.012"/>
			<line fill="none" stroke="#1E9647" stroke-miterlimit="10" x1="149.09" y1="-24.57" x2="128.195" y2="-3.676"/>
			<line fill="none" stroke="#1E9647" stroke-miterlimit="10" x1="152.203" y1="-21.248" x2="131.309" y2="-0.354"/>
		</g>
		<g>
			<line fill="none" stroke="#1E9647" stroke-miterlimit="10" x1="109.883" y1="-31.229" x2="88.989" y2="-10.334"/>
			<line fill="none" stroke="#1E9647" stroke-miterlimit="10" x1="112.996" y1="-27.907" x2="92.102" y2="-7.012"/>
			<line fill="none" stroke="#1E9647" stroke-miterlimit="10" x1="117.129" y1="-24.57" x2="96.234" y2="-3.676"/>
			<line fill="none" stroke="#1E9647" stroke-miterlimit="10" x1="120.242" y1="-21.248" x2="99.348" y2="-0.354"/>
		</g>
		<g>
			<line fill="none" stroke="#1E9647" stroke-miterlimit="10" x1="77.923" y1="-31.229" x2="57.029" y2="-10.334"/>
			<line fill="none" stroke="#1E9647" stroke-miterlimit="10" x1="81.036" y1="-27.907" x2="60.142" y2="-7.012"/>
			<line fill="none" stroke="#1E9647" stroke-miterlimit="10" x1="85.169" y1="-24.57" x2="64.274" y2="-3.676"/>
			<line fill="none" stroke="#1E9647" stroke-miterlimit="10" x1="88.282" y1="-21.248" x2="67.388" y2="-0.354"/>
		</g>
		<g>
			<line fill="none" stroke="#1E9647" stroke-miterlimit="10" x1="45.962" y1="-31.229" x2="25.068" y2="-10.334"/>
			<line fill="none" stroke="#1E9647" stroke-miterlimit="10" x1="49.076" y1="-27.907" x2="28.181" y2="-7.012"/>
			<line fill="none" stroke="#1E9647" stroke-miterlimit="10" x1="53.208" y1="-24.57" x2="32.314" y2="-3.676"/>
			<line fill="none" stroke="#1E9647" stroke-miterlimit="10" x1="56.322" y1="-21.248" x2="35.427" y2="-0.354"/>
		</g>
		<g>
			<line fill="none" stroke="#1E9647" stroke-miterlimit="10" x1="21.248" y1="-24.57" x2="0.354" y2="-3.676"/>
			<line fill="none" stroke="#1E9647" stroke-miterlimit="10" x1="24.361" y1="-21.248" x2="3.467" y2="-0.354"/>
		</g>
		<g>
			<line fill="none" stroke="#1E9647" stroke-miterlimit="10" x1="148.236" y1="-62.812" x2="127.342" y2="-41.917"/>
			<line fill="none" stroke="#1E9647" stroke-miterlimit="10" x1="151.35" y1="-59.49" x2="130.455" y2="-38.595"/>
			<line fill="none" stroke="#1E9647" stroke-miterlimit="10" x1="155.482" y1="-56.153" x2="134.588" y2="-35.259"/>
			<line fill="none" stroke="#1E9647" stroke-miterlimit="10" x1="158.596" y1="-52.831" x2="137.701" y2="-31.937"/>
		</g>
		<g>
			<line fill="none" stroke="#1E9647" stroke-miterlimit="10" x1="116.275" y1="-62.812" x2="95.381" y2="-41.917"/>
			<line fill="none" stroke="#1E9647" stroke-miterlimit="10" x1="119.389" y1="-59.49" x2="98.494" y2="-38.595"/>
			<line fill="none" stroke="#1E9647" stroke-miterlimit="10" x1="123.521" y1="-56.153" x2="102.626" y2="-35.259"/>
			<line fill="none" stroke="#1E9647" stroke-miterlimit="10" x1="126.635" y1="-52.831" x2="105.74" y2="-31.937"/>
		</g>
		<g>
			<line fill="none" stroke="#1E9647" stroke-miterlimit="10" x1="84.315" y1="-62.812" x2="63.421" y2="-41.917"/>
			<line fill="none" stroke="#1E9647" stroke-miterlimit="10" x1="87.428" y1="-59.49" x2="66.534" y2="-38.595"/>
			<line fill="none" stroke="#1E9647" stroke-miterlimit="10" x1="91.561" y1="-56.153" x2="70.667" y2="-35.259"/>
			<line fill="none" stroke="#1E9647" stroke-miterlimit="10" x1="94.674" y1="-52.831" x2="73.78" y2="-31.937"/>
		</g>
		<g>
			<line fill="none" stroke="#1E9647" stroke-miterlimit="10" x1="52.354" y1="-62.812" x2="31.46" y2="-41.917"/>
			<line fill="none" stroke="#1E9647" stroke-miterlimit="10" x1="55.468" y1="-59.49" x2="34.573" y2="-38.595"/>
			<line fill="none" stroke="#1E9647" stroke-miterlimit="10" x1="59.601" y1="-56.153" x2="38.706" y2="-35.259"/>
			<line fill="none" stroke="#1E9647" stroke-miterlimit="10" x1="62.714" y1="-52.831" x2="41.819" y2="-31.937"/>
		</g>
		<g>
			<line fill="none" stroke="#1E9647" stroke-miterlimit="10" x1="23.507" y1="-59.49" x2="2.613" y2="-38.595"/>
			<line fill="none" stroke="#1E9647" stroke-miterlimit="10" x1="27.64" y1="-56.153" x2="6.746" y2="-35.259"/>
			<line fill="none" stroke="#1E9647" stroke-miterlimit="10" x1="30.753" y1="-52.831" x2="9.859" y2="-31.937"/>
		</g>
		<g>
			<line fill="none" stroke="#1E9647" stroke-miterlimit="10" x1="154.628" y1="-94.395" x2="133.733" y2="-73.5"/>
			<line fill="none" stroke="#1E9647" stroke-miterlimit="10" x1="157.741" y1="-91.073" x2="136.847" y2="-70.178"/>
			<line fill="none" stroke="#1E9647" stroke-miterlimit="10" x1="161.874" y1="-87.736" x2="140.979" y2="-66.842"/>
			<line fill="none" stroke="#1E9647" stroke-miterlimit="10" x1="164.987" y1="-84.414" x2="144.093" y2="-63.52"/>
		</g>
		<g>
			<line fill="none" stroke="#1E9647" stroke-miterlimit="10" x1="122.667" y1="-94.395" x2="101.773" y2="-73.5"/>
			<line fill="none" stroke="#1E9647" stroke-miterlimit="10" x1="125.78" y1="-91.073" x2="104.886" y2="-70.178"/>
			<line fill="none" stroke="#1E9647" stroke-miterlimit="10" x1="129.913" y1="-87.736" x2="109.019" y2="-66.842"/>
			<line fill="none" stroke="#1E9647" stroke-miterlimit="10" x1="133.026" y1="-84.414" x2="112.132" y2="-63.52"/>
		</g>
		<g>
			<line fill="none" stroke="#1E9647" stroke-miterlimit="10" x1="90.707" y1="-94.395" x2="69.813" y2="-73.5"/>
			<line fill="none" stroke="#1E9647" stroke-miterlimit="10" x1="93.82" y1="-91.073" x2="72.926" y2="-70.178"/>
			<line fill="none" stroke="#1E9647" stroke-miterlimit="10" x1="97.953" y1="-87.736" x2="77.059" y2="-66.842"/>
			<line fill="none" stroke="#1E9647" stroke-miterlimit="10" x1="101.066" y1="-84.414" x2="80.172" y2="-63.52"/>
		</g>
		<g>
			<line fill="none" stroke="#1E9647" stroke-miterlimit="10" x1="58.747" y1="-94.395" x2="37.853" y2="-73.5"/>
			<line fill="none" stroke="#1E9647" stroke-miterlimit="10" x1="61.86" y1="-91.073" x2="40.965" y2="-70.178"/>
			<line fill="none" stroke="#1E9647" stroke-miterlimit="10" x1="65.993" y1="-87.736" x2="45.098" y2="-66.842"/>
			<line fill="none" stroke="#1E9647" stroke-miterlimit="10" x1="69.106" y1="-84.414" x2="48.211" y2="-63.52"/>
		</g>
		<g>
			<line fill="none" stroke="#1E9647" stroke-miterlimit="10" x1="26.786" y1="-94.395" x2="5.892" y2="-73.5"/>
			<line fill="none" stroke="#1E9647" stroke-miterlimit="10" x1="29.899" y1="-91.073" x2="9.005" y2="-70.178"/>
			<line fill="none" stroke="#1E9647" stroke-miterlimit="10" x1="34.032" y1="-87.736" x2="13.138" y2="-66.842"/>
			<line fill="none" stroke="#1E9647" stroke-miterlimit="10" x1="37.146" y1="-84.414" x2="16.251" y2="-63.52"/>
		</g>
		<g>
			<line fill="none" stroke="#1E9647" stroke-miterlimit="10" x1="161.02" y1="-125.978" x2="140.125" y2="-105.083"/>
			<line fill="none" stroke="#1E9647" stroke-miterlimit="10" x1="164.133" y1="-122.656" x2="143.238" y2="-101.761"/>
			<line fill="none" stroke="#1E9647" stroke-miterlimit="10" x1="168.266" y1="-119.319" x2="147.371" y2="-98.425"/>
		</g>
		<g>
			<line fill="none" stroke="#1E9647" stroke-miterlimit="10" x1="129.059" y1="-125.978" x2="108.165" y2="-105.083"/>
			<line fill="none" stroke="#1E9647" stroke-miterlimit="10" x1="132.172" y1="-122.656" x2="111.278" y2="-101.761"/>
			<line fill="none" stroke="#1E9647" stroke-miterlimit="10" x1="136.305" y1="-119.319" x2="115.41" y2="-98.425"/>
			<line fill="none" stroke="#1E9647" stroke-miterlimit="10" x1="139.418" y1="-115.997" x2="118.523" y2="-95.103"/>
		</g>
		<g>
			<line fill="none" stroke="#1E9647" stroke-miterlimit="10" x1="97.099" y1="-125.978" x2="76.205" y2="-105.083"/>
			<line fill="none" stroke="#1E9647" stroke-miterlimit="10" x1="100.212" y1="-122.656" x2="79.318" y2="-101.761"/>
			<line fill="none" stroke="#1E9647" stroke-miterlimit="10" x1="104.345" y1="-119.319" x2="83.451" y2="-98.425"/>
			<line fill="none" stroke="#1E9647" stroke-miterlimit="10" x1="107.458" y1="-115.997" x2="86.564" y2="-95.103"/>
		</g>
		<g>
			<line fill="none" stroke="#1E9647" stroke-miterlimit="10" x1="65.139" y1="-125.978" x2="44.245" y2="-105.083"/>
			<line fill="none" stroke="#1E9647" stroke-miterlimit="10" x1="68.252" y1="-122.656" x2="47.357" y2="-101.761"/>
			<line fill="none" stroke="#1E9647" stroke-miterlimit="10" x1="72.385" y1="-119.319" x2="51.49" y2="-98.425"/>
			<line fill="none" stroke="#1E9647" stroke-miterlimit="10" x1="75.498" y1="-115.997" x2="54.604" y2="-95.103"/>
		</g>
		<g>
			<line fill="none" stroke="#1E9647" stroke-miterlimit="10" x1="33.178" y1="-125.978" x2="12.284" y2="-105.083"/>
			<line fill="none" stroke="#1E9647" stroke-miterlimit="10" x1="36.292" y1="-122.656" x2="15.397" y2="-101.761"/>
			<line fill="none" stroke="#1E9647" stroke-miterlimit="10" x1="40.424" y1="-119.319" x2="19.53" y2="-98.425"/>
			<line fill="none" stroke="#1E9647" stroke-miterlimit="10" x1="43.538" y1="-115.997" x2="22.643" y2="-95.103"/>
		</g>
		<g>
			<line fill="none" stroke="#1E9647" stroke-miterlimit="10" x1="167.412" y1="-157.561" x2="146.518" y2="-136.666"/>
			<line fill="none" stroke="#1E9647" stroke-miterlimit="10" x1="170.525" y1="-154.239" x2="149.631" y2="-133.344"/>
		</g>
		<g>
			<line fill="none" stroke="#1E9647" stroke-miterlimit="10" x1="135.451" y1="-157.561" x2="114.558" y2="-136.666"/>
			<line fill="none" stroke="#1E9647" stroke-miterlimit="10" x1="138.564" y1="-154.239" x2="117.67" y2="-133.344"/>
			<line fill="none" stroke="#1E9647" stroke-miterlimit="10" x1="142.697" y1="-150.902" x2="121.803" y2="-130.008"/>
			<line fill="none" stroke="#1E9647" stroke-miterlimit="10" x1="145.811" y1="-147.58" x2="124.916" y2="-126.686"/>
		</g>
		<g>
			<line fill="none" stroke="#1E9647" stroke-miterlimit="10" x1="103.491" y1="-157.561" x2="82.597" y2="-136.666"/>
			<line fill="none" stroke="#1E9647" stroke-miterlimit="10" x1="106.604" y1="-154.239" x2="85.71" y2="-133.344"/>
			<line fill="none" stroke="#1E9647" stroke-miterlimit="10" x1="110.737" y1="-150.902" x2="89.843" y2="-130.008"/>
			<line fill="none" stroke="#1E9647" stroke-miterlimit="10" x1="113.851" y1="-147.58" x2="92.956" y2="-126.686"/>
		</g>
		<g>
			<line fill="none" stroke="#1E9647" stroke-miterlimit="10" x1="71.531" y1="-157.561" x2="50.637" y2="-136.666"/>
			<line fill="none" stroke="#1E9647" stroke-miterlimit="10" x1="74.644" y1="-154.239" x2="53.75" y2="-133.344"/>
			<line fill="none" stroke="#1E9647" stroke-miterlimit="10" x1="78.777" y1="-150.902" x2="57.882" y2="-130.008"/>
			<line fill="none" stroke="#1E9647" stroke-miterlimit="10" x1="81.89" y1="-147.58" x2="60.996" y2="-126.686"/>
		</g>
		<g>
			<line fill="none" stroke="#1E9647" stroke-miterlimit="10" x1="39.57" y1="-157.561" x2="18.676" y2="-136.666"/>
			<line fill="none" stroke="#1E9647" stroke-miterlimit="10" x1="42.684" y1="-154.239" x2="21.789" y2="-133.344"/>
			<line fill="none" stroke="#1E9647" stroke-miterlimit="10" x1="46.816" y1="-150.902" x2="25.922" y2="-130.008"/>
			<line fill="none" stroke="#1E9647" stroke-miterlimit="10" x1="49.93" y1="-147.58" x2="29.035" y2="-126.686"/>
		</g>
	</g>
</pattern>
<pattern  y="153.143" width="123" height="124" patternUnits="userSpaceOnUse" id="New_Pattern_4" viewBox="0 -124 123 124" overflow="visible">
	<g>
		<polygon fill="none" points="0,-124 123,-124 123,0 0,0 		"/>
		<path fill="#F2D03A" d="M52.275-49.22c-4.082-2.972-5.48-6.909-5.382-11.84c0.183-6.759,0.551-13.437,0.915-20.206
			c0.052-0.732,0.104-1.465,0.247-2.201c1.993,1.442,4.394,3.684,5.521,5.994c1.733,3.372,3.406,2.279,6.953,2.088
			c1.818-0.099,3.571,0.263,5.304,0.26c1.279,0.022,2.148-0.754,3.205-1.449c1.051-0.785,2.23-1.563,3.415-2.367l4.656-3.541
			c-0.361,1.752,0.015,3.646-0.073,5.385c-0.135,2.561-0.548,5.045-0.684,7.607c-0.191,3.202,0.187,6.83-0.46,10.057
			c-0.495,2.672-2.193,6.686-4.388,8.264c-1.319,0.892-2.888,2.254-4.309,2.969c-1.512,0.719-3.537,0.373-5.25,0.738
			C58.43-46.725,55.409-46.926,52.275-49.22z M69.184-62.082c5.743-0.036,4.328-9.354-1.037-9.064l0.393,0.526
			C63.872-70.915,64.074-62.078,69.184-62.082z M53.672-70.638l0.768,0.688c-3.871-2.437-7.127,4.854-2.729,6.896
			C58.263-59.941,59.285-71.397,53.672-70.638z M57.158-51.957c1.625-0.086,2.752-0.916,3.42-1.609
			c0.104,0.591,0.278,1.003,0.556,1.107c1.364,0.516,4.283,1.422,6.937-3.021c0,0-0.864-0.496-1.008-0.238
			c-0.141,0.258-1.542,2.312-2.891,2.259c0,0-1.842,0.819-2.438,0.168c-0.646-0.704-0.696-4.549-0.55-6.591
			c1.059-0.344,3.104-1.168,2.146-2.135c-1.268-1.281-5.266-0.209-5.266-0.209c-0.127,1.533,2.537,2.518,2.537,2.518
			s0.047-0.012,0.125-0.033c-0.138,1.258-0.316,3.266-0.266,4.859c-1.059,1.458-2.102,2.096-3.734,2.184
			c-1.408,0.076-2.734-2.516-2.734-2.516s0.335-0.176-0.462-0.019C52.732-55.076,54.318-51.805,57.158-51.957z"/>
		<path fill="#F2D03A" d="M55.742-67.975l0.086-0.096c-0.924-0.223-2.414-0.781-3.289-0.095c-0.875,0.685-0.695,2.317,0.071,3.005
			C54.437-63.434,57.967-65.631,55.742-67.975z"/>
		<path fill="#F2D03A" d="M69.791-64.537c3.591,0.627,2.118-4.675-0.777-4.244l0.92,0.132
			C67.009-68.764,67.396-64.955,69.791-64.537z"/>
		<path fill="#F2D03A" d="M113.776-108.446c2.998,2.194,5.898,2.463,9.224,1.837v-4.945c-0.131-0.045-0.255-0.088-0.365-0.131
			c-0.277-0.104-0.453-0.517-0.557-1.107c-0.668,0.693-1.795,1.523-3.42,1.609c-2.84,0.152-4.425-3.119-3.627-3.276
			c0.797-0.157,0.461,0.019,0.461,0.019s1.327,2.592,2.734,2.516c1.633-0.088,2.676-0.726,3.734-2.184
			c-0.05-1.594,0.129-3.602,0.266-4.859c-0.078,0.021-0.124,0.033-0.124,0.033s-2.665-0.984-2.538-2.518
			c0,0,1.853-0.496,3.436-0.409V-124h-4.579c-0.74,1.801-2.501,3.007-5.21,1.721c-0.873-0.406-1.439-1.02-1.765-1.721h-2.929
			c-0.045,1.236-0.09,2.473-0.123,3.714C108.295-115.355,109.693-111.418,113.776-108.446z"/>
		<path fill="#F2D03A" d="M123-112.983v-6.233c-0.111,0.039-0.219,0.076-0.316,0.107C122.559-117.35,122.579-114.258,123-112.983z"
			/>
		<path fill="#F2D03A" d="M116.725-124h-2.034C115.352-123.685,116.105-123.723,116.725-124z"/>
		<path fill="#F2D03A" d="M115.078-12.699c-1.129-2.311-3.529-4.552-5.521-5.994c-0.145,0.736-0.195,1.469-0.247,2.201
			c-0.298,5.526-0.593,10.994-0.792,16.492h2.929c-1.312-2.834,1.391-7.129,4.493-5.176l-0.768-0.688
			c3.293-0.446,4.299,3.31,3.249,5.864H123v-10.612c-0.322-0.007-0.644-0.017-0.969,0.001
			C118.484-10.42,116.811-9.327,115.078-12.699z"/>
		<path fill="#F2D03A" d="M117.243-3.201l0.085-0.096c-0.924-0.223-2.414-0.781-3.288-0.095c-0.875,0.685-0.696,2.317,0.071,3.005
			c0.178,0.168,0.375,0.289,0.579,0.387h2.034C117.871-0.514,118.545-1.829,117.243-3.201z"/>
		<path fill="#F2D03A" d="M5.697-107.428c1.422-0.715,2.99-2.077,4.309-2.969c2.195-1.578,3.894-5.592,4.389-8.264
			c0.342-1.709,0.396-3.529,0.4-5.34h-3.578c-0.383,1.498-1.502,2.679-3.533,2.691c-1.879,0.002-3.088-1.195-3.641-2.691H0v2.138
			c0.742,0.041,1.426,0.208,1.83,0.618c0.87,0.879-0.734,1.637-1.83,2.027v6.233c0.067,0.205,0.145,0.367,0.234,0.465
			c0.597,0.651,2.438-0.168,2.438-0.168c1.35,0.054,2.75-2.001,2.892-2.259c0.144-0.258,1.007,0.238,1.007,0.238
			c-2.438,4.082-5.096,3.649-6.57,3.152v4.945c0.15-0.028,0.296-0.048,0.447-0.08C2.16-107.055,4.186-106.709,5.697-107.428z"/>
		<path fill="#F2D03A" d="M9.846-124H7.622c0.202,0.107,0.423,0.193,0.669,0.236C8.999-123.641,9.504-123.752,9.846-124z"/>
		<path fill="#F2D03A" d="M14.854-4.717c0.137-2.562,0.549-5.047,0.684-7.607c0.088-1.738-0.287-3.633,0.074-5.385l-4.656,3.541
			c-1.185,0.804-2.365,1.582-3.416,2.367c-1.057,0.695-1.926,1.472-3.205,1.449C2.912-10.35,1.475-10.579,0-10.612V0h4.043
			C3.091-2.572,4.089-6.033,7.04-5.847L6.646-6.373C10.115-6.56,11.916-2.74,11.217,0h3.578C14.799-1.609,14.764-3.211,14.854-4.717
			z"/>
		<path fill="#F2D03A" d="M7.515-4.008l0.919,0.132C5.811-3.979,5.857-0.932,7.622,0h2.224C11.24-1.01,9.839-4.354,7.515-4.008z"/>
		<polygon fill="#F2D03A" points="31,-97 31,-100 25,-100 25,-97 		"/>
		<polygon fill="#F2D03A" points="22,-100 17,-100 17,-97 22,-97 		"/>
		<polygon fill="#F2D03A" points="25,-105 22,-105 22,-100 25,-100 		"/>
		<polygon fill="#F2D03A" points="22,-91 25,-91 25,-97 22,-97 		"/>
		<polygon fill="#F2D03A" points="25,-97 25,-100 22,-100 22,-97 		"/>
		<polygon fill="#F2D03A" points="69,-123 69,-124 63,-124 63,-123 		"/>
		<polygon fill="#F2D03A" points="60,-123 60,-124 55,-124 55,-123 		"/>
		<polygon fill="#F2D03A" points="60,-117 63,-117 63,-123 60,-123 		"/>
		<polygon fill="#F2D03A" points="63,-123 63,-124 60,-124 60,-123 		"/>
		<polygon fill="#F2D03A" points="55,-2 55,0 60,0 60,-2 		"/>
		<polygon fill="#F2D03A" points="69,-2 63,-2 63,0 69,0 		"/>
		<polygon fill="#F2D03A" points="60,-7 60,-2 63,-2 63,-7 		"/>
		<polygon fill="#F2D03A" points="60,-2 60,0 63,0 63,-2 		"/>
		<polygon fill="#F2D03A" points="89,-35 83,-35 83,-32 89,-32 		"/>
		<polygon fill="#F2D03A" points="97,-32 97,-35 92,-35 92,-32 		"/>
		<polygon fill="#F2D03A" points="89,-26 92,-26 92,-32 89,-32 		"/>
		<polygon fill="#F2D03A" points="92,-40 89,-40 89,-35 92,-35 		"/>
		<polygon fill="#F2D03A" points="92,-32 92,-35 89,-35 89,-32 		"/>
		<polygon fill="#F2D03A" points="18,-30 32,-30 32,-33 18,-33 		"/>
		<polygon fill="#F2D03A" points="7,-68 0,-68 0,-65 7,-65 		"/>
		<polygon fill="#F2D03A" points="117,-65 123,-65 123,-68 117,-68 		"/>
		<polygon fill="#F2D03A" points="97,-100 83,-100 83,-97 97,-97 		"/>
	</g>
</pattern>
<g id="background_1_">
	
		<radialGradient id="SVGID_1_" cx="81.8613" cy="76.4575" r="125.1703" gradientTransform="matrix(1 0 0 1.3094 0 -23.6521)" gradientUnits="userSpaceOnUse">
		<stop  offset="0" style="stop-color:#F6E867"/>
		<stop  offset="0.3095" style="stop-color:#F6E45F"/>
		<stop  offset="0.7616" style="stop-color:#F3D849"/>
		<stop  offset="1" style="stop-color:#F2D13B"/>
	</radialGradient>
	<rect x="0.056" y="-0.229" fill="url(#SVGID_1_)" width="163.611" height="153.372"/>
	<pattern  id="SVGID_2_" xlink:href="#New_Pattern_4" patternTransform="matrix(0.3319 0 0 0.3392 -5360.1426 -5473.5981)">
	</pattern>
	<rect x="0.266" y="-0.252" fill="url(#SVGID_2_)" width="260.918" height="153.418"/>
	<path fill="#1E9647" d="M261.144,0H151.5c8.218,48.924-1.142,98.108,2.894,147.143c0.043,1.621,0.076,4.32,0.106,6l106.646-1.422
		L261.144,0z"/>
	<path fill="#F2623D" d="M261.144-0.229H155.55c6.926,49.124-2.654,98.248,0.089,147.372c0,1.622-0.037,4.321-0.052,6h105.557
		V-0.229z"/>
	<path fill="#91BE49" d="M261.184-0.287H155.51c6.932,49.161-2.656,98.322,0.089,147.483c0,1.623-0.037,4.324-0.052,6.005h105.637
		V-0.287z"/>
	<pattern  id="SVGID_3_" xlink:href="#New_Pattern_2" patternTransform="matrix(0.3763 0 0 0.3763 -4955.7178 -5196.7305)">
	</pattern>
	<path fill="url(#SVGID_3_)" d="M261.188-0.293H155.331c6.944,49.246-2.66,98.493,0.09,147.739c0,1.625-0.038,4.332-0.052,6.016
		h105.819V-0.293z"/>
	<text transform="matrix(1 0 0 1 200.8672 143.6157)"><tspan x="0" y="0" fill="#F6E867" font-family="'PlutoRegular'" font-size="5">Cat Math Do © </tspan><tspan x="40.274" y="0" fill="#F6E867" font-family="'PlutoRegular'" font-size="4">2014</tspan></text>
</g>
<g id="cats_copy">
	<g>
		<g>
			<g>
				<path fill="#1D427D" d="M202.142,93.772l-0.646-0.99c-1.436,0.831-7.9,6.339-9.184,7.158c-1.279,0.717-2.35,1.549-3.824,1.415
					c-2.004-0.143-4.006-0.701-6.114-0.74c-4.123-0.072-7.67,1.317-9.397-2.727c-1.114-2.769-2.184-5.819-4.365-7.649
					c-0.231,0.839-0.352,1.687-0.472,2.524c-0.977,7.801-1.955,15.499-2.723,23.303c-0.521,5.694,0.771,10.367,5.248,14.14
					c3.438,2.91,6.917,3.396,11.046,2.832c2.013-0.282,4.327,0.285,6.13-0.426c1.709-0.709,3.632-2.152,5.229-3.075
					c2.673-1.646,4.968-6.146,5.764-9.198c1.011-3.682,0.87-7.908,1.359-11.602c0.366-2.947,1.05-5.788,1.418-8.739
					C201.854,97.995,201.575,95.767,202.142,93.772z M171.15,114.159c-4.918-2.726-0.554-10.893,3.728-7.755l-0.831-0.859
					C180.604,105.126,178.479,118.295,171.15,114.159z M181.181,127.191c-0.313-0.144-0.482-0.636-0.553-1.329
					c-0.83,0.745-2.204,1.616-4.089,1.581c-3.3-0.059-4.862-3.975-3.926-4.092c0.93-0.115,0.531,0.061,0.531,0.061
					s1.319,3.108,2.955,3.14c1.895,0.029,3.157-0.623,4.501-2.224c0.073-1.845,0.445-4.151,0.71-5.6
					c-0.093,0.02-0.15,0.03-0.15,0.03s-2.998-1.358-2.725-3.121c0,0,4.713-0.914,6.072,0.675c1.03,1.198-1.404,1.982-2.659,2.293
					c-0.335,2.352-0.597,6.805,0.095,7.67c0.635,0.805,2.835,0.009,2.835,0.009c1.553,0.171,3.342-2.088,3.53-2.374
					c0.188-0.291,1.146,0.357,1.146,0.357C186.017,129.187,182.714,127.901,181.181,127.191z M191.285,116.72
					c-5.911-0.419-5.417-10.659-0.039-9.93l-0.414-0.643C197.063,106.256,197.932,117.154,191.285,116.72z"/>
			</g>
		</g>
		<polygon fill="#F2F2F2" points="196.104,103.822 168.381,102.738 166.7,121.673 180.633,131.798 197.158,122.222 		"/>
		<g>
			<g>
				<g>
					<path fill="#4478BC" d="M201.495,92.782l-5.683,3.71c-1.435,0.83-2.864,1.639-4.143,2.455
						c-1.281,0.719-2.354,1.549-3.832,1.414c-2.001-0.138-4.001-0.7-6.111-0.738c-4.12-0.073-6.142,1.058-7.87-2.984
						c-1.118-2.768-3.71-5.559-5.896-7.394c-0.228,0.841-0.345,1.686-0.464,2.527c-0.981,7.798-1.958,15.498-2.725,23.302
						c-0.522,5.691,0.771,10.369,5.249,14.138c3.437,2.913,6.916,3.396,11.043,2.834c2.014-0.284,4.327,0.287,6.131-0.426
						c1.71-0.709,3.629-2.15,5.232-3.077c2.669-1.645,4.965-6.147,5.76-9.197c1.013-3.682,0.873-7.906,1.358-11.599
						c0.367-2.951,1.052-5.789,1.418-8.742C201.208,97.003,200.933,94.776,201.495,92.782z M170.505,113.164
						c-4.92-2.724-0.552-10.89,3.728-7.754l-0.832-0.857C179.959,104.136,177.833,117.303,170.505,113.164z M180.533,126.198
						c-0.31-0.146-0.48-0.637-0.551-1.33c-0.83,0.749-2.201,1.615-4.087,1.582c-3.301-0.059-4.862-3.975-3.928-4.09
						c0.93-0.117,0.528,0.058,0.528,0.058s1.325,3.112,2.96,3.14c1.894,0.03,3.154-0.622,4.498-2.223
						c0.076-1.846,0.445-4.15,0.709-5.598c-0.09,0.019-0.148,0.031-0.148,0.031s-2.998-1.36-2.725-3.119c0,0,4.711-0.916,6.073,0.67
						c1.029,1.199-1.407,1.986-2.659,2.292c-0.338,2.353-0.599,6.806,0.092,7.674c0.636,0.8,2.839,0.005,2.839,0.005
						c1.55,0.175,3.34-2.087,3.529-2.374c0.186-0.286,1.141,0.361,1.141,0.361C185.37,128.195,182.07,126.907,180.533,126.198z
						 M190.642,115.728c-5.914-0.419-5.417-10.657-0.04-9.934l-0.416-0.64C196.42,105.262,197.287,116.161,190.642,115.728z"/>
				</g>
			</g>
			<g>
				<path fill="#4478BC" d="M175.574,107.801l0.107-0.103c-1.048-0.336-2.729-1.103-3.793-0.381c-1.07,0.72-0.999,2.624-0.168,3.485
					C173.692,112.949,177.954,110.697,175.574,107.801z"/>
			</g>
			<g>
				<path fill="#4478BC" d="M190.997,107.963l1.053,0.228c-3.377-0.374-3.238,4.065-0.507,4.745
					C195.648,113.958,194.383,107.704,190.997,107.963z"/>
			</g>
		</g>
	</g>
	<g>
		<g>
			<g>
				<path fill="#1D427D" d="M242.097,50.659l-0.896-0.754c-1.118,1.198-5.666,8.257-6.647,9.398
					c-1.006,1.043-1.782,2.136-3.217,2.431c-1.937,0.437-3.992,0.479-5.998,1.044c-3.924,1.108-6.886,3.436-9.676,0.101
					c-1.844-2.303-3.726-4.885-6.314-5.996c0.021,0.861,0.149,1.698,0.274,2.526c1.302,7.662,2.572,15.229,4.075,22.834
					c1.131,5.54,3.688,9.594,9.003,11.888c4.083,1.774,7.516,1.24,11.262-0.471c1.826-0.843,4.179-0.967,5.683-2.153
					c1.415-1.16,2.824-3.073,4.073-4.404c2.061-2.321,2.947-7.236,2.829-10.354c-0.094-3.772-1.433-7.732-2.024-11.368
					c-0.494-2.895-0.658-5.779-1.151-8.678C243.031,54.737,242.131,52.709,242.097,50.659z M218.581,78.802
					c-5.434-1.176-3.634-10.152,1.315-8.404l-1.033-0.577C224.952,67.555,226.698,80.626,218.581,78.802z M231.794,88.275
					c-0.336-0.046-0.638-0.464-0.901-1.099c-0.573,0.941-1.623,2.158-3.421,2.664c-3.14,0.885-5.735-2.376-4.884-2.753
					c0.848-0.375,0.52-0.095,0.52-0.095s2.139,2.564,3.695,2.128c1.802-0.514,2.81-1.491,3.626-3.39
					c-0.457-1.769-0.764-4.057-0.926-5.503c-0.083,0.045-0.135,0.071-0.135,0.071s-3.226-0.43-3.47-2.176c0,0,4.2-2.212,5.941-1.095
					c1.317,0.839-0.763,2.277-1.864,2.929c0.354,2.322,1.379,6.61,2.279,7.233c0.83,0.581,2.686-0.801,2.686-0.801
					c1.521-0.28,2.569-2.929,2.665-3.256c0.095-0.327,1.187,0.013,1.187,0.013C236.941,88.786,233.449,88.51,231.794,88.275z
					 M238.372,75.48c-5.716,1.29-8.17-8.543-2.872-9.389l-0.576-0.489C240.854,63.926,244.786,73.994,238.372,75.48z"/>
			</g>
		</g>
		<polygon fill="#F2F2F2" points="239.25,61.896 212.7,68.783 216.512,87.187 232.591,92.793 245.501,79.012 		"/>
		<g>
			<g>
				<g>
					<path fill="#4478BC" d="M241.201,49.905l-4.317,5.135c-1.121,1.195-2.244,2.369-3.221,3.507
						c-1.009,1.045-1.788,2.137-3.224,2.431c-1.934,0.441-3.986,0.48-5.996,1.047c-3.922,1.106-5.512,2.753-8.302-0.58
						c-1.849-2.301-5.098-4.204-7.691-5.315c0.023,0.861,0.154,1.694,0.281,2.524c1.298,7.662,2.57,15.23,4.072,22.836
						c1.13,5.537,3.688,9.596,9.004,11.885c4.083,1.775,7.516,1.239,11.26-0.469c1.828-0.845,4.18-0.965,5.685-2.154
						c1.416-1.16,2.821-3.071,4.073-4.406c2.059-2.317,2.945-7.235,2.828-10.35c-0.092-3.773-1.432-7.734-2.023-11.368
						c-0.496-2.898-0.658-5.78-1.153-8.681C242.138,53.985,241.24,51.955,241.201,49.905z M217.687,78.043
						c-5.436-1.174-3.632-10.148,1.313-8.403l-1.03-0.575C224.06,66.8,225.806,79.873,217.687,78.043z M230.898,87.521
						c-0.335-0.052-0.636-0.466-0.9-1.103c-0.574,0.946-1.623,2.157-3.418,2.665c-3.141,0.887-5.737-2.374-4.886-2.751
						c0.848-0.375,0.518-0.096,0.518-0.096s2.142,2.566,3.698,2.126c1.8-0.512,2.808-1.489,3.623-3.387
						c-0.455-1.77-0.762-4.058-0.928-5.502c-0.078,0.043-0.132,0.072-0.132,0.072s-3.225-0.433-3.468-2.177
						c0,0,4.199-2.209,5.94-1.097c1.315,0.84-0.766,2.281-1.861,2.928c0.35,2.322,1.374,6.612,2.274,7.238
						c0.83,0.575,2.688-0.806,2.688-0.806c1.518-0.279,2.566-2.93,2.664-3.256c0.093-0.323,1.183,0.018,1.183,0.018
						C236.046,88.03,232.556,87.753,230.898,87.521z M237.479,74.725c-5.719,1.291-8.171-8.543-2.874-9.393l-0.575-0.486
						C239.962,63.169,243.894,73.238,237.479,74.725z"/>
				</g>
			</g>
			<g>
				<path fill="#4478BC" d="M220.954,71.521l0.071-0.128c-1.088-0.018-2.898-0.263-3.699,0.724
					c-0.807,0.986-0.196,2.768,0.837,3.346C220.642,76.931,224.033,73.584,220.954,71.521z"/>
			</g>
			<g>
				<path fill="#4478BC" d="M235.597,67.274l1.063-0.085c-3.303,0.608-1.903,4.771,0.875,4.637
					C241.713,71.62,238.73,66.062,235.597,67.274z"/>
			</g>
		</g>
	</g>
	<g>
		<g>
			<g>
				<path fill="#1D427D" d="M208.262,25.692l-0.432-1.088c-1.553,0.525-8.901,4.588-10.306,5.129
					c-1.382,0.441-2.583,1.037-3.987,0.617c-1.91-0.532-3.74-1.468-5.775-1.921c-3.98-0.881-7.691-0.236-8.569-4.494
					c-0.534-2.901-0.969-6.067-2.723-8.271c-0.389,0.767-0.673,1.565-0.954,2.355c-2.481,7.363-4.947,14.63-7.226,22.04
					c-1.629,5.415-1.296,10.196,2.3,14.733c2.756,3.497,6.031,4.652,10.143,4.919c2.007,0.124,4.136,1.129,6.021,0.796
					c1.798-0.352,3.945-1.37,5.676-1.95c2.914-1.069,6.022-4.977,7.396-7.779c1.703-3.366,2.4-7.49,3.601-10.971
					c0.936-2.784,2.157-5.401,3.097-8.188C207.152,29.725,207.321,27.513,208.262,25.692z M174.222,39.341
					c-4.229-3.61,1.607-10.662,5.138-6.779l-0.637-0.997C185.159,32.453,180.507,44.791,174.222,39.341z M181.37,53.942
					c-0.272-0.2-0.339-0.709-0.271-1.394c-0.952,0.557-2.453,1.131-4.274,0.725c-3.184-0.707-3.926-4.808-2.998-4.737
					c0.924,0.071,0.503,0.163,0.503,0.163s0.669,3.271,2.246,3.624c1.83,0.401,3.181,0.017,4.799-1.269
					c0.434-1.773,1.249-3.934,1.792-5.284c-0.097,0-0.153-0.001-0.153-0.001s-2.637-1.907-2.024-3.561c0,0,4.746,0.043,5.749,1.851
					c0.764,1.363-1.75,1.644-3.026,1.696c-0.789,2.212-1.918,6.475-1.419,7.451c0.456,0.905,2.743,0.566,2.743,0.566
					c1.473,0.472,3.649-1.363,3.89-1.605c0.237-0.243,1.04,0.572,1.04,0.572C185.663,56.829,182.718,54.933,181.37,53.942z
					 M193.225,45.788c-5.646-1.571-3.148-11.394,1.918-9.63l-0.277-0.703C200.883,36.788,199.578,47.516,193.225,45.788z"/>
			</g>
		</g>
		<polygon fill="#F2F2F2" points="200.433,34.239 173.788,27.731 168.428,45.746 179.934,58.298 197.831,52.275 		"/>
		<g>
			<g>
				<g>
					<path fill="#4478BC" d="M207.83,24.604l-6.234,2.478c-1.554,0.521-3.099,1.023-4.498,1.562
						c-1.384,0.444-2.586,1.037-3.99,0.616c-1.913-0.528-3.739-1.466-5.775-1.918c-3.979-0.883-6.16-0.185-7.04-4.442
						c-0.538-2.902-2.498-6.118-4.256-8.325c-0.387,0.77-0.667,1.566-0.947,2.356c-2.486,7.364-4.949,14.63-7.229,22.042
						c-1.628,5.412-1.295,10.199,2.3,14.732c2.757,3.497,6.033,4.651,10.142,4.92c2.009,0.122,4.137,1.128,6.024,0.793
						c1.797-0.351,3.94-1.37,5.675-1.951c2.911-1.067,6.021-4.977,7.393-7.777c1.708-3.367,2.402-7.489,3.602-10.971
						c0.936-2.787,2.157-5.401,3.096-8.191C206.722,28.64,206.895,26.427,207.83,24.604z M173.793,38.25
						c-4.232-3.608,1.608-10.659,5.137-6.779l-0.638-0.996C184.729,31.365,180.077,43.705,173.793,38.25z M180.94,52.854
						c-0.271-0.204-0.34-0.71-0.271-1.398c-0.952,0.562-2.451,1.132-4.272,0.729c-3.187-0.708-3.928-4.81-3-4.738
						c0.925,0.072,0.502,0.161,0.502,0.161s0.671,3.274,2.249,3.624c1.83,0.402,3.179,0.019,4.796-1.266
						c0.438-1.774,1.251-3.935,1.789-5.285c-0.09,0-0.151,0-0.151,0s-2.636-1.907-2.023-3.559c0,0,4.744,0.042,5.751,1.847
						c0.761,1.363-1.754,1.646-3.025,1.696c-0.792,2.211-1.921,6.476-1.424,7.453c0.459,0.899,2.749,0.564,2.749,0.564
						c1.469,0.472,3.648-1.365,3.888-1.606c0.234-0.24,1.033,0.576,1.033,0.576C185.233,55.739,182.289,53.842,180.94,52.854z
						 M192.796,44.701c-5.647-1.571-3.148-11.394,1.917-9.634l-0.276-0.7C200.456,35.698,199.151,46.429,192.796,44.701z"/>
				</g>
			</g>
			<g>
				<path fill="#4478BC" d="M179.76,34.052l0.123-0.079c-0.95-0.53-2.428-1.604-3.601-1.113c-1.179,0.484-1.485,2.344-0.848,3.342
					C176.922,38.668,181.495,37.327,179.76,34.052z"/>
			</g>
			<g>
				<path fill="#4478BC" d="M194.668,37.247l0.975,0.428c-3.194-1.029-3.936,3.301-1.425,4.498
					C197.995,43.97,198.002,37.662,194.668,37.247z"/>
			</g>
		</g>
	</g>
</g>
<g id="number__x26__sign">
	<g>
		<g>
			<path fill="#3DB54A" stroke="#91BE49" stroke-width="4" stroke-miterlimit="10" d="M53.101,66.916l13.705,2.17l0.228,11.42
				l-15.417,1.143l0.685,13.704l-14.846,1.941l0.86-15.043l-14.223,1.11l0.142-14.122l14.363-1.639l-0.686-13.362l14.903-0.646
				L53.101,66.916z"/>
		</g>
	</g>
	<g>
		<g>
			<path fill="#3DB54A" stroke="#91BE49" stroke-width="4" stroke-miterlimit="10" d="M51.457,65.271l13.705,2.17l0.228,11.42
				l-15.417,1.143l0.685,13.704L35.811,95.65l0.86-15.043l-14.222,1.11l0.142-14.121l14.362-1.64l-0.686-13.362l14.903-0.646
				L51.457,65.271z"/>
		</g>
	</g>
	<g>
		<g>
			<path fill="#F2F2F2" stroke="#F2F2F2" stroke-width="0.5" stroke-miterlimit="10" d="M51.691,65.484l13.639,2.551l-0.09,11.423
				L49.797,80.17l0.303,13.718l-14.895,1.527l1.278-15.013l-14.248,0.713l0.535-14.111l14.402-1.239L36.86,52.389l14.916-0.23
				L51.691,65.484z"/>
		</g>
	</g>
	<g>
		<g>
			<path fill="#1E9647" stroke="#F2F2F2" stroke-width="0.5" stroke-miterlimit="10" d="M51.457,65.271l13.705,2.17l0.228,11.42
				l-15.417,1.143l0.685,13.704L35.811,95.65l0.86-15.043l-14.222,1.11l0.142-14.121l14.362-1.64l-0.686-13.362l14.903-0.646
				L51.457,65.271z"/>
		</g>
	</g>
	<polygon fill="#91BE49" points="54.698,51.486 53.075,49.824 52.285,52.356 	"/>
	<polygon fill="#91BE49" points="23.768,82.53 20.445,83.835 22.067,85.497 24.125,82.57 	"/>
	<polygon fill="#91BE49" points="68.776,67.438 67.034,65.747 66.034,67.784 	"/>
	<polygon fill="#91BE49" points="35.387,99.611 33.631,97.897 37.144,96.309 	"/>
	<rect x="98.173" y="60.898" fill="#91BE49" width="13.248" height="4.147"/>
	<polygon fill="#91BE49" points="113.521,87.601 98.193,87.601 91.729,80.176 113.521,80.685 	"/>
	<g>
		<path fill="#91BE49" d="M92.92,66.122l14.699,2.714c3.935,0.179,5.884-1.128,5.985-3.341c0.096-2.132-2.256-2.233-5.863-2.398
			c-5.164-0.235-11.654,0.807-14.401,1.584l-3.575-0.864L88.309,46.84c3.577-0.986,13.738,0.056,20.297,0.355
			c16.558,0.754,23.884,4.01,23.28,17.243c-0.232,5.164-1.965,8.785-7.783,10.328c6.717,2.195,8.953,7.304,8.613,14.763
			c-0.438,9.591-8.527,15.876-26.725,15.048c-7.46-0.341-15.56-2.844-18.388-3.878l-3.532-2.32L90.29,85.12
			c2.738,1.194,11.064,4.049,16.393,4.291c5,0.227,7.533-1.299,7.637-3.596c0.121-2.621-1.752-5.117-6.751-5.346l-15.26-0.823
			L92.92,66.122z"/>
	</g>
	<g>
		<path fill="#91BE49" stroke="#91BE49" stroke-width="4" stroke-miterlimit="10" d="M94.358,65.232l11.559,0.527
			c3.934,0.179,5.883-1.129,5.982-3.342c0.098-2.131-2.078-3.053-5.684-3.217c-5.166-0.235-12.387,1.409-15.133,2.186l-3.24-15.425
			c3.577-0.987,12.5-2.141,19.06-1.843c16.558,0.754,23.759,6.75,23.28,17.243c-0.234,5.165-3.711,9.359-9.531,10.901
			c6.719,2.196,10.701,6.729,10.361,14.19c-0.438,9.589-8.527,15.877-26.725,15.048c-7.46-0.341-16.271-2.839-18.633-4.492
			l5.118-13.959c2.559,1.318,8.878,3.041,14.207,3.284c4.999,0.229,7.533-1.298,7.637-3.595c0.121-2.622-2.298-3.637-7.297-3.865
			l-11.559-0.525L94.358,65.232z"/>
	</g>
	<g>
		<path fill="#F2F2F2" stroke="#F2F2F2" stroke-width="0.5" stroke-miterlimit="10" d="M94.176,64.641l11.543,0.8
			c3.929,0.273,5.908-0.989,6.062-3.199c0.146-2.129-2.007-3.101-5.607-3.351c-5.159-0.357-12.415,1.114-15.18,1.828l-2.874-15.5
			c3.6-0.9,12.548-1.844,19.096-1.39c16.539,1.146,23.593,7.312,22.869,17.79c-0.356,5.157-3.933,9.267-9.786,10.671
			c6.663,2.354,10.534,6.982,10.021,14.434c-0.665,9.575-8.899,15.668-27.073,14.409c-7.449-0.516-15.489-3.212-18.291-4.312
			l5.277-14.442c2.711,1.26,8.741,3.24,14.063,3.609c4.994,0.347,7.563-1.119,7.721-3.414c0.182-2.618-2.211-3.69-7.205-4.036
			l-11.543-0.801L94.176,64.641z"/>
	</g>
	<g>
		<path fill="#1E9647" stroke="#F2F2F2" stroke-width="0.5" stroke-miterlimit="10" d="M93.993,64.973l11.559,0.526
			c3.934,0.18,5.883-1.128,5.984-3.342c0.096-2.131-2.08-3.052-5.686-3.216c-5.166-0.235-12.386,1.408-15.133,2.186l-3.239-15.426
			c3.577-0.986,12.501-2.141,19.058-1.842c16.561,0.754,23.76,6.75,23.283,17.243c-0.234,5.164-3.713,9.358-9.531,10.901
			c6.717,2.195,10.697,6.73,10.359,14.191c-0.438,9.589-8.525,15.875-26.725,15.047c-7.459-0.34-15.561-2.846-18.387-3.878
			L90.47,82.8c2.739,1.194,8.815,3.031,14.145,3.274c5,0.228,7.535-1.298,7.639-3.595c0.119-2.623-2.299-3.639-7.299-3.865
			l-11.559-0.527L93.993,64.973z"/>
	</g>
</g>
<g id="borders" display="none">
	<g display="inline">
		<defs>
			<rect id="SVGID_4_" width="261.144" height="153.143"/>
		</defs>
		<clipPath id="SVGID_5_">
			<use xlink:href="#SVGID_4_"  overflow="visible"/>
		</clipPath>
		
			<rect x="4.5" y="4.416" clip-path="url(#SVGID_5_)" fill="none" stroke="#363895" stroke-dasharray="3,3" width="252" height="144"/>
		<path clip-path="url(#SVGID_5_)" fill="#EF3839" d="M251,143H10V10h241V143z M252,8.999H9v135h243V8.999z"/>
		<path clip-path="url(#SVGID_5_)" fill="#51B848" d="M1,1h259.125v151.124H1V1z M0,153.124h261.125V0H0V153.124z"/>
	</g>
</g>
</svg>
