<?xml version="1.0" encoding="utf-8"?>
<!-- Generator: Adobe Illustrator 16.0.0, SVG Export Plug-In . SVG Version: 6.00 Build 0)  -->
<!DOCTYPE svg PUBLIC "-//W3C//DTD SVG 1.1//EN" "http://www.w3.org/Graphics/SVG/1.1/DTD/svg11.dtd">
<svg version="1.1" xmlns="http://www.w3.org/2000/svg" xmlns:xlink="http://www.w3.org/1999/xlink" x="0px" y="0px"
	 width="261.144px" height="153.143px" viewBox="0 0 261.144 153.143" enable-background="new 0 0 261.144 153.143"
	 xml:space="preserve">
<pattern  y="153.143" width="127.841" height="157.914" patternUnits="userSpaceOnUse" id="New_Pattern_2" viewBox="21.519 -157.914 127.841 157.914" overflow="visible">
	<g>
		<polygon fill="none" points="21.519,-157.914 149.36,-157.914 149.36,0 21.519,0 		"/>
		<g>
			<line fill="none" stroke="#1E9647" stroke-miterlimit="10" x1="141.844" y1="-31.229" x2="120.949" y2="-10.334"/>
			<line fill="none" stroke="#1E9647" stroke-miterlimit="10" x1="144.957" y1="-27.907" x2="124.062" y2="-7.012"/>
			<line fill="none" stroke="#1E9647" stroke-miterlimit="10" x1="149.09" y1="-24.57" x2="128.195" y2="-3.676"/>
			<line fill="none" stroke="#1E9647" stroke-miterlimit="10" x1="152.203" y1="-21.248" x2="131.309" y2="-0.354"/>
		</g>
		<g>
			<line fill="none" stroke="#1E9647" stroke-miterlimit="10" x1="109.883" y1="-31.229" x2="88.989" y2="-10.334"/>
			<line fill="none" stroke="#1E9647" stroke-miterlimit="10" x1="112.996" y1="-27.907" x2="92.102" y2="-7.012"/>
			<line fill="none" stroke="#1E9647" stroke-miterlimit="10" x1="117.129" y1="-24.57" x2="96.234" y2="-3.676"/>
			<line fill="none" stroke="#1E9647" stroke-miterlimit="10" x1="120.242" y1="-21.248" x2="99.348" y2="-0.354"/>
		</g>
		<g>
			<line fill="none" stroke="#1E9647" stroke-miterlimit="10" x1="77.923" y1="-31.229" x2="57.029" y2="-10.334"/>
			<line fill="none" stroke="#1E9647" stroke-miterlimit="10" x1="81.036" y1="-27.907" x2="60.142" y2="-7.012"/>
			<line fill="none" stroke="#1E9647" stroke-miterlimit="10" x1="85.169" y1="-24.57" x2="64.274" y2="-3.676"/>
			<line fill="none" stroke="#1E9647" stroke-miterlimit="10" x1="88.282" y1="-21.248" x2="67.388" y2="-0.354"/>
		</g>
		<g>
			<line fill="none" stroke="#1E9647" stroke-miterlimit="10" x1="45.962" y1="-31.229" x2="25.068" y2="-10.334"/>
			<line fill="none" stroke="#1E9647" stroke-miterlimit="10" x1="49.076" y1="-27.907" x2="28.181" y2="-7.012"/>
			<line fill="none" stroke="#1E9647" stroke-miterlimit="10" x1="53.208" y1="-24.57" x2="32.314" y2="-3.676"/>
			<line fill="none" stroke="#1E9647" stroke-miterlimit="10" x1="56.322" y1="-21.248" x2="35.427" y2="-0.354"/>
		</g>
		<g>
			<line fill="none" stroke="#1E9647" stroke-miterlimit="10" x1="21.248" y1="-24.57" x2="0.354" y2="-3.676"/>
			<line fill="none" stroke="#1E9647" stroke-miterlimit="10" x1="24.361" y1="-21.248" x2="3.467" y2="-0.354"/>
		</g>
		<g>
			<line fill="none" stroke="#1E9647" stroke-miterlimit="10" x1="148.236" y1="-62.812" x2="127.342" y2="-41.917"/>
			<line fill="none" stroke="#1E9647" stroke-miterlimit="10" x1="151.35" y1="-59.49" x2="130.455" y2="-38.595"/>
			<line fill="none" stroke="#1E9647" stroke-miterlimit="10" x1="155.482" y1="-56.153" x2="134.588" y2="-35.259"/>
			<line fill="none" stroke="#1E9647" stroke-miterlimit="10" x1="158.596" y1="-52.831" x2="137.701" y2="-31.937"/>
		</g>
		<g>
			<line fill="none" stroke="#1E9647" stroke-miterlimit="10" x1="116.275" y1="-62.812" x2="95.381" y2="-41.917"/>
			<line fill="none" stroke="#1E9647" stroke-miterlimit="10" x1="119.389" y1="-59.49" x2="98.494" y2="-38.595"/>
			<line fill="none" stroke="#1E9647" stroke-miterlimit="10" x1="123.521" y1="-56.153" x2="102.626" y2="-35.259"/>
			<line fill="none" stroke="#1E9647" stroke-miterlimit="10" x1="126.635" y1="-52.831" x2="105.74" y2="-31.937"/>
		</g>
		<g>
			<line fill="none" stroke="#1E9647" stroke-miterlimit="10" x1="84.315" y1="-62.812" x2="63.421" y2="-41.917"/>
			<line fill="none" stroke="#1E9647" stroke-miterlimit="10" x1="87.428" y1="-59.49" x2="66.534" y2="-38.595"/>
			<line fill="none" stroke="#1E9647" stroke-miterlimit="10" x1="91.561" y1="-56.153" x2="70.667" y2="-35.259"/>
			<line fill="none" stroke="#1E9647" stroke-miterlimit="10" x1="94.674" y1="-52.831" x2="73.78" y2="-31.937"/>
		</g>
		<g>
			<line fill="none" stroke="#1E9647" stroke-miterlimit="10" x1="52.354" y1="-62.812" x2="31.46" y2="-41.917"/>
			<line fill="none" stroke="#1E9647" stroke-miterlimit="10" x1="55.468" y1="-59.49" x2="34.573" y2="-38.595"/>
			<line fill="none" stroke="#1E9647" stroke-miterlimit="10" x1="59.601" y1="-56.153" x2="38.706" y2="-35.259"/>
			<line fill="none" stroke="#1E9647" stroke-miterlimit="10" x1="62.714" y1="-52.831" x2="41.819" y2="-31.937"/>
		</g>
		<g>
			<line fill="none" stroke="#1E9647" stroke-miterlimit="10" x1="23.507" y1="-59.49" x2="2.613" y2="-38.595"/>
			<line fill="none" stroke="#1E9647" stroke-miterlimit="10" x1="27.64" y1="-56.153" x2="6.746" y2="-35.259"/>
			<line fill="none" stroke="#1E9647" stroke-miterlimit="10" x1="30.753" y1="-52.831" x2="9.859" y2="-31.937"/>
		</g>
		<g>
			<line fill="none" stroke="#1E9647" stroke-miterlimit="10" x1="154.628" y1="-94.395" x2="133.733" y2="-73.5"/>
			<line fill="none" stroke="#1E9647" stroke-miterlimit="10" x1="157.741" y1="-91.073" x2="136.847" y2="-70.178"/>
			<line fill="none" stroke="#1E9647" stroke-miterlimit="10" x1="161.874" y1="-87.736" x2="140.979" y2="-66.842"/>
			<line fill="none" stroke="#1E9647" stroke-miterlimit="10" x1="164.987" y1="-84.414" x2="144.093" y2="-63.52"/>
		</g>
		<g>
			<line fill="none" stroke="#1E9647" stroke-miterlimit="10" x1="122.667" y1="-94.395" x2="101.773" y2="-73.5"/>
			<line fill="none" stroke="#1E9647" stroke-miterlimit="10" x1="125.78" y1="-91.073" x2="104.886" y2="-70.178"/>
			<line fill="none" stroke="#1E9647" stroke-miterlimit="10" x1="129.913" y1="-87.736" x2="109.019" y2="-66.842"/>
			<line fill="none" stroke="#1E9647" stroke-miterlimit="10" x1="133.026" y1="-84.414" x2="112.132" y2="-63.52"/>
		</g>
		<g>
			<line fill="none" stroke="#1E9647" stroke-miterlimit="10" x1="90.707" y1="-94.395" x2="69.813" y2="-73.5"/>
			<line fill="none" stroke="#1E9647" stroke-miterlimit="10" x1="93.82" y1="-91.073" x2="72.926" y2="-70.178"/>
			<line fill="none" stroke="#1E9647" stroke-miterlimit="10" x1="97.953" y1="-87.736" x2="77.059" y2="-66.842"/>
			<line fill="none" stroke="#1E9647" stroke-miterlimit="10" x1="101.066" y1="-84.414" x2="80.172" y2="-63.52"/>
		</g>
		<g>
			<line fill="none" stroke="#1E9647" stroke-miterlimit="10" x1="58.747" y1="-94.395" x2="37.853" y2="-73.5"/>
			<line fill="none" stroke="#1E9647" stroke-miterlimit="10" x1="61.86" y1="-91.073" x2="40.965" y2="-70.178"/>
			<line fill="none" stroke="#1E9647" stroke-miterlimit="10" x1="65.993" y1="-87.736" x2="45.098" y2="-66.842"/>
			<line fill="none" stroke="#1E9647" stroke-miterlimit="10" x1="69.106" y1="-84.414" x2="48.211" y2="-63.52"/>
		</g>
		<g>
			<line fill="none" stroke="#1E9647" stroke-miterlimit="10" x1="26.786" y1="-94.395" x2="5.892" y2="-73.5"/>
			<line fill="none" stroke="#1E9647" stroke-miterlimit="10" x1="29.899" y1="-91.073" x2="9.005" y2="-70.178"/>
			<line fill="none" stroke="#1E9647" stroke-miterlimit="10" x1="34.032" y1="-87.736" x2="13.138" y2="-66.842"/>
			<line fill="none" stroke="#1E9647" stroke-miterlimit="10" x1="37.146" y1="-84.414" x2="16.251" y2="-63.52"/>
		</g>
		<g>
			<line fill="none" stroke="#1E9647" stroke-miterlimit="10" x1="161.02" y1="-125.978" x2="140.125" y2="-105.083"/>
			<line fill="none" stroke="#1E9647" stroke-miterlimit="10" x1="164.133" y1="-122.656" x2="143.238" y2="-101.761"/>
			<line fill="none" stroke="#1E9647" stroke-miterlimit="10" x1="168.266" y1="-119.319" x2="147.371" y2="-98.425"/>
		</g>
		<g>
			<line fill="none" stroke="#1E9647" stroke-miterlimit="10" x1="129.059" y1="-125.978" x2="108.165" y2="-105.083"/>
			<line fill="none" stroke="#1E9647" stroke-miterlimit="10" x1="132.172" y1="-122.656" x2="111.278" y2="-101.761"/>
			<line fill="none" stroke="#1E9647" stroke-miterlimit="10" x1="136.305" y1="-119.319" x2="115.41" y2="-98.425"/>
			<line fill="none" stroke="#1E9647" stroke-miterlimit="10" x1="139.418" y1="-115.997" x2="118.523" y2="-95.103"/>
		</g>
		<g>
			<line fill="none" stroke="#1E9647" stroke-miterlimit="10" x1="97.099" y1="-125.978" x2="76.205" y2="-105.083"/>
			<line fill="none" stroke="#1E9647" stroke-miterlimit="10" x1="100.212" y1="-122.656" x2="79.318" y2="-101.761"/>
			<line fill="none" stroke="#1E9647" stroke-miterlimit="10" x1="104.345" y1="-119.319" x2="83.451" y2="-98.425"/>
			<line fill="none" stroke="#1E9647" stroke-miterlimit="10" x1="107.458" y1="-115.997" x2="86.564" y2="-95.103"/>
		</g>
		<g>
			<line fill="none" stroke="#1E9647" stroke-miterlimit="10" x1="65.139" y1="-125.978" x2="44.245" y2="-105.083"/>
			<line fill="none" stroke="#1E9647" stroke-miterlimit="10" x1="68.252" y1="-122.656" x2="47.357" y2="-101.761"/>
			<line fill="none" stroke="#1E9647" stroke-miterlimit="10" x1="72.385" y1="-119.319" x2="51.49" y2="-98.425"/>
			<line fill="none" stroke="#1E9647" stroke-miterlimit="10" x1="75.498" y1="-115.997" x2="54.604" y2="-95.103"/>
		</g>
		<g>
			<line fill="none" stroke="#1E9647" stroke-miterlimit="10" x1="33.178" y1="-125.978" x2="12.284" y2="-105.083"/>
			<line fill="none" stroke="#1E9647" stroke-miterlimit="10" x1="36.292" y1="-122.656" x2="15.397" y2="-101.761"/>
			<line fill="none" stroke="#1E9647" stroke-miterlimit="10" x1="40.424" y1="-119.319" x2="19.53" y2="-98.425"/>
			<line fill="none" stroke="#1E9647" stroke-miterlimit="10" x1="43.538" y1="-115.997" x2="22.643" y2="-95.103"/>
		</g>
		<g>
			<line fill="none" stroke="#1E9647" stroke-miterlimit="10" x1="167.412" y1="-157.561" x2="146.518" y2="-136.666"/>
			<line fill="none" stroke="#1E9647" stroke-miterlimit="10" x1="170.525" y1="-154.239" x2="149.631" y2="-133.344"/>
		</g>
		<g>
			<line fill="none" stroke="#1E9647" stroke-miterlimit="10" x1="135.451" y1="-157.561" x2="114.558" y2="-136.666"/>
			<line fill="none" stroke="#1E9647" stroke-miterlimit="10" x1="138.564" y1="-154.239" x2="117.67" y2="-133.344"/>
			<line fill="none" stroke="#1E9647" stroke-miterlimit="10" x1="142.697" y1="-150.902" x2="121.803" y2="-130.008"/>
			<line fill="none" stroke="#1E9647" stroke-miterlimit="10" x1="145.811" y1="-147.58" x2="124.916" y2="-126.686"/>
		</g>
		<g>
			<line fill="none" stroke="#1E9647" stroke-miterlimit="10" x1="103.491" y1="-157.561" x2="82.597" y2="-136.666"/>
			<line fill="none" stroke="#1E9647" stroke-miterlimit="10" x1="106.604" y1="-154.239" x2="85.71" y2="-133.344"/>
			<line fill="none" stroke="#1E9647" stroke-miterlimit="10" x1="110.737" y1="-150.902" x2="89.843" y2="-130.008"/>
			<line fill="none" stroke="#1E9647" stroke-miterlimit="10" x1="113.851" y1="-147.58" x2="92.956" y2="-126.686"/>
		</g>
		<g>
			<line fill="none" stroke="#1E9647" stroke-miterlimit="10" x1="71.531" y1="-157.561" x2="50.637" y2="-136.666"/>
			<line fill="none" stroke="#1E9647" stroke-miterlimit="10" x1="74.644" y1="-154.239" x2="53.75" y2="-133.344"/>
			<line fill="none" stroke="#1E9647" stroke-miterlimit="10" x1="78.777" y1="-150.902" x2="57.882" y2="-130.008"/>
			<line fill="none" stroke="#1E9647" stroke-miterlimit="10" x1="81.89" y1="-147.58" x2="60.996" y2="-126.686"/>
		</g>
		<g>
			<line fill="none" stroke="#1E9647" stroke-miterlimit="10" x1="39.57" y1="-157.561" x2="18.676" y2="-136.666"/>
			<line fill="none" stroke="#1E9647" stroke-miterlimit="10" x1="42.684" y1="-154.239" x2="21.789" y2="-133.344"/>
			<line fill="none" stroke="#1E9647" stroke-miterlimit="10" x1="46.816" y1="-150.902" x2="25.922" y2="-130.008"/>
			<line fill="none" stroke="#1E9647" stroke-miterlimit="10" x1="49.93" y1="-147.58" x2="29.035" y2="-126.686"/>
		</g>
	</g>
</pattern>
<pattern  y="153.143" width="123" height="124" patternUnits="userSpaceOnUse" id="New_Pattern_4" viewBox="0 -124 123 124" overflow="visible">
	<g>
		<polygon fill="none" points="0,-124 123,-124 123,0 0,0 		"/>
		<path fill="#F2D03A" d="M52.275-49.22c-4.082-2.972-5.48-6.909-5.382-11.84c0.183-6.759,0.551-13.437,0.915-20.206
			c0.052-0.732,0.104-1.465,0.247-2.201c1.993,1.442,4.394,3.684,5.521,5.994c1.733,3.372,3.406,2.279,6.953,2.088
			c1.818-0.099,3.571,0.263,5.304,0.26c1.279,0.022,2.148-0.754,3.205-1.449c1.051-0.785,2.23-1.563,3.415-2.367l4.656-3.541
			c-0.361,1.752,0.015,3.646-0.073,5.385c-0.135,2.561-0.548,5.045-0.684,7.607c-0.191,3.202,0.187,6.83-0.46,10.057
			c-0.495,2.672-2.193,6.686-4.388,8.264c-1.319,0.892-2.888,2.254-4.309,2.969c-1.512,0.719-3.537,0.373-5.25,0.738
			C58.43-46.725,55.409-46.926,52.275-49.22z M69.184-62.082c5.743-0.036,4.328-9.354-1.037-9.064l0.393,0.526
			C63.872-70.915,64.074-62.078,69.184-62.082z M53.672-70.638l0.768,0.688c-3.871-2.437-7.127,4.854-2.729,6.896
			C58.263-59.941,59.285-71.397,53.672-70.638z M57.158-51.957c1.625-0.086,2.752-0.916,3.42-1.609
			c0.104,0.591,0.278,1.003,0.556,1.107c1.364,0.516,4.283,1.422,6.937-3.021c0,0-0.864-0.496-1.008-0.238
			c-0.141,0.258-1.542,2.312-2.891,2.259c0,0-1.842,0.819-2.438,0.168c-0.646-0.704-0.696-4.549-0.55-6.591
			c1.059-0.344,3.104-1.168,2.146-2.135c-1.268-1.281-5.266-0.209-5.266-0.209c-0.127,1.533,2.537,2.518,2.537,2.518
			s0.047-0.012,0.125-0.033c-0.138,1.258-0.316,3.266-0.266,4.859c-1.059,1.458-2.102,2.096-3.734,2.184
			c-1.408,0.076-2.734-2.516-2.734-2.516s0.335-0.176-0.462-0.019C52.732-55.076,54.318-51.805,57.158-51.957z"/>
		<path fill="#F2D03A" d="M55.742-67.975l0.086-0.096c-0.924-0.223-2.414-0.781-3.289-0.095c-0.875,0.685-0.695,2.317,0.071,3.005
			C54.437-63.434,57.967-65.631,55.742-67.975z"/>
		<path fill="#F2D03A" d="M69.791-64.537c3.591,0.627,2.118-4.675-0.777-4.244l0.92,0.132
			C67.009-68.764,67.396-64.955,69.791-64.537z"/>
		<path fill="#F2D03A" d="M113.776-108.446c2.998,2.194,5.898,2.463,9.224,1.837v-4.945c-0.131-0.045-0.255-0.088-0.365-0.131
			c-0.277-0.104-0.453-0.517-0.557-1.107c-0.668,0.693-1.795,1.523-3.42,1.609c-2.84,0.152-4.425-3.119-3.627-3.276
			c0.797-0.157,0.461,0.019,0.461,0.019s1.327,2.592,2.734,2.516c1.633-0.088,2.676-0.726,3.734-2.184
			c-0.05-1.594,0.129-3.602,0.266-4.859c-0.078,0.021-0.124,0.033-0.124,0.033s-2.665-0.984-2.538-2.518
			c0,0,1.853-0.496,3.436-0.409V-124h-4.579c-0.74,1.801-2.501,3.007-5.21,1.721c-0.873-0.406-1.439-1.02-1.765-1.721h-2.929
			c-0.045,1.236-0.09,2.473-0.123,3.714C108.295-115.355,109.693-111.418,113.776-108.446z"/>
		<path fill="#F2D03A" d="M123-112.983v-6.233c-0.111,0.039-0.219,0.076-0.316,0.107C122.559-117.35,122.579-114.258,123-112.983z"
			/>
		<path fill="#F2D03A" d="M116.725-124h-2.034C115.352-123.685,116.105-123.723,116.725-124z"/>
		<path fill="#F2D03A" d="M115.078-12.699c-1.129-2.311-3.529-4.552-5.521-5.994c-0.145,0.736-0.195,1.469-0.247,2.201
			c-0.298,5.526-0.593,10.994-0.792,16.492h2.929c-1.312-2.834,1.391-7.129,4.493-5.176l-0.768-0.688
			c3.293-0.446,4.299,3.31,3.249,5.864H123v-10.612c-0.322-0.007-0.644-0.017-0.969,0.001
			C118.484-10.42,116.811-9.327,115.078-12.699z"/>
		<path fill="#F2D03A" d="M117.243-3.201l0.085-0.096c-0.924-0.223-2.414-0.781-3.288-0.095c-0.875,0.685-0.696,2.317,0.071,3.005
			c0.178,0.168,0.375,0.289,0.579,0.387h2.034C117.871-0.514,118.545-1.829,117.243-3.201z"/>
		<path fill="#F2D03A" d="M5.697-107.428c1.422-0.715,2.99-2.077,4.309-2.969c2.195-1.578,3.894-5.592,4.389-8.264
			c0.342-1.709,0.396-3.529,0.4-5.34h-3.578c-0.383,1.498-1.502,2.679-3.533,2.691c-1.879,0.002-3.088-1.195-3.641-2.691H0v2.138
			c0.742,0.041,1.426,0.208,1.83,0.618c0.87,0.879-0.734,1.637-1.83,2.027v6.233c0.067,0.205,0.145,0.367,0.234,0.465
			c0.597,0.651,2.438-0.168,2.438-0.168c1.35,0.054,2.75-2.001,2.892-2.259c0.144-0.258,1.007,0.238,1.007,0.238
			c-2.438,4.082-5.096,3.649-6.57,3.152v4.945c0.15-0.028,0.296-0.048,0.447-0.08C2.16-107.055,4.186-106.709,5.697-107.428z"/>
		<path fill="#F2D03A" d="M9.846-124H7.622c0.202,0.107,0.423,0.193,0.669,0.236C8.999-123.641,9.504-123.752,9.846-124z"/>
		<path fill="#F2D03A" d="M14.854-4.717c0.137-2.562,0.549-5.047,0.684-7.607c0.088-1.738-0.287-3.633,0.074-5.385l-4.656,3.541
			c-1.185,0.804-2.365,1.582-3.416,2.367c-1.057,0.695-1.926,1.472-3.205,1.449C2.912-10.35,1.475-10.579,0-10.612V0h4.043
			C3.091-2.572,4.089-6.033,7.04-5.847L6.646-6.373C10.115-6.56,11.916-2.74,11.217,0h3.578C14.799-1.609,14.764-3.211,14.854-4.717
			z"/>
		<path fill="#F2D03A" d="M7.515-4.008l0.919,0.132C5.811-3.979,5.857-0.932,7.622,0h2.224C11.24-1.01,9.839-4.354,7.515-4.008z"/>
		<polygon fill="#F2D03A" points="31,-97 31,-100 25,-100 25,-97 		"/>
		<polygon fill="#F2D03A" points="22,-100 17,-100 17,-97 22,-97 		"/>
		<polygon fill="#F2D03A" points="25,-105 22,-105 22,-100 25,-100 		"/>
		<polygon fill="#F2D03A" points="22,-91 25,-91 25,-97 22,-97 		"/>
		<polygon fill="#F2D03A" points="25,-97 25,-100 22,-100 22,-97 		"/>
		<polygon fill="#F2D03A" points="69,-123 69,-124 63,-124 63,-123 		"/>
		<polygon fill="#F2D03A" points="60,-123 60,-124 55,-124 55,-123 		"/>
		<polygon fill="#F2D03A" points="60,-117 63,-117 63,-123 60,-123 		"/>
		<polygon fill="#F2D03A" points="63,-123 63,-124 60,-124 60,-123 		"/>
		<polygon fill="#F2D03A" points="55,-2 55,0 60,0 60,-2 		"/>
		<polygon fill="#F2D03A" points="69,-2 63,-2 63,0 69,0 		"/>
		<polygon fill="#F2D03A" points="60,-7 60,-2 63,-2 63,-7 		"/>
		<polygon fill="#F2D03A" points="60,-2 60,0 63,0 63,-2 		"/>
		<polygon fill="#F2D03A" points="89,-35 83,-35 83,-32 89,-32 		"/>
		<polygon fill="#F2D03A" points="97,-32 97,-35 92,-35 92,-32 		"/>
		<polygon fill="#F2D03A" points="89,-26 92,-26 92,-32 89,-32 		"/>
		<polygon fill="#F2D03A" points="92,-40 89,-40 89,-35 92,-35 		"/>
		<polygon fill="#F2D03A" points="92,-32 92,-35 89,-35 89,-32 		"/>
		<polygon fill="#F2D03A" points="18,-30 32,-30 32,-33 18,-33 		"/>
		<polygon fill="#F2D03A" points="7,-68 0,-68 0,-65 7,-65 		"/>
		<polygon fill="#F2D03A" points="117,-65 123,-65 123,-68 117,-68 		"/>
		<polygon fill="#F2D03A" points="97,-100 83,-100 83,-97 97,-97 		"/>
	</g>
</pattern>
<g id="background_1_">
	
		<radialGradient id="SVGID_1_" cx="81.8613" cy="76.4575" r="125.1703" gradientTransform="matrix(1 0 0 1.3094 0 -23.6521)" gradientUnits="userSpaceOnUse">
		<stop  offset="0" style="stop-color:#F6E867"/>
		<stop  offset="0.3095" style="stop-color:#F6E45F"/>
		<stop  offset="0.7616" style="stop-color:#F3D849"/>
		<stop  offset="1" style="stop-color:#F2D13B"/>
	</radialGradient>
	<rect x="0.056" y="-0.229" fill="url(#SVGID_1_)" width="163.611" height="153.372"/>
	<pattern  id="SVGID_2_" xlink:href="#New_Pattern_4" patternTransform="matrix(0.3319 0 0 0.3392 -5360.1426 -5473.5981)">
	</pattern>
	<rect x="0.266" y="-0.252" fill="url(#SVGID_2_)" width="260.918" height="153.418"/>
	<path fill="#1E9647" d="M261.144,0H151.5c8.218,48.924-1.142,98.108,2.894,147.143c0.043,1.621,0.076,4.32,0.106,6l106.646-1.422
		L261.144,0z"/>
	<path fill="#91BE49" d="M261.144-0.229H155.55c6.926,49.124-2.654,98.248,0.089,147.372c0,1.622-0.037,4.321-0.052,6h105.557
		V-0.229z"/>
	<pattern  id="SVGID_3_" xlink:href="#New_Pattern_2" patternTransform="matrix(0.3763 0 0 0.3763 -4955.7178 -5196.731)">
	</pattern>
	<path fill="url(#SVGID_3_)" d="M261.188-0.293H155.331c6.944,49.246-2.66,98.493,0.09,147.739c0,1.625-0.038,4.332-0.052,6.015
		h105.819V-0.293z"/>
	<text transform="matrix(1 0 0 1 200.8672 143.6157)"><tspan x="0" y="0" fill="#F6E867" font-family="'PlutoRegular'" font-size="5">Cat Math Do © </tspan><tspan x="40.274" y="0" fill="#F6E867" font-family="'PlutoRegular'" font-size="4">2014</tspan></text>
</g>
<g id="cats_copy">
	<g>
		<g>
			<g>
				<path fill="#1D427D" d="M196.033,31.793l-0.444-0.725c-1.046,0.57-5.788,4.406-6.722,4.97c-0.934,0.491-1.718,1.067-2.775,0.944
					c-1.435-0.139-2.859-0.576-4.373-0.643c-2.957-0.128-5.529,0.803-6.695-2.132c-0.75-2.008-1.46-4.216-2.994-5.573
					c-0.18,0.601-0.28,1.205-0.382,1.806c-0.847,5.58-1.691,11.089-2.385,16.675c-0.479,4.078,0.361,7.456,3.507,10.247
					c2.412,2.153,4.9,2.563,7.875,2.237c1.449-0.166,3.1,0.284,4.408-0.193c1.238-0.477,2.646-1.478,3.812-2.111
					c1.947-1.132,3.678-4.32,4.304-6.496c0.795-2.624,0.772-5.66,1.191-8.3c0.317-2.111,0.86-4.137,1.178-6.249
					C195.751,34.819,195.593,33.215,196.033,31.793z M173.414,45.852c-3.48-2.046-0.196-7.826,2.818-5.496l-0.581-0.632
					C180.366,39.545,178.596,48.958,173.414,45.852z M180.372,55.392c-0.222-0.109-0.334-0.465-0.372-0.964
					c-0.609,0.521-1.611,1.119-2.963,1.061c-2.367-0.104-3.418-2.943-2.744-3.009c0.672-0.066,0.38,0.052,0.38,0.052
					s0.892,2.256,2.065,2.307c1.358,0.058,2.276-0.387,3.27-1.511c0.088-1.324,0.396-2.972,0.613-4.006
					c-0.065,0.012-0.107,0.019-0.107,0.019s-2.128-1.03-1.899-2.289c0,0,3.4-0.57,4.348,0.594c0.717,0.88-1.046,1.399-1.951,1.598
					c-0.285,1.682-0.555,4.872-0.075,5.508c0.442,0.587,2.036,0.057,2.036,0.057c1.111,0.152,2.438-1.437,2.578-1.639
					c0.139-0.203,0.813,0.279,0.813,0.279C183.807,56.914,181.461,55.93,180.372,55.392z M187.819,48.063
					c-4.235-0.408-3.692-7.749,0.154-7.129l-0.286-0.468C192.158,40.659,192.582,48.499,187.819,48.063z"/>
			</g>
		</g>
		<polygon fill="#F2F2F2" points="191.515,38.893 171.635,37.604 170.08,51.167 179.895,58.688 191.932,52.122 		"/>
		<g>
			<g>
				<g>
					<path fill="#4478BC" d="M195.589,31.069l-4.146,2.559c-1.046,0.57-2.087,1.123-3.021,1.687
						c-0.934,0.491-1.717,1.067-2.774,0.944c-1.436-0.139-2.86-0.576-4.374-0.643c-2.957-0.128-4.429,0.646-5.596-2.289
						c-0.749-2.008-2.56-4.059-4.094-5.415c-0.18,0.601-0.279,1.204-0.382,1.806c-0.847,5.58-1.69,11.089-2.385,16.675
						c-0.479,4.077,0.362,7.456,3.507,10.246c2.413,2.153,4.9,2.564,7.875,2.237c1.449-0.166,3.101,0.284,4.408-0.194
						c1.239-0.476,2.646-1.477,3.812-2.11c1.946-1.131,3.677-4.32,4.303-6.495c0.796-2.624,0.773-5.66,1.191-8.301
						c0.317-2.111,0.861-4.137,1.179-6.248C195.307,34.094,195.147,32.491,195.589,31.069z M172.969,45.127
						c-3.48-2.045-0.195-7.826,2.818-5.496L175.206,39C179.921,38.821,178.151,48.234,172.969,45.127z M179.927,54.667
						c-0.221-0.109-0.334-0.465-0.372-0.963c-0.609,0.521-1.611,1.118-2.963,1.06c-2.367-0.104-3.417-2.943-2.744-3.009
						c0.672-0.065,0.381,0.052,0.381,0.052s0.892,2.257,2.064,2.307c1.359,0.057,2.277-0.388,3.271-1.511
						c0.088-1.324,0.396-2.972,0.612-4.006c-0.065,0.012-0.107,0.02-0.107,0.02s-2.128-1.031-1.899-2.29c0,0,3.4-0.57,4.348,0.595
						c0.717,0.879-1.046,1.398-1.95,1.597c-0.286,1.682-0.555,4.872-0.075,5.508c0.442,0.587,2.035,0.057,2.035,0.057
						c1.112,0.153,2.438-1.436,2.578-1.639s0.813,0.279,0.813,0.279C183.361,56.19,181.016,55.206,179.927,54.667z M187.375,47.338
						c-4.236-0.408-3.692-7.749,0.153-7.129l-0.285-0.467C191.714,39.935,192.137,47.774,187.375,47.338z"/>
				</g>
			</g>
			<g>
				<path fill="#4478BC" d="M176.707,41.372l0.078-0.071c-0.746-0.26-1.938-0.842-2.716-0.344c-0.782,0.497-0.765,1.865-0.184,2.499
					C175.26,45.03,178.361,43.494,176.707,41.372z"/>
			</g>
			<g>
				<path fill="#4478BC" d="M187.773,41.772l0.752,0.186c-2.417-0.332-2.4,2.856-0.45,3.396
					C191.002,46.163,190.209,41.65,187.773,41.772z"/>
			</g>
		</g>
	</g>
	<g>
		<g>
			<g>
				<path fill="#1D427D" d="M244.119,30.153l-0.446-0.989c-1.415,0.552-8.04,4.627-9.315,5.187c-1.259,0.469-2.346,1.07-3.662,0.742
					c-1.792-0.41-3.523-1.197-5.426-1.528c-3.72-0.646-7.126,0.112-8.121-3.791c-0.62-2.662-1.157-5.572-2.875-7.537
					c-0.326,0.729-0.554,1.478-0.781,2.221c-1.98,6.919-3.949,13.749-5.74,20.702c-1.273,5.08-0.762,9.49,2.76,13.534
					c2.7,3.117,5.779,4.044,9.596,4.117c1.861,0.027,3.875,0.866,5.607,0.477c1.645-0.402,3.589-1.438,5.166-2.048
					c2.648-1.113,5.358-4.864,6.508-7.513c1.433-3.19,1.9-7.033,2.861-10.306c0.747-2.618,1.765-5.09,2.513-7.71
					C243.267,33.933,243.327,31.879,244.119,30.153z M213.209,44.24c-4.068-3.158,1.031-9.933,4.463-6.492l-0.632-0.895
					C223.033,37.398,219.258,49.015,213.209,44.24z M220.451,57.442c-0.263-0.173-0.346-0.642-0.314-1.278
					c-0.854,0.558-2.219,1.151-3.92,0.856c-2.978-0.518-3.842-4.281-2.978-4.254c0.858,0.026,0.471,0.128,0.471,0.128
					s0.76,3,2.234,3.256c1.709,0.293,2.944-0.119,4.384-1.378c0.327-1.659,0.988-3.694,1.431-4.966
					c-0.086,0.003-0.14,0.005-0.14,0.005s-2.522-1.651-2.026-3.207c0,0,4.393-0.164,5.4,1.463c0.764,1.229-1.551,1.597-2.729,1.701
					c-0.635,2.082-1.496,6.074-0.994,6.954c0.463,0.816,2.565,0.406,2.565,0.406c1.381,0.376,3.317-1.417,3.528-1.651
					c0.21-0.234,0.985,0.485,0.985,0.485C224.546,59.931,221.739,58.302,220.451,57.442z M231.068,49.391
					c-5.291-1.21-3.403-10.406,1.36-8.993l-0.284-0.637C237.769,40.735,237.021,50.719,231.068,49.391z"/>
			</g>
		</g>
		<polygon fill="#F2F2F2" points="237.242,38.396 212.309,33.518 208.125,50.417 219.308,61.535 235.608,55.195 		"/>
		<g>
			<g>
				<g>
					<path fill="#4478BC" d="M243.673,29.165l-5.663,2.559c-1.415,0.55-2.821,1.08-4.095,1.64c-1.261,0.469-2.347,1.068-3.665,0.739
						c-1.791-0.408-3.521-1.195-5.427-1.527c-3.718-0.645-5.707,0.094-6.702-3.809c-0.62-2.662-2.574-5.552-4.295-7.519
						c-0.324,0.729-0.55,1.477-0.776,2.221c-1.983,6.919-3.952,13.75-5.741,20.703c-1.274,5.078-0.762,9.489,2.76,13.531
						c2.7,3.118,5.78,4.045,9.594,4.118c1.862,0.027,3.876,0.866,5.608,0.477c1.646-0.401,3.587-1.437,5.167-2.049
						c2.646-1.111,5.357-4.863,6.506-7.512c1.435-3.189,1.901-7.033,2.862-10.305c0.746-2.618,1.765-5.091,2.511-7.71
						C242.822,32.945,242.884,30.891,243.673,29.165z M212.765,43.25c-4.068-3.157,1.032-9.932,4.464-6.492l-0.632-0.894
						C222.59,36.41,218.813,48.025,212.765,43.25z M220.006,56.454c-0.261-0.175-0.345-0.644-0.312-1.28
						c-0.856,0.561-2.219,1.152-3.92,0.857c-2.979-0.519-3.842-4.281-2.979-4.255c0.858,0.026,0.47,0.128,0.47,0.128
						s0.761,3,2.237,3.255c1.708,0.294,2.941-0.117,4.382-1.377c0.329-1.66,0.988-3.694,1.431-4.966
						c-0.086,0.003-0.14,0.007-0.14,0.007s-2.522-1.652-2.027-3.207c0,0,4.393-0.165,5.4,1.463c0.764,1.229-1.552,1.598-2.728,1.699
						c-0.636,2.082-1.498,6.075-0.995,6.957c0.462,0.814,2.565,0.404,2.565,0.404c1.38,0.375,3.317-1.417,3.529-1.652
						c0.208-0.233,0.981,0.487,0.981,0.487C224.102,58.941,221.296,57.313,220.006,56.454z M230.626,48.402
						c-5.293-1.21-3.404-10.406,1.358-8.993l-0.284-0.637C237.324,39.746,236.577,49.729,230.626,48.402z"/>
				</g>
			</g>
			<g>
				<path fill="#4478BC" d="M218.107,39.11l0.11-0.078c-0.901-0.45-2.314-1.381-3.379-0.877c-1.07,0.5-1.272,2.234-0.642,3.129
					C215.68,43.501,219.853,42.065,218.107,39.11z"/>
			</g>
			<g>
				<path fill="#4478BC" d="M232.038,41.426l0.921,0.356c-3.003-0.815-3.502,3.222-1.125,4.222
					C235.404,47.506,235.14,41.668,232.038,41.426z"/>
			</g>
		</g>
	</g>
	<g>
		<g>
			<g>
				<path fill="#1D427D" d="M238.411,83.254l-0.304-0.76c-1.084,0.371-6.207,3.231-7.184,3.611
					c-0.967,0.312-1.803,0.731-2.783,0.441c-1.339-0.366-2.617-1.013-4.042-1.324c-2.783-0.606-5.372-0.144-5.998-3.117
					c-0.383-2.025-0.694-4.235-1.927-5.771c-0.269,0.539-0.462,1.097-0.657,1.649c-1.717,5.15-3.417,10.233-4.988,15.415
					c-1.122,3.788-0.878,7.129,1.648,10.289c1.931,2.435,4.223,3.23,7.099,3.408c1.399,0.079,2.892,0.776,4.209,0.536
					c1.253-0.248,2.751-0.966,3.96-1.375c2.031-0.755,4.193-3.497,5.142-5.456c1.185-2.356,1.659-5.237,2.488-7.673
					c0.645-1.951,1.491-3.78,2.137-5.73C237.649,86.075,237.764,84.532,238.411,83.254z M214.669,92.879
					c-2.964-2.507,1.095-7.449,3.57-4.749l-0.446-0.691C222.291,88.04,219.073,96.674,214.669,92.879z M219.705,103.062
					c-0.192-0.139-0.241-0.495-0.195-0.975c-0.662,0.394-1.71,0.798-2.982,0.521c-2.228-0.485-2.758-3.348-2.109-3.3
					c0.647,0.046,0.353,0.11,0.353,0.11s0.477,2.287,1.582,2.526c1.276,0.275,2.219,0.004,3.344-0.897
					c0.302-1.243,0.862-2.753,1.236-3.699c-0.062,0-0.103,0.003-0.103,0.003s-1.851-1.327-1.426-2.482c0,0,3.316,0.015,4.021,1.274
					c0.537,0.951-1.218,1.153-2.107,1.196c-0.549,1.547-1.324,4.526-0.975,5.207c0.324,0.628,1.922,0.387,1.922,0.387
					c1.027,0.327,2.546-0.964,2.712-1.132c0.165-0.169,0.724,0.399,0.724,0.399C222.711,105.069,220.649,103.75,219.705,103.062z
					 M227.964,97.334c-3.949-1.08-2.232-7.952,1.312-6.734l-0.193-0.488C233.288,91.025,232.405,98.526,227.964,97.334z"/>
			</g>
		</g>
		<polygon fill="#F2F2F2" points="232.969,89.245 214.332,84.772 210.64,97.374 218.711,106.11 231.197,101.853 		"/>
		<g>
			<g>
				<g>
					<path fill="#4478BC" d="M238.107,82.495l-4.348,1.746c-1.084,0.373-2.162,0.725-3.139,1.105
						c-0.965,0.313-1.805,0.731-2.787,0.44c-1.335-0.363-2.616-1.013-4.039-1.323c-2.782-0.605-4.307-0.112-4.931-3.086
						c-0.38-2.025-1.76-4.265-2.993-5.802c-0.269,0.539-0.462,1.094-0.659,1.65c-1.716,5.148-3.416,10.233-4.986,15.414
						c-1.124,3.787-0.878,7.126,1.648,10.287c1.934,2.436,4.223,3.233,7.097,3.409c1.403,0.079,2.893,0.776,4.212,0.537
						c1.251-0.247,2.751-0.969,3.957-1.377c2.031-0.754,4.192-3.493,5.144-5.454c1.183-2.357,1.658-5.238,2.486-7.675
						c0.646-1.946,1.493-3.779,2.139-5.729C237.347,85.316,237.459,83.77,238.107,82.495z M214.365,92.123
						c-2.966-2.511,1.096-7.452,3.573-4.751l-0.449-0.694C221.988,87.28,218.771,95.914,214.365,92.123z M219.404,102.303
						c-0.193-0.141-0.244-0.495-0.197-0.975c-0.664,0.395-1.709,0.797-2.982,0.52c-2.226-0.484-2.758-3.349-2.107-3.301
						c0.646,0.046,0.35,0.112,0.35,0.112s0.476,2.283,1.579,2.524c1.279,0.277,2.222,0.005,3.35-0.897
						c0.299-1.24,0.862-2.753,1.235-3.697c-0.065,0-0.106,0.002-0.106,0.002s-1.847-1.327-1.426-2.483c0,0,3.317,0.017,4.025,1.274
						c0.536,0.952-1.222,1.157-2.111,1.196c-0.546,1.548-1.322,4.527-0.972,5.208c0.322,0.629,1.921,0.387,1.921,0.387
						c1.029,0.327,2.545-0.961,2.713-1.131c0.165-0.17,0.722,0.397,0.722,0.397C222.407,104.308,220.346,102.989,219.404,102.303z
						 M227.659,96.574c-3.947-1.08-2.232-7.949,1.313-6.732l-0.193-0.488C232.985,90.266,232.103,97.764,227.659,96.574z"/>
				</g>
			</g>
			<g>
				<path fill="#4478BC" d="M218.525,89.172l0.084-0.054c-0.666-0.37-1.697-1.115-2.518-0.771c-0.822,0.343-1.029,1.643-0.582,2.338
					C216.554,92.403,219.744,91.454,218.525,89.172z"/>
			</g>
			<g>
				<path fill="#4478BC" d="M228.952,91.363l0.679,0.299c-2.236-0.711-2.743,2.315-0.98,3.145
					C231.291,96.053,231.276,91.644,228.952,91.363z"/>
			</g>
		</g>
	</g>
	<g>
		<g>
			<g>
				<path fill="#1D427D" d="M197.714,75.216l-0.828-0.752c-1.113,1.104-5.715,7.683-6.692,8.737c-1,0.96-1.781,1.977-3.163,2.205
					c-1.865,0.348-3.829,0.313-5.767,0.78c-3.788,0.916-6.702,3.032-9.247-0.255c-1.679-2.267-3.383-4.803-5.815-5.957
					c-0.011,0.823,0.081,1.627,0.171,2.423c0.966,7.366,1.905,14.642,3.063,21.962c0.88,5.333,3.176,9.299,8.169,11.683
					c3.837,1.844,7.136,1.458,10.777-0.041c1.774-0.738,4.026-0.771,5.506-1.851c1.394-1.057,2.81-2.834,4.052-4.06
					c2.052-2.143,3.078-6.806,3.079-9.787c0.047-3.608-1.089-7.44-1.521-10.935c-0.368-2.784-0.419-5.545-0.785-8.332
					C198.458,79.146,197.671,77.176,197.714,75.216z M174.227,101.249c-5.149-1.321-3.103-9.831,1.561-7.981l-0.966-0.588
					C180.721,90.735,181.915,103.286,174.227,101.249z M186.505,110.777c-0.319-0.056-0.592-0.466-0.822-1.082
					c-0.581,0.879-1.629,2.002-3.362,2.42c-3.032,0.731-5.395-2.477-4.566-2.807c0.824-0.327,0.5-0.071,0.5-0.071
					s1.949,2.528,3.452,2.167c1.739-0.425,2.739-1.322,3.586-3.106c-0.372-1.705-0.581-3.903-0.685-5.29
					c-0.08,0.039-0.13,0.062-0.13,0.062s-3.066-0.527-3.236-2.205c0,0,4.093-1.959,5.715-0.83c1.229,0.85-0.812,2.148-1.886,2.73
					c0.254,2.231,1.076,6.366,1.914,6.993c0.773,0.584,2.595-0.668,2.595-0.668c1.462-0.212,2.56-2.705,2.664-3.013
					c0.103-0.31,1.133,0.055,1.133,0.055C191.404,111.452,188.077,111.062,186.505,110.777z M193.253,98.792
					c-5.508,1.025-7.495-8.458-2.403-9.073l-0.531-0.488C196.044,87.845,199.435,97.606,193.253,98.792z"/>
			</g>
		</g>
		<polygon fill="#F2F2F2" points="194.586,85.847 168.971,91.462 171.946,109.182 187.103,115.123 199.936,102.425 		"/>
		<g>
			<g>
				<g>
					<path fill="#4478BC" d="M196.886,74.463l-4.312,4.748c-1.114,1.102-2.229,2.182-3.204,3.233
						c-1.002,0.962-1.784,1.977-3.168,2.206c-1.863,0.351-3.826,0.313-5.766,0.781c-3.786,0.915-5.366,2.432-7.91-0.854
						c-1.682-2.266-4.718-4.2-7.155-5.357c-0.008,0.823,0.086,1.625,0.178,2.422c0.962,7.367,1.902,14.644,3.062,21.963
						c0.878,5.331,3.176,9.3,8.169,11.681c3.838,1.845,7.136,1.458,10.776-0.039c1.775-0.74,4.026-0.77,5.507-1.851
						c1.395-1.057,2.807-2.833,4.052-4.062c2.05-2.139,3.077-6.805,3.077-9.784c0.05-3.608-1.086-7.44-1.521-10.934
						c-0.367-2.785-0.418-5.545-0.786-8.334C197.631,78.394,196.847,76.421,196.886,74.463z M173.398,100.492
						c-5.149-1.318-3.1-9.828,1.562-7.98l-0.966-0.587C179.895,89.981,181.088,102.532,173.398,100.492z M185.677,110.024
						c-0.318-0.06-0.591-0.468-0.821-1.085c-0.581,0.883-1.628,2.002-3.36,2.421c-3.034,0.733-5.396-2.477-4.567-2.805
						c0.823-0.328,0.497-0.073,0.497-0.073s1.953,2.529,3.455,2.166c1.739-0.424,2.737-1.32,3.585-3.104
						c-0.37-1.707-0.581-3.904-0.686-5.29c-0.078,0.038-0.129,0.063-0.129,0.063s-3.065-0.529-3.235-2.204
						c0,0,4.091-1.96,5.715-0.833c1.228,0.851-0.813,2.151-1.885,2.729c0.251,2.231,1.074,6.367,1.912,6.996
						c0.771,0.581,2.597-0.671,2.597-0.671c1.46-0.211,2.559-2.705,2.663-3.014c0.101-0.306,1.129,0.06,1.129,0.06
						C190.576,110.698,187.251,110.307,185.677,110.024z M192.428,98.04c-5.509,1.025-7.495-8.458-2.405-9.077l-0.531-0.485
						C195.219,87.089,198.609,96.851,192.428,98.04z"/>
				</g>
			</g>
			<g>
				<path fill="#4478BC" d="M176.758,94.378l0.072-0.119c-1.038-0.057-2.758-0.357-3.56,0.557c-0.808,0.912-0.288,2.637,0.678,3.227
					C176.263,99.535,179.624,96.46,176.758,94.378z"/>
			</g>
			<g>
				<path fill="#4478BC" d="M190.901,90.852l1.018-0.042c-3.178,0.461-1.992,4.489,0.668,4.461
					C196.585,95.227,193.938,89.808,190.901,90.852z"/>
			</g>
		</g>
	</g>
</g>
<g id="number__x26__sign">
	<g>
		<path fill="#91BE49" d="M131.442,91.364l0.907,11.814l-1.625,0.602l-21.712-1.119l4.887-11.457l-30.144-0.359l-1.128-0.446
			l24.549-45.038l22.315-4.083l1.202,2.244l-0.222,34.671l7.174-3.668l2.394,1.527l0.234,15.207L131.442,91.364z M113.715,78.446
			l-0.229-15.87l-9.021,16.003L113.715,78.446z"/>
	</g>
	<g>
		<path fill="#91BE49" stroke="#91BE49" stroke-width="4" stroke-miterlimit="10" d="M127.769,89.309l0.788,12.229h-18.333V89.309
			l-25.77-0.787l-0.787-10.378l20.496-33.983l23.605-0.787l-0.787,33.176h8.831l0.787,12.759H127.769z M110.224,76.55V60.68
			l-9.25,15.87H110.224z"/>
	</g>
	<g>
		<path fill="#F2F2F2" stroke="#F2F2F2" stroke-width="0.5" stroke-miterlimit="10" d="M127.914,88.903l1.065,12.209l-18.326,0.418
			l-0.279-12.227l-25.781-0.2L83.57,78.746l19.716-34.44l23.582-1.325l-0.032,33.185l8.83-0.201l1.077,12.738L127.914,88.903z
			 M110.084,76.547l-0.362-15.866l-8.887,16.076L110.084,76.547z"/>
	</g>
	<g>
		<path fill="#1E9647" stroke="#F2F2F2" stroke-width="0.5" stroke-miterlimit="10" d="M127.536,89.309l0.787,12.229h-18.332V89.309
			l-25.77-0.787l-0.787-10.378l20.496-33.983l23.605-0.787l-0.788,33.176h8.832l0.788,12.759H127.536z M109.991,76.55V60.68
			l-9.251,15.87H109.991z"/>
	</g>
	<g>
		<g>
			<path fill="#3DB54A" stroke="#91BE49" stroke-width="4" stroke-miterlimit="10" d="M53.101,66.916l13.705,2.17l0.228,11.42
				l-15.417,1.143l0.685,13.704l-14.846,1.941l0.86-15.043l-14.223,1.11l0.142-14.122l14.363-1.639l-0.686-13.362l14.903-0.646
				L53.101,66.916z"/>
		</g>
	</g>
	<g>
		<g>
			<path fill="#3DB54A" stroke="#91BE49" stroke-width="4" stroke-miterlimit="10" d="M51.457,65.271l13.705,2.17l0.228,11.42
				l-15.417,1.143l0.685,13.704L35.811,95.65l0.86-15.043l-14.222,1.11l0.142-14.121l14.362-1.64l-0.686-13.362l14.903-0.646
				L51.457,65.271z"/>
		</g>
	</g>
	<g>
		<g>
			<path fill="#F2F2F2" stroke="#F2F2F2" stroke-width="0.5" stroke-miterlimit="10" d="M51.691,65.484l13.639,2.551l-0.09,11.423
				L49.797,80.17l0.303,13.718l-14.895,1.527l1.278-15.013l-14.248,0.713l0.535-14.111l14.402-1.239L36.86,52.389l14.916-0.23
				L51.691,65.484z"/>
		</g>
	</g>
	<g>
		<g>
			<path fill="#1E9647" stroke="#F2F2F2" stroke-width="0.5" stroke-miterlimit="10" d="M51.457,65.271l13.705,2.17l0.228,11.42
				l-15.417,1.143l0.685,13.704L35.811,95.65l0.86-15.043l-14.222,1.11l0.142-14.121l14.362-1.64l-0.686-13.362l14.903-0.646
				L51.457,65.271z"/>
		</g>
	</g>
	<polygon fill="#91BE49" points="54.698,51.486 53.075,49.824 52.285,52.356 	"/>
	<polygon fill="#91BE49" points="23.768,82.53 20.445,83.835 22.067,85.497 24.125,82.57 	"/>
	<polygon fill="#91BE49" points="68.776,67.438 67.034,65.747 66.034,67.784 	"/>
	<polygon fill="#91BE49" points="35.387,99.611 33.631,97.897 37.144,96.309 	"/>
</g>
<g id="borders" display="none">
	<g display="inline">
		<defs>
			<rect id="SVGID_4_" width="261.144" height="153.143"/>
		</defs>
		<clipPath id="SVGID_5_">
			<use xlink:href="#SVGID_4_"  overflow="visible"/>
		</clipPath>
		
			<rect x="4.5" y="4.416" clip-path="url(#SVGID_5_)" fill="none" stroke="#363895" stroke-dasharray="3,3" width="252" height="144"/>
		<path clip-path="url(#SVGID_5_)" fill="#EF3839" d="M251,143H10V10h241V143z M252,8.999H9v135h243V8.999z"/>
		<path clip-path="url(#SVGID_5_)" fill="#51B848" d="M1,1h259.125v151.124H1V1z M0,153.124h261.125V0H0V153.124z"/>
	</g>
</g>
</svg>
