<?xml version="1.0" encoding="utf-8"?>
<!-- Generator: Adobe Illustrator 16.0.0, SVG Export Plug-In . SVG Version: 6.00 Build 0)  -->
<!DOCTYPE svg PUBLIC "-//W3C//DTD SVG 1.1//EN" "http://www.w3.org/Graphics/SVG/1.1/DTD/svg11.dtd">
<svg version="1.1" xmlns="http://www.w3.org/2000/svg" xmlns:xlink="http://www.w3.org/1999/xlink" x="0px" y="0px"
	 width="261.144px" height="153.143px" viewBox="0 0 261.144 153.143" enable-background="new 0 0 261.144 153.143"
	 xml:space="preserve">
<pattern  y="153.143" width="127.841" height="157.914" patternUnits="userSpaceOnUse" id="New_Pattern" viewBox="21.519 -157.914 127.841 157.914" overflow="visible">
	<g>
		<polygon fill="none" points="21.519,-157.914 149.36,-157.914 149.36,0 21.519,0 		"/>
		<g>
			<line fill="none" stroke="#DC5136" stroke-miterlimit="10" x1="141.844" y1="-31.229" x2="120.949" y2="-10.334"/>
			<line fill="none" stroke="#DC5136" stroke-miterlimit="10" x1="144.957" y1="-27.907" x2="124.062" y2="-7.012"/>
			<line fill="none" stroke="#DC5136" stroke-miterlimit="10" x1="149.09" y1="-24.57" x2="128.195" y2="-3.676"/>
			<line fill="none" stroke="#DC5136" stroke-miterlimit="10" x1="152.203" y1="-21.248" x2="131.309" y2="-0.354"/>
		</g>
		<g>
			<line fill="none" stroke="#DC5136" stroke-miterlimit="10" x1="109.883" y1="-31.229" x2="88.989" y2="-10.334"/>
			<line fill="none" stroke="#DC5136" stroke-miterlimit="10" x1="112.996" y1="-27.907" x2="92.102" y2="-7.012"/>
			<line fill="none" stroke="#DC5136" stroke-miterlimit="10" x1="117.129" y1="-24.57" x2="96.234" y2="-3.676"/>
			<line fill="none" stroke="#DC5136" stroke-miterlimit="10" x1="120.242" y1="-21.248" x2="99.348" y2="-0.354"/>
		</g>
		<g>
			<line fill="none" stroke="#DC5136" stroke-miterlimit="10" x1="77.923" y1="-31.229" x2="57.029" y2="-10.334"/>
			<line fill="none" stroke="#DC5136" stroke-miterlimit="10" x1="81.036" y1="-27.907" x2="60.142" y2="-7.012"/>
			<line fill="none" stroke="#DC5136" stroke-miterlimit="10" x1="85.169" y1="-24.57" x2="64.274" y2="-3.676"/>
			<line fill="none" stroke="#DC5136" stroke-miterlimit="10" x1="88.282" y1="-21.248" x2="67.388" y2="-0.354"/>
		</g>
		<g>
			<line fill="none" stroke="#DC5136" stroke-miterlimit="10" x1="45.962" y1="-31.229" x2="25.068" y2="-10.334"/>
			<line fill="none" stroke="#DC5136" stroke-miterlimit="10" x1="49.076" y1="-27.907" x2="28.181" y2="-7.012"/>
			<line fill="none" stroke="#DC5136" stroke-miterlimit="10" x1="53.208" y1="-24.57" x2="32.314" y2="-3.676"/>
			<line fill="none" stroke="#DC5136" stroke-miterlimit="10" x1="56.322" y1="-21.248" x2="35.427" y2="-0.354"/>
		</g>
		<g>
			<line fill="none" stroke="#DC5136" stroke-miterlimit="10" x1="21.248" y1="-24.57" x2="0.354" y2="-3.676"/>
			<line fill="none" stroke="#DC5136" stroke-miterlimit="10" x1="24.361" y1="-21.248" x2="3.467" y2="-0.354"/>
		</g>
		<g>
			<line fill="none" stroke="#DC5136" stroke-miterlimit="10" x1="148.236" y1="-62.812" x2="127.342" y2="-41.917"/>
			<line fill="none" stroke="#DC5136" stroke-miterlimit="10" x1="151.35" y1="-59.49" x2="130.455" y2="-38.595"/>
			<line fill="none" stroke="#DC5136" stroke-miterlimit="10" x1="155.482" y1="-56.153" x2="134.588" y2="-35.259"/>
			<line fill="none" stroke="#DC5136" stroke-miterlimit="10" x1="158.596" y1="-52.831" x2="137.701" y2="-31.937"/>
		</g>
		<g>
			<line fill="none" stroke="#DC5136" stroke-miterlimit="10" x1="116.275" y1="-62.812" x2="95.382" y2="-41.917"/>
			<line fill="none" stroke="#DC5136" stroke-miterlimit="10" x1="119.389" y1="-59.49" x2="98.494" y2="-38.595"/>
			<line fill="none" stroke="#DC5136" stroke-miterlimit="10" x1="123.521" y1="-56.153" x2="102.627" y2="-35.259"/>
			<line fill="none" stroke="#DC5136" stroke-miterlimit="10" x1="126.635" y1="-52.831" x2="105.74" y2="-31.937"/>
		</g>
		<g>
			<line fill="none" stroke="#DC5136" stroke-miterlimit="10" x1="84.315" y1="-62.812" x2="63.421" y2="-41.917"/>
			<line fill="none" stroke="#DC5136" stroke-miterlimit="10" x1="87.428" y1="-59.49" x2="66.534" y2="-38.595"/>
			<line fill="none" stroke="#DC5136" stroke-miterlimit="10" x1="91.561" y1="-56.153" x2="70.667" y2="-35.259"/>
			<line fill="none" stroke="#DC5136" stroke-miterlimit="10" x1="94.674" y1="-52.831" x2="73.78" y2="-31.937"/>
		</g>
		<g>
			<line fill="none" stroke="#DC5136" stroke-miterlimit="10" x1="52.354" y1="-62.812" x2="31.46" y2="-41.917"/>
			<line fill="none" stroke="#DC5136" stroke-miterlimit="10" x1="55.468" y1="-59.49" x2="34.573" y2="-38.595"/>
			<line fill="none" stroke="#DC5136" stroke-miterlimit="10" x1="59.601" y1="-56.153" x2="38.706" y2="-35.259"/>
			<line fill="none" stroke="#DC5136" stroke-miterlimit="10" x1="62.714" y1="-52.831" x2="41.819" y2="-31.937"/>
		</g>
		<g>
			<line fill="none" stroke="#DC5136" stroke-miterlimit="10" x1="23.507" y1="-59.49" x2="2.613" y2="-38.595"/>
			<line fill="none" stroke="#DC5136" stroke-miterlimit="10" x1="27.64" y1="-56.153" x2="6.746" y2="-35.259"/>
			<line fill="none" stroke="#DC5136" stroke-miterlimit="10" x1="30.753" y1="-52.831" x2="9.859" y2="-31.937"/>
		</g>
		<g>
			<line fill="none" stroke="#DC5136" stroke-miterlimit="10" x1="154.628" y1="-94.395" x2="133.733" y2="-73.5"/>
			<line fill="none" stroke="#DC5136" stroke-miterlimit="10" x1="157.741" y1="-91.073" x2="136.847" y2="-70.178"/>
			<line fill="none" stroke="#DC5136" stroke-miterlimit="10" x1="161.874" y1="-87.736" x2="140.979" y2="-66.842"/>
			<line fill="none" stroke="#DC5136" stroke-miterlimit="10" x1="164.987" y1="-84.414" x2="144.093" y2="-63.52"/>
		</g>
		<g>
			<line fill="none" stroke="#DC5136" stroke-miterlimit="10" x1="122.667" y1="-94.395" x2="101.773" y2="-73.5"/>
			<line fill="none" stroke="#DC5136" stroke-miterlimit="10" x1="125.78" y1="-91.073" x2="104.886" y2="-70.178"/>
			<line fill="none" stroke="#DC5136" stroke-miterlimit="10" x1="129.913" y1="-87.736" x2="109.019" y2="-66.842"/>
			<line fill="none" stroke="#DC5136" stroke-miterlimit="10" x1="133.026" y1="-84.414" x2="112.132" y2="-63.52"/>
		</g>
		<g>
			<line fill="none" stroke="#DC5136" stroke-miterlimit="10" x1="90.707" y1="-94.395" x2="69.813" y2="-73.5"/>
			<line fill="none" stroke="#DC5136" stroke-miterlimit="10" x1="93.82" y1="-91.073" x2="72.926" y2="-70.178"/>
			<line fill="none" stroke="#DC5136" stroke-miterlimit="10" x1="97.953" y1="-87.736" x2="77.059" y2="-66.842"/>
			<line fill="none" stroke="#DC5136" stroke-miterlimit="10" x1="101.066" y1="-84.414" x2="80.172" y2="-63.52"/>
		</g>
		<g>
			<line fill="none" stroke="#DC5136" stroke-miterlimit="10" x1="58.747" y1="-94.395" x2="37.853" y2="-73.5"/>
			<line fill="none" stroke="#DC5136" stroke-miterlimit="10" x1="61.86" y1="-91.073" x2="40.965" y2="-70.178"/>
			<line fill="none" stroke="#DC5136" stroke-miterlimit="10" x1="65.993" y1="-87.736" x2="45.098" y2="-66.842"/>
			<line fill="none" stroke="#DC5136" stroke-miterlimit="10" x1="69.106" y1="-84.414" x2="48.211" y2="-63.52"/>
		</g>
		<g>
			<line fill="none" stroke="#DC5136" stroke-miterlimit="10" x1="26.786" y1="-94.395" x2="5.892" y2="-73.5"/>
			<line fill="none" stroke="#DC5136" stroke-miterlimit="10" x1="29.899" y1="-91.073" x2="9.005" y2="-70.178"/>
			<line fill="none" stroke="#DC5136" stroke-miterlimit="10" x1="34.032" y1="-87.736" x2="13.138" y2="-66.842"/>
			<line fill="none" stroke="#DC5136" stroke-miterlimit="10" x1="37.146" y1="-84.414" x2="16.251" y2="-63.52"/>
		</g>
		<g>
			<line fill="none" stroke="#DC5136" stroke-miterlimit="10" x1="161.02" y1="-125.978" x2="140.125" y2="-105.083"/>
			<line fill="none" stroke="#DC5136" stroke-miterlimit="10" x1="164.133" y1="-122.656" x2="143.238" y2="-101.761"/>
			<line fill="none" stroke="#DC5136" stroke-miterlimit="10" x1="168.266" y1="-119.319" x2="147.371" y2="-98.425"/>
		</g>
		<g>
			<line fill="none" stroke="#DC5136" stroke-miterlimit="10" x1="129.059" y1="-125.978" x2="108.165" y2="-105.083"/>
			<line fill="none" stroke="#DC5136" stroke-miterlimit="10" x1="132.172" y1="-122.656" x2="111.277" y2="-101.761"/>
			<line fill="none" stroke="#DC5136" stroke-miterlimit="10" x1="136.305" y1="-119.319" x2="115.41" y2="-98.425"/>
			<line fill="none" stroke="#DC5136" stroke-miterlimit="10" x1="139.418" y1="-115.997" x2="118.523" y2="-95.103"/>
		</g>
		<g>
			<line fill="none" stroke="#DC5136" stroke-miterlimit="10" x1="97.099" y1="-125.978" x2="76.205" y2="-105.083"/>
			<line fill="none" stroke="#DC5136" stroke-miterlimit="10" x1="100.212" y1="-122.656" x2="79.318" y2="-101.761"/>
			<line fill="none" stroke="#DC5136" stroke-miterlimit="10" x1="104.345" y1="-119.319" x2="83.451" y2="-98.425"/>
			<line fill="none" stroke="#DC5136" stroke-miterlimit="10" x1="107.458" y1="-115.997" x2="86.563" y2="-95.103"/>
		</g>
		<g>
			<line fill="none" stroke="#DC5136" stroke-miterlimit="10" x1="65.139" y1="-125.978" x2="44.245" y2="-105.083"/>
			<line fill="none" stroke="#DC5136" stroke-miterlimit="10" x1="68.252" y1="-122.656" x2="47.357" y2="-101.761"/>
			<line fill="none" stroke="#DC5136" stroke-miterlimit="10" x1="72.385" y1="-119.319" x2="51.49" y2="-98.425"/>
			<line fill="none" stroke="#DC5136" stroke-miterlimit="10" x1="75.498" y1="-115.997" x2="54.604" y2="-95.103"/>
		</g>
		<g>
			<line fill="none" stroke="#DC5136" stroke-miterlimit="10" x1="33.178" y1="-125.978" x2="12.284" y2="-105.083"/>
			<line fill="none" stroke="#DC5136" stroke-miterlimit="10" x1="36.292" y1="-122.656" x2="15.397" y2="-101.761"/>
			<line fill="none" stroke="#DC5136" stroke-miterlimit="10" x1="40.424" y1="-119.319" x2="19.53" y2="-98.425"/>
			<line fill="none" stroke="#DC5136" stroke-miterlimit="10" x1="43.538" y1="-115.997" x2="22.643" y2="-95.103"/>
		</g>
		<g>
			<line fill="none" stroke="#DC5136" stroke-miterlimit="10" x1="167.412" y1="-157.561" x2="146.518" y2="-136.666"/>
			<line fill="none" stroke="#DC5136" stroke-miterlimit="10" x1="170.525" y1="-154.239" x2="149.631" y2="-133.344"/>
		</g>
		<g>
			<line fill="none" stroke="#DC5136" stroke-miterlimit="10" x1="135.451" y1="-157.561" x2="114.558" y2="-136.666"/>
			<line fill="none" stroke="#DC5136" stroke-miterlimit="10" x1="138.564" y1="-154.239" x2="117.67" y2="-133.344"/>
			<line fill="none" stroke="#DC5136" stroke-miterlimit="10" x1="142.697" y1="-150.902" x2="121.803" y2="-130.008"/>
			<line fill="none" stroke="#DC5136" stroke-miterlimit="10" x1="145.811" y1="-147.58" x2="124.916" y2="-126.686"/>
		</g>
		<g>
			<line fill="none" stroke="#DC5136" stroke-miterlimit="10" x1="103.491" y1="-157.561" x2="82.597" y2="-136.666"/>
			<line fill="none" stroke="#DC5136" stroke-miterlimit="10" x1="106.604" y1="-154.239" x2="85.71" y2="-133.344"/>
			<line fill="none" stroke="#DC5136" stroke-miterlimit="10" x1="110.737" y1="-150.902" x2="89.843" y2="-130.008"/>
			<line fill="none" stroke="#DC5136" stroke-miterlimit="10" x1="113.851" y1="-147.58" x2="92.956" y2="-126.686"/>
		</g>
		<g>
			<line fill="none" stroke="#DC5136" stroke-miterlimit="10" x1="71.531" y1="-157.561" x2="50.637" y2="-136.666"/>
			<line fill="none" stroke="#DC5136" stroke-miterlimit="10" x1="74.644" y1="-154.239" x2="53.75" y2="-133.344"/>
			<line fill="none" stroke="#DC5136" stroke-miterlimit="10" x1="78.777" y1="-150.902" x2="57.882" y2="-130.008"/>
			<line fill="none" stroke="#DC5136" stroke-miterlimit="10" x1="81.89" y1="-147.58" x2="60.996" y2="-126.686"/>
		</g>
		<g>
			<line fill="none" stroke="#DC5136" stroke-miterlimit="10" x1="39.57" y1="-157.561" x2="18.676" y2="-136.666"/>
			<line fill="none" stroke="#DC5136" stroke-miterlimit="10" x1="42.684" y1="-154.239" x2="21.789" y2="-133.344"/>
			<line fill="none" stroke="#DC5136" stroke-miterlimit="10" x1="46.816" y1="-150.902" x2="25.922" y2="-130.008"/>
			<line fill="none" stroke="#DC5136" stroke-miterlimit="10" x1="49.93" y1="-147.58" x2="29.035" y2="-126.686"/>
		</g>
	</g>
</pattern>
<pattern  y="153.143" width="123" height="124" patternUnits="userSpaceOnUse" id="New_Pattern_2" viewBox="0 -124 123 124" overflow="visible">
	<g>
		<polygon fill="none" points="0,-124 123,-124 123,0 0,0 		"/>
		<path fill="#DC5136" d="M52.275-49.22c-4.082-2.972-5.48-6.909-5.382-11.84c0.183-6.759,0.551-13.437,0.915-20.206
			c0.052-0.732,0.104-1.465,0.247-2.201c1.993,1.442,4.394,3.684,5.521,5.994c1.733,3.372,3.406,2.279,6.953,2.088
			c1.818-0.099,3.571,0.263,5.304,0.26c1.279,0.022,2.148-0.754,3.205-1.449c1.051-0.785,2.23-1.563,3.415-2.367l4.656-3.541
			c-0.361,1.752,0.015,3.646-0.073,5.385c-0.135,2.561-0.548,5.045-0.684,7.607c-0.191,3.202,0.187,6.83-0.46,10.057
			c-0.495,2.672-2.193,6.686-4.388,8.264c-1.319,0.892-2.888,2.254-4.309,2.969c-1.512,0.719-3.537,0.373-5.25,0.738
			C58.43-46.725,55.409-46.926,52.275-49.22z M69.184-62.082c5.743-0.036,4.328-9.354-1.037-9.064l0.393,0.526
			C63.872-70.915,64.074-62.078,69.184-62.082z M53.672-70.638l0.768,0.688c-3.871-2.437-7.127,4.854-2.729,6.896
			C58.263-59.941,59.285-71.397,53.672-70.638z M57.158-51.957c1.625-0.086,2.752-0.916,3.42-1.609
			c0.104,0.591,0.278,1.003,0.556,1.107c1.364,0.516,4.283,1.422,6.937-3.021c0,0-0.864-0.496-1.008-0.238
			c-0.141,0.258-1.542,2.312-2.891,2.259c0,0-1.842,0.819-2.438,0.168c-0.646-0.704-0.696-4.549-0.55-6.591
			c1.059-0.344,3.104-1.168,2.146-2.135c-1.268-1.281-5.266-0.209-5.266-0.209c-0.127,1.533,2.537,2.518,2.537,2.518
			s0.047-0.012,0.125-0.033c-0.138,1.258-0.316,3.266-0.266,4.859c-1.059,1.458-2.102,2.096-3.734,2.184
			c-1.408,0.076-2.734-2.516-2.734-2.516s0.335-0.176-0.462-0.019C52.732-55.076,54.318-51.805,57.158-51.957z"/>
		<path fill="#DC5136" d="M55.742-67.975l0.086-0.096c-0.924-0.223-2.414-0.781-3.289-0.095c-0.875,0.685-0.695,2.317,0.071,3.005
			C54.437-63.434,57.967-65.631,55.742-67.975z"/>
		<path fill="#DC5136" d="M69.791-64.537c3.591,0.627,2.118-4.675-0.777-4.244l0.92,0.132
			C67.009-68.764,67.396-64.955,69.791-64.537z"/>
		<path fill="#DC5136" d="M113.776-108.446c2.998,2.194,5.898,2.463,9.224,1.837v-4.945c-0.131-0.045-0.255-0.088-0.365-0.131
			c-0.277-0.104-0.453-0.517-0.557-1.107c-0.668,0.693-1.795,1.523-3.42,1.609c-2.84,0.152-4.425-3.119-3.627-3.276
			c0.797-0.157,0.461,0.019,0.461,0.019s1.327,2.592,2.734,2.516c1.633-0.088,2.676-0.726,3.734-2.184
			c-0.05-1.594,0.129-3.602,0.266-4.859c-0.078,0.021-0.124,0.033-0.124,0.033s-2.665-0.984-2.538-2.518
			c0,0,1.853-0.496,3.436-0.409V-124h-4.579c-0.74,1.801-2.501,3.007-5.21,1.721c-0.873-0.406-1.439-1.02-1.765-1.721h-2.929
			c-0.045,1.236-0.09,2.473-0.123,3.714C108.295-115.355,109.693-111.418,113.776-108.446z"/>
		<path fill="#DC5136" d="M123-112.983v-6.233c-0.111,0.039-0.219,0.076-0.316,0.107C122.559-117.35,122.579-114.258,123-112.983z"
			/>
		<path fill="#DC5136" d="M116.725-124h-2.034C115.352-123.685,116.105-123.723,116.725-124z"/>
		<path fill="#DC5136" d="M115.078-12.699c-1.129-2.311-3.529-4.552-5.521-5.994c-0.145,0.736-0.195,1.469-0.247,2.201
			c-0.298,5.526-0.593,10.994-0.792,16.492h2.929c-1.312-2.834,1.391-7.129,4.493-5.176l-0.768-0.688
			c3.293-0.446,4.299,3.31,3.249,5.864H123v-10.612c-0.322-0.007-0.644-0.017-0.969,0.001
			C118.484-10.42,116.811-9.327,115.078-12.699z"/>
		<path fill="#DC5136" d="M117.243-3.201l0.085-0.096c-0.924-0.223-2.414-0.781-3.288-0.095c-0.875,0.685-0.696,2.317,0.071,3.005
			c0.178,0.168,0.375,0.289,0.579,0.387h2.034C117.871-0.514,118.545-1.829,117.243-3.201z"/>
		<path fill="#DC5136" d="M5.697-107.428c1.422-0.715,2.99-2.077,4.309-2.969c2.195-1.578,3.894-5.592,4.389-8.264
			c0.342-1.709,0.396-3.529,0.4-5.34h-3.578c-0.383,1.498-1.502,2.679-3.533,2.691c-1.879,0.002-3.088-1.195-3.641-2.691H0v2.138
			c0.742,0.041,1.426,0.208,1.83,0.618c0.87,0.879-0.734,1.637-1.83,2.027v6.233c0.067,0.205,0.145,0.367,0.234,0.465
			c0.597,0.651,2.438-0.168,2.438-0.168c1.35,0.054,2.75-2.001,2.892-2.259c0.144-0.258,1.007,0.238,1.007,0.238
			c-2.438,4.082-5.096,3.649-6.57,3.152v4.945c0.15-0.028,0.296-0.048,0.447-0.08C2.16-107.055,4.186-106.709,5.697-107.428z"/>
		<path fill="#DC5136" d="M9.846-124H7.622c0.202,0.107,0.423,0.193,0.669,0.236C8.999-123.641,9.504-123.752,9.846-124z"/>
		<path fill="#DC5136" d="M14.854-4.717c0.137-2.562,0.549-5.047,0.684-7.607c0.088-1.738-0.287-3.633,0.074-5.385l-4.656,3.541
			c-1.185,0.804-2.365,1.582-3.416,2.367c-1.057,0.695-1.926,1.472-3.205,1.449C2.912-10.35,1.475-10.579,0-10.612V0h4.043
			C3.091-2.572,4.089-6.033,7.04-5.847L6.646-6.373C10.115-6.56,11.916-2.74,11.217,0h3.578C14.799-1.609,14.764-3.211,14.854-4.717
			z"/>
		<path fill="#DC5136" d="M7.515-4.008l0.919,0.132C5.811-3.979,5.857-0.932,7.622,0h2.224C11.24-1.01,9.839-4.354,7.515-4.008z"/>
		<polygon fill="#DC5136" points="31,-97 31,-100 25,-100 25,-97 		"/>
		<polygon fill="#DC5136" points="22,-100 17,-100 17,-97 22,-97 		"/>
		<polygon fill="#DC5136" points="25,-105 22,-105 22,-100 25,-100 		"/>
		<polygon fill="#DC5136" points="22,-91 25,-91 25,-97 22,-97 		"/>
		<polygon fill="#DC5136" points="25,-97 25,-100 22,-100 22,-97 		"/>
		<polygon fill="#DC5136" points="69,-123 69,-124 63,-124 63,-123 		"/>
		<polygon fill="#DC5136" points="60,-123 60,-124 55,-124 55,-123 		"/>
		<polygon fill="#DC5136" points="60,-117 63,-117 63,-123 60,-123 		"/>
		<polygon fill="#DC5136" points="63,-123 63,-124 60,-124 60,-123 		"/>
		<polygon fill="#DC5136" points="55,-2 55,0 60,0 60,-2 		"/>
		<polygon fill="#DC5136" points="69,-2 63,-2 63,0 69,0 		"/>
		<polygon fill="#DC5136" points="60,-7 60,-2 63,-2 63,-7 		"/>
		<polygon fill="#DC5136" points="60,-2 60,0 63,0 63,-2 		"/>
		<polygon fill="#DC5136" points="89,-35 83,-35 83,-32 89,-32 		"/>
		<polygon fill="#DC5136" points="97,-32 97,-35 92,-35 92,-32 		"/>
		<polygon fill="#DC5136" points="89,-26 92,-26 92,-32 89,-32 		"/>
		<polygon fill="#DC5136" points="92,-40 89,-40 89,-35 92,-35 		"/>
		<polygon fill="#DC5136" points="92,-32 92,-35 89,-35 89,-32 		"/>
		<polygon fill="#DC5136" points="18,-30 32,-30 32,-33 18,-33 		"/>
		<polygon fill="#DC5136" points="7,-68 0,-68 0,-65 7,-65 		"/>
		<polygon fill="#DC5136" points="117,-65 123,-65 123,-68 117,-68 		"/>
		<polygon fill="#DC5136" points="97,-100 83,-100 83,-97 97,-97 		"/>
	</g>
</pattern>
<pattern  y="153.143" width="123" height="124" patternUnits="userSpaceOnUse" id="New_Pattern_4" viewBox="0 -124 123 124" overflow="visible">
	<g>
		<polygon fill="none" points="0,-124 123,-124 123,0 0,0 		"/>
		<path fill="#DC5136" d="M52.275-49.22c-4.082-2.972-5.48-6.909-5.382-11.84c0.183-6.759,0.551-13.437,0.915-20.206
			c0.052-0.732,0.104-1.465,0.247-2.201c1.993,1.442,4.394,3.684,5.521,5.994c1.733,3.372,3.406,2.279,6.953,2.088
			c1.818-0.099,3.571,0.263,5.304,0.26c1.279,0.022,2.148-0.754,3.205-1.449c1.051-0.785,2.23-1.563,3.415-2.367l4.656-3.541
			c-0.361,1.752,0.015,3.646-0.073,5.385c-0.135,2.561-0.548,5.045-0.684,7.607c-0.191,3.202,0.187,6.83-0.46,10.057
			c-0.495,2.672-2.193,6.686-4.388,8.264c-1.319,0.892-2.888,2.254-4.309,2.969c-1.512,0.719-3.537,0.373-5.25,0.738
			C58.43-46.725,55.409-46.926,52.275-49.22z M69.184-62.082c5.743-0.036,4.328-9.354-1.037-9.064l0.393,0.526
			C63.872-70.915,64.074-62.078,69.184-62.082z M53.672-70.638l0.768,0.688c-3.871-2.437-7.127,4.854-2.729,6.896
			C58.263-59.941,59.285-71.397,53.672-70.638z M57.158-51.957c1.625-0.086,2.752-0.916,3.42-1.609
			c0.104,0.591,0.278,1.003,0.556,1.107c1.364,0.516,4.283,1.422,6.937-3.021c0,0-0.864-0.496-1.008-0.238
			c-0.141,0.258-1.542,2.312-2.891,2.259c0,0-1.842,0.819-2.438,0.168c-0.646-0.704-0.696-4.549-0.55-6.591
			c1.059-0.344,3.104-1.168,2.146-2.135c-1.268-1.281-5.266-0.209-5.266-0.209c-0.127,1.533,2.537,2.518,2.537,2.518
			s0.047-0.012,0.125-0.033c-0.138,1.258-0.316,3.266-0.266,4.859c-1.059,1.458-2.102,2.096-3.734,2.184
			c-1.408,0.076-2.734-2.516-2.734-2.516s0.335-0.176-0.462-0.019C52.732-55.076,54.318-51.805,57.158-51.957z"/>
		<path fill="#DC5136" d="M55.742-67.975l0.086-0.096c-0.924-0.223-2.414-0.781-3.289-0.095c-0.875,0.685-0.695,2.317,0.071,3.005
			C54.437-63.434,57.967-65.631,55.742-67.975z"/>
		<path fill="#DC5136" d="M69.791-64.537c3.591,0.627,2.118-4.675-0.777-4.244l0.92,0.132
			C67.009-68.764,67.396-64.955,69.791-64.537z"/>
		<path fill="#DC5136" d="M113.776-108.446c2.998,2.194,5.898,2.463,9.224,1.837v-4.945c-0.131-0.045-0.255-0.088-0.365-0.131
			c-0.277-0.104-0.453-0.517-0.557-1.107c-0.668,0.693-1.795,1.523-3.42,1.609c-2.84,0.152-4.425-3.119-3.627-3.276
			c0.797-0.157,0.461,0.019,0.461,0.019s1.327,2.592,2.734,2.516c1.633-0.088,2.676-0.726,3.734-2.184
			c-0.05-1.594,0.129-3.602,0.266-4.859c-0.078,0.021-0.124,0.033-0.124,0.033s-2.665-0.984-2.538-2.518
			c0,0,1.853-0.496,3.436-0.409V-124h-4.579c-0.74,1.801-2.501,3.007-5.21,1.721c-0.873-0.406-1.439-1.02-1.765-1.721h-2.929
			c-0.045,1.236-0.09,2.473-0.123,3.714C108.295-115.355,109.693-111.418,113.776-108.446z"/>
		<path fill="#DC5136" d="M123-112.983v-6.233c-0.111,0.039-0.219,0.076-0.316,0.107C122.559-117.35,122.579-114.258,123-112.983z"
			/>
		<path fill="#DC5136" d="M116.725-124h-2.034C115.352-123.685,116.105-123.723,116.725-124z"/>
		<path fill="#DC5136" d="M115.078-12.699c-1.129-2.311-3.529-4.552-5.521-5.994c-0.145,0.736-0.195,1.469-0.247,2.201
			c-0.298,5.526-0.593,10.994-0.792,16.492h2.929c-1.312-2.834,1.391-7.129,4.493-5.176l-0.768-0.688
			c3.293-0.446,4.299,3.31,3.249,5.864H123v-10.612c-0.322-0.007-0.644-0.017-0.969,0.001
			C118.484-10.42,116.811-9.327,115.078-12.699z"/>
		<path fill="#DC5136" d="M117.243-3.201l0.085-0.096c-0.924-0.223-2.414-0.781-3.288-0.095c-0.875,0.685-0.696,2.317,0.071,3.005
			c0.178,0.168,0.375,0.289,0.579,0.387h2.034C117.871-0.514,118.545-1.829,117.243-3.201z"/>
		<path fill="#DC5136" d="M5.697-107.428c1.422-0.715,2.99-2.077,4.309-2.969c2.195-1.578,3.894-5.592,4.389-8.264
			c0.342-1.709,0.396-3.529,0.4-5.34h-3.578c-0.383,1.498-1.502,2.679-3.533,2.691c-1.879,0.002-3.088-1.195-3.641-2.691H0v2.138
			c0.742,0.041,1.426,0.208,1.83,0.618c0.87,0.879-0.734,1.637-1.83,2.027v6.233c0.067,0.205,0.145,0.367,0.234,0.465
			c0.597,0.651,2.438-0.168,2.438-0.168c1.35,0.054,2.75-2.001,2.892-2.259c0.144-0.258,1.007,0.238,1.007,0.238
			c-2.438,4.082-5.096,3.649-6.57,3.152v4.945c0.15-0.028,0.296-0.048,0.447-0.08C2.16-107.055,4.186-106.709,5.697-107.428z"/>
		<path fill="#DC5136" d="M9.846-124H7.622c0.202,0.107,0.423,0.193,0.669,0.236C8.999-123.641,9.504-123.752,9.846-124z"/>
		<path fill="#DC5136" d="M14.854-4.717c0.137-2.562,0.549-5.047,0.684-7.607c0.088-1.738-0.287-3.633,0.074-5.385l-4.656,3.541
			c-1.185,0.804-2.365,1.582-3.416,2.367c-1.057,0.695-1.926,1.472-3.205,1.449C2.912-10.35,1.475-10.579,0-10.612V0h4.043
			C3.091-2.572,4.089-6.033,7.04-5.847L6.646-6.373C10.115-6.56,11.916-2.74,11.217,0h3.578C14.799-1.609,14.764-3.211,14.854-4.717
			z"/>
		<path fill="#DC5136" d="M7.515-4.008l0.919,0.132C5.811-3.979,5.857-0.932,7.622,0h2.224C11.24-1.01,9.839-4.354,7.515-4.008z"/>
		<polygon fill="#DC5136" points="31,-97 31,-100 25,-100 25,-97 		"/>
		<polygon fill="#DC5136" points="22,-100 17,-100 17,-97 22,-97 		"/>
		<polygon fill="#DC5136" points="25,-105 22,-105 22,-100 25,-100 		"/>
		<polygon fill="#DC5136" points="22,-91 25,-91 25,-97 22,-97 		"/>
		<polygon fill="#DC5136" points="25,-97 25,-100 22,-100 22,-97 		"/>
		<polygon fill="#DC5136" points="69,-123 69,-124 63,-124 63,-123 		"/>
		<polygon fill="#DC5136" points="60,-123 60,-124 55,-124 55,-123 		"/>
		<polygon fill="#DC5136" points="60,-117 63,-117 63,-123 60,-123 		"/>
		<polygon fill="#DC5136" points="63,-123 63,-124 60,-124 60,-123 		"/>
		<polygon fill="#DC5136" points="55,-2 55,0 60,0 60,-2 		"/>
		<polygon fill="#DC5136" points="69,-2 63,-2 63,0 69,0 		"/>
		<polygon fill="#DC5136" points="60,-7 60,-2 63,-2 63,-7 		"/>
		<polygon fill="#DC5136" points="60,-2 60,0 63,0 63,-2 		"/>
		<polygon fill="#DC5136" points="89,-35 83,-35 83,-32 89,-32 		"/>
		<polygon fill="#DC5136" points="97,-32 97,-35 92,-35 92,-32 		"/>
		<polygon fill="#DC5136" points="89,-26 92,-26 92,-32 89,-32 		"/>
		<polygon fill="#DC5136" points="92,-40 89,-40 89,-35 92,-35 		"/>
		<polygon fill="#DC5136" points="92,-32 92,-35 89,-35 89,-32 		"/>
		<polygon fill="#DC5136" points="18,-30 32,-30 32,-33 18,-33 		"/>
		<polygon fill="#DC5136" points="7,-68 0,-68 0,-65 7,-65 		"/>
		<polygon fill="#DC5136" points="117,-65 123,-65 123,-68 117,-68 		"/>
		<polygon fill="#DC5136" points="97,-100 83,-100 83,-97 97,-97 		"/>
	</g>
</pattern>
<pattern  y="153.143" width="123" height="124" patternUnits="userSpaceOnUse" id="New_Pattern_5" viewBox="0 -124 123 124" overflow="visible">
	<g>
		<polygon fill="none" points="0,-124 123,-124 123,0 0,0 		"/>
		<path fill="#F2D03A" d="M52.275-49.22c-4.082-2.972-5.48-6.909-5.382-11.84c0.183-6.759,0.551-13.437,0.915-20.206
			c0.052-0.732,0.104-1.465,0.247-2.201c1.993,1.442,4.394,3.684,5.521,5.994c1.733,3.372,3.406,2.279,6.953,2.088
			c1.818-0.099,3.571,0.263,5.304,0.26c1.279,0.022,2.148-0.754,3.205-1.449c1.051-0.785,2.23-1.563,3.415-2.367l4.656-3.541
			c-0.361,1.752,0.015,3.646-0.073,5.385c-0.135,2.561-0.548,5.045-0.684,7.607c-0.191,3.202,0.187,6.83-0.46,10.057
			c-0.495,2.672-2.193,6.686-4.388,8.264c-1.319,0.892-2.888,2.254-4.309,2.969c-1.512,0.719-3.537,0.373-5.25,0.738
			C58.43-46.725,55.409-46.926,52.275-49.22z M69.184-62.082c5.743-0.036,4.328-9.354-1.037-9.064l0.393,0.526
			C63.872-70.915,64.074-62.078,69.184-62.082z M53.672-70.638l0.768,0.688c-3.871-2.437-7.127,4.854-2.729,6.896
			C58.263-59.941,59.285-71.397,53.672-70.638z M57.158-51.957c1.625-0.086,2.752-0.916,3.42-1.609
			c0.104,0.591,0.278,1.003,0.556,1.107c1.364,0.516,4.283,1.422,6.937-3.021c0,0-0.864-0.496-1.008-0.238
			c-0.141,0.258-1.542,2.312-2.891,2.259c0,0-1.842,0.819-2.438,0.168c-0.646-0.704-0.696-4.549-0.55-6.591
			c1.059-0.344,3.104-1.168,2.146-2.135c-1.268-1.281-5.266-0.209-5.266-0.209c-0.127,1.533,2.537,2.518,2.537,2.518
			s0.047-0.012,0.125-0.033c-0.138,1.258-0.316,3.266-0.266,4.859c-1.059,1.458-2.102,2.096-3.734,2.184
			c-1.408,0.076-2.734-2.516-2.734-2.516s0.335-0.176-0.462-0.019C52.732-55.076,54.318-51.805,57.158-51.957z"/>
		<path fill="#F2D03A" d="M55.742-67.975l0.086-0.096c-0.924-0.223-2.414-0.781-3.289-0.095c-0.875,0.685-0.695,2.317,0.071,3.005
			C54.437-63.434,57.967-65.631,55.742-67.975z"/>
		<path fill="#F2D03A" d="M69.791-64.537c3.591,0.627,2.118-4.675-0.777-4.244l0.92,0.132
			C67.009-68.764,67.396-64.955,69.791-64.537z"/>
		<path fill="#F2D03A" d="M113.776-108.446c2.998,2.194,5.898,2.463,9.224,1.837v-4.945c-0.131-0.045-0.255-0.088-0.365-0.131
			c-0.277-0.104-0.453-0.517-0.557-1.107c-0.668,0.693-1.795,1.523-3.42,1.609c-2.84,0.152-4.425-3.119-3.627-3.276
			c0.797-0.157,0.461,0.019,0.461,0.019s1.327,2.592,2.734,2.516c1.633-0.088,2.676-0.726,3.734-2.184
			c-0.05-1.594,0.129-3.602,0.266-4.859c-0.078,0.021-0.124,0.033-0.124,0.033s-2.665-0.984-2.538-2.518
			c0,0,1.853-0.496,3.436-0.409V-124h-4.579c-0.74,1.801-2.501,3.007-5.21,1.721c-0.873-0.406-1.439-1.02-1.765-1.721h-2.929
			c-0.045,1.236-0.09,2.473-0.123,3.714C108.295-115.355,109.693-111.418,113.776-108.446z"/>
		<path fill="#F2D03A" d="M123-112.983v-6.233c-0.111,0.039-0.219,0.076-0.316,0.107C122.559-117.35,122.579-114.258,123-112.983z"
			/>
		<path fill="#F2D03A" d="M116.725-124h-2.034C115.352-123.685,116.105-123.723,116.725-124z"/>
		<path fill="#F2D03A" d="M115.078-12.699c-1.129-2.311-3.529-4.552-5.521-5.994c-0.145,0.736-0.195,1.469-0.247,2.201
			c-0.298,5.526-0.593,10.994-0.792,16.492h2.929c-1.312-2.834,1.391-7.129,4.493-5.176l-0.768-0.688
			c3.293-0.446,4.299,3.31,3.249,5.864H123v-10.612c-0.322-0.007-0.644-0.017-0.969,0.001
			C118.484-10.42,116.811-9.327,115.078-12.699z"/>
		<path fill="#F2D03A" d="M117.243-3.201l0.085-0.096c-0.924-0.223-2.414-0.781-3.288-0.095c-0.875,0.685-0.696,2.317,0.071,3.005
			c0.178,0.168,0.375,0.289,0.579,0.387h2.034C117.871-0.514,118.545-1.829,117.243-3.201z"/>
		<path fill="#F2D03A" d="M5.697-107.428c1.422-0.715,2.99-2.077,4.309-2.969c2.195-1.578,3.894-5.592,4.389-8.264
			c0.342-1.709,0.396-3.529,0.4-5.34h-3.578c-0.383,1.498-1.502,2.679-3.533,2.691c-1.879,0.002-3.088-1.195-3.641-2.691H0v2.138
			c0.742,0.041,1.426,0.208,1.83,0.618c0.87,0.879-0.734,1.637-1.83,2.027v6.233c0.067,0.205,0.145,0.367,0.234,0.465
			c0.597,0.651,2.438-0.168,2.438-0.168c1.35,0.054,2.75-2.001,2.892-2.259c0.144-0.258,1.007,0.238,1.007,0.238
			c-2.438,4.082-5.096,3.649-6.57,3.152v4.945c0.15-0.028,0.296-0.048,0.447-0.08C2.16-107.055,4.186-106.709,5.697-107.428z"/>
		<path fill="#F2D03A" d="M9.846-124H7.622c0.202,0.107,0.423,0.193,0.669,0.236C8.999-123.641,9.504-123.752,9.846-124z"/>
		<path fill="#F2D03A" d="M14.854-4.717c0.137-2.562,0.549-5.047,0.684-7.607c0.088-1.738-0.287-3.633,0.074-5.385l-4.656,3.541
			c-1.185,0.804-2.365,1.582-3.416,2.367c-1.057,0.695-1.926,1.472-3.205,1.449C2.912-10.35,1.475-10.579,0-10.612V0h4.043
			C3.091-2.572,4.089-6.033,7.04-5.847L6.646-6.373C10.115-6.56,11.916-2.74,11.217,0h3.578C14.799-1.609,14.764-3.211,14.854-4.717
			z"/>
		<path fill="#F2D03A" d="M7.515-4.008l0.919,0.132C5.811-3.979,5.857-0.932,7.622,0h2.224C11.24-1.01,9.839-4.354,7.515-4.008z"/>
		<polygon fill="#F2D03A" points="31,-97 31,-100 25,-100 25,-97 		"/>
		<polygon fill="#F2D03A" points="22,-100 17,-100 17,-97 22,-97 		"/>
		<polygon fill="#F2D03A" points="25,-105 22,-105 22,-100 25,-100 		"/>
		<polygon fill="#F2D03A" points="22,-91 25,-91 25,-97 22,-97 		"/>
		<polygon fill="#F2D03A" points="25,-97 25,-100 22,-100 22,-97 		"/>
		<polygon fill="#F2D03A" points="69,-123 69,-124 63,-124 63,-123 		"/>
		<polygon fill="#F2D03A" points="60,-123 60,-124 55,-124 55,-123 		"/>
		<polygon fill="#F2D03A" points="60,-117 63,-117 63,-123 60,-123 		"/>
		<polygon fill="#F2D03A" points="63,-123 63,-124 60,-124 60,-123 		"/>
		<polygon fill="#F2D03A" points="55,-2 55,0 60,0 60,-2 		"/>
		<polygon fill="#F2D03A" points="69,-2 63,-2 63,0 69,0 		"/>
		<polygon fill="#F2D03A" points="60,-7 60,-2 63,-2 63,-7 		"/>
		<polygon fill="#F2D03A" points="60,-2 60,0 63,0 63,-2 		"/>
		<polygon fill="#F2D03A" points="89,-35 83,-35 83,-32 89,-32 		"/>
		<polygon fill="#F2D03A" points="97,-32 97,-35 92,-35 92,-32 		"/>
		<polygon fill="#F2D03A" points="89,-26 92,-26 92,-32 89,-32 		"/>
		<polygon fill="#F2D03A" points="92,-40 89,-40 89,-35 92,-35 		"/>
		<polygon fill="#F2D03A" points="92,-32 92,-35 89,-35 89,-32 		"/>
		<polygon fill="#F2D03A" points="18,-30 32,-30 32,-33 18,-33 		"/>
		<polygon fill="#F2D03A" points="7,-68 0,-68 0,-65 7,-65 		"/>
		<polygon fill="#F2D03A" points="117,-65 123,-65 123,-68 117,-68 		"/>
		<polygon fill="#F2D03A" points="97,-100 83,-100 83,-97 97,-97 		"/>
	</g>
</pattern>
<g id="background_1_" display="none">
	
		<radialGradient id="SVGID_1_" cx="81.7378" cy="76.4575" r="125.1691" gradientTransform="matrix(1.5953 0 0 1.3094 0.1631 -23.6521)" gradientUnits="userSpaceOnUse">
		<stop  offset="0" style="stop-color:#F6E867"/>
		<stop  offset="0.3095" style="stop-color:#F6E45F"/>
		<stop  offset="0.7616" style="stop-color:#F3D849"/>
		<stop  offset="1" style="stop-color:#F2D13B"/>
	</radialGradient>
	<rect x="0.056" y="-0.229" display="inline" fill="url(#SVGID_1_)" width="261.004" height="153.372"/>
	<pattern  id="SVGID_2_" xlink:href="#New_Pattern_4" patternTransform="matrix(0.3319 0 0 0.3392 -5360.1426 -5473.5981)">
	</pattern>
	<rect x="0.266" y="-0.252" display="inline" fill="url(#SVGID_2_)" width="260.918" height="153.418"/>
	<text transform="matrix(1 0 0 1 200.8672 143.6157)" display="inline"><tspan x="0" y="0" fill="#F6E867" font-family="'PlutoRegular'" font-size="5">Cat Math Do © </tspan><tspan x="40.274" y="0" fill="#F6E867" font-family="'PlutoRegular'" font-size="4">2014</tspan></text>
</g>
<g id="backup" display="none">
	
		<radialGradient id="SVGID_3_" cx="81.8613" cy="76.4575" r="125.1703" gradientTransform="matrix(1 0 0 1.3094 0 -23.6521)" gradientUnits="userSpaceOnUse">
		<stop  offset="0" style="stop-color:#F6E867"/>
		<stop  offset="0.3095" style="stop-color:#F6E45F"/>
		<stop  offset="0.7616" style="stop-color:#F3D849"/>
		<stop  offset="1" style="stop-color:#F2D13B"/>
	</radialGradient>
	<rect x="0.056" y="-0.229" display="inline" fill="url(#SVGID_3_)" width="163.611" height="153.372"/>
	<pattern  id="SVGID_4_" xlink:href="#New_Pattern_4" patternTransform="matrix(0.3319 0 0 0.3392 -5360.1426 -5473.5981)">
	</pattern>
	<rect x="0.266" y="-0.252" display="inline" fill="url(#SVGID_4_)" width="260.918" height="153.418"/>
	<path display="inline" fill="#DC5136" d="M261.144,0H151.5c8.218,48.924-1.142,98.108,2.894,147.143
		c0.043,1.621,0.076,4.32,0.106,6l106.646-1.422L261.144,0z"/>
	<path display="inline" fill="#F2623D" d="M261.144-0.229H155.55c6.926,49.124-2.654,98.248,0.089,147.372
		c0,1.622-0.037,4.321-0.052,6h105.557V-0.229z"/>
	<pattern  id="SVGID_5_" xlink:href="#New_Pattern" patternTransform="matrix(0.4482 0 0 0.4482 -4399.5576 -4588.1396)">
	</pattern>
	<path display="inline" fill="url(#SVGID_5_)" d="M261.184-0.287H155.51c6.932,49.161-2.656,98.322,0.089,147.483
		c0,1.623-0.037,4.324-0.052,6.005h105.637V-0.287z"/>
	<text transform="matrix(1 0 0 1 200.8672 143.6157)" display="inline"><tspan x="0" y="0" fill="#F6E867" font-family="'PlutoRegular'" font-size="5">Cat Math Do © </tspan><tspan x="40.274" y="0" fill="#F6E867" font-family="'PlutoRegular'" font-size="4">2014</tspan></text>
</g>
<g id="backup_copy" display="none">
	
		<radialGradient id="SVGID_6_" cx="81.8613" cy="76.4575" r="125.1703" gradientTransform="matrix(1 0 0 1.3094 0 -23.6521)" gradientUnits="userSpaceOnUse">
		<stop  offset="0" style="stop-color:#F6E867"/>
		<stop  offset="0.3095" style="stop-color:#F6E45F"/>
		<stop  offset="0.7616" style="stop-color:#F3D849"/>
		<stop  offset="1" style="stop-color:#F2D13B"/>
	</radialGradient>
	<rect x="0.056" y="-0.229" display="inline" fill="url(#SVGID_6_)" width="163.611" height="153.372"/>
	<pattern  id="SVGID_7_" xlink:href="#New_Pattern_4" patternTransform="matrix(0.3319 0 0 0.3392 -5360.1426 -5473.5981)">
	</pattern>
	<rect x="0.266" y="-0.252" display="inline" fill="url(#SVGID_7_)" width="260.918" height="153.418"/>
	<path display="inline" fill="#DC5136" d="M261.144,0H86.75c8.218,48.924-1.142,98.108,2.894,147.143
		c0.043,1.621,0.076,4.32,0.106,6l171.396-1.422L261.144,0z"/>
	<path display="inline" fill="#F2623D" d="M261.144-0.229H90.8c6.926,49.124-2.654,98.248,0.089,147.372
		c0,1.622-0.037,4.321-0.052,6h170.307V-0.229z"/>
	<pattern  id="SVGID_8_" xlink:href="#New_Pattern_2" patternTransform="matrix(0.4482 0 0 0.4482 -4411.4321 -4569.4248)">
	</pattern>
	<path display="inline" fill="url(#SVGID_8_)" d="M261.184-0.287H90.76c6.932,49.161-2.656,98.322,0.089,147.483
		c0,1.623-0.037,4.324-0.052,6.005h170.387V-0.287z"/>
	<text transform="matrix(1 0 0 1 200.8672 143.6157)" display="inline"><tspan x="0" y="0" fill="#F6E867" font-family="'PlutoRegular'" font-size="5">Cat Math Do © </tspan><tspan x="40.274" y="0" fill="#F6E867" font-family="'PlutoRegular'" font-size="4">2014</tspan></text>
</g>
<g id="_x2D_------">
</g>
<g id="bg">
	
		<radialGradient id="SVGID_9_" cx="81.9844" cy="76.4575" r="125.1711" gradientTransform="matrix(1.5994 0 0 1.3094 -0.2275 -23.6521)" gradientUnits="userSpaceOnUse">
		<stop  offset="0" style="stop-color:#F6E867"/>
		<stop  offset="0.3095" style="stop-color:#F6E45F"/>
		<stop  offset="0.7616" style="stop-color:#F3D849"/>
		<stop  offset="1" style="stop-color:#F2D13B"/>
	</radialGradient>
	<rect x="0.056" y="-0.229" fill="url(#SVGID_9_)" width="261.683" height="153.372"/>
	<pattern  id="SVGID_10_" xlink:href="#New_Pattern_5" patternTransform="matrix(0.3319 0 0 0.3392 -5360.1426 -5473.5981)">
	</pattern>
	<rect x="0.266" y="-0.252" fill="url(#SVGID_10_)" width="260.918" height="153.418"/>
</g>
<g id="borders" display="none">
	<g display="inline">
		<defs>
			<rect id="SVGID_11_" width="261.144" height="153.143"/>
		</defs>
		<clipPath id="SVGID_12_">
			<use xlink:href="#SVGID_11_"  overflow="visible"/>
		</clipPath>
		
			<rect x="4.5" y="4.416" clip-path="url(#SVGID_12_)" fill="none" stroke="#363895" stroke-dasharray="3,3" width="252" height="144"/>
		<path clip-path="url(#SVGID_12_)" fill="#EF3839" d="M251,143H10V10h241V143z M252,8.999H9v135h243V8.999z"/>
		<path clip-path="url(#SVGID_12_)" fill="#51B848" d="M1,1h259.125v151.124H1V1z M0,153.124h261.125V0H0V153.124z"/>
	</g>
</g>
<g id="Layer_8">
	<path fill="#91BE49" d="M32.612,87.226l-2.194-0.585c0,0,1.243,1.512,1.316,1.536s0.975-0.22,0.975-0.22L32.612,87.226z"/>
	<polygon fill="#91BE49" points="79.578,98.956 77.516,98.081 80.047,96.377 	"/>
	<polygon fill="#91BE49" points="93.844,37.924 95.859,38.799 92.453,40.768 	"/>
	<polygon fill="#91BE49" points="107.922,97.315 105.844,96.44 109.453,93.799 	"/>
	<polygon fill="#91BE49" points="122.797,51.362 124.844,52.206 120.031,55.065 	"/>
	<polygon fill="#91BE49" points="150.183,52.648 152.169,53.682 147.184,56.516 	"/>
	<polygon fill="#91BE49" points="155.229,80.095 157.257,81.151 154.278,83.343 	"/>
	<polygon fill="#91BE49" points="158.039,95.963 157.219,96.948 156.104,95.078 	"/>
	<polygon fill="#91BE49" points="165.781,69.768 162.203,72.252 159.906,68.534 165.391,66.487 	"/>
	<polygon fill="#91BE49" points="167.479,112.897 165.5,111.881 169.627,109.97 	"/>
	<polygon fill="#91BE49" points="244.012,40.097 246.134,41.277 240.756,44.72 	"/>
	<path fill="#91BE49" d="M226.037,78.215c0,0-2.123-1.085-2.028-1.227s4.859-2.783,4.859-2.783S225.896,78.215,226.037,78.215z"/>
</g>
<g id="Layer_10">
	<path fill="#91BE49" stroke="#91BE49" stroke-width="2" stroke-miterlimit="10" d="M40.595,83.583
		c-9.289-0.785-14.053-4.318-15.657-12.044c-2.096-10.089,4.767-19.407,19.191-22.403c7.566-1.572,15.7-1.206,20.431,0.195
		l-1.812,15.424c-4.908-1.857-11.576-2.693-16.542-1.662c-3.153,0.655-4.484,2.166-4.124,3.9c0.245,1.182,1.086,1.665,3.519,1.899
		l9.243,0.958c10.84,1.12,15.904,4.92,17.361,11.935c2.195,10.562-4.571,19.943-18.84,22.907
		c-8.118,1.686-16.794,0.693-20.829-0.525l0.974-15.497c5.039,2.08,12.104,3.244,17.307,2.164c3.231-0.672,4.463-2.658,4.104-4.39
		c-0.278-1.34-1.813-2.007-4.072-2.195L40.595,83.583z"/>
	<path fill="#91BE49" stroke="#91BE49" stroke-width="2" stroke-miterlimit="10" d="M123.878,53.285
		c-0.171,9.768-2.662,17.006-7.796,21.731l11.142,17.269l0.169,2.974l-18.89,1.072l-7.94-14.868c-1.04,0.14-2.084,0.2-3.211,0.263
		l0.863,15.191l-17.682,1.005l-3.244-57.066l17.683-1.006l1.576,27.73c5.944-0.418,8.901-2.279,9.646-13.289L123.878,53.285z"/>
	<path fill="#91BE49" stroke="#91BE49" stroke-width="2" stroke-miterlimit="10" d="M142.48,36.207
		c5.558,0.012,9.256,1.953,9.244,7.508s-3.719,7.559-9.276,7.548c-5.634-0.012-9.413-2.032-9.402-7.588
		C133.059,38.12,136.846,36.195,142.48,36.207z M151.164,79.617c-0.002,1.612,0.156,3.142,1.844,3.146
		c1.692,0.003,3.868-0.878,3.707-0.797l0.373,14.009c0.081-0.082-5.396,1.598-11.597,1.585c-7.405-0.016-12.069-3.566-12.048-13.55
		l0.062-29.387l17.712,0.038L151.164,79.617z"/>
	<path fill="#91BE49" stroke="#91BE49" stroke-width="2" stroke-miterlimit="10" d="M168.484,111.937l0.084-40.011
		c0.004-1.69-0.156-3.14-1.844-3.143c-1.692-0.004-3.868,0.796-3.786,0.795l-0.291-14.008c-0.082,0.08,5.315-1.6,11.515-1.586
		c5.232,0.012,9.012,1.63,10.854,6.062c2.503-3.456,6.294-6.024,12.009-6.013c11.11,0.023,18.898,9.138,18.871,21.937
		c-0.026,12.642-7.854,21.72-18.963,21.697c-4.51-0.008-8.129-1.788-10.698-4.371l-0.04,18.679L168.484,111.937z M186.282,70.917
		l-0.021,9.819c1.77,1.213,3.779,1.62,5.472,1.623c3.702,0.01,6.122-2.321,6.13-6.426c0.01-4.187-2.319-6.607-6.104-6.615
		C189.908,69.315,187.572,69.955,186.282,70.917z"/>
	<path fill="#91BE49" stroke="#91BE49" stroke-width="2.1331" stroke-miterlimit="10" d="M233.451,81.291
		c6.603,0.364,10.337,4.355,9.993,10.612c-0.349,6.344-4.49,9.727-11.093,9.362c-6.687-0.366-10.262-4.173-9.914-10.517
		C222.783,84.489,226.764,80.922,233.451,81.291z M226.113,41.161l18.861,1.036l-4.978,35.758l-12.86-0.709L226.113,41.161z"/>
	<path fill="none" stroke="#91BE49" stroke-width="2" stroke-miterlimit="10" d="M38.434,83.009
		c-9.291-0.784-14.053-4.316-15.658-12.042c-2.095-10.087,4.767-19.408,19.19-22.404c7.568-1.572,15.701-1.205,20.433,0.196
		l-1.812,15.423c-4.908-1.858-11.578-2.693-16.543-1.662c-3.152,0.654-4.483,2.166-4.124,3.9c0.245,1.181,1.087,1.664,3.52,1.9
		l9.244,0.957c10.838,1.119,15.903,4.92,17.361,11.934c2.193,10.563-4.573,19.943-18.841,22.906
		c-8.118,1.686-16.795,0.695-20.829-0.523l0.975-15.496c5.037,2.078,12.103,3.24,17.305,2.159c3.231-0.671,4.464-2.653,4.104-4.388
		c-0.278-1.339-1.814-2.006-4.072-2.195L38.434,83.009z"/>
	<path fill="none" stroke="#91BE49" stroke-width="2" stroke-miterlimit="10" d="M121.823,52.401
		c-0.17,9.767-2.661,17.004-7.795,21.73l11.141,17.27l0.17,2.971l-18.889,1.076l-7.94-14.869c-1.041,0.141-2.085,0.199-3.211,0.264
		l0.863,15.19L78.48,97.038l-3.245-57.067l17.683-1.005l1.575,27.73c5.944-0.419,8.902-2.281,9.648-13.289L121.823,52.401z"/>
	<path fill="none" stroke="#91BE49" stroke-width="2" stroke-miterlimit="10" d="M140.483,35.203
		c5.555,0.012,9.255,1.951,9.243,7.506c-0.012,5.556-3.719,7.562-9.276,7.55c-5.634-0.013-9.413-2.033-9.4-7.589
		C131.061,37.115,134.848,35.191,140.483,35.203z M149.168,78.615c-0.005,1.61,0.154,3.139,1.844,3.144
		c1.69,0.004,3.866-0.879,3.704-0.799l0.375,14.011c0.079-0.082-5.398,1.597-11.598,1.583c-7.405-0.015-12.067-3.566-12.048-13.547
		l0.062-29.387l17.712,0.037L149.168,78.615z"/>
	<path fill="none" stroke="#91BE49" stroke-width="2" stroke-miterlimit="10" d="M166.486,110.934l0.084-40.012
		c0.004-1.691-0.154-3.141-1.844-3.145c-1.691-0.002-3.866,0.797-3.784,0.798l-0.294-14.009c-0.083,0.081,5.316-1.6,11.516-1.586
		c5.231,0.011,9.013,1.63,10.854,6.061c2.503-3.456,6.294-6.024,12.009-6.012c11.109,0.023,18.898,9.138,18.87,21.938
		c-0.026,12.64-7.854,21.717-18.962,21.692c-4.51-0.008-8.128-1.785-10.698-4.367l-0.039,18.678L166.486,110.934z M184.285,69.913
		l-0.021,9.821c1.77,1.212,3.779,1.618,5.47,1.623c3.706,0.006,6.124-2.324,6.133-6.43c0.009-4.186-2.321-6.604-6.103-6.611
		C187.91,68.311,185.574,68.951,184.285,69.913z"/>
	<path fill="none" stroke="#91BE49" stroke-width="2.1331" stroke-miterlimit="10" d="M231.379,80.109
		c6.603,0.362,10.338,4.354,9.994,10.61c-0.349,6.346-4.49,9.729-11.092,9.365c-6.688-0.367-10.262-4.176-9.913-10.519
		C220.713,83.306,224.691,79.741,231.379,80.109z M224.042,39.977l18.861,1.038l-4.977,35.758l-12.86-0.709L224.042,39.977z"/>
	<path fill="#1E9647" stroke="#F2F2F2" stroke-width="0.5" stroke-miterlimit="10" d="M38.434,83.009
		c-9.291-0.784-14.053-4.316-15.658-12.042c-2.095-10.087,4.767-19.408,19.19-22.404c7.568-1.572,15.701-1.205,20.433,0.196
		l-1.812,15.423c-4.908-1.858-11.578-2.693-16.543-1.662c-3.152,0.654-4.483,2.166-4.124,3.9c0.245,1.181,1.087,1.664,3.52,1.9
		l9.244,0.957c10.838,1.119,15.903,4.92,17.361,11.934c2.193,10.563-4.573,19.943-18.841,22.906
		c-8.118,1.686-16.795,0.695-20.829-0.523l0.975-15.496c5.037,2.078,12.103,3.24,17.305,2.159c3.231-0.671,4.464-2.653,4.104-4.388
		c-0.278-1.339-1.814-2.006-4.072-2.195L38.434,83.009z"/>
	<path fill="#1E9647" stroke="#F2F2F2" stroke-width="0.5" stroke-miterlimit="10" d="M121.823,52.401
		c-0.17,9.767-2.661,17.004-7.795,21.73l11.141,17.27l0.17,2.971l-18.889,1.076l-7.94-14.869c-1.041,0.141-2.085,0.199-3.211,0.264
		l0.863,15.19L78.48,97.038l-3.245-57.067l17.683-1.005l1.575,27.73c5.944-0.419,8.902-2.281,9.648-13.289L121.823,52.401z"/>
	<path fill="#1E9647" stroke="#F2F2F2" stroke-width="0.5" stroke-miterlimit="10" d="M140.483,35.203
		c5.555,0.012,9.255,1.951,9.243,7.506c-0.012,5.556-3.719,7.562-9.276,7.55c-5.634-0.013-9.413-2.033-9.4-7.589
		C131.061,37.115,134.848,35.191,140.483,35.203z M149.168,78.615c-0.005,1.61,0.154,3.139,1.844,3.144
		c1.69,0.004,3.866-0.879,3.704-0.799l0.375,14.011c0.079-0.082-5.398,1.597-11.598,1.583c-7.405-0.015-12.067-3.566-12.048-13.547
		l0.062-29.387l17.712,0.037L149.168,78.615z"/>
	<path fill="#1E9647" stroke="#F2F2F2" stroke-width="0.5" stroke-miterlimit="10" d="M166.486,110.934l0.084-40.012
		c0.004-1.691-0.154-3.141-1.844-3.145c-1.691-0.002-3.866,0.797-3.784,0.798l-0.294-14.009c-0.083,0.081,5.316-1.6,11.516-1.586
		c5.231,0.011,9.013,1.63,10.854,6.061c2.503-3.456,6.294-6.024,12.009-6.012c11.109,0.023,18.898,9.138,18.87,21.938
		c-0.026,12.64-7.854,21.717-18.962,21.692c-4.51-0.008-8.128-1.785-10.698-4.367l-0.039,18.678L166.486,110.934z M184.285,69.913
		l-0.021,9.821c1.77,1.212,3.779,1.618,5.47,1.623c3.706,0.006,6.124-2.324,6.133-6.43c0.009-4.186-2.321-6.604-6.103-6.611
		C187.91,68.311,185.574,68.951,184.285,69.913z"/>
	<path fill="#1E9647" stroke="#F2F2F2" stroke-width="0.5" stroke-miterlimit="10" d="M231.379,80.109
		c6.603,0.362,10.338,4.354,9.994,10.61c-0.349,6.346-4.49,9.729-11.092,9.365c-6.688-0.367-10.262-4.176-9.913-10.519
		C220.713,83.306,224.691,79.741,231.379,80.109z M224.042,39.977l18.861,1.038l-4.977,35.758l-12.86-0.709L224.042,39.977z"/>
</g>
</svg>
